<svg width="685" height="420" viewBox="0 0 685 420" fill="none" xmlns="http://www.w3.org/2000/svg">
<rect width="685" height="420" fill="#E5E5E5"/>
<g clip-path="url(#clip0_2340_5112)">
<rect x="-654.867" y="-206.072" width="1440" height="750" fill="#F7F8FA"/>
<g filter="url(#filter0_d_2340_5112)">
<rect x="-623.264" y="-93.0781" width="1378.4" height="606" rx="10" fill="white"/>
</g>
</g>
<rect x="-654.367" y="-205.572" width="1439" height="749" stroke="black"/>
<path d="M494.595 21.1427C497.106 18.6319 500.591 17.058 504.413 17.058H518.204C520.265 7.61434 528.697 0.494141 538.74 0.494141C548.783 0.494141 557.253 7.57686 559.276 17.058H562.986C566.809 17.058 570.294 18.5944 572.805 21.1427C575.315 23.6535 576.889 27.1387 576.889 30.9611C576.889 35.1957 574.978 38.9807 571.98 41.529C569.544 43.5901 566.434 44.8267 562.986 44.8267H504.376C500.553 44.8267 497.068 43.2903 494.557 40.742C492.047 38.2312 490.473 34.746 490.473 30.9236C490.51 27.1387 492.047 23.6535 494.595 21.1427Z" fill="#E9F3FC"/>
<path d="M325.771 42.0541C323.41 39.6932 320.15 38.2317 316.552 38.2317H303.586C301.638 29.3502 293.73 22.6797 284.287 22.6797C274.843 22.6797 266.898 29.3502 264.987 38.2317H261.502C257.905 38.2317 254.644 39.6932 252.283 42.0541C249.922 44.415 248.461 47.6753 248.461 51.2729C248.461 55.2452 250.26 58.8428 253.07 61.2037C255.356 63.1524 258.279 64.3141 261.502 64.3141H316.59C320.188 64.3141 323.448 62.8526 325.809 60.4917C328.17 58.1308 329.631 54.8705 329.631 51.2729C329.594 47.6753 328.132 44.415 325.771 42.0541Z" fill="#E9F3FC"/>
<path d="M684.142 218.897V292.76C616.987 281.143 526.711 270.5 421.107 270.5C188.014 270.5 5.21282 322.29 5.21282 322.29C-8.35302 293.285 6.67433 209.754 42.0505 190.192C77.4266 170.63 108.156 209.754 136.112 195.776C164.031 181.798 137.911 58.3558 180.819 50.4112C223.728 42.4665 250.71 121.913 303.137 121.913C355.564 121.913 347.619 42.4666 408.928 39.2812C470.237 36.0958 468.625 120.601 505.5 120.601C542.375 120.601 527.423 86.7242 585.246 85.7124C643.07 84.7006 658.997 205.332 683.767 218.635C683.88 218.748 684.03 218.823 684.142 218.897Z" fill="url(#paint0_linear_2340_5112)"/>
<path d="M141.995 332.371C135.287 332.184 127.979 329.823 128.129 319.03C128.279 308.237 136.111 306.551 136.936 298.494C137.723 290.437 137.76 282.904 141.995 282.829C146.23 282.754 143.531 286.202 145.517 289.95C147.466 293.697 151.289 298.494 150.539 305.464C149.79 312.472 154.774 315.133 154.511 320.866C154.249 326.562 150.689 332.633 141.995 332.371Z" fill="#DAEEFF"/>
<path d="M144.467 304.789C144.354 304.677 144.167 304.677 144.054 304.789C143.942 304.902 143.942 305.089 144.054 305.202C144.054 305.202 145.816 306.963 145.628 312.921C145.478 318.093 142.818 326.075 141.956 328.473C141.169 326.6 140.12 324.539 139.258 322.777C138.658 321.616 138.171 320.566 137.909 319.929C136.897 317.568 138.433 312.659 138.433 312.584C138.471 312.434 138.396 312.247 138.246 312.209C138.096 312.172 137.909 312.247 137.871 312.397C137.796 312.622 136.26 317.568 137.346 320.117C137.609 320.791 138.133 321.803 138.733 323.002C140.307 326.187 142.705 330.984 142.668 332.858C142.63 335.444 142.293 339.191 142.293 339.229C142.293 339.379 142.406 339.528 142.555 339.528C142.555 339.528 142.555 339.528 142.593 339.528C142.743 339.528 142.855 339.416 142.893 339.266C142.893 339.229 143.193 335.481 143.267 332.858C143.267 332.034 142.893 330.722 142.293 329.26C142.668 328.211 146.041 318.767 146.228 312.921C146.415 306.701 144.542 304.864 144.467 304.789Z" fill="#6AC1FF"/>
<path d="M557.44 237.071C552.606 236.921 547.397 235.235 547.51 227.478C547.622 219.721 553.243 218.521 553.805 212.713C554.367 206.904 554.405 201.508 557.44 201.47C560.476 201.395 558.565 203.906 559.951 206.567C561.375 209.265 564.111 212.675 563.549 217.697C563.024 222.719 566.584 224.63 566.397 228.752C566.209 232.874 563.661 237.259 557.44 237.071Z" fill="#DAEEFF"/>
<path d="M559.239 217.285C559.164 217.21 559.014 217.21 558.939 217.285C558.864 217.36 558.864 217.51 558.939 217.585C558.939 217.585 560.213 218.859 560.063 223.131C559.951 226.841 558.04 232.574 557.44 234.298C556.878 232.949 556.128 231.45 555.529 230.214C555.117 229.352 554.742 228.64 554.554 228.19C553.842 226.503 554.929 222.981 554.929 222.943C554.967 222.831 554.892 222.719 554.779 222.681C554.667 222.644 554.554 222.719 554.517 222.831C554.48 222.981 553.355 226.541 554.142 228.377C554.33 228.864 554.704 229.576 555.117 230.438C556.241 232.724 557.965 236.172 557.927 237.521C557.89 239.395 557.665 242.056 557.665 242.093C557.665 242.205 557.74 242.318 557.852 242.318C557.965 242.318 558.04 242.243 558.077 242.13C558.077 242.093 558.302 239.432 558.339 237.559C558.339 236.959 558.077 236.022 557.665 234.973C557.927 234.223 560.363 227.44 560.475 223.243C560.625 218.634 559.276 217.322 559.239 217.285Z" fill="#6AC1FF"/>
<path d="M179.994 244.792C176.059 244.679 171.787 243.293 171.862 236.96C171.975 230.626 176.547 229.652 177.034 224.893C177.521 220.133 177.521 215.749 179.994 215.711C182.468 215.674 180.894 217.698 182.055 219.871C183.217 222.045 185.428 224.893 185.016 228.978C184.566 233.1 187.489 234.636 187.339 238.009C187.152 241.382 185.091 244.942 179.994 244.792Z" fill="#DAEEFF"/>
<path d="M181.418 228.64C181.343 228.565 181.231 228.565 181.194 228.64C181.119 228.715 181.119 228.828 181.194 228.865C181.194 228.865 182.205 229.914 182.13 233.399C182.055 236.435 180.482 241.119 179.957 242.506C179.507 241.419 178.908 240.182 178.383 239.171C178.046 238.496 177.746 237.896 177.596 237.522C176.996 236.135 177.896 233.25 177.896 233.212C177.933 233.137 177.858 233.025 177.783 232.987C177.708 232.95 177.596 233.025 177.558 233.1C177.521 233.212 176.622 236.135 177.259 237.634C177.409 238.009 177.708 238.608 178.083 239.32C179.02 241.194 180.407 244.005 180.369 245.092C180.332 246.628 180.144 248.802 180.144 248.802C180.144 248.914 180.219 248.989 180.294 248.989C180.369 248.989 180.444 248.914 180.482 248.839C180.482 248.802 180.669 246.628 180.706 245.092C180.706 244.604 180.482 243.855 180.144 242.956C180.369 242.318 182.355 236.81 182.43 233.362C182.58 229.727 181.493 228.678 181.418 228.64Z" fill="#6AC1FF"/>
<path d="M611.48 354.217C604.585 353.992 597.128 351.594 597.278 340.539C597.428 329.484 605.485 327.76 606.309 319.478C607.133 311.196 607.171 303.514 611.48 303.402C615.79 303.327 613.054 306.849 615.078 310.709C617.102 314.569 620.999 319.441 620.25 326.636C619.5 333.794 624.597 336.567 624.334 342.413C624.035 348.296 620.399 354.517 611.48 354.217Z" fill="#DAEEFF"/>
<path d="M614.029 325.998C613.916 325.886 613.729 325.886 613.616 325.998C613.504 326.111 613.504 326.298 613.616 326.411C613.616 326.411 615.415 328.209 615.228 334.318C615.078 339.602 612.342 347.809 611.443 350.245C610.618 348.333 609.569 346.197 608.707 344.398C608.108 343.199 607.583 342.15 607.321 341.475C606.309 339.077 607.845 334.018 607.883 333.98C607.92 333.831 607.845 333.643 607.695 333.606C607.546 333.568 607.358 333.643 607.321 333.793C607.246 334.018 605.672 339.114 606.796 341.7C607.096 342.375 607.621 343.424 608.22 344.661C609.832 347.921 612.267 352.83 612.23 354.779C612.192 357.44 611.855 361.262 611.855 361.3C611.855 361.449 611.968 361.599 612.117 361.637C612.117 361.637 612.118 361.637 612.155 361.637C612.305 361.637 612.455 361.524 612.455 361.374C612.455 361.337 612.792 357.515 612.83 354.816C612.83 353.954 612.455 352.643 611.855 351.106C612.267 350.02 615.715 340.351 615.865 334.355C616.015 327.91 614.104 326.073 614.029 325.998Z" fill="#6AC1FF"/>
<mask id="mask0_2340_5112" style="mask-type:alpha" maskUnits="userSpaceOnUse" x="179" y="391" width="407" height="29">
<path d="M585.693 405.522C585.693 413.166 494.742 419.35 382.58 419.35C270.418 419.35 179.467 413.166 179.467 405.522C179.467 397.877 270.418 391.693 382.58 391.693C494.742 391.693 585.693 397.877 585.693 405.522Z" fill="url(#paint1_radial_2340_5112)"/>
</mask>
<g mask="url(#mask0_2340_5112)">
<path d="M585.695 405.522C585.695 413.166 494.743 419.35 382.582 419.35C270.42 419.35 179.469 413.166 179.469 405.522C179.469 397.877 270.42 391.693 382.582 391.693C494.743 391.693 585.695 397.877 585.695 405.522Z" fill="url(#paint2_radial_2340_5112)"/>
</g>
<path d="M177.288 321.11C178.97 330.318 182.196 337.47 186.917 342.472C191.685 347.473 198.603 349.997 207.718 349.997C218.235 349.997 226.182 346.305 231.698 338.919C237.167 331.534 239.925 322.232 239.925 311.013C239.925 299.981 237.354 290.679 232.212 283.107C227.07 275.534 219.03 271.701 208.139 271.701C202.997 271.701 198.556 272.356 194.77 273.618C188.132 276.002 183.131 280.396 179.765 286.846L141.762 285.07L156.907 165.873H275.637V201.913H187.525L179.812 249.077C186.356 244.824 191.451 241.972 195.097 240.617C201.221 238.326 208.746 237.204 217.534 237.204C235.39 237.204 250.909 243.188 264.185 255.201C277.46 267.214 284.098 284.649 284.098 307.601C284.098 327.56 277.694 345.37 264.933 361.029C252.125 376.688 233.006 384.541 207.531 384.541C187.01 384.541 170.183 379.025 157.001 368.041C143.819 357.009 136.48 341.397 134.984 321.156H177.288V321.11Z" fill="#407BFF"/>
<path d="M438.258 190.6C449.336 209.952 454.852 237.438 454.852 273.057C454.852 308.675 449.336 336.114 438.258 355.373C427.18 374.631 407.921 384.26 380.436 384.26C352.95 384.26 333.692 374.631 322.614 355.373C311.535 336.114 306.02 308.675 306.02 273.057C306.02 237.438 311.535 209.952 322.614 190.6C333.692 171.248 352.95 161.572 380.436 161.572C407.921 161.572 427.18 171.248 438.258 190.6ZM355.428 329.991C359.495 343.126 367.815 349.717 380.436 349.717C393.057 349.717 401.284 343.126 405.21 329.991C409.137 316.856 411.1 297.878 411.1 273.057C411.1 247.067 409.137 227.808 405.21 215.328C401.284 202.847 393.01 196.583 380.436 196.583C367.815 196.583 359.495 202.847 355.428 215.328C351.361 227.808 349.304 247.067 349.304 273.057C349.304 297.878 351.361 316.856 355.428 329.991Z" fill="#407BFF"/>
<path d="M607.752 190.6C618.831 209.952 624.346 237.438 624.346 273.057C624.346 308.675 618.831 336.114 607.752 355.373C596.674 374.631 577.416 384.26 549.93 384.26C522.445 384.26 503.186 374.631 492.108 355.373C481.029 336.114 475.514 308.675 475.514 273.057C475.514 237.438 481.029 209.952 492.108 190.6C503.186 171.248 522.445 161.572 549.93 161.572C577.416 161.572 596.721 171.248 607.752 190.6ZM524.922 329.991C528.989 343.126 537.309 349.717 549.93 349.717C562.551 349.717 570.778 343.126 574.704 329.991C578.631 316.856 580.594 297.878 580.594 273.057C580.594 247.067 578.631 227.808 574.704 215.328C570.778 202.847 562.504 196.583 549.93 196.583C537.309 196.583 528.989 202.847 524.922 215.328C520.855 227.808 518.799 247.067 518.799 273.057C518.845 297.878 520.855 316.856 524.922 329.991Z" fill="#407BFF"/>
<path d="M496.549 378.229L497.952 385.38H473.879L472.383 378.229H496.549Z" fill="#FFAA9D"/>
<path d="M497.956 385.383L499.078 390.992C499.172 391.366 498.891 391.693 498.517 391.693H471.546C471.219 391.693 470.985 391.366 471.126 391.039L473.837 385.383H497.956Z" fill="#0B2252"/>
<path d="M459.999 378.229L461.401 385.38H437.328L435.785 378.229H459.999Z" fill="#FFAA9D"/>
<path d="M461.402 385.383L462.524 390.992C462.617 391.366 462.337 391.693 461.963 391.693H434.992C434.664 391.693 434.431 391.366 434.571 391.039L437.282 385.383H461.402Z" fill="#0B2252"/>
<path d="M498.936 266.231C498.936 266.231 491.831 318.397 494.074 341.816C496.318 365.234 498.795 380.94 498.795 380.94H471.357C471.357 380.94 464.111 351.539 463.644 334.056C463.644 334.056 459.157 357.008 461.914 380.94H435.224C435.224 380.94 427.885 297.316 443.357 265.67L498.936 266.231Z" fill="url(#paint3_linear_2340_5112)"/>
<path d="M463.412 185.178C463.412 185.178 489.261 189.291 498.844 211.635C508.426 234.025 504.36 241.785 500.807 245.337C497.301 248.89 490.196 252.209 490.196 252.209L463.412 185.178Z" fill="url(#paint4_linear_2340_5112)"/>
<path d="M438.03 276.28C440.834 280.02 499.965 277.636 501.321 268.1C502.676 258.564 490.991 198.825 478.603 190.458C467.011 182.605 458.924 184.148 451.398 185.924C443.919 187.7 439.432 201.911 438.684 215.279C437.983 228.601 435.178 272.447 438.03 276.28Z" fill="url(#paint5_linear_2340_5112)"/>
<path d="M443.731 169.517L442.422 178.819L443.824 178.959C443.824 178.959 443.964 186.812 449.574 186.298C451.163 186.158 453.36 185.083 453.874 185.41C454.529 185.831 454.529 187.981 454.622 188.588C454.902 191.019 463.41 189.664 462.382 187.093C461.4 184.662 459.904 181.296 460.418 180.502C462.195 177.65 463.503 170.218 456.305 166.806C450.602 164.048 444.198 166.338 443.731 169.517Z" fill="#FFAA9D"/>
<path d="M462.429 187.095C461.447 184.664 459.951 181.299 460.465 180.504C460.465 180.504 456.679 184.991 453.688 185.365C453.781 185.365 453.874 185.365 453.921 185.412C454.576 185.833 454.576 187.983 454.669 188.591C454.996 190.975 463.457 189.619 462.429 187.095Z" fill="#FF9F91"/>
<path d="M455.791 175.641C459.39 175.454 456.212 183.026 460.138 183.26C464.065 183.494 467.804 175.36 465.747 168.442C463.737 161.571 458.268 161.244 452.986 161.477C447.704 161.711 441.113 163.254 440.646 167.18C439.477 176.576 451.584 170.078 451.958 172.976C452.238 175.22 452.332 181.624 450.041 181.531C447.751 181.39 445.694 179.24 443.824 179.521C442.749 179.661 438.402 191.627 445.741 192.936C452.986 194.245 455.651 188.028 454.763 182.559C454.015 177.37 454.061 175.734 455.791 175.641Z" fill="#14336A"/>
<path d="M379.972 203.501C379.972 203.501 373.989 193.077 372.82 188.776C371.652 184.429 371.231 182.513 372.259 182.279C373.288 182.045 379.084 189.477 380.112 189.337C381.141 189.15 381.281 187.421 382.45 187.234C383.618 187.047 385.768 194.759 387.171 194.993C388.479 195.227 381.795 203.36 379.972 203.501Z" fill="#FFAA9D"/>
<path d="M387.732 192.002L378.383 202.8C378.383 202.8 392.686 230.472 421.341 231.173C449.995 231.921 474.629 216.683 474.021 198.733C473.553 184.523 448.919 195.274 440.038 199.668C431.157 204.015 414.095 210.933 387.732 192.002Z" fill="url(#paint6_linear_2340_5112)"/>
<defs>
<filter id="filter0_d_2340_5112" x="-671.264" y="-139.078" width="1474.4" height="702" filterUnits="userSpaceOnUse" color-interpolation-filters="sRGB">
<feFlood flood-opacity="0" result="BackgroundImageFix"/>
<feColorMatrix in="SourceAlpha" type="matrix" values="0 0 0 0 0 0 0 0 0 0 0 0 0 0 0 0 0 0 127 0" result="hardAlpha"/>
<feOffset dy="2"/>
<feGaussianBlur stdDeviation="24"/>
<feColorMatrix type="matrix" values="0 0 0 0 0 0 0 0 0 0 0 0 0 0 0 0 0 0 0.04 0"/>
<feBlend mode="normal" in2="BackgroundImageFix" result="effect1_dropShadow_2340_5112"/>
<feBlend mode="normal" in="SourceGraphic" in2="effect1_dropShadow_2340_5112" result="shape"/>
</filter>
<linearGradient id="paint0_linear_2340_5112" x1="342.221" y1="60.2164" x2="342.221" y2="234.319" gradientUnits="userSpaceOnUse">
<stop stop-color="#E9F3FC"/>
<stop offset="1" stop-color="white"/>
</linearGradient>
<radialGradient id="paint1_radial_2340_5112" cx="0" cy="0" r="1" gradientUnits="userSpaceOnUse" gradientTransform="translate(382.578 405.521) scale(210.439 612.034)">
<stop stop-color="white"/>
<stop offset="0.9872"/>
</radialGradient>
<radialGradient id="paint2_radial_2340_5112" cx="0" cy="0" r="1" gradientUnits="userSpaceOnUse" gradientTransform="translate(382.58 405.521) scale(210.439 612.034)">
<stop stop-color="#D0DFF3"/>
<stop offset="0.9872" stop-color="#D0DFF3"/>
</radialGradient>
<linearGradient id="paint3_linear_2340_5112" x1="465.746" y1="383.129" x2="466.874" y2="306.732" gradientUnits="userSpaceOnUse">
<stop stop-color="#14336D"/>
<stop offset="0.9662" stop-color="#0E2253"/>
</linearGradient>
<linearGradient id="paint4_linear_2340_5112" x1="483.742" y1="212.455" x2="475.237" y2="243.474" gradientUnits="userSpaceOnUse">
<stop stop-color="#3162DF"/>
<stop offset="0.9649" stop-color="#173DB8"/>
</linearGradient>
<linearGradient id="paint5_linear_2340_5112" x1="485.52" y1="218.512" x2="426.934" y2="271.52" gradientUnits="userSpaceOnUse">
<stop stop-color="#3162DF"/>
<stop offset="0.9649" stop-color="#173DB8"/>
</linearGradient>
<linearGradient id="paint6_linear_2340_5112" x1="434.734" y1="194.134" x2="395.258" y2="243.334" gradientUnits="userSpaceOnUse">
<stop stop-color="#3162DF"/>
<stop offset="0.9649" stop-color="#173DB8"/>
</linearGradient>
<clipPath id="clip0_2340_5112">
<rect x="-654.867" y="-206.072" width="1440" height="750" fill="white"/>
</clipPath>
</defs>
</svg>
