<svg width="31" height="28" viewBox="0 0 31 28" fill="none" xmlns="http://www.w3.org/2000/svg">
<path d="M22.7042 3.09461C18.3115 -0.454348 11.2656 -0.0425947 7.31369 3.93604L5.84824 2.47059H0V4.29412H5.09294L6.0946 5.29579C1.64367 10.8747 3.56603 19.5929 9.76658 22.8708L7.70052 26.1765H0V28H8.71118L11.4386 23.6361C23.2854 27.795 32.5905 13.3939 24.0639 4.3137L25.9071 2.47059H31V0.647064H25.1518L22.7042 3.09461ZM15.5 14.3235C14.4945 14.3235 13.6765 13.5055 13.6765 12.5C13.7681 10.0842 17.2322 10.0848 17.3235 12.5C17.3235 13.506 16.5096 14.3235 15.5 14.3235ZM9.38473 8.58586L10.6742 7.29644L8.60299 5.22528C10.1947 3.7154 12.2799 2.72145 14.5882 2.51241V8.96832C13.3085 9.29892 12.2989 10.3085 11.9684 11.5882H5.51247C5.68036 9.73389 6.35494 8.02385 7.39654 6.59767L9.38473 8.58586ZM12.4309 22.0485L13.5378 20.2774L11.9915 19.3109L10.7341 21.3228C7.85497 19.7614 5.8221 16.8315 5.51247 13.4118H11.9684C12.5083 15.6915 15.3136 16.8974 17.353 15.6424L21.9182 20.2076C19.3684 22.3885 15.6164 23.1048 12.4309 22.0485ZM23.2076 18.9182L18.6424 14.3531C18.8165 14.0591 18.9474 13.7427 19.0323 13.4118H25.4881C25.3061 15.4454 24.5166 17.3516 23.2076 18.9182ZM25.4875 11.5882H19.0316C18.701 10.3085 17.6915 9.29892 16.4118 8.96838V2.51247C18.2661 2.68036 19.9761 3.35494 21.4023 4.39654L19.4141 6.38468L20.7036 7.6741L22.7747 5.60293C24.2845 7.19469 25.2785 9.27984 25.4875 11.5882Z" fill="black"/>
</svg>
