<svg width="30" height="26" viewBox="0 0 30 26" fill="none" xmlns="http://www.w3.org/2000/svg">
<path fill-rule="evenodd" clip-rule="evenodd" d="M12.1875 2.04291C5.71541 2.04291 0.46875 7.28957 0.46875 13.7617C0.46875 20.2338 5.71541 25.4804 12.1875 25.4804C18.6596 25.4804 23.9062 20.2338 23.9062 13.7617C23.9062 13.5639 23.9012 13.3673 23.8915 13.172C23.8186 13.1743 23.7454 13.1759 23.6719 13.1759C23.0947 13.1759 22.5345 13.1037 21.9994 12.9683C22.0202 13.23 22.0313 13.4946 22.0313 13.7617C22.0313 16.124 21.1989 18.2917 19.8117 19.9882C18.6209 16.941 15.6567 14.782 12.1876 14.782C8.71928 14.782 5.75496 16.9414 4.56346 19.9883C3.17619 18.2917 2.34375 16.124 2.34375 13.7617C2.34375 8.3251 6.75094 3.91791 12.1875 3.91791C13.9289 3.91791 15.5643 4.37067 16.9835 5.16403C17.0987 4.52623 17.303 3.91944 17.5828 3.35676C15.9679 2.51764 14.1332 2.04291 12.1875 2.04291ZM12.1876 5.99799C14.4727 5.99799 16.3252 7.85049 16.3252 10.1356C16.3252 12.4207 14.4727 14.2732 12.1876 14.2732C9.90252 14.2732 8.05002 12.4207 8.05002 10.1356C8.05002 7.85049 9.90246 5.99799 12.1876 5.99799ZM23.6719 0.519592C26.9079 0.519592 29.5312 3.14295 29.5312 6.37897C29.5312 9.61504 26.9079 12.2383 23.6719 12.2383C20.4358 12.2383 17.8125 9.61504 17.8125 6.37897C17.8125 3.14295 20.4359 0.519592 23.6719 0.519592ZM22.6508 7.40008H20.7069C20.1446 7.40008 19.6858 6.94129 19.6858 6.37897C19.6858 5.81664 20.1446 5.35785 20.7069 5.35785H22.6508V3.41401C22.6508 2.85168 23.1096 2.39289 23.6719 2.39289C24.2341 2.39289 24.693 2.85168 24.693 3.41401V5.35791H26.6369C27.1992 5.35791 27.658 5.8167 27.658 6.37903C27.658 6.94135 27.1992 7.40014 26.6369 7.40014H24.693V9.34405C24.693 9.90637 24.2342 10.3652 23.6719 10.3652C23.1096 10.3652 22.6508 9.90637 22.6508 9.34405V7.40008Z" fill="black"/>
</svg>
