<svg width="16" height="16" viewBox="0 0 16 16" fill="none" xmlns="http://www.w3.org/2000/svg">
<path d="M14.3606 1.6394C13.3033 0.582275 11.8977 0 10.4026 0C8.90747 0 7.50195 0.582275 6.4447 1.6394C5.38745 2.69666 4.8053 4.10229 4.8053 5.59741C4.8053 6.93518 5.27148 8.20129 6.12683 9.21021L4.99512 10.3419C4.41492 10.0428 3.68311 10.1361 3.19739 10.6218L0.45166 13.3677C0.1604 13.6589 0 14.0461 0 14.458C0 14.8699 0.1604 15.2571 0.45166 15.5483C0.752319 15.8489 1.14709 15.9993 1.54199 15.9993C1.93689 15.9993 2.33167 15.8489 2.63232 15.5483L5.37817 12.8025C5.66943 12.5114 5.82983 12.1241 5.82983 11.7122C5.82983 11.4618 5.77051 11.2205 5.65857 11.0044L6.78979 9.87305C7.79883 10.7285 9.06494 11.1947 10.4027 11.1947C11.8978 11.1947 13.3035 10.6124 14.3606 9.5553C15.4177 8.49805 16 7.09253 16 5.59729C16 4.10229 15.4177 2.69666 14.3606 1.6394ZM4.71521 12.1396L1.96936 14.8855C1.73376 15.1211 1.35022 15.1211 1.1145 14.8855C1.00037 14.7712 0.9375 14.6195 0.9375 14.458C0.9375 14.2965 1.00037 14.1448 1.1145 14.0305L3.86035 11.2848C4.09595 11.0491 4.47949 11.0491 4.71521 11.2848C4.95093 11.5205 4.95093 11.9039 4.71521 12.1396ZM13.6976 8.89233C12.8175 9.77246 11.6473 10.2572 10.4026 10.2572C9.15796 10.2572 7.98779 9.77246 7.10767 8.89233C6.22754 8.01221 5.7428 6.84204 5.7428 5.59741C5.7428 4.35266 6.22754 3.1825 7.10767 2.30237C7.98779 1.42224 9.15796 0.9375 10.4026 0.9375C11.6473 0.9375 12.8175 1.42224 13.6976 2.30237C14.5778 3.1825 15.0625 4.35266 15.0625 5.59729C15.0625 6.84204 14.5778 8.01221 13.6976 8.89233Z" fill="#92929D"/>
<path d="M8.02759 5.62854C7.7688 5.62854 7.55884 5.83838 7.55884 6.09729V7.59741C7.55884 7.85632 7.7688 8.06616 8.02759 8.06616C8.2865 8.06616 8.49634 7.85632 8.49634 7.59741V6.09729C8.49634 5.83838 8.2865 5.62854 8.02759 5.62854Z" fill="#92929D"/>
<path d="M9.59009 4.06604C9.3313 4.06604 9.12134 4.27588 9.12134 4.53479V7.59741C9.12134 7.85632 9.3313 8.06616 9.59009 8.06616C9.849 8.06616 10.0588 7.85632 10.0588 7.59741V4.53479C10.0588 4.27588 9.849 4.06604 9.59009 4.06604Z" fill="#92929D"/>
<path d="M11.1526 4.69104C10.8938 4.69104 10.6838 4.90088 10.6838 5.15979V7.59741C10.6838 7.85632 10.8938 8.06616 11.1526 8.06616C11.4115 8.06616 11.6213 7.85632 11.6213 7.59741V5.15979C11.6213 4.90088 11.4115 4.69104 11.1526 4.69104Z" fill="#92929D"/>
<path d="M12.7151 3.12854C12.4563 3.12854 12.2463 3.33838 12.2463 3.59729V7.59741C12.2463 7.85632 12.4563 8.06616 12.7151 8.06616C12.974 8.06616 13.1838 7.85632 13.1838 7.59741V3.59729C13.1838 3.33838 12.974 3.12854 12.7151 3.12854Z" fill="#92929D"/>
</svg>
