<svg width="94" height="20" viewBox="0 0 94 20" fill="none" xmlns="http://www.w3.org/2000/svg">
<path d="M34.033 15H36.386L33.084 5.874H30.51L27.208 15H29.535L30.081 13.388H33.487L34.033 15ZM32.915 11.672H30.666L31.784 8.331L32.915 11.672ZM42.108 8.838C42.108 9.553 41.718 9.982 40.886 9.982H39.508V7.72H40.886C41.718 7.72 42.108 8.162 42.108 8.838ZM37.285 5.874V15H39.508V11.555H40.041L41.939 15H44.448L42.342 11.386C43.746 10.97 44.37 9.891 44.37 8.747C44.37 7.161 43.252 5.874 41.016 5.874H37.285ZM45.2824 10.424C45.2824 13.154 47.1804 15.065 49.8714 15.065C52.0424 15.065 53.6804 13.856 54.2004 11.88H51.7564C51.3794 12.66 50.6904 13.05 49.8454 13.05C48.4804 13.05 47.5444 12.036 47.5444 10.424C47.5444 8.812 48.4804 7.798 49.8454 7.798C50.6904 7.798 51.3794 8.188 51.7564 8.968H54.2004C53.6804 6.992 52.0424 5.77 49.8714 5.77C47.1804 5.77 45.2824 7.694 45.2824 10.424ZM61.1368 15H63.3598V5.874H61.1368V9.449H57.6788V5.874H55.4558V15H57.6788V11.243H61.1368V15ZM64.8586 15H67.0816V5.874H64.8586V15ZM72.5256 12.764L70.2636 5.874H67.8976L71.1346 15H73.9166L77.1536 5.874H74.8006L72.5256 12.764ZM83.5667 5.874H77.9767V15H83.5667V13.219H80.1997V11.217H83.1767V9.501H80.1997V7.655H83.5667V5.874ZM88.3229 5.874H84.9039V15H88.3229C91.2349 15 93.1069 13.141 93.1069 10.437C93.1069 7.72 91.2349 5.874 88.3229 5.874ZM87.1269 13.076V7.772H88.1799C89.8569 7.772 90.8449 8.76 90.8449 10.437C90.8449 12.114 89.8569 13.076 88.1799 13.076H87.1269Z" fill="#E21B1B"/>
<path d="M10 19.9927C15.5228 19.9927 20 15.5185 20 9.9993C20 4.48007 15.5228 0.00585938 10 0.00585938C4.47715 0.00585938 0 4.48007 0 9.9993C0 15.5185 4.47715 19.9927 10 19.9927Z" fill="#E21B1B"/>
<path d="M6.82858 5.27964L5.28204 6.82617L13.1725 14.7167L14.7191 13.1701L6.82858 5.27964Z" fill="white"/>
<path d="M13.1718 5.27944L5.28131 13.1699L6.82784 14.7165L14.7183 6.82597L13.1718 5.27944Z" fill="white"/>
</svg>
