<svg width="494" height="46" viewBox="0 0 494 46" fill="none" xmlns="http://www.w3.org/2000/svg">
<path d="M0.275647 24.272C0.275647 21.568 0.860647 19.163 2.03065 17.057C3.20065 14.925 4.82565 13.274 6.90565 12.104C9.01165 10.908 11.3906 10.31 14.0426 10.31C17.2926 10.31 20.0746 11.168 22.3886 12.884C24.7026 14.6 26.2496 16.94 27.0296 19.904H19.6976C19.1516 18.76 18.3716 17.889 17.3576 17.291C16.3696 16.693 15.2386 16.394 13.9646 16.394C11.9106 16.394 10.2466 17.109 8.97265 18.539C7.69865 19.969 7.06165 21.88 7.06165 24.272C7.06165 26.664 7.69865 28.575 8.97265 30.005C10.2466 31.435 11.9106 32.15 13.9646 32.15C15.2386 32.15 16.3696 31.851 17.3576 31.253C18.3716 30.655 19.1516 29.784 19.6976 28.64H27.0296C26.2496 31.604 24.7026 33.944 22.3886 35.66C20.0746 37.35 17.2926 38.195 14.0426 38.195C11.3906 38.195 9.01165 37.61 6.90565 36.44C4.82565 35.244 3.20065 33.593 2.03065 31.487C0.860647 29.381 0.275647 26.976 0.275647 24.272ZM37.6767 32.852H46.4127V38H31.0077V10.622H37.6767V32.852ZM56.1566 10.622V38H49.4876V10.622H56.1566ZM67.5526 15.965V21.503H76.4836V26.651H67.5526V32.657H77.6536V38H60.8836V10.622H77.6536V15.965H67.5526ZM106.369 38H99.7002L88.5462 21.113V38H81.8772V10.622H88.5462L99.7002 27.587V10.622H106.369V38ZM130.792 10.622V15.965H123.538V38H116.869V15.965H109.615V10.622H130.792ZM143.939 38.273C141.937 38.273 140.143 37.948 138.557 37.298C136.971 36.648 135.697 35.686 134.735 34.412C133.799 33.138 133.305 31.604 133.253 29.81H140.351C140.455 30.824 140.806 31.604 141.404 32.15C142.002 32.67 142.782 32.93 143.744 32.93C144.732 32.93 145.512 32.709 146.084 32.267C146.656 31.799 146.942 31.162 146.942 30.356C146.942 29.68 146.708 29.121 146.24 28.679C145.798 28.237 145.239 27.873 144.563 27.587C143.913 27.301 142.977 26.976 141.755 26.612C139.987 26.066 138.544 25.52 137.426 24.974C136.308 24.428 135.346 23.622 134.54 22.556C133.734 21.49 133.331 20.099 133.331 18.383C133.331 15.835 134.254 13.846 136.1 12.416C137.946 10.96 140.351 10.232 143.315 10.232C146.331 10.232 148.762 10.96 150.608 12.416C152.454 13.846 153.442 15.848 153.572 18.422H146.357C146.305 17.538 145.98 16.849 145.382 16.355C144.784 15.835 144.017 15.575 143.081 15.575C142.275 15.575 141.625 15.796 141.131 16.238C140.637 16.654 140.39 17.265 140.39 18.071C140.39 18.955 140.806 19.644 141.638 20.138C142.47 20.632 143.77 21.165 145.538 21.737C147.306 22.335 148.736 22.907 149.828 23.453C150.946 23.999 151.908 24.792 152.714 25.832C153.52 26.872 153.923 28.211 153.923 29.849C153.923 31.409 153.52 32.826 152.714 34.1C151.934 35.374 150.79 36.388 149.282 37.142C147.774 37.896 145.993 38.273 143.939 38.273ZM180.939 0.949998L170.487 45.293H164.052L174.504 0.949998H180.939ZM198.474 32.852H207.21V38H191.805V10.622H198.474V32.852ZM216.954 15.965V21.503H225.885V26.651H216.954V32.657H227.055V38H210.285V10.622H227.055V15.965H216.954ZM248.321 33.164H238.103L236.465 38H229.484L239.39 10.622H247.112L257.018 38H249.959L248.321 33.164ZM246.605 28.016L243.212 17.993L239.858 28.016H246.605ZM270.184 10.622C273.07 10.622 275.592 11.194 277.75 12.338C279.908 13.482 281.572 15.094 282.742 17.174C283.938 19.228 284.536 21.607 284.536 24.311C284.536 26.989 283.938 29.368 282.742 31.448C281.572 33.528 279.895 35.14 277.711 36.284C275.553 37.428 273.044 38 270.184 38H259.927V10.622H270.184ZM269.755 32.228C272.277 32.228 274.24 31.539 275.644 30.161C277.048 28.783 277.75 26.833 277.75 24.311C277.75 21.789 277.048 19.826 275.644 18.422C274.24 17.018 272.277 16.316 269.755 16.316H266.596V32.228H269.755Z" fill="black"/>
<path d="M313.359 33.164H303.141L301.503 38H294.522L304.428 10.622H312.15L322.056 38H314.997L313.359 33.164ZM311.643 28.016L308.25 17.993L304.896 28.016H311.643ZM338.927 38L333.233 27.665H331.634V38H324.965V10.622H336.158C338.316 10.622 340.149 10.999 341.657 11.753C343.191 12.507 344.335 13.547 345.089 14.873C345.843 16.173 346.22 17.629 346.22 19.241C346.22 21.061 345.7 22.686 344.66 24.116C343.646 25.546 342.138 26.56 340.136 27.158L346.454 38H338.927ZM331.634 22.946H335.768C336.99 22.946 337.9 22.647 338.498 22.049C339.122 21.451 339.434 20.606 339.434 19.514C339.434 18.474 339.122 17.655 338.498 17.057C337.9 16.459 336.99 16.16 335.768 16.16H331.634V22.946ZM349.169 24.272C349.169 21.568 349.754 19.163 350.924 17.057C352.094 14.925 353.719 13.274 355.799 12.104C357.905 10.908 360.284 10.31 362.936 10.31C366.186 10.31 368.968 11.168 371.282 12.884C373.596 14.6 375.143 16.94 375.923 19.904H368.591C368.045 18.76 367.265 17.889 366.251 17.291C365.263 16.693 364.132 16.394 362.858 16.394C360.804 16.394 359.14 17.109 357.866 18.539C356.592 19.969 355.955 21.88 355.955 24.272C355.955 26.664 356.592 28.575 357.866 30.005C359.14 31.435 360.804 32.15 362.858 32.15C364.132 32.15 365.263 31.851 366.251 31.253C367.265 30.655 368.045 29.784 368.591 28.64H375.923C375.143 31.604 373.596 33.944 371.282 35.66C368.968 37.35 366.186 38.195 362.936 38.195C360.284 38.195 357.905 37.61 355.799 36.44C353.719 35.244 352.094 33.593 350.924 31.487C349.754 29.381 349.169 26.976 349.169 24.272ZM403.613 10.622V38H396.944V26.729H386.57V38H379.901V10.622H386.57V21.347H396.944V10.622H403.613ZM414.991 10.622V38H408.322V10.622H414.991ZM445.419 10.622L435.708 38H427.362L417.65 10.622H424.749L431.534 31.292L438.36 10.622H445.419ZM454.769 15.965V21.503H463.7V26.651H454.769V32.657H464.87V38H448.1V10.622H464.87V15.965H454.769ZM479.35 10.622C482.236 10.622 484.758 11.194 486.916 12.338C489.074 13.482 490.738 15.094 491.908 17.174C493.104 19.228 493.702 21.607 493.702 24.311C493.702 26.989 493.104 29.368 491.908 31.448C490.738 33.528 489.061 35.14 486.877 36.284C484.719 37.428 482.21 38 479.35 38H469.093V10.622H479.35ZM478.921 32.228C481.443 32.228 483.406 31.539 484.81 30.161C486.214 28.783 486.916 26.833 486.916 24.311C486.916 21.789 486.214 19.826 484.81 18.422C483.406 17.018 481.443 16.316 478.921 16.316H475.762V32.228H478.921Z" fill="#FF0000"/>
<path d="M-1.01135 41.9H293.901V43.85H-1.01135V41.9Z" fill="black"/>
<path d="M293.898 41.9H495.028V43.85H293.898V41.9Z" fill="#FF0000"/>
</svg>
