<svg width="868" height="46" viewBox="0 0 868 46" fill="none" xmlns="http://www.w3.org/2000/svg">
<path d="M0.811048 24.272C0.811048 21.568 1.39605 19.163 2.56605 17.057C3.73605 14.925 5.36105 13.274 7.44105 12.104C9.54705 10.908 11.926 10.31 14.578 10.31C17.828 10.31 20.61 11.168 22.924 12.884C25.238 14.6 26.785 16.94 27.565 19.904H20.233C19.687 18.76 18.907 17.889 17.893 17.291C16.905 16.693 15.774 16.394 14.5 16.394C12.446 16.394 10.782 17.109 9.50805 18.539C8.23405 19.969 7.59705 21.88 7.59705 24.272C7.59705 26.664 8.23405 28.575 9.50805 30.005C10.782 31.435 12.446 32.15 14.5 32.15C15.774 32.15 16.905 31.851 17.893 31.253C18.907 30.655 19.687 29.784 20.233 28.64H27.565C26.785 31.604 25.238 33.944 22.924 35.66C20.61 37.35 17.828 38.195 14.578 38.195C11.926 38.195 9.54705 37.61 7.44105 36.44C5.36105 35.244 3.73605 33.593 2.56605 31.487C1.39605 29.381 0.811048 26.976 0.811048 24.272ZM48.5861 33.164H38.3681L36.7301 38H29.7491L39.6551 10.622H47.3771L57.2831 38H50.2241L48.5861 33.164ZM46.8701 28.016L43.4771 17.993L40.1231 28.016H46.8701ZM84.684 38H78.015L66.861 21.113V38H60.192V10.622H66.861L78.015 27.587V10.622H84.684V38ZM99.6692 10.622C102.555 10.622 105.077 11.194 107.235 12.338C109.393 13.482 111.057 15.094 112.227 17.174C113.423 19.228 114.021 21.607 114.021 24.311C114.021 26.989 113.423 29.368 112.227 31.448C111.057 33.528 109.38 35.14 107.196 36.284C105.038 37.428 102.529 38 99.6692 38H89.4122V10.622H99.6692ZM99.2402 32.228C101.762 32.228 103.725 31.539 105.129 30.161C106.533 28.783 107.235 26.833 107.235 24.311C107.235 21.789 106.533 19.826 105.129 18.422C103.725 17.018 101.762 16.316 99.2402 16.316H96.0812V32.228H99.2402ZM124.311 10.622V38H117.642V10.622H124.311ZM139.295 10.622C142.181 10.622 144.703 11.194 146.861 12.338C149.019 13.482 150.683 15.094 151.853 17.174C153.049 19.228 153.647 21.607 153.647 24.311C153.647 26.989 153.049 29.368 151.853 31.448C150.683 33.528 149.006 35.14 146.822 36.284C144.664 37.428 142.155 38 139.295 38H129.038V10.622H139.295ZM138.866 32.228C141.388 32.228 143.351 31.539 144.755 30.161C146.159 28.783 146.861 26.833 146.861 24.311C146.861 21.789 146.159 19.826 144.755 18.422C143.351 17.018 141.388 16.316 138.866 16.316H135.707V32.228H138.866ZM174.311 33.164H164.093L162.455 38H155.474L165.38 10.622H173.102L183.008 38H175.949L174.311 33.164ZM172.595 28.016L169.202 17.993L165.848 28.016H172.595ZM205.612 10.622V15.965H198.358V38H191.689V15.965H184.435V10.622H205.612ZM218.759 38.273C216.757 38.273 214.963 37.948 213.377 37.298C211.791 36.648 210.517 35.686 209.555 34.412C208.619 33.138 208.125 31.604 208.073 29.81H215.171C215.275 30.824 215.626 31.604 216.224 32.15C216.822 32.67 217.602 32.93 218.564 32.93C219.552 32.93 220.332 32.709 220.904 32.267C221.476 31.799 221.762 31.162 221.762 30.356C221.762 29.68 221.528 29.121 221.06 28.679C220.618 28.237 220.059 27.873 219.383 27.587C218.733 27.301 217.797 26.976 216.575 26.612C214.807 26.066 213.364 25.52 212.246 24.974C211.128 24.428 210.166 23.622 209.36 22.556C208.554 21.49 208.151 20.099 208.151 18.383C208.151 15.835 209.074 13.846 210.92 12.416C212.766 10.96 215.171 10.232 218.135 10.232C221.151 10.232 223.582 10.96 225.428 12.416C227.274 13.846 228.262 15.848 228.392 18.422H221.177C221.125 17.538 220.8 16.849 220.202 16.355C219.604 15.835 218.837 15.575 217.901 15.575C217.095 15.575 216.445 15.796 215.951 16.238C215.457 16.654 215.21 17.265 215.21 18.071C215.21 18.955 215.626 19.644 216.458 20.138C217.29 20.632 218.59 21.165 220.358 21.737C222.126 22.335 223.556 22.907 224.648 23.453C225.766 23.999 226.728 24.792 227.534 25.832C228.34 26.872 228.743 28.211 228.743 29.849C228.743 31.409 228.34 32.826 227.534 34.1C226.754 35.374 225.61 36.388 224.102 37.142C222.594 37.896 220.813 38.273 218.759 38.273ZM255.759 0.949998L245.307 45.293H238.872L249.324 0.949998H255.759ZM273.293 15.965V21.503H282.224V26.651H273.293V32.657H283.394V38H266.624V10.622H283.394V15.965H273.293ZM318.623 10.622V38H311.954V21.581L305.831 38H300.449L294.287 21.542V38H287.618V10.622H295.496L303.179 29.576L310.784 10.622H318.623ZM344.178 19.436C344.178 21.022 343.814 22.478 343.086 23.804C342.358 25.104 341.24 26.157 339.732 26.963C338.224 27.769 336.352 28.172 334.116 28.172H329.982V38H323.313V10.622H334.116C336.3 10.622 338.146 10.999 339.654 11.753C341.162 12.507 342.293 13.547 343.047 14.873C343.801 16.199 344.178 17.72 344.178 19.436ZM333.609 22.868C334.883 22.868 335.832 22.569 336.456 21.971C337.08 21.373 337.392 20.528 337.392 19.436C337.392 18.344 337.08 17.499 336.456 16.901C335.832 16.303 334.883 16.004 333.609 16.004H329.982V22.868H333.609ZM354.213 32.852H362.949V38H347.544V10.622H354.213V32.852ZM378.972 38.273C376.398 38.273 374.032 37.675 371.874 36.479C369.742 35.283 368.039 33.619 366.765 31.487C365.517 29.329 364.893 26.911 364.893 24.233C364.893 21.555 365.517 19.15 366.765 17.018C368.039 14.886 369.742 13.222 371.874 12.026C374.032 10.83 376.398 10.232 378.972 10.232C381.546 10.232 383.899 10.83 386.031 12.026C388.189 13.222 389.879 14.886 391.101 17.018C392.349 19.15 392.973 21.555 392.973 24.233C392.973 26.911 392.349 29.329 391.101 31.487C389.853 33.619 388.163 35.283 386.031 36.479C383.899 37.675 381.546 38.273 378.972 38.273ZM378.972 32.189C381.156 32.189 382.898 31.461 384.198 30.005C385.524 28.549 386.187 26.625 386.187 24.233C386.187 21.815 385.524 19.891 384.198 18.461C382.898 17.005 381.156 16.277 378.972 16.277C376.762 16.277 374.994 16.992 373.668 18.422C372.368 19.852 371.718 21.789 371.718 24.233C371.718 26.651 372.368 28.588 373.668 30.044C374.994 31.474 376.762 32.189 378.972 32.189ZM420.055 10.622L410.578 28.952V38H403.909V28.952L394.432 10.622H401.998L407.302 22.088L412.567 10.622H420.055ZM429.305 15.965V21.503H438.236V26.651H429.305V32.657H439.406V38H422.636V10.622H439.406V15.965H429.305ZM453.535 38.273C451.533 38.273 449.739 37.948 448.153 37.298C446.567 36.648 445.293 35.686 444.331 34.412C443.395 33.138 442.901 31.604 442.849 29.81H449.947C450.051 30.824 450.402 31.604 451 32.15C451.598 32.67 452.378 32.93 453.34 32.93C454.328 32.93 455.108 32.709 455.68 32.267C456.252 31.799 456.538 31.162 456.538 30.356C456.538 29.68 456.304 29.121 455.836 28.679C455.394 28.237 454.835 27.873 454.159 27.587C453.509 27.301 452.573 26.976 451.351 26.612C449.583 26.066 448.14 25.52 447.022 24.974C445.904 24.428 444.942 23.622 444.136 22.556C443.33 21.49 442.927 20.099 442.927 18.383C442.927 15.835 443.85 13.846 445.696 12.416C447.542 10.96 449.947 10.232 452.911 10.232C455.927 10.232 458.358 10.96 460.204 12.416C462.05 13.846 463.038 15.848 463.168 18.422H455.953C455.901 17.538 455.576 16.849 454.978 16.355C454.38 15.835 453.613 15.575 452.677 15.575C451.871 15.575 451.221 15.796 450.727 16.238C450.233 16.654 449.986 17.265 449.986 18.071C449.986 18.955 450.402 19.644 451.234 20.138C452.066 20.632 453.366 21.165 455.134 21.737C456.902 22.335 458.332 22.907 459.424 23.453C460.542 23.999 461.504 24.792 462.31 25.832C463.116 26.872 463.519 28.211 463.519 29.849C463.519 31.409 463.116 32.826 462.31 34.1C461.53 35.374 460.386 36.388 458.878 37.142C457.37 37.896 455.589 38.273 453.535 38.273Z" fill="black"/>
<path d="M474.545 24.272C474.545 21.568 475.13 19.163 476.3 17.057C477.47 14.925 479.095 13.274 481.175 12.104C483.281 10.908 485.66 10.31 488.312 10.31C491.562 10.31 494.344 11.168 496.658 12.884C498.972 14.6 500.519 16.94 501.299 19.904H493.967C493.421 18.76 492.641 17.889 491.627 17.291C490.639 16.693 489.508 16.394 488.234 16.394C486.18 16.394 484.516 17.109 483.242 18.539C481.968 19.969 481.331 21.88 481.331 24.272C481.331 26.664 481.968 28.575 483.242 30.005C484.516 31.435 486.18 32.15 488.234 32.15C489.508 32.15 490.639 31.851 491.627 31.253C492.641 30.655 493.421 29.784 493.967 28.64H501.299C500.519 31.604 498.972 33.944 496.658 35.66C494.344 37.35 491.562 38.195 488.312 38.195C485.66 38.195 483.281 37.61 481.175 36.44C479.095 35.244 477.47 33.593 476.3 31.487C475.13 29.381 474.545 26.976 474.545 24.272ZM522.32 33.164H512.102L510.464 38H503.483L513.389 10.622H521.111L531.017 38H523.958L522.32 33.164ZM520.604 28.016L517.211 17.993L513.857 28.016H520.604ZM558.418 38H551.749L540.595 21.113V38H533.926V10.622H540.595L551.749 27.587V10.622H558.418V38ZM562.015 24.272C562.015 21.568 562.6 19.163 563.77 17.057C564.94 14.925 566.565 13.274 568.645 12.104C570.751 10.908 573.13 10.31 575.782 10.31C579.032 10.31 581.814 11.168 584.128 12.884C586.442 14.6 587.989 16.94 588.769 19.904H581.437C580.891 18.76 580.111 17.889 579.097 17.291C578.109 16.693 576.978 16.394 575.704 16.394C573.65 16.394 571.986 17.109 570.712 18.539C569.438 19.969 568.801 21.88 568.801 24.272C568.801 26.664 569.438 28.575 570.712 30.005C571.986 31.435 573.65 32.15 575.704 32.15C576.978 32.15 578.109 31.851 579.097 31.253C580.111 30.655 580.891 29.784 581.437 28.64H588.769C587.989 31.604 586.442 33.944 584.128 35.66C581.814 37.35 579.032 38.195 575.782 38.195C573.13 38.195 570.751 37.61 568.645 36.44C566.565 35.244 564.94 33.593 563.77 31.487C562.6 29.381 562.015 26.976 562.015 24.272ZM599.416 15.965V21.503H608.347V26.651H599.416V32.657H609.517V38H592.747V10.622H609.517V15.965H599.416ZM620.41 32.852H629.146V38H613.741V10.622H620.41V32.852ZM638.89 15.965V21.503H647.821V26.651H638.89V32.657H648.991V38H632.221V10.622H648.991V15.965H638.89ZM663.472 10.622C666.358 10.622 668.88 11.194 671.038 12.338C673.196 13.482 674.86 15.094 676.03 17.174C677.226 19.228 677.824 21.607 677.824 24.311C677.824 26.989 677.226 29.368 676.03 31.448C674.86 33.528 673.183 35.14 670.999 36.284C668.841 37.428 666.332 38 663.472 38H653.215V10.622H663.472ZM663.043 32.228C665.565 32.228 667.528 31.539 668.932 30.161C670.336 28.783 671.038 26.833 671.038 24.311C671.038 21.789 670.336 19.826 668.932 18.422C667.528 17.018 665.565 16.316 663.043 16.316H659.884V32.228H663.043ZM696.303 0.949998L685.851 45.293H679.416L689.868 0.949998H696.303ZM716.053 33.164H705.835L704.197 38H697.216L707.122 10.622H714.844L724.75 38H717.691L716.053 33.164ZM714.337 28.016L710.944 17.993L707.59 28.016H714.337ZM741.621 38L735.927 27.665H734.328V38H727.659V10.622H738.852C741.01 10.622 742.843 10.999 744.351 11.753C745.885 12.507 747.029 13.547 747.783 14.873C748.537 16.173 748.914 17.629 748.914 19.241C748.914 21.061 748.394 22.686 747.354 24.116C746.34 25.546 744.832 26.56 742.83 27.158L749.148 38H741.621ZM734.328 22.946H738.462C739.684 22.946 740.594 22.647 741.192 22.049C741.816 21.451 742.128 20.606 742.128 19.514C742.128 18.474 741.816 17.655 741.192 17.057C740.594 16.459 739.684 16.16 738.462 16.16H734.328V22.946ZM751.864 24.272C751.864 21.568 752.449 19.163 753.619 17.057C754.789 14.925 756.414 13.274 758.494 12.104C760.6 10.908 762.979 10.31 765.631 10.31C768.881 10.31 771.663 11.168 773.977 12.884C776.291 14.6 777.838 16.94 778.618 19.904H771.286C770.74 18.76 769.96 17.889 768.946 17.291C767.958 16.693 766.827 16.394 765.553 16.394C763.499 16.394 761.835 17.109 760.561 18.539C759.287 19.969 758.65 21.88 758.65 24.272C758.65 26.664 759.287 28.575 760.561 30.005C761.835 31.435 763.499 32.15 765.553 32.15C766.827 32.15 767.958 31.851 768.946 31.253C769.96 30.655 770.74 29.784 771.286 28.64H778.618C777.838 31.604 776.291 33.944 773.977 35.66C771.663 37.35 768.881 38.195 765.631 38.195C762.979 38.195 760.6 37.61 758.494 36.44C756.414 35.244 754.789 33.593 753.619 31.487C752.449 29.381 751.864 26.976 751.864 24.272ZM806.308 10.622V38H799.639V26.729H789.265V38H782.596V10.622H789.265V21.347H799.639V10.622H806.308ZM817.685 10.622V38H811.016V10.622H817.685ZM848.113 10.622L838.402 38H830.056L820.345 10.622H827.443L834.229 31.292L841.054 10.622H848.113ZM857.463 15.965V21.503H866.394V26.651H857.463V32.657H867.564V38H850.794V10.622H867.564V15.965H857.463Z" fill="#FF0000"/>
<path d="M-0.475952 41.9H473.262V43.85H-0.475952V41.9Z" fill="black"/>
<path d="M473.258 41.9H869.475V43.85H473.258V41.9Z" fill="#FF0000"/>
</svg>
