<svg width="23" height="25" viewBox="0 0 23 25" fill="none" xmlns="http://www.w3.org/2000/svg">
<path d="M6.29297 3.53888C6.29297 3.40393 6.43286 3.33398 6.57788 3.33398H7.5423C8.06214 3.33398 8.54682 3.50391 8.54682 4.21344C8.54682 4.62323 8.38697 4.89313 8.12201 5.00812C8.42688 5.12806 8.63672 5.32288 8.63672 5.82276V5.92768C8.63672 6.70716 8.20203 6.98713 7.63715 6.98713H6.5777C6.40283 6.98713 6.29297 6.89228 6.29297 6.78718V3.53888ZM6.93768 4.75324H7.49726C7.76715 4.75324 7.89716 4.57837 7.89716 4.32349C7.89716 4.06348 7.7472 3.90363 7.49231 3.90363H6.9375V4.75324H6.93768ZM7.50238 6.4173C7.80707 6.4173 7.98706 6.25251 7.98706 5.87275V5.79273C7.98706 5.4029 7.80707 5.263 7.50238 5.263H6.93768V6.4173H7.50238Z" fill="white" stroke="white" stroke-width="0.2"/>
<path d="M9.10156 3.53375C9.10156 3.39386 9.26141 3.33398 9.42639 3.33398C9.58624 3.33398 9.75122 3.39386 9.75122 3.53375V6.78223C9.75122 6.91718 9.58624 6.98713 9.42639 6.98713C9.26141 6.98713 9.10156 6.91718 9.10156 6.78223V3.53375Z" fill="white" stroke="white" stroke-width="0.2"/>
<path d="M10.6363 6.98713C10.4915 6.98713 10.3516 6.91718 10.3516 6.78223V3.53375C10.3516 3.39386 10.5114 3.33398 10.6764 3.33398C10.8362 3.33398 11.0012 3.39386 11.0012 3.53375V6.41749H12.2205C12.3505 6.41749 12.4155 6.55738 12.4155 6.70222C12.4155 6.84211 12.3505 6.98713 12.2205 6.98713H10.6363Z" fill="white" stroke="white" stroke-width="0.2"/>
<path d="M13.0544 6.98713C12.9094 6.98713 12.7695 6.91718 12.7695 6.78223V3.53375C12.7695 3.39386 12.9296 3.33398 13.0944 3.33398C13.2544 3.33398 13.4192 3.39386 13.4192 3.53375V6.41749H14.6387C14.7685 6.41749 14.8335 6.55738 14.8335 6.70222C14.8335 6.84211 14.7685 6.98713 14.6387 6.98713H13.0544Z" fill="white" stroke="white" stroke-width="0.2"/>
<path d="M18.079 6.98353C17.4744 6.96851 17.0195 6.64368 17.0195 6.36371C17.0195 6.22382 17.1446 6.0138 17.2993 6.0138C17.4892 6.0138 17.6392 6.33881 18.079 6.38862V5.39417C17.6241 5.22425 17.1094 5.02942 17.1094 4.38965C17.1094 3.75501 17.5793 3.48016 18.079 3.41516V3.27527C18.079 3.21027 18.1539 3.15039 18.2489 3.15039C18.3339 3.15039 18.4188 3.21027 18.4188 3.27527V3.40527C18.7437 3.41516 19.2734 3.51001 19.2734 3.80005C19.2734 3.91486 19.1935 4.14484 19.0086 4.14484C18.8687 4.14484 18.7537 3.9848 18.4188 3.9599V4.83954C18.8636 5.00434 19.3635 5.22937 19.3635 5.90888C19.3635 6.52357 18.9786 6.87843 18.4188 6.96833V7.12342C18.4188 7.18842 18.3339 7.2483 18.2489 7.2483C18.1539 7.2483 18.079 7.18842 18.079 7.12342V6.98353ZM18.1189 4.7295V3.97492C17.8691 4.01502 17.7192 4.13495 17.7192 4.32483C17.7192 4.54474 17.8891 4.63959 18.1189 4.7295ZM18.3787 5.5141V6.38386C18.5986 6.33881 18.7535 6.20881 18.7535 5.97407C18.7537 5.72907 18.5937 5.60914 18.3787 5.5141Z" fill="white" stroke="white" stroke-width="0.2"/>
<path d="M15.2919 10.7891H6.23438C6.04028 10.7891 5.88281 10.9464 5.88281 11.1406C5.88281 11.3349 6.04028 11.4922 6.23438 11.4922H15.2919C15.4862 11.4922 15.6435 11.3349 15.6435 11.1406C15.6435 10.9464 15.4862 10.7891 15.2919 10.7891Z" fill="white" stroke="white" stroke-width="0.2"/>
<path d="M15.2919 13.7129H6.23438C6.04028 13.7129 5.88281 13.8702 5.88281 14.0645C5.88281 14.2585 6.04028 14.416 6.23438 14.416H15.2919C15.4862 14.416 15.6435 14.2585 15.6435 14.0645C15.6435 13.8702 15.4862 13.7129 15.2919 13.7129Z" fill="white" stroke="white" stroke-width="0.2"/>
<path d="M15.2919 16.6387H6.23438C6.04028 16.6387 5.88281 16.7961 5.88281 16.9902C5.88281 17.1845 6.04028 17.3418 6.23438 17.3418H15.2919C15.4862 17.3418 15.6435 17.1845 15.6435 16.9902C15.6435 16.7961 15.4862 16.6387 15.2919 16.6387Z" fill="white" stroke="white" stroke-width="0.2"/>
<path d="M15.2919 19.5625H6.23438C6.04028 19.5625 5.88281 19.7198 5.88281 19.9141C5.88281 20.1083 6.04028 20.2656 6.23438 20.2656H15.2919C15.4862 20.2656 15.6435 20.1083 15.6435 19.9141C15.6435 19.7198 15.4862 19.5625 15.2919 19.5625Z" fill="white" stroke="white" stroke-width="0.2"/>
<path d="M19.236 10.7891H16.957C16.7629 10.7891 16.6055 10.9464 16.6055 11.1406C16.6055 11.3349 16.7629 11.4922 16.957 11.4922H19.236C19.4301 11.4922 19.5875 11.3349 19.5875 11.1406C19.5875 10.9464 19.4301 10.7891 19.236 10.7891Z" fill="white" stroke="white" stroke-width="0.2"/>
<path d="M19.236 13.7129H16.957C16.7629 13.7129 16.6055 13.8702 16.6055 14.0645C16.6055 14.2585 16.7629 14.416 16.957 14.416H19.236C19.4301 14.416 19.5875 14.2585 19.5875 14.0645C19.5875 13.8702 19.4301 13.7129 19.236 13.7129Z" fill="white" stroke="white" stroke-width="0.2"/>
<path d="M19.236 16.6387H16.957C16.7629 16.6387 16.6055 16.7961 16.6055 16.9902C16.6055 17.1845 16.7629 17.3418 16.957 17.3418H19.236C19.4301 17.3418 19.5875 17.1845 19.5875 16.9902C19.5875 16.7961 19.4301 16.6387 19.236 16.6387Z" fill="white" stroke="white" stroke-width="0.2"/>
<path d="M20.1668 0.517578H2.8913C1.87433 0.517578 1.04688 1.34503 1.04688 2.362V17.6274C1.04688 18.4585 1.7229 19.1345 2.5542 19.1345H2.73255C2.92664 19.1345 3.08411 18.9772 3.08411 18.7829C3.08411 18.5888 2.92664 18.4314 2.73255 18.4314H2.5542C2.11072 18.4314 1.75 18.0707 1.75 17.6274V2.362C1.75 1.73267 2.26197 1.2207 2.8913 1.2207C3.52063 1.2207 4.0326 1.73267 4.0326 2.362V23.4827C4.0326 23.8103 4.25507 24.0925 4.57386 24.1686L5.95393 24.4984C6.06123 24.524 6.17457 24.5239 6.28169 24.4984L7.85219 24.1234L9.4214 24.4984C9.52852 24.524 9.64186 24.5239 9.74916 24.4984L11.3193 24.1234L12.8887 24.4984C12.996 24.524 13.1093 24.5239 13.2166 24.4984L14.787 24.1234L16.3565 24.4984C16.4638 24.524 16.577 24.5239 16.6843 24.4984L18.2548 24.1234L19.8242 24.4982C19.8778 24.5112 19.9331 24.5176 19.9884 24.5176C20.0436 24.5176 20.0987 24.5112 20.1523 24.4984L21.5328 24.1686C21.8515 24.0925 22.074 23.8103 22.074 23.4827V2.42481C22.074 1.37323 21.2184 0.517578 20.1668 0.517578ZM21.3692 23.4847L19.9879 23.8145L18.4181 23.4395C18.3108 23.4139 18.1975 23.4139 18.0904 23.4395L16.5199 23.8145L14.9503 23.4395C14.8432 23.4139 14.7298 23.4139 14.6225 23.4395L13.0522 23.8145L11.4826 23.4395C11.3753 23.4139 11.262 23.4139 11.1549 23.4395L9.58473 23.8145L8.01552 23.4395C7.96187 23.4267 7.90675 23.4203 7.85164 23.4203C7.79652 23.4203 7.74141 23.4267 7.68776 23.4395L6.11744 23.8145L4.73573 23.4827V2.362C4.73573 2.33234 4.73481 2.30304 4.73334 2.27375C4.73298 2.26422 4.73225 2.2547 4.73151 2.24518C4.73042 2.22541 4.72895 2.20581 4.72712 2.18604C4.72602 2.17524 4.72474 2.16443 4.72346 2.15345C4.72144 2.13532 4.71925 2.11701 4.71668 2.09906C4.71503 2.08808 4.71339 2.07709 4.71156 2.06629C4.70863 2.04798 4.70533 2.02985 4.70185 2.01154C4.69984 2.00147 4.69801 1.9914 4.69599 1.98133C4.6916 1.96045 4.68665 1.93994 4.68171 1.91944C4.67988 1.9123 4.67841 1.90515 4.67658 1.8982C4.66944 1.87091 4.66175 1.84381 4.65351 1.81708C4.65131 1.81031 4.64893 1.80371 4.64674 1.79694C4.64033 1.77698 4.63355 1.75684 4.62659 1.73706C4.62312 1.72754 4.61927 1.71802 4.61561 1.7085C4.60938 1.69184 4.60279 1.67499 4.59602 1.65851C4.5918 1.64844 4.58741 1.63837 4.5832 1.62848C4.57624 1.61237 4.56892 1.59662 4.56159 1.58087C4.55701 1.57117 4.55244 1.56146 4.54768 1.55176C4.53962 1.53528 4.53101 1.5188 4.52241 1.5025C4.51801 1.49426 4.5138 1.48584 4.50941 1.47779C4.49696 1.45508 4.48395 1.43256 4.47059 1.41059C4.46967 1.40894 4.46894 1.40747 4.46802 1.40582C4.45374 1.38239 4.43873 1.35932 4.42353 1.33661C4.4184 1.3291 4.41328 1.32178 4.40815 1.31445C4.39735 1.29907 4.38654 1.28369 4.37556 1.26868C4.36933 1.26044 4.3631 1.2522 4.3567 1.24396C4.35084 1.23627 4.34516 1.22839 4.33912 1.2207H20.1668C20.8307 1.2207 21.3709 1.76087 21.3709 2.42499L21.3692 23.4847Z" fill="white" stroke="white" stroke-width="0.2"/>
</svg>
