<svg width="67" height="20" viewBox="0 0 67 20" fill="none" xmlns="http://www.w3.org/2000/svg">
<path d="M33.4579 5.874V7.655H31.0399V15H28.8169V7.655H26.3989V5.874H33.4579ZM38.7836 15.091C37.9256 15.091 37.1369 14.8917 36.4176 14.493C35.7069 14.0943 35.1393 13.5397 34.7146 12.829C34.2986 12.1097 34.0906 11.3037 34.0906 10.411C34.0906 9.51833 34.2986 8.71667 34.7146 8.006C35.1393 7.29533 35.7069 6.74067 36.4176 6.342C37.1369 5.94333 37.9256 5.744 38.7836 5.744C39.6416 5.744 40.4259 5.94333 41.1366 6.342C41.8559 6.74067 42.4193 7.29533 42.8266 8.006C43.2426 8.71667 43.4506 9.51833 43.4506 10.411C43.4506 11.3037 43.2426 12.1097 42.8266 12.829C42.4106 13.5397 41.8473 14.0943 41.1366 14.493C40.4259 14.8917 39.6416 15.091 38.7836 15.091ZM38.7836 13.063C39.5116 13.063 40.0923 12.8203 40.5256 12.335C40.9676 11.8497 41.1886 11.2083 41.1886 10.411C41.1886 9.605 40.9676 8.96367 40.5256 8.487C40.0923 8.00167 39.5116 7.759 38.7836 7.759C38.0469 7.759 37.4576 7.99733 37.0156 8.474C36.5823 8.95067 36.3656 9.59633 36.3656 10.411C36.3656 11.217 36.5823 11.8627 37.0156 12.348C37.4576 12.8247 38.0469 13.063 38.7836 13.063ZM50.6492 5.874C51.6112 5.874 52.4519 6.06467 53.1712 6.446C53.8905 6.82733 54.4452 7.36467 54.8352 8.058C55.2339 8.74267 55.4332 9.53567 55.4332 10.437C55.4332 11.3297 55.2339 12.1227 54.8352 12.816C54.4452 13.5093 53.8862 14.0467 53.1582 14.428C52.4389 14.8093 51.6025 15 50.6492 15H47.2302V5.874H50.6492ZM50.5062 13.076C51.3469 13.076 52.0012 12.8463 52.4692 12.387C52.9372 11.9277 53.1712 11.2777 53.1712 10.437C53.1712 9.59633 52.9372 8.942 52.4692 8.474C52.0012 8.006 51.3469 7.772 50.5062 7.772H49.4532V13.076H50.5062ZM60.8855 15.091C60.0275 15.091 59.2389 14.8917 58.5195 14.493C57.8089 14.0943 57.2412 13.5397 56.8165 12.829C56.4005 12.1097 56.1925 11.3037 56.1925 10.411C56.1925 9.51833 56.4005 8.71667 56.8165 8.006C57.2412 7.29533 57.8089 6.74067 58.5195 6.342C59.2389 5.94333 60.0275 5.744 60.8855 5.744C61.7435 5.744 62.5279 5.94333 63.2385 6.342C63.9579 6.74067 64.5212 7.29533 64.9285 8.006C65.3445 8.71667 65.5525 9.51833 65.5525 10.411C65.5525 11.3037 65.3445 12.1097 64.9285 12.829C64.5125 13.5397 63.9492 14.0943 63.2385 14.493C62.5279 14.8917 61.7435 15.091 60.8855 15.091ZM60.8855 13.063C61.6135 13.063 62.1942 12.8203 62.6275 12.335C63.0695 11.8497 63.2905 11.2083 63.2905 10.411C63.2905 9.605 63.0695 8.96367 62.6275 8.487C62.1942 8.00167 61.6135 7.759 60.8855 7.759C60.1489 7.759 59.5595 7.99733 59.1175 8.474C58.6842 8.95067 58.4675 9.59633 58.4675 10.411C58.4675 11.217 58.6842 11.8627 59.1175 12.348C59.5595 12.8247 60.1489 13.063 60.8855 13.063Z" fill="#032339"/>
<rect x="1" y="5.55566" width="17.7778" height="12.4444" rx="2" stroke="#032339" stroke-width="1.6" stroke-linecap="round" stroke-linejoin="round"/>
<path d="M13.4441 18V3.77778C13.4441 2.79594 12.6482 2 11.6663 2H8.11079C7.12895 2 6.33301 2.79594 6.33301 3.77778V18" stroke="#032339" stroke-width="1.6" stroke-linecap="round" stroke-linejoin="round"/>
</svg>
