<svg width="56" height="56" viewBox="0 0 56 56" fill="none" xmlns="http://www.w3.org/2000/svg">
<circle cx="28" cy="28" r="28" fill="white"/>
<path d="M35.5188 22.794C35.2622 21.269 34.5071 19.8772 33.3523 18.8211C32.0691 17.6465 30.401 17 28.6638 17C27.3214 17 26.0136 17.3849 24.8933 18.1104C23.9605 18.7125 23.1857 19.5268 22.6379 20.4843C22.401 20.4399 22.1542 20.4152 21.9075 20.4152C19.81 20.4152 18.1024 22.1228 18.1024 24.2202C18.1024 24.4917 18.132 24.7532 18.1814 25.0099C16.8242 25.9969 16 27.5861 16 29.2788C16 30.6459 16.5083 31.9735 17.4362 33.0247C18.3886 34.1006 19.6471 34.7372 20.9895 34.8112C21.0043 34.8112 21.0142 34.8112 21.029 34.8112H25.2733C25.6434 34.8112 25.9395 34.5151 25.9395 34.145C25.9395 33.7748 25.6434 33.4787 25.2733 33.4787H21.0487C19.0302 33.3553 17.3325 31.4355 17.3325 29.2739C17.3325 27.8772 18.0827 26.5743 19.2918 25.8686C19.5731 25.7057 19.6915 25.3652 19.583 25.0592C19.4843 24.7927 19.4349 24.5114 19.4349 24.2104C19.4349 22.8482 20.5453 21.7378 21.9075 21.7378C22.1986 21.7378 22.4849 21.7872 22.7514 21.8859C23.0771 22.0043 23.4374 21.8563 23.5854 21.5453C24.5083 19.5861 26.5022 18.3226 28.6687 18.3226C31.5805 18.3226 33.984 20.504 34.2603 23.3961C34.2899 23.6971 34.517 23.9389 34.8131 23.9883C37.0093 24.3634 38.6675 26.3917 38.6675 28.7064C38.6675 31.1592 36.7378 33.2912 34.359 33.4738H30.7218C30.3516 33.4738 30.0555 33.7699 30.0555 34.14C30.0555 34.5102 30.3516 34.8063 30.7218 34.8063H34.3837C34.3985 34.8063 34.4133 34.8063 34.4331 34.8063C35.9383 34.6977 37.3449 34.0068 38.3911 32.8519C39.4325 31.707 40 30.2363 40 28.7064C39.9951 25.9377 38.1049 23.475 35.5188 22.794Z" fill="#032339"/>
<path d="M31.9998 29.9104C32.2614 29.6489 32.2614 29.2294 31.9998 28.9678L28.4711 25.4391C28.3478 25.3157 28.175 25.2417 28.0023 25.2417C27.8296 25.2417 27.6568 25.3108 27.5335 25.4391L24.0048 28.9678C23.7432 29.2294 23.7432 29.6489 24.0048 29.9104C24.1331 30.0387 24.3058 30.1078 24.4736 30.1078C24.6414 30.1078 24.8141 30.0437 24.9425 29.9104L27.336 27.5168V38.5175C27.336 38.8876 27.6322 39.1837 28.0023 39.1837C28.3724 39.1837 28.6686 38.8876 28.6686 38.5175V27.5168L31.0621 29.9104C31.3188 30.172 31.7383 30.172 31.9998 29.9104Z" fill="#032339"/>
</svg>
