<svg width="722" height="45" viewBox="0 0 722 45" fill="none" xmlns="http://www.w3.org/2000/svg">
<path d="M0.757001 22.272C0.757001 19.568 1.342 17.163 2.512 15.057C3.682 12.925 5.307 11.274 7.387 10.104C9.493 8.908 11.872 8.31 14.524 8.31C17.774 8.31 20.556 9.168 22.87 10.884C25.184 12.6 26.731 14.94 27.511 17.904H20.179C19.633 16.76 18.853 15.889 17.839 15.291C16.851 14.693 15.72 14.394 14.446 14.394C12.392 14.394 10.728 15.109 9.454 16.539C8.18 17.969 7.543 19.88 7.543 22.272C7.543 24.664 8.18 26.575 9.454 28.005C10.728 29.435 12.392 30.15 14.446 30.15C15.72 30.15 16.851 29.851 17.839 29.253C18.853 28.655 19.633 27.784 20.179 26.64H27.511C26.731 29.604 25.184 31.944 22.87 33.66C20.556 35.35 17.774 36.195 14.524 36.195C11.872 36.195 9.493 35.61 7.387 34.44C5.307 33.244 3.682 31.593 2.512 29.487C1.342 27.381 0.757001 24.976 0.757001 22.272ZM48.532 31.164H38.314L36.676 36H29.695L39.601 8.622H47.323L57.229 36H50.17L48.532 31.164ZM46.816 26.016L43.423 15.993L40.069 26.016H46.816ZM84.6299 36H77.9609L66.8069 19.113V36H60.1379V8.622H66.8069L77.9609 25.587V8.622H84.6299V36ZM99.6151 8.622C102.501 8.622 105.023 9.194 107.181 10.338C109.339 11.482 111.003 13.094 112.173 15.174C113.369 17.228 113.967 19.607 113.967 22.311C113.967 24.989 113.369 27.368 112.173 29.448C111.003 31.528 109.326 33.14 107.142 34.284C104.984 35.428 102.475 36 99.6151 36H89.3581V8.622H99.6151ZM99.1861 30.228C101.708 30.228 103.671 29.539 105.075 28.161C106.479 26.783 107.181 24.833 107.181 22.311C107.181 19.789 106.479 17.826 105.075 16.422C103.671 15.018 101.708 14.316 99.1861 14.316H96.0271V30.228H99.1861ZM124.257 8.622V36H117.588V8.622H124.257ZM139.241 8.622C142.127 8.622 144.649 9.194 146.807 10.338C148.965 11.482 150.629 13.094 151.799 15.174C152.995 17.228 153.593 19.607 153.593 22.311C153.593 24.989 152.995 27.368 151.799 29.448C150.629 31.528 148.952 33.14 146.768 34.284C144.61 35.428 142.101 36 139.241 36H128.984V8.622H139.241ZM138.812 30.228C141.334 30.228 143.297 29.539 144.701 28.161C146.105 26.783 146.807 24.833 146.807 22.311C146.807 19.789 146.105 17.826 144.701 16.422C143.297 15.018 141.334 14.316 138.812 14.316H135.653V30.228H138.812ZM174.257 31.164H164.039L162.401 36H155.42L165.326 8.622H173.048L182.954 36H175.895L174.257 31.164ZM172.541 26.016L169.148 15.993L165.794 26.016H172.541ZM205.558 8.622V13.965H198.304V36H191.635V13.965H184.381V8.622H205.558ZM215.468 13.965V19.503H224.399V24.651H215.468V30.657H225.569V36H208.799V8.622H225.569V13.965H215.468ZM255.774 8.622V13.965H244.62V19.737H252.966V24.924H244.62V36H237.951V8.622H255.774ZM265.842 8.622V36H259.173V8.622H265.842ZM277.238 30.852H285.974V36H270.569V8.622H277.238V30.852ZM295.718 13.965V19.503H304.649V24.651H295.718V30.657H305.819V36H289.049V8.622H305.819V13.965H295.718ZM313.163 36.312C311.993 36.312 311.031 35.974 310.277 35.298C309.549 34.596 309.185 33.738 309.185 32.724C309.185 31.684 309.549 30.813 310.277 30.111C311.031 29.409 311.993 29.058 313.163 29.058C314.307 29.058 315.243 29.409 315.971 30.111C316.725 30.813 317.102 31.684 317.102 32.724C317.102 33.738 316.725 34.596 315.971 35.298C315.243 35.974 314.307 36.312 313.163 36.312ZM313.163 20.439C311.993 20.439 311.031 20.101 310.277 19.425C309.549 18.723 309.185 17.865 309.185 16.851C309.185 15.811 309.549 14.94 310.277 14.238C311.031 13.536 311.993 13.185 313.163 13.185C314.307 13.185 315.243 13.536 315.971 14.238C316.725 14.94 317.102 15.811 317.102 16.851C317.102 17.865 316.725 18.723 315.971 19.425C315.243 20.101 314.307 20.439 313.163 20.439Z" fill="black"/>
<path d="M338.468 19.62C339.742 19.568 340.678 19.295 341.276 18.801C341.874 18.281 342.173 17.553 342.173 16.617C342.173 15.915 342.043 14.524 341.783 12.444C341.757 12.236 341.679 11.573 341.549 10.455C341.419 9.311 341.354 8.284 341.354 7.374C341.354 5.164 342.03 3.448 343.382 2.226C344.734 0.977998 346.541 0.353999 348.803 0.353999H351.611V5.814H350.09C349.258 5.814 348.66 5.996 348.296 6.36C347.932 6.724 347.75 7.283 347.75 8.037C347.75 8.609 347.854 9.909 348.062 11.937C348.296 14.459 348.413 16.11 348.413 16.89C348.413 18.32 348.062 19.503 347.36 20.439C346.684 21.375 345.644 21.973 344.24 22.233V22.311C345.644 22.597 346.684 23.208 347.36 24.144C348.062 25.054 348.413 26.237 348.413 27.693C348.413 28.473 348.296 30.124 348.062 32.646C347.854 34.622 347.75 35.909 347.75 36.507C347.75 37.261 347.932 37.82 348.296 38.184C348.66 38.574 349.258 38.769 350.09 38.769H351.611V44.229H348.803C346.541 44.229 344.734 43.605 343.382 42.357C342.03 41.135 341.354 39.406 341.354 37.17C341.354 36.26 341.419 35.246 341.549 34.128C341.679 32.984 341.757 32.308 341.783 32.1C342.043 30.02 342.173 28.629 342.173 27.927C342.173 27.043 341.874 26.341 341.276 25.821C340.678 25.275 339.742 24.976 338.468 24.924V19.62ZM355.562 22.272C355.562 19.568 356.147 17.163 357.317 15.057C358.487 12.925 360.112 11.274 362.192 10.104C364.298 8.908 366.677 8.31 369.329 8.31C372.579 8.31 375.361 9.168 377.675 10.884C379.989 12.6 381.536 14.94 382.316 17.904H374.984C374.438 16.76 373.658 15.889 372.644 15.291C371.656 14.693 370.525 14.394 369.251 14.394C367.197 14.394 365.533 15.109 364.259 16.539C362.985 17.969 362.348 19.88 362.348 22.272C362.348 24.664 362.985 26.575 364.259 28.005C365.533 29.435 367.197 30.15 369.251 30.15C370.525 30.15 371.656 29.851 372.644 29.253C373.658 28.655 374.438 27.784 374.984 26.64H382.316C381.536 29.604 379.989 31.944 377.675 33.66C375.361 35.35 372.579 36.195 369.329 36.195C366.677 36.195 364.298 35.61 362.192 34.44C360.112 33.244 358.487 31.593 357.317 29.487C356.147 27.381 355.562 24.976 355.562 22.272ZM403.337 31.164H393.119L391.481 36H384.5L394.406 8.622H402.128L412.034 36H404.975L403.337 31.164ZM401.621 26.016L398.228 15.993L394.874 26.016H401.621ZM439.435 36H432.766L421.612 19.113V36H414.943V8.622H421.612L432.766 25.587V8.622H439.435V36ZM454.42 8.622C457.306 8.622 459.828 9.194 461.986 10.338C464.144 11.482 465.808 13.094 466.978 15.174C468.174 17.228 468.772 19.607 468.772 22.311C468.772 24.989 468.174 27.368 466.978 29.448C465.808 31.528 464.131 33.14 461.947 34.284C459.789 35.428 457.28 36 454.42 36H444.163V8.622H454.42ZM453.991 30.228C456.513 30.228 458.476 29.539 459.88 28.161C461.284 26.783 461.986 24.833 461.986 22.311C461.986 19.789 461.284 17.826 459.88 16.422C458.476 15.018 456.513 14.316 453.991 14.316H450.832V30.228H453.991ZM479.062 8.622V36H472.393V8.622H479.062ZM494.046 8.622C496.932 8.622 499.454 9.194 501.612 10.338C503.77 11.482 505.434 13.094 506.604 15.174C507.8 17.228 508.398 19.607 508.398 22.311C508.398 24.989 507.8 27.368 506.604 29.448C505.434 31.528 503.757 33.14 501.573 34.284C499.415 35.428 496.906 36 494.046 36H483.789V8.622H494.046ZM493.617 30.228C496.139 30.228 498.102 29.539 499.506 28.161C500.91 26.783 501.612 24.833 501.612 22.311C501.612 19.789 500.91 17.826 499.506 16.422C498.102 15.018 496.139 14.316 493.617 14.316H490.458V30.228H493.617ZM529.062 31.164H518.844L517.206 36H510.225L520.131 8.622H527.853L537.759 36H530.7L529.062 31.164ZM527.346 26.016L523.953 15.993L520.599 26.016H527.346ZM560.363 8.622V13.965H553.109V36H546.44V13.965H539.186V8.622H560.363ZM588.681 37.599V43.995H564.501V37.599H588.681ZM618.421 36H611.752L600.598 19.113V36H593.929V8.622H600.598L611.752 25.587V8.622H618.421V36ZM640.192 31.164H629.974L628.336 36H621.355L631.261 8.622H638.983L648.889 36H641.83L640.192 31.164ZM638.476 26.016L635.083 15.993L631.729 26.016H638.476ZM682.803 8.622V36H676.134V19.581L670.011 36H664.629L658.467 19.542V36H651.798V8.622H659.676L667.359 27.576L674.964 8.622H682.803ZM694.161 13.965V19.503H703.092V24.651H694.161V30.657H704.262V36H687.492V8.622H704.262V13.965H694.161ZM721.98 24.924C720.706 24.976 719.77 25.275 719.172 25.821C718.574 26.341 718.275 27.043 718.275 27.927C718.275 28.629 718.405 30.02 718.665 32.1C718.691 32.308 718.769 32.984 718.899 34.128C719.029 35.246 719.094 36.26 719.094 37.17C719.094 39.406 718.418 41.135 717.066 42.357C715.714 43.605 713.907 44.229 711.645 44.229H708.837V38.769H710.358C711.19 38.769 711.788 38.574 712.152 38.184C712.516 37.82 712.698 37.261 712.698 36.507C712.698 35.909 712.594 34.622 712.386 32.646C712.152 30.124 712.035 28.473 712.035 27.693C712.035 26.237 712.373 25.054 713.049 24.144C713.751 23.208 714.804 22.597 716.208 22.311V22.233C714.804 21.973 713.751 21.375 713.049 20.439C712.373 19.503 712.035 18.32 712.035 16.89C712.035 16.11 712.152 14.459 712.386 11.937C712.594 9.909 712.698 8.609 712.698 8.037C712.698 7.283 712.516 6.724 712.152 6.36C711.788 5.996 711.19 5.814 710.358 5.814H708.837V0.353999H711.645C713.907 0.353999 715.714 0.977998 717.066 2.226C718.418 3.448 719.094 5.164 719.094 7.374C719.094 8.284 719.029 9.311 718.899 10.455C718.769 11.573 718.691 12.236 718.665 12.444C718.405 14.524 718.275 15.915 718.275 16.617C718.275 17.553 718.574 18.281 719.172 18.801C719.77 19.295 720.706 19.568 721.98 19.62V24.924Z" fill="#C4C4C4"/>
<path d="M-0.529999 39.9H334.922V41.85H-0.529999V39.9Z" fill="black"/>
<path d="M334.919 39.9H725.529V41.85H334.919V39.9Z" fill="#C4C4C4"/>
</svg>
