<svg width="553" height="45" viewBox="0 0 553 45" fill="none" xmlns="http://www.w3.org/2000/svg">
<path d="M0.537916 22.272C0.537916 19.568 1.12292 17.163 2.29292 15.057C3.46292 12.925 5.08792 11.274 7.16792 10.104C9.27392 8.908 11.6529 8.31 14.3049 8.31C17.5549 8.31 20.3369 9.168 22.6509 10.884C24.9649 12.6 26.5119 14.94 27.2919 17.904H19.9599C19.4139 16.76 18.6339 15.889 17.6199 15.291C16.6319 14.693 15.5009 14.394 14.2269 14.394C12.1729 14.394 10.5089 15.109 9.23492 16.539C7.96092 17.969 7.32392 19.88 7.32392 22.272C7.32392 24.664 7.96092 26.575 9.23492 28.005C10.5089 29.435 12.1729 30.15 14.2269 30.15C15.5009 30.15 16.6319 29.851 17.6199 29.253C18.6339 28.655 19.4139 27.784 19.9599 26.64H27.2919C26.5119 29.604 24.9649 31.944 22.6509 33.66C20.3369 35.35 17.5549 36.195 14.3049 36.195C11.6529 36.195 9.27392 35.61 7.16792 34.44C5.08792 33.244 3.46292 31.593 2.29292 29.487C1.12292 27.381 0.537916 24.976 0.537916 22.272ZM37.939 30.852H46.675V36H31.27V8.622H37.939V30.852ZM56.4189 13.965V19.503H65.3499V24.651H56.4189V30.657H66.5199V36H49.7499V8.622H66.5199V13.965H56.4189ZM77.4125 8.622V36H70.7435V8.622H77.4125ZM106.631 36H99.9625L88.8085 19.113V36H82.1395V8.622H88.8085L99.9625 25.587V8.622H106.631V36ZM131.055 8.622V13.965H123.801V36H117.132V13.965H109.878V8.622H131.055ZM160.277 8.622V13.965H149.123V19.737H157.469V24.924H149.123V36H142.454V8.622H160.277ZM170.345 8.622V36H163.676V8.622H170.345ZM181.741 30.852H190.477V36H175.072V8.622H181.741V30.852ZM200.221 13.965V19.503H209.152V24.651H200.221V30.657H210.322V36H193.552V8.622H210.322V13.965H200.221ZM217.666 36.312C216.496 36.312 215.534 35.974 214.78 35.298C214.052 34.596 213.688 33.738 213.688 32.724C213.688 31.684 214.052 30.813 214.78 30.111C215.534 29.409 216.496 29.058 217.666 29.058C218.81 29.058 219.746 29.409 220.474 30.111C221.228 30.813 221.605 31.684 221.605 32.724C221.605 33.738 221.228 34.596 220.474 35.298C219.746 35.974 218.81 36.312 217.666 36.312ZM217.666 20.439C216.496 20.439 215.534 20.101 214.78 19.425C214.052 18.723 213.688 17.865 213.688 16.851C213.688 15.811 214.052 14.94 214.78 14.238C215.534 13.536 216.496 13.185 217.666 13.185C218.81 13.185 219.746 13.536 220.474 14.238C221.228 14.94 221.605 15.811 221.605 16.851C221.605 17.865 221.228 18.723 220.474 19.425C219.746 20.101 218.81 20.439 217.666 20.439Z" fill="black"/>
<path d="M242.971 19.62C244.245 19.568 245.181 19.295 245.779 18.801C246.377 18.281 246.676 17.553 246.676 16.617C246.676 15.915 246.546 14.524 246.286 12.444C246.26 12.236 246.182 11.573 246.052 10.455C245.922 9.311 245.857 8.284 245.857 7.374C245.857 5.164 246.533 3.448 247.885 2.226C249.237 0.977998 251.044 0.353999 253.306 0.353999H256.114V5.814H254.593C253.761 5.814 253.163 5.996 252.799 6.36C252.435 6.724 252.253 7.283 252.253 8.037C252.253 8.609 252.357 9.909 252.565 11.937C252.799 14.459 252.916 16.11 252.916 16.89C252.916 18.32 252.565 19.503 251.863 20.439C251.187 21.375 250.147 21.973 248.743 22.233V22.311C250.147 22.597 251.187 23.208 251.863 24.144C252.565 25.054 252.916 26.237 252.916 27.693C252.916 28.473 252.799 30.124 252.565 32.646C252.357 34.622 252.253 35.909 252.253 36.507C252.253 37.261 252.435 37.82 252.799 38.184C253.163 38.574 253.761 38.769 254.593 38.769H256.114V44.229H253.306C251.044 44.229 249.237 43.605 247.885 42.357C246.533 41.135 245.857 39.406 245.857 37.17C245.857 36.26 245.922 35.246 246.052 34.128C246.182 32.984 246.26 32.308 246.286 32.1C246.546 30.02 246.676 28.629 246.676 27.927C246.676 27.043 246.377 26.341 245.779 25.821C245.181 25.275 244.245 24.976 242.971 24.924V19.62ZM260.065 22.272C260.065 19.568 260.65 17.163 261.82 15.057C262.99 12.925 264.615 11.274 266.695 10.104C268.801 8.908 271.18 8.31 273.832 8.31C277.082 8.31 279.864 9.168 282.178 10.884C284.492 12.6 286.039 14.94 286.819 17.904H279.487C278.941 16.76 278.161 15.889 277.147 15.291C276.159 14.693 275.028 14.394 273.754 14.394C271.7 14.394 270.036 15.109 268.762 16.539C267.488 17.969 266.851 19.88 266.851 22.272C266.851 24.664 267.488 26.575 268.762 28.005C270.036 29.435 271.7 30.15 273.754 30.15C275.028 30.15 276.159 29.851 277.147 29.253C278.161 28.655 278.941 27.784 279.487 26.64H286.819C286.039 29.604 284.492 31.944 282.178 33.66C279.864 35.35 277.082 36.195 273.832 36.195C271.18 36.195 268.801 35.61 266.695 34.44C264.615 33.244 262.99 31.593 261.82 29.487C260.65 27.381 260.065 24.976 260.065 22.272ZM297.466 30.852H306.202V36H290.797V8.622H297.466V30.852ZM315.946 8.622V36H309.277V8.622H315.946ZM327.342 13.965V19.503H336.273V24.651H327.342V30.657H337.443V36H320.673V8.622H337.443V13.965H327.342ZM366.159 36H359.49L348.336 19.113V36H341.667V8.622H348.336L359.49 25.587V8.622H366.159V36ZM390.582 8.622V13.965H383.328V36H376.659V13.965H369.405V8.622H390.582ZM418.9 37.599V43.995H394.72V37.599H418.9ZM448.64 36H441.971L430.817 19.113V36H424.148V8.622H430.817L441.971 25.587V8.622H448.64V36ZM470.411 31.164H460.193L458.555 36H451.574L461.48 8.622H469.202L479.108 36H472.049L470.411 31.164ZM468.695 26.016L465.302 15.993L461.948 26.016H468.695ZM513.022 8.622V36H506.353V19.581L500.23 36H494.848L488.686 19.542V36H482.017V8.622H489.895L497.578 27.576L505.183 8.622H513.022ZM524.381 13.965V19.503H533.312V24.651H524.381V30.657H534.482V36H517.712V8.622H534.482V13.965H524.381ZM552.199 24.924C550.925 24.976 549.989 25.275 549.391 25.821C548.793 26.341 548.494 27.043 548.494 27.927C548.494 28.629 548.624 30.02 548.884 32.1C548.91 32.308 548.988 32.984 549.118 34.128C549.248 35.246 549.313 36.26 549.313 37.17C549.313 39.406 548.637 41.135 547.285 42.357C545.933 43.605 544.126 44.229 541.864 44.229H539.056V38.769H540.577C541.409 38.769 542.007 38.574 542.371 38.184C542.735 37.82 542.917 37.261 542.917 36.507C542.917 35.909 542.813 34.622 542.605 32.646C542.371 30.124 542.254 28.473 542.254 27.693C542.254 26.237 542.592 25.054 543.268 24.144C543.97 23.208 545.023 22.597 546.427 22.311V22.233C545.023 21.973 543.97 21.375 543.268 20.439C542.592 19.503 542.254 18.32 542.254 16.89C542.254 16.11 542.371 14.459 542.605 11.937C542.813 9.909 542.917 8.609 542.917 8.037C542.917 7.283 542.735 6.724 542.371 6.36C542.007 5.996 541.409 5.814 540.577 5.814H539.056V0.353999H541.864C544.126 0.353999 545.933 0.977998 547.285 2.226C548.637 3.448 549.313 5.164 549.313 7.374C549.313 8.284 549.248 9.311 549.118 10.455C548.988 11.573 548.91 12.236 548.884 12.444C548.624 14.524 548.494 15.915 548.494 16.617C548.494 17.553 548.793 18.281 549.391 18.801C549.989 19.295 550.925 19.568 552.199 19.62V24.924Z" fill="#C4C4C4"/>
<path d="M-0.749084 39.9H239.426V41.85H-0.749084V39.9Z" fill="black"/>
<path d="M239.422 39.9H555.748V41.85H239.422V39.9Z" fill="#C4C4C4"/>
</svg>
