<svg width="17" height="17" viewBox="0 0 17 17" fill="none" xmlns="http://www.w3.org/2000/svg">
<path d="M8.69321 13.5537C8.48911 13.5536 8.28862 13.4998 8.11188 13.3977L4.64521 11.3977C4.37749 11.2427 4.18221 10.9878 4.10222 10.6889C4.02223 10.3901 4.06407 10.0717 4.21854 9.8037L4.71854 8.93703C4.98288 8.56918 5.32882 8.26754 5.72924 8.05576C6.12967 7.84398 6.5737 7.72781 7.02654 7.71637C7.04917 7.71242 7.07065 7.70354 7.08946 7.69037C7.10827 7.6772 7.12396 7.66005 7.13541 7.64014C7.14686 7.62023 7.15379 7.59804 7.15571 7.57516C7.15764 7.55227 7.15451 7.52924 7.14654 7.5077C6.92961 7.10957 6.80792 6.66656 6.79103 6.21347C6.77414 5.76038 6.86251 5.30955 7.04921 4.89637L7.54921 4.0297C7.70437 3.76232 7.95909 3.56726 8.25768 3.48718C8.55626 3.4071 8.87441 3.44852 9.14254 3.60237L12.6092 5.60237C12.8769 5.75739 13.0722 6.01229 13.1522 6.31113C13.2322 6.60997 13.1904 6.92834 13.0359 7.19637L12.5359 8.06304C12.2715 8.43119 11.9254 8.73307 11.5247 8.94498C11.124 9.15688 10.6797 9.27305 10.2265 9.28437C10.2039 9.28812 10.1823 9.29685 10.1635 9.30992C10.1446 9.323 10.1288 9.3401 10.1174 9.35999C10.1059 9.37989 10.099 9.40208 10.0971 9.42497C10.0952 9.44786 10.0984 9.47088 10.1065 9.49237C10.3236 9.89059 10.4453 10.3337 10.4622 10.7869C10.4791 11.2401 10.3907 11.6911 10.2039 12.1044L9.70388 12.971C9.60137 13.1483 9.45401 13.2955 9.2766 13.3978C9.09919 13.5 8.89799 13.5538 8.69321 13.5537ZM8.55988 4.44703C8.53056 4.44698 8.50175 4.45465 8.47636 4.46928C8.45096 4.48391 8.42986 4.50498 8.41521 4.53037L7.91521 5.39703C7.81436 5.67824 7.77584 5.978 7.80232 6.27557C7.8288 6.57313 7.91963 6.86139 8.06854 7.12037C8.13615 7.28432 8.16519 7.46161 8.15343 7.63857C8.14167 7.81552 8.08943 7.98741 8.00073 8.14098C7.91203 8.29455 7.78924 8.4257 7.64183 8.5243C7.49443 8.62291 7.32634 8.68634 7.15054 8.7097C6.8519 8.71032 6.55696 8.7758 6.28611 8.90161C6.01527 9.02742 5.77498 9.21056 5.58188 9.43837L5.08188 10.305C5.07087 10.324 5.0637 10.3449 5.06079 10.3666C5.05788 10.3884 5.05929 10.4104 5.06492 10.4316C5.07056 10.4528 5.08031 10.4727 5.09363 10.4901C5.10695 10.5075 5.12357 10.5221 5.14254 10.533L8.60921 12.533C8.64758 12.5546 8.6929 12.5603 8.73542 12.5489C8.77794 12.5374 8.81425 12.5097 8.83654 12.4717L9.33654 11.605C9.43739 11.3238 9.47591 11.0241 9.44943 10.7265C9.42296 10.4289 9.33212 10.1407 9.18321 9.8817C9.11545 9.7178 9.08629 9.54051 9.09799 9.36355C9.10968 9.18658 9.16192 9.01467 9.25065 8.86111C9.33938 8.70755 9.46224 8.57645 9.60973 8.47795C9.75721 8.37945 9.92537 8.31618 10.1012 8.29304C10.3998 8.29203 10.6947 8.2263 10.9655 8.1004C11.2363 7.97449 11.4766 7.79139 11.6699 7.5637L12.1699 6.69703C12.1809 6.67809 12.188 6.65715 12.191 6.63543C12.1939 6.61371 12.1925 6.59163 12.1868 6.57045C12.1812 6.54928 12.1714 6.52942 12.1581 6.51201C12.1448 6.49461 12.1282 6.48001 12.1092 6.46903L8.64254 4.46903C8.61733 4.45472 8.58886 4.44714 8.55988 4.44703Z" fill="white"/>
<path d="M15.2911 8.99946C15.1585 8.99946 15.0313 8.94678 14.9375 8.85301C14.8437 8.75924 14.7911 8.63207 14.7911 8.49946C14.7911 7.27976 14.4295 6.08743 13.7519 5.07326C13.0743 4.05909 12.1112 3.26864 10.9843 2.80187C9.85747 2.3351 8.61751 2.21298 7.42125 2.45095C6.22498 2.68892 5.12616 3.2763 4.26373 4.13879C4.057 4.34581 3.86498 4.56702 3.68906 4.80079C3.6095 4.90688 3.49105 4.97701 3.35978 4.99577C3.2285 5.01452 3.09515 4.98036 2.98906 4.90079C2.88298 4.82123 2.81284 4.70278 2.79409 4.5715C2.77534 4.44023 2.8095 4.30688 2.88906 4.20079C3.09368 3.93044 3.31641 3.6743 3.55573 3.43412C4.55782 2.43162 5.83468 1.74878 7.22485 1.47197C8.61501 1.19516 10.056 1.33681 11.3657 1.879C12.6754 2.42119 13.7948 3.33957 14.5826 4.51801C15.3703 5.69644 15.7908 7.082 15.7911 8.49946C15.7911 8.63207 15.7384 8.75924 15.6446 8.85301C15.5508 8.94678 15.4237 8.99946 15.2911 8.99946Z" fill="white"/>
<path d="M8.6237 15.6667C7.68251 15.6668 6.75051 15.4816 5.88093 15.1215C5.01135 14.7614 4.22123 14.2335 3.55571 13.568C2.89019 12.9025 2.3623 12.1124 2.0022 11.2428C1.64211 10.3732 1.45686 9.44119 1.45703 8.5C1.45703 8.36739 1.50971 8.24022 1.60348 8.14645C1.69725 8.05268 1.82442 8 1.95703 8C2.08964 8 2.21682 8.05268 2.31058 8.14645C2.40435 8.24022 2.45703 8.36739 2.45703 8.5C2.45696 9.7197 2.81859 10.912 3.49619 11.9262C4.17379 12.9404 5.13692 13.7308 6.26377 14.1976C7.39062 14.6644 8.63059 14.7865 9.82685 14.5485C11.0231 14.3105 12.1219 13.7232 12.9844 12.8607C13.191 12.654 13.3828 12.433 13.5584 12.1993C13.6405 12.1008 13.7574 12.0376 13.8849 12.0227C14.0123 12.0078 14.1406 12.0425 14.2433 12.1195C14.3459 12.1965 14.4151 12.3099 14.4365 12.4364C14.4579 12.5629 14.43 12.6928 14.3584 12.7993C14.154 13.0701 13.9313 13.3265 13.6917 13.5667C13.0277 14.2343 12.2379 14.7637 11.368 15.1242C10.4981 15.4846 9.56533 15.669 8.6237 15.6667Z" fill="white"/>
<path d="M14.2805 14.6568C14.1479 14.6568 14.0207 14.6041 13.927 14.5104C13.8332 14.4166 13.7805 14.2894 13.7805 14.1568V12.7715H12.3945C12.2619 12.7715 12.1347 12.7188 12.041 12.625C11.9472 12.5313 11.8945 12.4041 11.8945 12.2715C11.8945 12.1389 11.9472 12.0117 12.041 11.9179C12.1347 11.8242 12.2619 11.7715 12.3945 11.7715H14.2805C14.4131 11.7715 14.5403 11.8242 14.6341 11.9179C14.7279 12.0117 14.7805 12.1389 14.7805 12.2715V14.1568C14.7805 14.2894 14.7279 14.4166 14.6341 14.5104C14.5403 14.6041 14.4131 14.6568 14.2805 14.6568Z" fill="white"/>
<path d="M4.85408 5.22908H2.96875C2.83614 5.22908 2.70896 5.1764 2.6152 5.08264C2.52143 4.98887 2.46875 4.86169 2.46875 4.72908V2.84375C2.46875 2.71114 2.52143 2.58396 2.6152 2.4902C2.70896 2.39643 2.83614 2.34375 2.96875 2.34375C3.10136 2.34375 3.22854 2.39643 3.3223 2.4902C3.41607 2.58396 3.46875 2.71114 3.46875 2.84375V4.22908H4.85408C4.98669 4.22908 5.11387 4.28176 5.20764 4.37553C5.3014 4.4693 5.35408 4.59648 5.35408 4.72908C5.35408 4.86169 5.3014 4.98887 5.20764 5.08264C5.11387 5.1764 4.98669 5.22908 4.85408 5.22908Z" fill="white"/>
</svg>
