<svg width="17" height="17" viewBox="0 0 17 17" fill="none" xmlns="http://www.w3.org/2000/svg">
<path d="M8.37243 8.33401C8.25303 8.33398 8.13757 8.29126 8.04691 8.21357L5.71357 6.21357C5.61291 6.12724 5.55066 6.00445 5.54053 5.87223C5.53039 5.74 5.5732 5.60916 5.65953 5.50849C5.74587 5.40783 5.86865 5.34558 6.00088 5.33545C6.13311 5.32531 6.26395 5.36812 6.36461 5.45445L8.37243 7.17516L10.3802 5.45445C10.4809 5.36812 10.6117 5.32531 10.744 5.33545C10.8762 5.34558 10.999 5.40783 11.0853 5.50849C11.1717 5.60916 11.2145 5.74 11.2043 5.87223C11.1942 6.00445 11.1319 6.12724 11.0313 6.21357L8.69795 8.21357C8.60728 8.29126 8.49183 8.33398 8.37243 8.33401Z" fill="#6B7280"/>
<path d="M8.375 8.33333C8.2424 8.3333 8.11525 8.28061 8.02149 8.18685C7.92773 8.09309 7.87504 7.96593 7.875 7.83333V2.5C7.875 2.36739 7.92768 2.24021 8.02145 2.14645C8.11522 2.05268 8.24239 2 8.375 2C8.50761 2 8.63478 2.05268 8.72855 2.14645C8.82232 2.24021 8.875 2.36739 8.875 2.5V7.83333C8.87496 7.96593 8.82227 8.09309 8.72851 8.18685C8.63475 8.28061 8.5076 8.3333 8.375 8.33333Z" fill="#6B7280"/>
<path d="M1.70779 11.666C1.69379 11.666 1.67979 11.6653 1.66547 11.6641C1.60004 11.6586 1.53632 11.6403 1.47796 11.6103C1.4196 11.5802 1.36773 11.5389 1.32532 11.4888C1.28291 11.4387 1.25078 11.3807 1.23079 11.3182C1.21079 11.2556 1.2033 11.1898 1.20876 11.1243L1.77354 4.34702C1.81419 3.88966 2.02398 3.46391 2.36189 3.15302C2.6998 2.84214 3.14152 2.66849 3.60068 2.66602H5.70712C5.83973 2.66602 5.96691 2.71869 6.06068 2.81246C6.15444 2.90623 6.20712 3.03341 6.20712 3.16602C6.20712 3.29862 6.15444 3.4258 6.06068 3.51957C5.96691 3.61334 5.83973 3.66602 5.70712 3.66602H3.60068C3.39195 3.66716 3.19115 3.74613 3.03758 3.88749C2.884 4.02885 2.78868 4.22242 2.77028 4.43034L2.2055 11.2077C2.19504 11.3325 2.1381 11.4489 2.04593 11.5338C1.95376 11.6187 1.83309 11.6659 1.70779 11.666Z" fill="#6B7280"/>
<path d="M15.0384 11.666C14.9131 11.6659 14.7924 11.6187 14.7003 11.5338C14.6081 11.4489 14.5511 11.3325 14.5407 11.2077L13.9759 4.43035C13.9575 4.22243 13.8622 4.02886 13.7086 3.8875C13.555 3.74614 13.3542 3.66716 13.1455 3.66602H11.0391C10.9065 3.66602 10.7793 3.61334 10.6855 3.51957C10.5917 3.4258 10.5391 3.29862 10.5391 3.16602C10.5391 3.03341 10.5917 2.90623 10.6855 2.81246C10.7793 2.71869 10.9065 2.66602 11.0391 2.66602H13.1455C13.6047 2.66848 14.0464 2.84213 14.3843 3.15301C14.7222 3.46389 14.932 3.88964 14.9727 4.347L15.5374 11.1243C15.5429 11.1898 15.5354 11.2556 15.5154 11.3182C15.4954 11.3807 15.4633 11.4387 15.4209 11.4888C15.3785 11.5389 15.3266 11.5802 15.2682 11.6103C15.2099 11.6403 15.1462 11.6586 15.0807 11.664C15.0664 11.6653 15.0524 11.666 15.0384 11.666Z" fill="#6B7280"/>
<path d="M14.0404 15H2.70703C2.30936 14.9995 1.92811 14.8413 1.64691 14.5601C1.36571 14.2789 1.20752 13.8977 1.20703 13.5V11.1667C1.20741 10.8574 1.33044 10.5608 1.54916 10.3421C1.76787 10.1234 2.06439 10.0004 2.3737 10H4.6263C5.02389 10.0012 5.40497 10.1591 5.68685 10.4395L7.10091 11.8535C7.19488 11.947 7.3219 11.9996 7.45442 12H9.29297C9.42549 11.9996 9.55251 11.947 9.64648 11.8535L11.0605 10.4395C11.3424 10.1591 11.7235 10.0012 12.1211 10H14.3737C14.683 10.0004 14.9795 10.1234 15.1982 10.3421C15.417 10.5608 15.54 10.8574 15.5404 11.1667V13.5C15.5399 13.8977 15.3817 14.2789 15.1005 14.5601C14.8193 14.8413 14.438 14.9995 14.0404 15ZM2.3737 11C2.32952 11.0001 2.28718 11.0177 2.25594 11.0489C2.2247 11.0801 2.20712 11.1225 2.20703 11.1667V13.5C2.20723 13.6325 2.25997 13.7596 2.3537 13.8533C2.44742 13.9471 2.57448 13.9998 2.70703 14H14.0404C14.1729 13.9998 14.3 13.9471 14.3937 13.8533C14.4874 13.7596 14.5402 13.6325 14.5404 13.5V11.1667C14.5403 11.1225 14.5227 11.0801 14.4915 11.0489C14.4602 11.0177 14.4179 11.0001 14.3737 11H12.1211C11.9886 11.0004 11.8615 11.053 11.7676 11.1465L10.3535 12.5605C10.0716 12.8409 9.69055 12.9988 9.29297 13H7.45442C7.05684 12.9988 6.67575 12.8409 6.39388 12.5605L4.97982 11.1465C4.88585 11.053 4.75883 11.0004 4.6263 11H2.3737Z" fill="#6B7280"/>
</svg>
