<svg width="17" height="17" viewBox="0 0 17 17" fill="none" xmlns="http://www.w3.org/2000/svg">
<g clip-path="url(#clip0_6101_5321)">
<path d="M16.2213 12.0445C15.7026 11.3183 14.8389 11.1114 14.0721 11.5297L11.4605 12.9542C11.3532 12.5266 10.9657 12.2089 10.5053 12.2089H8.37994C8.25462 11.9558 7.9933 11.4736 7.73689 11.2841C6.21997 9.91279 3.58357 11.1383 3.16492 11.3467H2.42294V10.7397H0.375V11.2087H1.95395V14.8043H0.375V15.2733H2.42294V14.6643H3.79478L9.64325 16.4829L16.375 12.2595L16.2213 12.0445ZM9.57665 15.971L3.866 14.1953H2.42294V11.8157H3.27882C4.48667 11.1926 6.40419 10.7003 7.43067 11.6395C7.43379 11.642 7.45784 11.6613 7.45471 11.6588C7.70831 11.8359 8.08022 12.6748 8.08185 12.6779H10.5053C10.7897 12.6779 11.0212 12.9094 11.0212 13.1938C11.0212 13.4783 10.7897 13.7097 10.5053 13.7097H7.31611V14.1787H10.5053C10.9419 14.1787 11.3129 13.893 11.4416 13.4988L14.2967 11.9415C14.7846 11.6753 15.3099 11.7553 15.6882 12.1368L9.57665 15.971ZM8.37916 10.3645C11.0945 10.3645 13.3036 8.15541 13.3036 5.44006C13.3036 2.72471 11.0945 0.515625 8.37916 0.515625C5.66381 0.515625 3.45472 2.72474 3.45472 5.44006C3.45472 8.15538 5.66381 10.3645 8.37916 10.3645ZM9.86646 9.63993C10.2005 9.28071 10.4521 8.84258 10.6431 8.395C10.8597 8.52307 11.0663 8.67014 11.2607 8.83529C10.8524 9.18231 10.3811 9.45711 9.86646 9.63993ZM11.6039 8.51147C11.3571 8.29726 11.0919 8.10998 10.8124 7.95077C11.0429 7.26526 11.1757 6.4876 11.1971 5.67455H12.8285C12.7713 6.77141 12.3157 7.76448 11.6039 8.51147ZM12.8284 5.20556H11.1971C11.1771 4.44904 11.0604 3.72354 10.8586 3.07399C11.1538 2.90136 11.4326 2.69707 11.6904 2.46232C12.3524 3.19774 12.7736 4.15392 12.8284 5.20556ZM11.3583 2.13009C11.1524 2.31575 10.9319 2.48018 10.6996 2.62244C10.6143 2.40711 10.5191 2.20203 10.4135 2.01053C10.2483 1.71093 10.0646 1.45321 9.86646 1.24022C10.4226 1.43776 10.9283 1.74267 11.3583 2.13009ZM8.61366 1.00747C9.12933 1.10737 9.61564 1.53506 10.0028 2.23705C10.1075 2.42687 10.2011 2.6316 10.2843 2.84752C9.76528 3.09331 9.19999 3.23644 8.61366 3.26662V1.00747ZM8.61366 3.73617C9.25236 3.70644 9.86871 3.55524 10.4364 3.29397C10.6091 3.87762 10.7091 4.52727 10.7279 5.20556H8.61366V3.73617ZM8.61366 5.67455H10.7279C10.7075 6.41175 10.5909 7.11493 10.3895 7.73644C9.83391 7.48787 9.23326 7.34355 8.61366 7.31444V5.67455ZM8.61366 7.78421C9.17682 7.81345 9.72251 7.94758 10.2264 8.17726C10.1582 8.34016 10.0839 8.49615 10.0028 8.64313C9.61564 9.34512 9.12933 9.77281 8.61366 9.87271V7.78421ZM5.4976 8.83529C5.69204 8.67011 5.89865 8.52307 6.11526 8.395C6.18577 8.56027 6.26193 8.71929 6.34485 8.86962C6.51009 9.16922 6.69378 9.42694 6.89189 9.63993C6.37721 9.45711 5.90587 9.18231 5.4976 8.83529ZM8.14466 9.87267C7.62899 9.77278 7.14267 9.34509 6.7555 8.6431C6.67446 8.49615 6.60017 8.34013 6.53192 8.17726C7.0358 7.94758 7.58146 7.81345 8.14466 7.78421V9.87267ZM8.14466 7.31447C7.52509 7.34355 6.92443 7.48787 6.3688 7.73647C6.16742 7.11493 6.05079 6.41178 6.03041 5.67459H8.14463V7.31447H8.14466ZM8.14466 5.20556H6.03044C6.0492 4.52727 6.14925 3.87759 6.322 3.29397C6.88963 3.5552 7.50599 3.70644 8.14469 3.73617V5.20556H8.14466ZM8.14466 1.00747V3.26662C7.55833 3.23641 6.99306 3.09331 6.47404 2.84752C6.55724 2.63163 6.65082 2.4269 6.7555 2.23708C7.14267 1.53503 7.62899 1.10737 8.14466 1.00747ZM6.89189 1.24022C6.59692 1.55738 6.3032 2.00599 6.0587 2.62244C5.82639 2.48018 5.60594 2.31575 5.40002 2.13009C5.83005 1.74267 6.33572 1.43776 6.89189 1.24022ZM5.06794 2.46232C5.32576 2.69707 5.60453 2.90136 5.89971 3.07399C5.69792 3.72354 5.58117 4.44904 5.56126 5.20556H3.92988C3.98469 4.15392 4.40594 3.19774 5.06794 2.46232ZM5.56126 5.67455C5.58267 6.4876 5.71543 7.26522 5.94599 7.95077C5.66644 8.10998 5.40127 8.29729 5.15442 8.51147C4.44264 7.76448 3.98703 6.77141 3.92988 5.67455H5.56126ZM12.8033 11.1618V8.78555H13.2723V11.1618H12.8033ZM11.709 9.91113H12.178V11.5995H11.709V9.91113ZM10.5834 11.5995V10.5677H11.0524V11.5995H10.5834Z" fill="#6B7280"/>
</g>
<defs>
<clipPath id="clip0_6101_5321">
<rect width="16" height="16" fill="white" transform="translate(0.375 0.5)"/>
</clipPath>
</defs>
</svg>
