<svg width="17" height="17" viewBox="0 0 17 17" fill="none" xmlns="http://www.w3.org/2000/svg">
<path d="M10.817 8.92461C10.817 8.67611 10.6155 8.47461 10.367 8.47461H6.15703C5.90853 8.47461 5.70703 8.67611 5.70703 8.92461C5.70703 9.17311 5.90853 9.37461 6.15703 9.37461H10.367C10.6155 9.37461 10.817 9.17311 10.817 8.92461Z" fill="#6B7280"/>
<path d="M6.15313 10.5625C5.90463 10.5625 5.70312 10.764 5.70312 11.0125C5.70312 11.261 5.90463 11.4625 6.15313 11.4625H8.56313C8.81163 11.4625 9.01312 11.261 9.01312 11.0125C9.01312 10.764 8.81163 10.5625 8.56313 10.5625H6.15313Z" fill="#6B7280"/>
<path d="M8.64094 14.1953H4.50594C4.22444 14.1953 3.99594 13.9663 3.99594 13.6853V6.73328H5.61194C6.38744 6.73328 7.01844 6.10228 7.01844 5.32678V3.71028H12.7709C13.0524 3.71028 13.2809 3.93928 13.2809 4.22028V8.37028C13.2809 8.61878 13.4824 8.82028 13.7309 8.82028C13.9794 8.82028 14.1809 8.61878 14.1809 8.37028V4.22028C14.1809 3.44278 13.5484 2.81028 12.7709 2.81028H12.4184V2.45828C12.4184 1.68178 11.7869 1.05078 11.0109 1.05078H2.74344C1.96744 1.05028 1.33594 1.68178 1.33594 2.45828V11.9273C1.33594 12.7033 1.96744 13.3348 2.74344 13.3348H3.09594V13.6853C3.09594 14.4628 3.72844 15.0953 4.50594 15.0953H8.64094C8.88944 15.0953 9.09094 14.8938 9.09094 14.6453C9.09094 14.3968 8.88944 14.1953 8.64094 14.1953ZM6.11794 5.32728C6.11794 5.60628 5.89044 5.83378 5.61144 5.83378H3.99594V5.58528C3.99594 5.51828 4.02494 5.44978 4.06944 5.40278L5.67894 3.78828C5.72994 3.73828 5.79594 3.71028 5.86594 3.71028H6.11794V5.32728ZM2.74344 12.4348C2.46344 12.4348 2.23544 12.2068 2.23544 11.9268V2.45828C2.23544 2.18328 2.46794 1.95028 2.74344 1.95028H11.0109C11.2909 1.95028 11.5184 2.17828 11.5184 2.45828V2.81028H5.86594C5.55544 2.81028 5.26294 2.93178 5.04244 3.15278L3.42694 4.77328C3.21344 4.99478 3.09594 5.28328 3.09594 5.58528V12.4348H2.74344Z" fill="#6B7280"/>
<path d="M12.7199 9.55664C10.9574 9.55664 9.52344 10.9906 9.52344 12.7531C9.52344 14.5156 10.9574 15.9496 12.7199 15.9496C14.4824 15.9496 15.9164 14.5156 15.9164 12.7531C15.9164 10.9906 14.4824 9.55664 12.7199 9.55664ZM12.7199 15.0496C11.4534 15.0496 10.4234 14.0191 10.4234 12.7531C10.4234 11.4871 11.4539 10.4566 12.7199 10.4566C13.9859 10.4566 15.0164 11.4871 15.0164 12.7531C15.0164 14.0196 13.9864 15.0496 12.7199 15.0496Z" fill="#6B7280"/>
<path d="M13.3719 11.9352L12.3859 12.7292L12.1404 12.4162C11.9869 12.2207 11.7039 12.1867 11.5084 12.3397C11.3129 12.4932 11.2784 12.7762 11.4319 12.9717L11.9589 13.6437C12.0334 13.7382 12.1424 13.7997 12.2619 13.8132C12.2789 13.8152 12.2959 13.8162 12.3129 13.8162C12.4154 13.8162 12.5149 13.7817 12.5949 13.7167L13.9359 12.6362C14.1294 12.4802 14.1599 12.1972 14.0039 12.0037C13.8489 11.8102 13.5654 11.7797 13.3719 11.9352Z" fill="#6B7280"/>
</svg>
