<svg width="25" height="25" viewBox="0 0 25 25" fill="white" xmlns="http://www.w3.org/2000/svg">
<path d="M19.4056 14.8879L19.4057 14.8879C19.6413 14.7527 19.9083 14.6819 20.1799 14.6824C20.4514 14.6829 20.7181 14.7548 20.9532 14.8908C21.1882 15.0268 21.3834 15.2222 21.5192 15.4574C21.655 15.6925 21.7266 15.9592 21.7269 16.2307C21.7269 16.2307 21.7269 16.2308 21.7269 16.2309L21.6769 16.231C21.6785 16.494 21.6105 16.7527 21.4797 16.9809C21.3489 17.2091 21.1599 17.3985 20.9321 17.53L19.4056 14.8879ZM19.4056 14.8879L15.0691 17.3905L19.4056 14.8879ZM6.91411 22.2185L6.91425 22.2185H10.5C10.5 22.2185 10.5 22.2185 10.5 22.2185C10.9482 22.2183 11.3887 22.1014 11.778 21.8793L20.5309 16.8376C20.5309 16.8376 20.5309 16.8376 20.5309 16.8376C20.637 16.7761 20.7248 16.6877 20.7856 16.5813C20.8463 16.4749 20.8778 16.3543 20.8769 16.2317L20.8769 16.2315C20.8765 16.1072 20.8437 15.9852 20.7816 15.8776C20.6882 15.7186 20.5359 15.6028 20.3576 15.5554C20.1793 15.508 19.9895 15.533 19.8295 15.6248L6.91411 22.2185ZM6.91411 22.2185C6.57589 22.2194 6.24084 22.1532 5.92838 22.0237C5.61592 21.8942 5.33227 21.704 5.09384 21.4641L5.09373 21.464M6.91411 22.2185L5.09373 21.464M5.09373 21.464L4.97187 21.3421V17.6423L7.06716 16.4783L7.06726 16.4783M5.09373 21.464L7.06726 16.4783M7.06726 16.4783C7.65079 16.1522 8.33873 16.0675 8.98394 16.2421L8.98406 16.2421M7.06726 16.4783L8.98406 16.2421M8.98406 16.2421L13.9697 17.5779L13.9697 17.5779M8.98406 16.2421L13.9697 17.5779M13.9697 17.5779L13.9706 17.5781M13.9697 17.5779L13.9706 17.5781M13.9706 17.5781C14.061 17.6005 14.146 17.6406 14.2206 17.6962C14.2953 17.7518 14.3581 17.8217 14.4054 17.9018C14.4527 17.9819 14.4836 18.0707 14.4962 18.1629C14.5088 18.2551 14.5028 18.3489 14.4788 18.4388C14.4547 18.5287 14.4129 18.6129 14.3559 18.6865C14.2989 18.76 14.2278 18.8215 14.1467 18.8672C14.0657 18.913 13.9763 18.9421 13.8839 18.9529C13.7914 18.9637 13.6978 18.956 13.6084 18.9302L13.6084 18.9302M13.9706 17.5781L13.6084 18.9302M13.6084 18.9302L13.6074 18.9299M13.6084 18.9302L13.6074 18.9299M13.6074 18.9299L10.3138 18.0476L13.6074 18.9299ZM15.3316 18.2214L19.8294 15.6248L13.791 19.806V19.756L13.7904 19.806C13.9998 19.8083 14.2074 19.7675 14.4002 19.6862C14.5931 19.6048 14.7672 19.4846 14.9116 19.3331C15.0561 19.1815 15.1677 19.0018 15.2397 18.8053C15.3081 18.6184 15.3393 18.42 15.3316 18.2214ZM4.12188 22.9685H1.97188V16.3185H4.12188V22.9685Z" fill="white" stroke="white" stroke-width="0.1"/>
<path d="M14.6718 16.3176H14.6719C15.5718 16.3176 16.4515 16.0507 17.1997 15.5508C17.948 15.0508 18.5311 14.3402 18.8755 13.5088C19.2199 12.6774 19.31 11.7625 19.1344 10.8799C18.9589 9.99731 18.5255 9.18657 17.8892 8.55024C17.2529 7.91392 16.4421 7.48057 15.5595 7.30501C14.6769 7.12944 13.7621 7.21955 12.9307 7.56393C12.0993 7.90831 11.3886 8.49149 10.8887 9.23974C10.3887 9.98798 10.1219 10.8677 10.1219 11.7676L10.1219 11.7676C10.1232 12.974 10.603 14.1305 11.456 14.9835C12.309 15.8365 13.4655 16.3163 14.6718 16.3176ZM14.6719 8.06758C15.4037 8.06758 16.119 8.28458 16.7275 8.69114C17.3359 9.0977 17.8102 9.67557 18.0902 10.3517C18.3703 11.0277 18.4435 11.7717 18.3008 12.4894C18.158 13.2071 17.8056 13.8664 17.2882 14.3839C16.7707 14.9013 16.1114 15.2537 15.3937 15.3965C14.676 15.5393 13.932 15.466 13.2559 15.1859C12.5799 14.9059 12.002 14.4317 11.5954 13.8232C11.1889 13.2147 10.9719 12.4994 10.9719 11.7676C10.973 10.7866 11.3631 9.84614 12.0568 9.15249C12.7504 8.45884 13.6909 8.06867 14.6719 8.06758Z" fill="white" stroke="white" stroke-width="0.1"/>
<path d="M6.79688 5.39258V5.44258C6.88307 5.44258 6.96574 5.47682 7.02668 5.53777C7.08763 5.59872 7.12188 5.68138 7.12188 5.76758C7.12188 5.85377 7.08763 5.93644 7.02668 5.99739C6.96574 6.05834 6.88307 6.09258 6.79688 6.09258C6.71068 6.09258 6.62801 6.05834 6.56707 5.99739C6.50612 5.93644 6.47188 5.85377 6.47188 5.76758C6.47188 5.65486 6.4271 5.54676 6.3474 5.46706C6.26769 5.38735 6.15959 5.34258 6.04688 5.34258C5.93416 5.34258 5.82606 5.38735 5.74635 5.46706C5.66665 5.54676 5.62187 5.65486 5.62187 5.76758L5.62188 5.76779C5.62288 6.00994 5.69867 6.24587 5.83889 6.44329C5.97224 6.63105 6.15766 6.77526 6.37187 6.85836V7.26758C6.37187 7.3803 6.41665 7.4884 6.49635 7.5681C6.57606 7.6478 6.68416 7.69258 6.79688 7.69258C6.90959 7.69258 7.01769 7.6478 7.0974 7.5681C7.1771 7.4884 7.22187 7.3803 7.22187 7.26758V6.85841C7.46838 6.76308 7.67581 6.58708 7.80998 6.35857C7.95017 6.11982 8.00134 5.83915 7.95442 5.56629C7.90751 5.29342 7.76553 5.04597 7.55365 4.86775C7.34177 4.68953 7.07365 4.59205 6.79678 4.59258L6.79688 4.64258M6.79688 5.39258L6.79697 5.44258C6.5201 5.4431 6.25198 5.34562 6.0401 5.16741C5.82822 4.98919 5.68624 4.74173 5.63933 4.46887C5.59241 4.196 5.64358 3.91534 5.78377 3.67659C5.91794 3.44808 6.12537 3.27208 6.37187 3.17675V2.76758C6.37187 2.65486 6.41665 2.54676 6.49635 2.46706C6.57606 2.38735 6.68416 2.34258 6.79688 2.34258C6.90959 2.34258 7.01769 2.38735 7.0974 2.46706C7.1771 2.54676 7.22187 2.65486 7.22187 2.76758V3.17679C7.43609 3.2599 7.62151 3.40411 7.75486 3.59186C7.89507 3.78929 7.97087 4.02522 7.97187 4.26737L7.97188 4.26758C7.97187 4.3803 7.9271 4.4884 7.8474 4.5681C7.76769 4.6478 7.65959 4.69258 7.54688 4.69258C7.43416 4.69258 7.32606 4.6478 7.24635 4.5681C7.16665 4.4884 7.12188 4.3803 7.12188 4.26758C7.12188 4.2033 7.10281 4.14046 7.0671 4.08702C7.03139 4.03357 6.98063 3.99192 6.92125 3.96732C6.86186 3.94272 6.79651 3.93628 6.73347 3.94882C6.67043 3.96136 6.61252 3.99232 6.56707 4.03777C6.52161 4.08322 6.49066 4.14113 6.47812 4.20417C6.46558 4.26722 6.47202 4.33256 6.49661 4.39195C6.52121 4.45134 6.56287 4.50209 6.61631 4.53781C6.66976 4.57352 6.7326 4.59258 6.79688 4.59258V4.64258M6.79688 5.39258C6.89633 5.39258 6.99171 5.43209 7.06204 5.50241C7.13237 5.57274 7.17188 5.66812 7.17188 5.76758C7.17188 5.86703 7.13237 5.96242 7.06204 6.03274C6.99171 6.10307 6.89633 6.14258 6.79688 6.14258C6.69742 6.14258 6.60204 6.10307 6.53171 6.03274C6.46138 5.96242 6.42188 5.86703 6.42188 5.76758C6.42188 5.66812 6.38237 5.57274 6.31204 5.50241C6.24171 5.43209 6.14633 5.39258 6.04688 5.39258C5.94742 5.39258 5.85204 5.43209 5.78171 5.50241C5.71138 5.57274 5.67188 5.66812 5.67188 5.76758L6.79688 5.39258ZM6.79688 4.64258C7.06193 4.64208 7.31862 4.7354 7.52147 4.90601C7.72431 5.07663 7.86023 5.31353 7.90515 5.57476C7.95006 5.83599 7.90108 6.10468 7.76686 6.33325C7.63265 6.56182 7.42188 6.73552 7.17188 6.82358L6.42188 2.76758C6.42188 2.66812 6.46138 2.57274 6.53171 2.50241C6.60204 2.43209 6.69742 2.39258 6.79688 2.39258C6.89633 2.39258 6.99171 2.43209 7.06204 2.50241C7.13237 2.57274 7.17188 2.66812 7.17188 2.76758V3.21158C7.39047 3.28886 7.57984 3.43179 7.71409 3.62082C7.84834 3.80984 7.92091 4.03573 7.92188 4.26758C7.92188 4.36703 7.88237 4.46242 7.81204 4.53274C7.74171 4.60307 7.64633 4.64258 7.54688 4.64258C7.44742 4.64258 7.35204 4.60307 7.28171 4.53274C7.21138 4.46242 7.17188 4.36703 7.17188 4.26758C7.17188 4.19341 7.14988 4.12091 7.10868 4.05924C7.06747 3.99757 7.0089 3.94951 6.94038 3.92112C6.87186 3.89274 6.79646 3.88531 6.72372 3.89978C6.65097 3.91425 6.58415 3.94997 6.53171 4.00241C6.47926 4.05486 6.44355 4.12168 6.42908 4.19442C6.41461 4.26716 6.42204 4.34256 6.45042 4.41108C6.4788 4.47961 6.52687 4.53817 6.58854 4.57938C6.6502 4.62058 6.72271 4.64258 6.79688 4.64258Z" fill="white" stroke="white" stroke-width="0.1"/>
<path d="M6.79682 8.81758H6.79688C7.54844 8.81758 8.28313 8.59471 8.90804 8.17716C9.53295 7.75961 10.02 7.16614 10.3076 6.47178C10.5952 5.77742 10.6705 5.01336 10.5239 4.27624C10.3772 3.53911 10.0153 2.86201 9.48388 2.33057C8.95244 1.79913 8.27535 1.43722 7.53822 1.2906C6.80109 1.14397 6.03704 1.21922 5.34268 1.50684C4.64832 1.79445 4.05484 2.28151 3.63729 2.90641C3.21974 3.53132 2.99687 4.26601 2.99687 5.01758L2.99688 5.01763C2.99798 6.0251 3.39869 6.99099 4.11108 7.70338C4.82346 8.41577 5.78935 8.81647 6.79682 8.81758ZM6.79688 2.06758C7.38033 2.06758 7.95068 2.24059 8.43581 2.56474C8.92093 2.88889 9.29904 3.34962 9.52232 3.88866C9.7456 4.42771 9.80402 5.02085 9.69019 5.5931C9.57637 6.16534 9.2954 6.69098 8.88284 7.10355C8.47028 7.51611 7.94464 7.79707 7.37239 7.9109C6.80015 8.02472 6.207 7.9663 5.66796 7.74302C5.12892 7.51975 4.66819 7.14164 4.34404 6.65651C4.01989 6.17139 3.84688 5.60103 3.84688 5.01758C3.84777 4.23547 4.15886 3.48564 4.7119 2.9326C5.26494 2.37956 6.01476 2.06847 6.79688 2.06758Z" fill="white" stroke="white" stroke-width="0.1"/>
<path d="M13.1219 12.8928L13.1219 12.8926C13.1219 12.7799 13.1667 12.6718 13.2464 12.5921C13.3261 12.5124 13.4342 12.4676 13.5469 12.4676C13.6596 12.4676 13.7677 12.5124 13.8474 12.5921C13.9271 12.6718 13.9719 12.7799 13.9719 12.8926C13.9719 13.0782 14.0456 13.2563 14.1769 13.3876C14.3082 13.5188 14.4862 13.5926 14.6719 13.5926C14.8575 13.5926 15.0356 13.5188 15.1669 13.3876C15.2981 13.2563 15.3719 13.0782 15.3719 12.8926C15.3719 12.7069 15.2981 12.5289 15.1669 12.3976C15.0356 12.2663 14.8576 12.1926 14.6719 12.1926C14.6719 12.1926 14.6719 12.1926 14.6719 12.1926V12.1426C14.3073 12.143 13.955 12.0104 13.6812 11.7696C13.4075 11.5287 13.231 11.1963 13.185 10.8346C13.139 10.4729 13.2265 10.1068 13.4312 9.80507C13.636 9.50335 13.9438 9.28671 14.2969 9.19583L13.1219 12.8928ZM13.1219 12.8928C13.1232 13.2354 13.2379 13.568 13.4483 13.8384C13.6506 14.0987 13.9305 14.2874 14.2469 14.3776M13.1219 12.8928L13.1719 12.8926C13.1731 13.2242 13.2842 13.546 13.4877 13.8077C13.6913 14.0695 13.9758 14.2564 14.2969 14.3393M14.2969 14.3393H14.2469V14.3776M14.2969 14.3393V14.7676C14.2969 14.867 14.3364 14.9624 14.4067 15.0327C14.477 15.1031 14.5724 15.1426 14.6719 15.1426C14.7713 15.1426 14.8667 15.1031 14.937 15.0327C15.0074 14.9624 15.0469 14.867 15.0469 14.7676V14.3393H14.2969ZM14.2469 14.3776V14.7676C14.2469 14.8803 14.2917 14.9884 14.3714 15.0681C14.4511 15.1478 14.5592 15.1926 14.6719 15.1926C14.7846 15.1926 14.8927 15.1478 14.9724 15.0681C15.0521 14.9884 15.0969 14.8803 15.0969 14.7676V14.3776M14.2469 14.3776L15.0969 14.3776M15.0969 14.3776C15.446 14.2783 15.7496 14.0592 15.9539 13.7582C16.1654 13.4464 16.2559 13.0681 16.2084 12.6943C16.1608 12.3205 15.9784 11.9769 15.6955 11.7281C15.4126 11.4792 15.0486 11.3421 14.6718 11.3426C14.6719 11.3426 14.6719 11.3426 14.6719 11.3426L15.0969 14.3776ZM14.2469 8.76758V9.15757L14.6718 11.3426C14.5334 11.3426 14.3981 11.3015 14.283 11.2246C14.1679 11.1477 14.0781 11.0384 14.0252 10.9105C13.9722 10.7825 13.9583 10.6418 13.9853 10.506C14.0123 10.3702 14.079 10.2455 14.1769 10.1476C14.2748 10.0497 14.3995 9.98304 14.5353 9.95603C14.6711 9.92902 14.8118 9.94288 14.9398 9.99586C15.0677 10.0488 15.177 10.1386 15.2539 10.2537C15.3308 10.3688 15.3719 10.5041 15.3719 10.6426C15.3719 10.7553 15.4167 10.8634 15.4964 10.9431C15.5761 11.0228 15.6842 11.0676 15.7969 11.0676C15.9096 11.0676 16.0177 11.0228 16.0974 10.9431C16.1771 10.8634 16.2219 10.7553 16.2219 10.6426L16.2219 10.6424C16.2206 10.2998 16.1058 9.96721 15.8955 9.69672C15.6931 9.43648 15.4133 9.2478 15.0969 9.1576V8.76758C15.0969 8.65486 15.0521 8.54676 14.9724 8.46706C14.8927 8.38735 14.7846 8.34258 14.6719 8.34258C14.5592 8.34258 14.4511 8.38735 14.3714 8.46706C14.2917 8.54676 14.2469 8.65486 14.2469 8.76758Z" fill="white" stroke="white" stroke-width="0.1"/>
<path d="M20.2969 4.64258V4.69258C20.3831 4.69258 20.4657 4.72682 20.5267 4.78777C20.5876 4.84872 20.6219 4.93138 20.6219 5.01758C20.6219 5.10377 20.5876 5.18644 20.5267 5.24739C20.4657 5.30834 20.3831 5.34258 20.2969 5.34258C20.2107 5.34258 20.128 5.30834 20.0671 5.24739C20.0061 5.18644 19.9719 5.10377 19.9719 5.01758C19.9719 4.90486 19.9271 4.79676 19.8474 4.71706C19.7677 4.63735 19.6596 4.59258 19.5469 4.59258C19.4342 4.59258 19.3261 4.63735 19.2464 4.71706C19.1667 4.79676 19.1219 4.90486 19.1219 5.01758L19.1219 5.01779C19.1229 5.25994 19.1987 5.49587 19.3389 5.69329C19.4722 5.88105 19.6577 6.02526 19.8719 6.10836V6.42391C19.3825 6.32799 18.9397 6.06828 18.6169 5.68667C18.2814 5.28996 18.0972 4.78717 18.0972 4.26758C18.0972 3.74798 18.2814 3.2452 18.6169 2.84849C18.9397 2.46687 19.3825 2.20717 19.8719 2.11125V2.42675C19.6254 2.52208 19.4179 2.69808 19.2838 2.92659C19.1436 3.16534 19.0924 3.446 19.1393 3.71887C19.1862 3.99173 19.3282 4.23919 19.5401 4.41741C19.752 4.59562 20.0201 4.6931 20.297 4.69258L20.2969 4.64258ZM20.2969 4.64258C20.0318 4.64308 19.7751 4.54976 19.5723 4.37914C19.3694 4.20852 19.2335 3.97162 19.1886 3.71039C19.1437 3.44917 19.1927 3.18047 19.3269 2.9519C19.4611 2.72333 19.6719 2.54964 19.9219 2.46158V6.07358C19.7033 5.9963 19.5139 5.85337 19.3797 5.66434C19.2454 5.47531 19.1728 5.24943 19.1719 5.01758C19.1719 4.91812 19.2114 4.82274 19.2817 4.75241C19.352 4.68209 19.4474 4.64258 19.5469 4.64258C19.6463 4.64258 19.7417 4.68209 19.812 4.75241C19.8824 4.82274 19.9219 4.91812 19.9219 5.01758C19.9219 5.11703 19.9614 5.21242 20.0317 5.28274C20.102 5.35307 20.1974 5.39258 20.2969 5.39258C20.3963 5.39258 20.4917 5.35307 20.562 5.28274C20.6324 5.21242 20.6719 5.11703 20.6719 5.01758C20.6719 4.91812 20.6324 4.82274 20.562 4.75241C20.4917 4.68209 20.3963 4.64258 20.2969 4.64258ZM20.2969 1.21758H20.2969C19.6936 1.21758 19.104 1.39646 18.6024 1.7316C18.1008 2.06673 17.7099 2.54308 17.479 3.10039C17.2482 3.65771 17.1878 4.27096 17.3055 4.8626C17.4232 5.45425 17.7137 5.9977 18.1402 6.42425C18.5668 6.8508 19.1102 7.14129 19.7019 7.25897C20.2935 7.37666 20.9067 7.31626 21.4641 7.08541C22.0214 6.85456 22.4977 6.46364 22.8329 5.96207C23.168 5.4605 23.3469 4.87081 23.3469 4.26758V4.26752C23.346 3.45891 23.0243 2.68367 22.4526 2.11189C21.8808 1.54011 21.1055 1.21849 20.2969 1.21758ZM21.4719 3.51758L21.4719 3.51737C21.4709 3.27522 21.3951 3.03929 21.2549 2.84186C21.1215 2.65411 20.9361 2.5099 20.7219 2.42679V2.11125C21.2112 2.20717 21.654 2.46687 21.9768 2.84849C22.3124 3.2452 22.4965 3.74798 22.4965 4.26758C22.4965 4.78717 22.3124 5.28996 21.9768 5.68667C21.654 6.06828 21.2112 6.32799 20.7219 6.42391V6.10841C20.9684 6.01308 21.1758 5.83708 21.31 5.60857C21.4502 5.36982 21.5013 5.08915 21.4544 4.81629C21.4075 4.54342 21.2655 4.29597 21.0537 4.11775C20.8418 3.93953 20.5736 3.84205 20.2968 3.84258L20.2969 3.89258V3.84258C20.2326 3.84258 20.1698 3.82352 20.1163 3.78781C20.0629 3.75209 20.0212 3.70134 19.9966 3.64195C19.972 3.58256 19.9656 3.51722 19.9781 3.45417C19.9907 3.39113 20.0216 3.33322 20.0671 3.28777C20.1125 3.24232 20.1704 3.21136 20.2335 3.19882C20.2965 3.18628 20.3619 3.19272 20.4212 3.21732C20.4806 3.24192 20.5314 3.28357 20.5671 3.33702C20.6028 3.39046 20.6219 3.4533 20.6219 3.51758C20.6219 3.63029 20.6667 3.7384 20.7464 3.8181C20.8261 3.8978 20.9342 3.94258 21.0469 3.94258C21.1596 3.94258 21.2677 3.8978 21.3474 3.8181C21.4271 3.7384 21.4719 3.6303 21.4719 3.51758Z" fill="white" stroke="white" stroke-width="0.1"/>
</svg>
