<svg width="13" height="15" viewBox="0 0 13 15" fill="none" xmlns="http://www.w3.org/2000/svg">
<path d="M11.416 1.78979H9.36523V1.37964C9.36523 0.701158 8.81325 0.14917 8.13477 0.14917H4.85352C4.17504 0.14917 3.62305 0.701158 3.62305 1.37964V1.78979H1.57227C0.893785 1.78979 0.341797 2.34178 0.341797 3.02026C0.341797 3.56517 0.697949 4.02818 1.18959 4.18951L1.92117 13.0209C1.97386 13.6536 2.51248 14.1492 3.14738 14.1492H9.84091C10.4758 14.1492 11.0144 13.6536 11.0672 13.0207L11.7987 4.18948C12.2903 4.02818 12.6465 3.56517 12.6465 3.02026C12.6465 2.34178 12.0945 1.78979 11.416 1.78979ZM4.44336 1.37964C4.44336 1.15348 4.62736 0.969482 4.85352 0.969482H8.13477C8.36093 0.969482 8.54492 1.15348 8.54492 1.37964V1.78979H4.44336V1.37964ZM10.2496 12.9528C10.2321 13.1636 10.0525 13.3289 9.84091 13.3289H3.14738C2.93576 13.3289 2.75622 13.1636 2.7387 12.953L2.0178 4.25073H10.9705L10.2496 12.9528ZM11.416 3.43042H1.57227C1.34611 3.43042 1.16211 3.24642 1.16211 3.02026C1.16211 2.7941 1.34611 2.61011 1.57227 2.61011H11.416C11.6422 2.61011 11.8262 2.7941 11.8262 3.02026C11.8262 3.24642 11.6422 3.43042 11.416 3.43042Z" fill="#E21B1B"/>
<path d="M4.85275 12.073L4.4426 5.45584C4.42857 5.22973 4.23287 5.05777 4.00786 5.07185C3.78176 5.08588 3.60984 5.28051 3.62384 5.50659L4.034 12.1238C4.04748 12.3413 4.22806 12.5086 4.44298 12.5086C4.68052 12.5086 4.86733 12.3085 4.85275 12.073Z" fill="#E21B1B"/>
<path d="M6.49414 5.07104C6.26762 5.07104 6.08398 5.25469 6.08398 5.4812V12.0984C6.08398 12.3249 6.26762 12.5085 6.49414 12.5085C6.72066 12.5085 6.9043 12.3249 6.9043 12.0984V5.4812C6.9043 5.25469 6.72066 5.07104 6.49414 5.07104Z" fill="#E21B1B"/>
<path d="M8.98045 5.07185C8.75487 5.05782 8.55972 5.22973 8.54572 5.45583L8.13556 12.073C8.12159 12.2991 8.2935 12.4937 8.51958 12.5078C8.74579 12.5218 8.94031 12.3498 8.95431 12.1238L9.36447 5.50658C9.37847 5.28048 9.20656 5.08585 8.98045 5.07185Z" fill="#E21B1B"/>
</svg>
