<svg width="25" height="25" viewBox="0 0 25 25" fill="none" xmlns="http://www.w3.org/2000/svg">
<g clip-path="url(#clip0_4763_77284)">
<path d="M22.4498 12.8285C22.3533 12.6309 22.3533 12.4043 22.4498 12.2068L23.3449 10.3757C23.8433 9.35608 23.4484 8.14086 22.446 7.60897L20.6455 6.65366C20.4513 6.55063 20.3181 6.36726 20.2801 6.15074L19.928 4.14315C19.7319 3.02537 18.6979 2.27425 17.5745 2.4332L15.5564 2.71867C15.3386 2.74942 15.1232 2.67939 14.9651 2.52653L13.5003 1.10941C12.6846 0.320323 11.4068 0.320277 10.5912 1.10941L9.12625 2.52667C8.96819 2.67958 8.7528 2.74947 8.53502 2.71881L6.51692 2.43334C5.3931 2.2743 4.35951 3.02551 4.16343 4.14329L3.81131 6.15079C3.77329 6.36735 3.64012 6.55068 3.44592 6.65376L1.64546 7.60906C0.643 8.1409 0.248127 9.35622 0.746499 10.3758L1.64157 12.2069C1.73813 12.4045 1.73813 12.6311 1.64157 12.8286L0.746452 14.6597C0.24808 15.6793 0.642953 16.8945 1.64542 17.4264L3.44587 18.3817C3.64012 18.4847 3.77329 18.6681 3.81131 18.8846L4.16343 20.8922C4.34193 21.9098 5.21446 22.6234 6.21725 22.6233C6.31601 22.6233 6.41623 22.6164 6.51697 22.6021L8.53506 22.3167C8.7527 22.2858 8.96823 22.3559 9.12629 22.5088L10.5912 23.9259C10.9991 24.3205 11.5223 24.5178 12.0457 24.5177C12.569 24.5177 13.0925 24.3204 13.5002 23.9259L14.9651 22.5088C15.1232 22.3559 15.3386 22.2861 15.5564 22.3167L17.5745 22.6021C18.6984 22.7611 19.7319 22.01 19.928 20.8922L20.2801 18.8847C20.3181 18.6681 20.4513 18.4848 20.6455 18.3817L22.446 17.4264C23.4484 16.8946 23.8433 15.6792 23.3449 14.6597L22.4498 12.8285ZM21.7972 16.2036L19.9967 17.1589C19.4227 17.4635 19.029 18.0053 18.9167 18.6454L18.5646 20.653C18.4983 21.0312 18.1486 21.2852 17.7684 21.2315L15.7503 20.946C15.1067 20.8549 14.4698 21.062 14.0027 21.5138L12.5378 22.9309C12.2619 23.1978 11.8296 23.1978 11.5536 22.9309L10.0887 21.5138C9.6939 21.1319 9.17781 20.925 8.63903 20.925C8.54031 20.925 8.4408 20.9319 8.34114 20.946L6.32304 21.2315C5.94308 21.2852 5.59316 21.0311 5.52678 20.6529L5.17461 18.6453C5.0623 18.0052 4.66865 17.4634 4.09457 17.1588L2.29412 16.2035C1.95493 16.0236 1.82134 15.6125 1.98995 15.2675L2.88506 13.4363C3.17044 12.8525 3.17044 12.1828 2.88506 11.5989L1.98995 9.76778C1.82134 9.42283 1.95493 9.01169 2.29412 8.83174L4.09457 7.87644C4.6686 7.5718 5.0623 7.03002 5.17457 6.3899L5.52669 4.38235C5.59306 4.00416 5.94266 3.7501 6.32295 3.80382L8.34105 4.08929C8.9844 4.18036 9.62148 3.97332 10.0886 3.52149L11.5535 2.10438C11.8294 1.83747 12.2617 1.83747 12.5377 2.10438L14.0026 3.52149C14.4697 3.97336 15.1067 4.18036 15.7502 4.08929L17.7683 3.80382C18.1483 3.75005 18.4982 4.00416 18.5645 4.38235L18.9166 6.38994C19.029 7.03007 19.4226 7.57189 19.9967 7.87644L21.7971 8.83174C22.1363 9.01169 22.2699 9.42283 22.1013 9.76778L21.2062 11.5989C20.9208 12.1827 20.9208 12.8525 21.2062 13.4363L22.1013 15.2674C22.27 15.6125 22.1364 16.0236 21.7972 16.2036Z" fill="white"/>
<path d="M17.1059 7.46052C16.8357 7.19024 16.3974 7.19024 16.1271 7.46052L6.99177 16.5959C6.72149 16.8662 6.72149 17.3045 6.99177 17.5747C7.12691 17.7099 7.30405 17.7775 7.48114 17.7775C7.65824 17.7775 7.83542 17.7099 7.97052 17.5747L17.1059 8.43936C17.3763 8.16903 17.3763 7.73085 17.1059 7.46052Z" fill="white"/>
<path d="M9.27994 6.28906C7.88063 6.28906 6.74219 7.42751 6.74219 8.82681C6.74219 10.2261 7.88063 11.3646 9.27994 11.3646C10.6792 11.3646 11.8177 10.2261 11.8177 8.82681C11.8177 7.42751 10.6792 6.28906 9.27994 6.28906ZM9.27994 9.98031C8.64389 9.98031 8.12644 9.46286 8.12644 8.82677C8.12644 8.19072 8.64389 7.67327 9.27994 7.67327C9.91598 7.67327 10.4335 8.19072 10.4335 8.82677C10.4334 9.46286 9.91598 9.98031 9.27994 9.98031Z" fill="white"/>
<path d="M14.819 13.6719C13.4197 13.6719 12.2812 14.8103 12.2812 16.2096C12.2812 17.6089 13.4197 18.7474 14.819 18.7474C16.2183 18.7474 17.3568 17.6089 17.3568 16.2096C17.3568 14.8103 16.2183 13.6719 14.819 13.6719ZM14.819 17.3631C14.183 17.3631 13.6655 16.8457 13.6655 16.2096C13.6655 15.5736 14.1829 15.0561 14.819 15.0561C15.455 15.0561 15.9725 15.5736 15.9725 16.2096C15.9725 16.8457 15.455 17.3631 14.819 17.3631Z" fill="white"/>
</g>
<defs>
<clipPath id="clip0_4763_77284">
<rect width="24" height="24" fill="white" transform="translate(0.046875 0.517578)"/>
</clipPath>
</defs>
</svg>
