<svg width="25" height="26" viewBox="0 0 25 26" fill="none" xmlns="http://www.w3.org/2000/svg">
<path d="M21.5013 8.03987L15.5711 2.10967C15.5216 2.05845 15.4621 2.01794 15.3963 1.99067C15.3305 1.9634 15.2598 1.94994 15.1885 1.95112H5.50239C4.92833 1.95112 4.37778 2.17917 3.97186 2.58509C3.56594 2.99101 3.33789 3.54156 3.33789 4.11562V22.6221C3.33789 23.1962 3.56594 23.7467 3.97186 24.1527C4.37778 24.5586 4.92833 24.7866 5.50239 24.7866H19.4954C20.0694 24.7866 20.62 24.5586 21.0259 24.1527C21.4318 23.7467 21.6599 23.1962 21.6599 22.6221V8.42244C21.6594 8.27902 21.6024 8.14156 21.5013 8.03987ZM19.8125 7.88132H16.5414C16.3261 7.88132 16.1196 7.7958 15.9674 7.64358C15.8152 7.49136 15.7297 7.2849 15.7297 7.06963V3.79852L19.8125 7.88132ZM19.4954 23.7044H5.50402C5.21699 23.7044 4.94171 23.5903 4.73875 23.3874C4.53579 23.1844 4.42177 22.9091 4.42177 22.6221V4.11562C4.42177 3.82859 4.53579 3.55332 4.73875 3.35036C4.94171 3.1474 5.21699 3.03337 5.50402 3.03337H14.649V7.06963C14.649 7.57193 14.8486 8.05366 15.2038 8.40884C15.5589 8.76403 16.0407 8.96357 16.543 8.96357H20.5792V22.6221C20.5792 22.7644 20.5512 22.9052 20.4967 23.0367C20.4422 23.1681 20.3623 23.2874 20.2617 23.388C20.161 23.4885 20.0415 23.5682 19.91 23.6225C19.7785 23.6767 19.6376 23.7046 19.4954 23.7044Z" fill="white" stroke="white" stroke-width="0.4"/>
<path d="M10.3263 10.2845C10.7598 10.2845 11.1835 10.156 11.5439 9.91514C11.9043 9.67433 12.1852 9.33205 12.3511 8.9316C12.5169 8.53114 12.5603 8.0905 12.4758 7.66537C12.3912 7.24025 12.1825 6.84976 11.876 6.54326C11.5695 6.23677 11.179 6.02804 10.7539 5.94348C10.3288 5.85892 9.88811 5.90232 9.48765 6.06819C9.0872 6.23406 8.74492 6.51496 8.50411 6.87536C8.2633 7.23576 8.13477 7.65948 8.13477 8.09293C8.13548 8.67394 8.36661 9.23096 8.77745 9.6418C9.18829 10.0526 9.74531 10.2838 10.3263 10.2845ZM10.3263 6.98362C10.5457 6.98362 10.7602 7.04868 10.9426 7.17057C11.125 7.29246 11.2672 7.46571 11.3512 7.66841C11.4352 7.87111 11.4571 8.09416 11.4143 8.30934C11.3715 8.52453 11.2659 8.72219 11.1107 8.87732C10.9556 9.03246 10.7579 9.13812 10.5427 9.18092C10.3276 9.22372 10.1045 9.20175 9.90181 9.11779C9.69911 9.03383 9.52586 8.89165 9.40397 8.70922C9.28208 8.5268 9.21702 8.31233 9.21702 8.09293C9.21745 7.79885 9.33446 7.51694 9.5424 7.309C9.75034 7.10106 10.0322 6.98405 10.3263 6.98362Z" fill="white"/>
<path d="M7.15441 14.4782C7.29792 14.4782 7.43556 14.4212 7.53704 14.3197C7.63852 14.2182 7.69553 14.0806 7.69553 13.937V13.6069C7.69625 13.0753 7.90776 12.5656 8.28369 12.1897C8.65963 11.8138 9.1693 11.6023 9.70094 11.6015H10.9509C11.4826 11.6023 11.9923 11.8138 12.3682 12.1897C12.7441 12.5656 12.9556 13.0753 12.9564 13.6069V13.937C12.9564 14.0806 13.0134 14.2182 13.1148 14.3197C13.2163 14.4212 13.354 14.4782 13.4975 14.4782C13.641 14.4782 13.7786 14.4212 13.8801 14.3197C13.9816 14.2182 14.0386 14.0806 14.0386 13.937V13.6069C14.0376 12.7884 13.712 12.0036 13.1331 11.4248C12.5543 10.8459 11.7695 10.5203 10.9509 10.5193H9.70094C8.88235 10.5203 8.09758 10.8459 7.51874 11.4248C6.93991 12.0036 6.61428 12.7884 6.61328 13.6069V13.937C6.61328 14.0806 6.67029 14.2182 6.77177 14.3197C6.87325 14.4212 7.01089 14.4782 7.15441 14.4782Z" fill="white"/>
<path d="M6.85363 18.4376H13.4202C13.5637 18.4376 13.7013 18.3806 13.8028 18.2791C13.9043 18.1776 13.9613 18.04 13.9613 17.8965C13.9613 17.753 13.9043 17.6153 13.8028 17.5138C13.7013 17.4124 13.5637 17.3553 13.4202 17.3553H6.85363C6.71011 17.3553 6.57247 17.4124 6.47099 17.5138C6.36951 17.6153 6.3125 17.753 6.3125 17.8965C6.3125 18.04 6.36951 18.1776 6.47099 18.2791C6.57247 18.3806 6.71011 18.4376 6.85363 18.4376Z" fill="white"/>
<path d="M17.135 20.205H6.85363C6.71011 20.205 6.57247 20.262 6.47099 20.3634C6.36951 20.4649 6.3125 20.6026 6.3125 20.7461C6.3125 20.8896 6.36951 21.0272 6.47099 21.1287C6.57247 21.2302 6.71011 21.2872 6.85363 21.2872H17.135C17.2785 21.2872 17.4162 21.2302 17.5176 21.1287C17.6191 21.0272 17.6761 20.8896 17.6761 20.7461C17.6761 20.6026 17.6191 20.4649 17.5176 20.3634C17.4162 20.262 17.2785 20.205 17.135 20.205Z" fill="white"/>
</svg>
