<svg width="140" height="140" viewBox="0 0 140 140" fill="none" xmlns="http://www.w3.org/2000/svg">
<g clip-path="url(#clip0_2857_57749)">
<path d="M107.324 31.4453C106.683 31.4453 106.047 31.4675 105.416 31.5063C102.332 14.7481 87.6498 2.05078 70 2.05078C52.3502 2.05078 37.6677 14.7481 34.5844 31.5063C33.953 31.4675 33.317 31.4453 32.6758 31.4453C15.762 31.4453 2.05078 45.1566 2.05078 62.0703C2.05078 78.9841 15.762 92.6953 32.6758 92.6953H107.324C124.238 92.6953 137.949 78.9841 137.949 62.0703C137.949 45.1566 124.238 31.4453 107.324 31.4453Z" fill="#ABDAFF"/>
<path d="M107.324 31.4453C106.683 31.4453 106.047 31.4675 105.416 31.5063C102.332 14.7481 87.6498 2.05078 70 2.05078C68.1406 2.05078 66.3146 2.19324 64.5312 2.46504C79.6767 4.77285 91.7197 16.5134 94.4781 31.5063C95.1095 31.4675 95.7455 31.4453 96.3867 31.4453C113.3 31.4453 127.012 45.1566 127.012 62.0703C127.012 78.9841 113.3 92.6953 96.3867 92.6953H107.324C124.238 92.6953 137.949 78.9841 137.949 62.0703C137.949 45.1566 124.238 31.4453 107.324 31.4453Z" fill="#99D3FF"/>
<path d="M127.012 64.1211C125.879 64.1211 124.961 63.2029 124.961 62.0703C124.961 52.3455 117.049 44.4336 107.324 44.4336C106.191 44.4336 105.273 43.5154 105.273 42.3828C105.273 41.2502 106.191 40.332 107.324 40.332C119.311 40.332 129.062 50.0839 129.062 62.0703C129.062 63.2029 128.145 64.1211 127.012 64.1211Z" fill="#7DC6FF"/>
<path d="M43.5318 137.949H82.0071L98.5351 121.496V60.3447C98.5351 59.2031 97.6098 58.2778 96.4682 58.2778H43.5318C42.3902 58.2778 41.4648 59.2031 41.4648 60.3447V135.882C41.4648 137.024 42.3902 137.949 43.5318 137.949Z" fill="#FFF9E9"/>
<path d="M96.4681 58.2778H85.5306C86.6722 58.2778 87.5975 59.2031 87.5975 60.3447V121.496L82.0071 137.949L98.535 121.496V60.3447C98.535 59.2034 97.6097 58.2778 96.4681 58.2778Z" fill="#FFF4D6"/>
<path d="M82.0071 137.949V123.429C82.0071 122.287 82.9324 121.362 84.074 121.362H98.5347L82.0071 137.949Z" fill="#FFEEC2"/>
<path d="M81.5975 87.8811L71.3537 78.8776C70.5793 78.197 69.4205 78.197 68.6461 78.8776L58.4023 87.8811C57.5517 88.6287 57.468 89.9245 58.2156 90.7752C58.9634 91.6258 60.2592 91.7095 61.1099 90.9616L67.9491 84.9507V115.809C67.9491 116.942 68.8671 117.86 69.9999 117.86C71.1328 117.86 72.0507 116.942 72.0507 115.809V84.9509L78.8899 90.9619C79.2795 91.3043 79.7619 91.4724 80.2429 91.4724C80.8122 91.4724 81.3787 91.2367 81.7842 90.7754C82.5318 89.9245 82.4481 88.6287 81.5975 87.8811Z" fill="#FAE19E"/>
<path d="M17.9102 15.7224C17.9102 16.855 18.8281 17.7732 19.9609 17.7732C21.0938 17.7732 22.0117 16.855 22.0117 15.7224V13.6716H24.0622C25.1951 13.6716 26.113 12.7534 26.113 11.6208C26.113 10.4882 25.1951 9.57004 24.0622 9.57004H22.0117V7.51953C22.0117 6.38695 21.0938 5.46875 19.9609 5.46875C18.8281 5.46875 17.9102 6.38695 17.9102 7.51953V9.57004H15.8594C14.7265 9.57004 13.8086 10.4882 13.8086 11.6208C13.8086 12.7534 14.7265 13.6716 15.8594 13.6716H17.9102V15.7224Z" fill="#7DC6FF"/>
<path d="M124.141 9.57004H122.09V7.51953C122.09 6.38695 121.172 5.46875 120.039 5.46875C118.906 5.46875 117.988 6.38695 117.988 7.51953V9.57004H115.938C114.805 9.57004 113.887 10.4882 113.887 11.6208C113.887 12.7534 114.805 13.6716 115.938 13.6716H117.988V15.7224C117.988 16.855 118.906 17.7732 120.039 17.7732C121.172 17.7732 122.09 16.855 122.09 15.7224V13.6716H124.141C125.273 13.6716 126.191 12.7534 126.191 11.6208C126.191 10.4882 125.273 9.57004 124.141 9.57004Z" fill="#7DC6FF"/>
<path d="M10.2534 102.539H8.20285V100.488C8.20285 99.3557 7.28492 98.4375 6.15207 98.4375C5.01922 98.4375 4.10129 99.3557 4.10129 100.488V102.539H2.05078C0.91793 102.539 0 103.457 0 104.59C0 105.722 0.91793 106.64 2.05078 106.64H4.10129V108.691C4.10129 109.824 5.01922 110.742 6.15207 110.742C7.28492 110.742 8.20285 109.824 8.20285 108.691V106.64H10.2534C11.3862 106.64 12.3041 105.722 12.3041 104.59C12.3041 103.457 11.3862 102.539 10.2534 102.539Z" fill="#7DC6FF"/>
<path d="M137.949 102.539H135.899V100.488C135.899 99.3557 134.981 98.4375 133.848 98.4375C132.715 98.4375 131.797 99.3557 131.797 100.488V102.539H129.747C128.614 102.539 127.696 103.457 127.696 104.59C127.696 105.722 128.614 106.64 129.747 106.64H131.797V108.691C131.797 109.824 132.715 110.742 133.848 110.742C134.981 110.742 135.899 109.824 135.899 108.691V106.64H137.949C139.082 106.64 140 105.722 140 104.59C140 103.457 139.082 102.539 137.949 102.539Z" fill="#7DC6FF"/>
<path d="M120.859 126.054H118.808V124.004C118.808 122.871 117.89 121.953 116.758 121.953C115.625 121.953 114.707 122.871 114.707 124.004V126.054H112.656C111.523 126.054 110.605 126.973 110.605 128.105C110.605 129.238 111.523 130.156 112.656 130.156H114.707V132.207C114.707 133.339 115.625 134.258 116.758 134.258C117.89 134.258 118.808 133.339 118.808 132.207V130.156H120.859C121.992 130.156 122.91 129.238 122.91 128.105C122.91 126.973 121.992 126.054 120.859 126.054Z" fill="#7DC6FF"/>
<path d="M26.7963 126.054H24.7458V124.004C24.7458 122.871 23.8279 121.953 22.695 121.953C21.5622 121.953 20.6443 122.871 20.6443 124.004V126.054H18.5938C17.4609 126.054 16.543 126.973 16.543 128.105C16.543 129.238 17.4609 130.156 18.5938 130.156H20.6443V132.207C20.6443 133.339 21.5622 134.258 22.695 134.258C23.8279 134.258 24.7458 133.339 24.7458 132.207V130.156H26.7963C27.9292 130.156 28.8471 129.238 28.8471 128.105C28.8471 126.973 27.9292 126.054 26.7963 126.054Z" fill="#7DC6FF"/>
</g>
<defs>
<clipPath id="clip0_2857_57749">
<rect width="140" height="140" fill="white"/>
</clipPath>
</defs>
</svg>
