<svg width="80" height="80" viewBox="0 0 80 80" fill="none" xmlns="http://www.w3.org/2000/svg">
<rect width="80" height="80" fill="#373A3C"/>
<rect x="-1705" y="-1144" width="1892" height="4660" fill="#032339"/>
<rect x="-1643" y="-60" width="1767" height="200" rx="10" fill="white"/>
<rect x="-519.5" y="-29.5" width="619" height="139" rx="4.5" fill="#E4F4FF" stroke="#3F76E2"/>
<rect width="80" height="80" rx="40" fill="#3F76E2"/>
<path d="M47.414 41.413C48.196 40.631 48.196 39.367 47.414 38.585C47.024 38.195 46.512 37.999 46 37.999C45.488 37.999 44.976 38.195 44.586 38.585L42 41.171V25.999C42 24.895 41.106 23.999 40 23.999C38.894 23.999 38 24.895 38 25.999V41.171L35.414 38.585C34.632 37.803 33.368 37.803 32.586 38.585C31.804 39.367 31.804 40.631 32.586 41.413L38.586 47.413C39.368 48.195 40.632 48.195 41.414 47.413L47.414 41.413Z" fill="#E7E7E7"/>
<path d="M26 51.9995C24.8954 51.9995 24 52.895 24 53.9995C24 55.1041 24.8954 55.9995 26 55.9995H54C55.1046 55.9995 56 55.1041 56 53.9995C56 52.895 55.1046 51.9995 54 51.9995H26Z" fill="#E7E7E7"/>
</svg>
