<svg width="15" height="15" viewBox="0 0 15 15" fill="none" xmlns="http://www.w3.org/2000/svg">
<path d="M10.8896 7.16381L7.80264 10.2561L4.71564 7.1644C4.6051 7.06221 4.45934 7.00672 4.30883 7.00951C4.15833 7.01231 4.01473 7.07318 3.90806 7.17939C3.80139 7.28561 3.73991 7.42895 3.73648 7.57944C3.73305 7.72993 3.78792 7.87593 3.88964 7.9869L7.38964 11.4927C7.44382 11.5471 7.50819 11.5902 7.57906 11.6196C7.64993 11.649 7.72591 11.6641 7.80264 11.6641C7.87936 11.6641 7.95534 11.649 8.02621 11.6196C8.09708 11.5902 8.16145 11.5471 8.21564 11.4927L11.7156 7.9869C11.8191 7.87624 11.8755 7.72966 11.8728 7.57818C11.8702 7.42669 11.8086 7.28219 11.7013 7.17525C11.594 7.06831 11.4493 7.00732 11.2978 7.00518C11.1463 7.00305 10.9999 7.05994 10.8896 7.16381Z" fill="#373A3C"/>
<path d="M10.8896 3.66377L7.80264 6.75603L4.71564 3.66436C4.6051 3.56217 4.45934 3.50668 4.30883 3.50947C4.15833 3.51227 4.01473 3.57314 3.90806 3.67935C3.80139 3.78557 3.73991 3.92891 3.73648 4.0794C3.73305 4.22989 3.78792 4.37589 3.88964 4.48686L7.38964 7.99211C7.44382 8.04643 7.50819 8.08953 7.57906 8.11894C7.64993 8.14835 7.72591 8.16348 7.80264 8.16348C7.87936 8.16348 7.95534 8.14835 8.02621 8.11894C8.09708 8.08953 8.16145 8.04643 8.21564 7.99211L11.7156 4.48627C11.8173 4.3753 11.8722 4.22931 11.8688 4.07882C11.8654 3.92832 11.8039 3.78498 11.6972 3.67877C11.5905 3.57255 11.4469 3.51168 11.2964 3.50889C11.1459 3.5061 11.0002 3.56159 10.8896 3.66377Z" fill="#373A3C"/>
</svg>
