<svg width="128" height="24" viewBox="0 0 128 24" fill="none" xmlns="http://www.w3.org/2000/svg">
<path d="M28.528 7.636H25.924V16H28.528C31.276 16 32.968 14.428 32.968 11.836C32.968 9.244 31.276 7.636 28.528 7.636ZM27.016 15.1V8.524H28.528C30.712 8.524 31.852 9.796 31.852 11.836C31.852 13.876 30.712 15.1 28.528 15.1H27.016ZM40.6484 12.7C40.6484 10.624 39.1964 9.316 37.3244 9.316C35.4644 9.316 34.0004 10.624 34.0004 12.7C34.0004 14.788 35.4164 16.108 37.2764 16.108C39.1484 16.108 40.6484 14.788 40.6484 12.7ZM35.1164 12.7C35.1164 11.044 36.1604 10.264 37.3124 10.264C38.4404 10.264 39.5324 11.044 39.5324 12.7C39.5324 14.368 38.4164 15.148 37.2764 15.148C36.1364 15.148 35.1164 14.368 35.1164 12.7ZM43.3682 16H44.4962L46.0802 10.78L47.6642 16H48.7922L50.8442 9.424H49.7642L48.2762 14.956L46.6802 9.424H45.5642L43.9322 14.944L42.4202 9.424H41.3042L43.3682 16ZM56.7399 16H57.8199V12.124C57.8199 10.24 56.6559 9.304 55.1319 9.304C54.2439 9.304 53.4519 9.676 53.0199 10.36V9.424H51.9279V16H53.0199V12.364C53.0199 10.948 53.7879 10.252 54.9039 10.252C56.0079 10.252 56.7399 10.936 56.7399 12.28V16ZM59.6037 16H60.6957V7.12H59.6037V16ZM68.7968 12.7C68.7968 10.624 67.3448 9.316 65.4728 9.316C63.6128 9.316 62.1488 10.624 62.1488 12.7C62.1488 14.788 63.5648 16.108 65.4248 16.108C67.2968 16.108 68.7968 14.788 68.7968 12.7ZM63.2648 12.7C63.2648 11.044 64.3088 10.264 65.4608 10.264C66.5888 10.264 67.6808 11.044 67.6808 12.7C67.6808 14.368 66.5648 15.148 65.4248 15.148C64.2848 15.148 63.2648 14.368 63.2648 12.7ZM69.8246 12.688C69.8246 14.728 71.1806 16.108 72.9326 16.108C74.1446 16.108 74.9966 15.484 75.3926 14.776V16H76.4966V9.424H75.3926V10.624C75.0086 9.94 74.1686 9.316 72.9446 9.316C71.1806 9.316 69.8246 10.636 69.8246 12.688ZM75.3926 12.7C75.3926 14.248 74.3606 15.148 73.1606 15.148C71.9606 15.148 70.9406 14.236 70.9406 12.688C70.9406 11.14 71.9606 10.264 73.1606 10.264C74.3606 10.264 75.3926 11.176 75.3926 12.7ZM77.934 12.688C77.934 14.728 79.29 16.108 81.054 16.108C82.254 16.108 83.106 15.496 83.502 14.764V16H84.606V7.12H83.502V10.6C83.046 9.844 82.098 9.316 81.066 9.316C79.29 9.316 77.934 10.636 77.934 12.688ZM83.502 12.7C83.502 14.248 82.47 15.148 81.27 15.148C80.07 15.148 79.05 14.236 79.05 12.688C79.05 11.14 80.07 10.264 81.27 10.264C82.47 10.264 83.502 11.176 83.502 12.7ZM89.6506 16H90.7426V7.636H89.6506V16ZM102.096 16H103.176V12.124C103.176 10.24 102.012 9.304 100.512 9.304C99.5037 9.304 98.5677 9.82 98.1837 10.768C97.7517 9.784 96.8517 9.304 95.7717 9.304C94.9077 9.304 94.1277 9.676 93.6957 10.372V9.424H92.6037V16H93.6957V12.376C93.6957 10.96 94.4517 10.252 95.5557 10.252C96.6357 10.252 97.3557 10.936 97.3557 12.28V16H98.4357V12.376C98.4357 10.96 99.1917 10.252 100.296 10.252C101.376 10.252 102.096 10.936 102.096 12.28V16ZM104.559 12.688C104.559 14.728 105.915 16.108 107.667 16.108C108.879 16.108 109.731 15.484 110.127 14.776V16H111.231V9.424H110.127V10.624C109.743 9.94 108.903 9.316 107.679 9.316C105.915 9.316 104.559 10.636 104.559 12.688ZM110.127 12.7C110.127 14.248 109.095 15.148 107.895 15.148C106.695 15.148 105.675 14.236 105.675 12.688C105.675 11.14 106.695 10.264 107.895 10.264C109.095 10.264 110.127 11.176 110.127 12.7ZM112.668 12.688C112.668 14.728 114.024 16.108 115.788 16.108C116.988 16.108 117.84 15.472 118.236 14.764V16.144C118.236 17.548 117.36 18.292 116.196 18.292C115.116 18.292 114.336 17.752 114.096 16.96H113.016C113.232 18.364 114.468 19.24 116.196 19.24C118.128 19.24 119.34 17.956 119.34 16.144V9.424H118.236V10.624C117.852 9.916 116.988 9.316 115.788 9.316C114.024 9.316 112.668 10.636 112.668 12.688ZM118.236 12.7C118.236 14.248 117.204 15.148 116.004 15.148C114.804 15.148 113.784 14.236 113.784 12.688C113.784 11.14 114.804 10.264 116.004 10.264C117.204 10.264 118.236 11.176 118.236 12.7ZM123.982 10.24C125.11 10.24 126.07 10.948 126.058 12.232H121.906C122.026 10.948 122.914 10.24 123.982 10.24ZM127.054 13.972H125.878C125.638 14.68 125.014 15.184 124.03 15.184C122.914 15.184 121.978 14.452 121.894 13.12H127.15C127.174 12.892 127.186 12.7 127.186 12.46C127.186 10.66 125.938 9.316 124.03 9.316C122.11 9.316 120.778 10.624 120.778 12.7C120.778 14.788 122.158 16.108 124.03 16.108C125.662 16.108 126.718 15.172 127.054 13.972Z" fill="#8F8F8F"/>
<path d="M13.707 12.7065C14.098 12.3155 14.098 11.6835 13.707 11.2925C13.512 11.0975 13.256 10.9995 13 10.9995C12.744 10.9995 12.488 11.0975 12.293 11.2925L11 12.5855V4.99951C11 4.44751 10.553 3.99951 10 3.99951C9.44701 3.99951 9.00001 4.44751 9.00001 4.99951V12.5855L7.70701 11.2925C7.31601 10.9015 6.68401 10.9015 6.29301 11.2925C5.90201 11.6835 5.90201 12.3155 6.29301 12.7065L9.29301 15.7065C9.68401 16.0975 10.316 16.0975 10.707 15.7065L13.707 12.7065Z" fill="#92929D"/>
<path d="M3 17.9998C2.44772 17.9998 2 18.4475 2 18.9998C2 19.552 2.44772 19.9998 3 19.9998H17C17.5523 19.9998 18 19.552 18 18.9998C18 18.4475 17.5523 17.9998 17 17.9998H3Z" fill="#92929D"/>
</svg>
