<svg width="15" height="14" viewBox="0 0 15 14" fill="none" xmlns="http://www.w3.org/2000/svg">
<path d="M10.8896 7.4148L7.80264 4.32255L4.71564 7.41422C4.6051 7.5164 4.45934 7.57189 4.30883 7.5691C4.15833 7.56631 4.01473 7.50544 3.90806 7.39922C3.80139 7.29301 3.73991 7.14967 3.73648 6.99917C3.73305 6.84868 3.78792 6.70269 3.88964 6.59172L7.38964 3.08588C7.44382 3.03156 7.50819 2.98846 7.57906 2.95905C7.64993 2.92964 7.72591 2.91451 7.80264 2.91451C7.87936 2.91451 7.95534 2.92964 8.02621 2.95905C8.09708 2.98846 8.16145 3.03156 8.21564 3.08588L11.7156 6.59172C11.8191 6.70237 11.8755 6.84895 11.8728 7.00044C11.8702 7.15192 11.8086 7.29642 11.7013 7.40336C11.594 7.5103 11.4493 7.57129 11.2978 7.57343C11.1463 7.57556 10.9999 7.51867 10.8896 7.4148Z" fill="#373A3C"/>
<path d="M10.8896 10.9148L7.80264 7.82259L4.71564 10.9143C4.6051 11.0164 4.45934 11.0719 4.30883 11.0691C4.15833 11.0663 4.01473 11.0055 3.90806 10.8993C3.80139 10.793 3.73991 10.6497 3.73648 10.4992C3.73305 10.3487 3.78792 10.2027 3.88964 10.0918L7.38964 6.5865C7.44382 6.53218 7.50819 6.48908 7.57906 6.45967C7.64993 6.43027 7.72591 6.41513 7.80264 6.41513C7.87936 6.41513 7.95534 6.43027 8.02621 6.45967C8.09708 6.48908 8.16145 6.53218 8.21564 6.5865L11.7156 10.0923C11.8173 10.2033 11.8722 10.3493 11.8688 10.4998C11.8654 10.6503 11.8039 10.7936 11.6972 10.8998C11.5905 11.0061 11.4469 11.0669 11.2964 11.0697C11.1459 11.0725 11.0002 11.017 10.8896 10.9148Z" fill="#373A3C"/>
</svg>
