<svg width="27" height="27" viewBox="0 0 27 27" fill="none" xmlns="http://www.w3.org/2000/svg">
<path fill-rule="evenodd" clip-rule="evenodd" d="M6.59025 6.97461H20.8621C21.4604 6.97461 21.9454 7.45963 21.9454 8.05794L21.9454 8.06156L21.9129 17.7886C21.911 18.3855 21.4265 18.8684 20.8296 18.8684H6.57943C5.98112 18.8684 5.49609 18.3833 5.49609 17.785L5.49609 17.7838L5.50692 8.05674C5.50759 7.4589 5.99242 6.97461 6.59025 6.97461Z" stroke="#FE8700" stroke-width="2" stroke-linejoin="round"/>
<path d="M13.1335 15.0533C13.5539 15.4114 14.1851 15.3609 14.5432 14.9404C14.9013 14.52 14.8508 13.8889 14.4304 13.5307L13.1335 15.0533ZM6.44176 6.72598C6.02133 6.36785 5.39018 6.41836 5.03205 6.83879C4.67393 7.25923 4.72444 7.89037 5.14487 8.2485L6.44176 6.72598ZM22.3808 8.24691C22.8003 7.88775 22.8493 7.25648 22.4901 6.83693C22.131 6.41738 21.4997 6.36842 21.0802 6.72757L22.3808 8.24691ZM13.1312 13.5323C12.7116 13.8915 12.6626 14.5228 13.0218 14.9423C13.381 15.3619 14.0122 15.4108 14.4318 15.0517L13.1312 13.5323ZM14.4304 13.5307C11.7675 11.2625 9.77035 9.56129 8.43892 8.42717C7.7732 7.8601 7.27391 7.43481 6.94105 7.15128C6.77462 7.00951 6.6498 6.90319 6.56658 6.8323C6.52497 6.79686 6.49378 6.77029 6.47297 6.75256C6.46258 6.74371 6.45475 6.73705 6.44956 6.73263C6.44697 6.73041 6.44501 6.72875 6.44371 6.72764C6.44319 6.72719 6.44245 6.72657 6.44225 6.7264C6.44198 6.72616 6.44207 6.72625 6.44188 6.72608C6.44184 6.72605 6.44181 6.72602 6.44179 6.72601C6.44177 6.72599 6.44176 6.72598 5.79332 7.48724C5.14487 8.2485 5.14488 8.24851 5.1449 8.24853C5.14492 8.24854 5.14495 8.24857 5.14499 8.24861C5.14544 8.24899 5.14482 8.24846 5.14536 8.24892C5.14569 8.2492 5.14617 8.24961 5.14682 8.25016C5.14817 8.25131 5.15002 8.25289 5.15267 8.25515C5.15789 8.25959 5.16566 8.26621 5.17607 8.27508C5.19687 8.29279 5.22809 8.31939 5.26969 8.35483C5.3529 8.4257 5.47773 8.53204 5.64416 8.6738C5.97702 8.95733 6.47631 9.38263 7.14202 9.94969C8.47346 11.0838 10.4706 12.785 13.1335 15.0533L14.4304 13.5307ZM21.7305 7.48724C21.0802 6.72757 21.0801 6.72758 21.0801 6.7276C21.0801 6.72762 21.0801 6.72764 21.08 6.72768C21.0798 6.72784 21.0799 6.72776 21.0797 6.72799C21.0794 6.72826 21.0788 6.72869 21.0782 6.72924C21.0769 6.73034 21.075 6.73201 21.0724 6.73422C21.0672 6.73865 21.0595 6.7453 21.0491 6.75416C21.0284 6.77187 20.9973 6.79846 20.956 6.8339C20.8731 6.90478 20.7489 7.0111 20.5833 7.15287C20.2521 7.4364 19.7553 7.8617 19.0929 8.42876C17.7681 9.56289 15.7808 11.2641 13.1312 13.5323L14.4318 15.0517C17.0814 12.7834 19.0687 11.0822 20.3935 9.94809C21.0559 9.38103 21.5528 8.95574 21.884 8.6722C22.0496 8.53044 22.1738 8.42411 22.2566 8.35323C22.298 8.31779 22.329 8.29121 22.3497 8.27349C22.3601 8.26464 22.3679 8.25797 22.373 8.25355C22.3756 8.25134 22.3775 8.24968 22.3788 8.24857C22.3795 8.24804 22.38 8.24757 22.3803 8.24732C22.3805 8.24715 22.3805 8.24711 22.3807 8.24701C22.3807 8.24698 22.3807 8.24695 22.3808 8.24693C22.3808 8.24692 22.3808 8.24691 21.7305 7.48724Z" fill="#FE8700"/>
</svg>
