<svg width="689" height="47" viewBox="0 0 689 47" fill="none" xmlns="http://www.w3.org/2000/svg">
<path d="M0.693708 25.272C0.693708 22.568 1.27871 20.163 2.44871 18.057C3.61871 15.925 5.24371 14.274 7.32371 13.104C9.42971 11.908 11.8087 11.31 14.4607 11.31C17.7107 11.31 20.4927 12.168 22.8067 13.884C25.1207 15.6 26.6677 17.94 27.4477 20.904H20.1157C19.5697 19.76 18.7897 18.889 17.7757 18.291C16.7877 17.693 15.6567 17.394 14.3827 17.394C12.3287 17.394 10.6647 18.109 9.39071 19.539C8.11671 20.969 7.47971 22.88 7.47971 25.272C7.47971 27.664 8.11671 29.575 9.39071 31.005C10.6647 32.435 12.3287 33.15 14.3827 33.15C15.6567 33.15 16.7877 32.851 17.7757 32.253C18.7897 31.655 19.5697 30.784 20.1157 29.64H27.4477C26.6677 32.604 25.1207 34.944 22.8067 36.66C20.4927 38.35 17.7107 39.195 14.4607 39.195C11.8087 39.195 9.42971 38.61 7.32371 37.44C5.24371 36.244 3.61871 34.593 2.44871 32.487C1.27871 30.381 0.693708 27.976 0.693708 25.272ZM48.4688 34.164H38.2508L36.6128 39H29.6318L39.5378 11.622H47.2598L57.1658 39H50.1068L48.4688 34.164ZM46.7528 29.016L43.3598 18.993L40.0058 29.016H46.7528ZM84.5666 39H77.8976L66.7436 22.113V39H60.0746V11.622H66.7436L77.8976 28.587V11.622H84.5666V39ZM99.5518 11.622C102.438 11.622 104.96 12.194 107.118 13.338C109.276 14.482 110.94 16.094 112.11 18.174C113.306 20.228 113.904 22.607 113.904 25.311C113.904 27.989 113.306 30.368 112.11 32.448C110.94 34.528 109.263 36.14 107.079 37.284C104.921 38.428 102.412 39 99.5518 39H89.2948V11.622H99.5518ZM99.1228 33.228C101.645 33.228 103.608 32.539 105.012 31.161C106.416 29.783 107.118 27.833 107.118 25.311C107.118 22.789 106.416 20.826 105.012 19.422C103.608 18.018 101.645 17.316 99.1228 17.316H95.9638V33.228H99.1228ZM124.194 11.622V39H117.525V11.622H124.194ZM139.178 11.622C142.064 11.622 144.586 12.194 146.744 13.338C148.902 14.482 150.566 16.094 151.736 18.174C152.932 20.228 153.53 22.607 153.53 25.311C153.53 27.989 152.932 30.368 151.736 32.448C150.566 34.528 148.889 36.14 146.705 37.284C144.547 38.428 142.038 39 139.178 39H128.921V11.622H139.178ZM138.749 33.228C141.271 33.228 143.234 32.539 144.638 31.161C146.042 29.783 146.744 27.833 146.744 25.311C146.744 22.789 146.042 20.826 144.638 19.422C143.234 18.018 141.271 17.316 138.749 17.316H135.59V33.228H138.749ZM174.194 34.164H163.976L162.338 39H155.357L165.263 11.622H172.985L182.891 39H175.832L174.194 34.164ZM172.478 29.016L169.085 18.993L165.731 29.016H172.478ZM205.495 11.622V16.965H198.241V39H191.572V16.965H184.318V11.622H205.495ZM218.642 39.273C216.64 39.273 214.846 38.948 213.26 38.298C211.674 37.648 210.4 36.686 209.438 35.412C208.502 34.138 208.008 32.604 207.956 30.81H215.054C215.158 31.824 215.509 32.604 216.107 33.15C216.705 33.67 217.485 33.93 218.447 33.93C219.435 33.93 220.215 33.709 220.787 33.267C221.359 32.799 221.645 32.162 221.645 31.356C221.645 30.68 221.411 30.121 220.943 29.679C220.501 29.237 219.942 28.873 219.266 28.587C218.616 28.301 217.68 27.976 216.458 27.612C214.69 27.066 213.247 26.52 212.129 25.974C211.011 25.428 210.049 24.622 209.243 23.556C208.437 22.49 208.034 21.099 208.034 19.383C208.034 16.835 208.957 14.846 210.803 13.416C212.649 11.96 215.054 11.232 218.018 11.232C221.034 11.232 223.465 11.96 225.311 13.416C227.157 14.846 228.145 16.848 228.275 19.422H221.06C221.008 18.538 220.683 17.849 220.085 17.355C219.487 16.835 218.72 16.575 217.784 16.575C216.978 16.575 216.328 16.796 215.834 17.238C215.34 17.654 215.093 18.265 215.093 19.071C215.093 19.955 215.509 20.644 216.341 21.138C217.173 21.632 218.473 22.165 220.241 22.737C222.009 23.335 223.439 23.907 224.531 24.453C225.649 24.999 226.611 25.792 227.417 26.832C228.223 27.872 228.626 29.211 228.626 30.849C228.626 32.409 228.223 33.826 227.417 35.1C226.637 36.374 225.493 37.388 223.985 38.142C222.477 38.896 220.696 39.273 218.642 39.273ZM255.641 1.95L245.189 46.293H238.754L249.206 1.95H255.641ZM273.176 16.965V22.503H282.107V27.651H273.176V33.657H283.277V39H266.507V11.622H283.277V16.965H273.176ZM318.506 11.622V39H311.837V22.581L305.714 39H300.332L294.17 22.542V39H287.501V11.622H295.379L303.062 30.576L310.667 11.622H318.506ZM344.06 20.436C344.06 22.022 343.696 23.478 342.968 24.804C342.24 26.104 341.122 27.157 339.614 27.963C338.106 28.769 336.234 29.172 333.998 29.172H329.864V39H323.195V11.622H333.998C336.182 11.622 338.028 11.999 339.536 12.753C341.044 13.507 342.175 14.547 342.929 15.873C343.683 17.199 344.06 18.72 344.06 20.436ZM333.491 23.868C334.765 23.868 335.714 23.569 336.338 22.971C336.962 22.373 337.274 21.528 337.274 20.436C337.274 19.344 336.962 18.499 336.338 17.901C335.714 17.303 334.765 17.004 333.491 17.004H329.864V23.868H333.491ZM354.095 33.852H362.831V39H347.426V11.622H354.095V33.852ZM378.854 39.273C376.28 39.273 373.914 38.675 371.756 37.479C369.624 36.283 367.921 34.619 366.647 32.487C365.399 30.329 364.775 27.911 364.775 25.233C364.775 22.555 365.399 20.15 366.647 18.018C367.921 15.886 369.624 14.222 371.756 13.026C373.914 11.83 376.28 11.232 378.854 11.232C381.428 11.232 383.781 11.83 385.913 13.026C388.071 14.222 389.761 15.886 390.983 18.018C392.231 20.15 392.855 22.555 392.855 25.233C392.855 27.911 392.231 30.329 390.983 32.487C389.735 34.619 388.045 36.283 385.913 37.479C383.781 38.675 381.428 39.273 378.854 39.273ZM378.854 33.189C381.038 33.189 382.78 32.461 384.08 31.005C385.406 29.549 386.069 27.625 386.069 25.233C386.069 22.815 385.406 20.891 384.08 19.461C382.78 18.005 381.038 17.277 378.854 17.277C376.644 17.277 374.876 17.992 373.55 19.422C372.25 20.852 371.6 22.789 371.6 25.233C371.6 27.651 372.25 29.588 373.55 31.044C374.876 32.474 376.644 33.189 378.854 33.189ZM419.937 11.622L410.46 29.952V39H403.791V29.952L394.314 11.622H401.88L407.184 23.088L412.449 11.622H419.937ZM429.187 16.965V22.503H438.118V27.651H429.187V33.657H439.288V39H422.518V11.622H439.288V16.965H429.187ZM453.418 39.273C451.416 39.273 449.622 38.948 448.036 38.298C446.45 37.648 445.176 36.686 444.214 35.412C443.278 34.138 442.784 32.604 442.732 30.81H449.83C449.934 31.824 450.285 32.604 450.883 33.15C451.481 33.67 452.261 33.93 453.223 33.93C454.211 33.93 454.991 33.709 455.563 33.267C456.135 32.799 456.421 32.162 456.421 31.356C456.421 30.68 456.187 30.121 455.719 29.679C455.277 29.237 454.718 28.873 454.042 28.587C453.392 28.301 452.456 27.976 451.234 27.612C449.466 27.066 448.023 26.52 446.905 25.974C445.787 25.428 444.825 24.622 444.019 23.556C443.213 22.49 442.81 21.099 442.81 19.383C442.81 16.835 443.733 14.846 445.579 13.416C447.425 11.96 449.83 11.232 452.794 11.232C455.81 11.232 458.241 11.96 460.087 13.416C461.933 14.846 462.921 16.848 463.051 19.422H455.836C455.784 18.538 455.459 17.849 454.861 17.355C454.263 16.835 453.496 16.575 452.56 16.575C451.754 16.575 451.104 16.796 450.61 17.238C450.116 17.654 449.869 18.265 449.869 19.071C449.869 19.955 450.285 20.644 451.117 21.138C451.949 21.632 453.249 22.165 455.017 22.737C456.785 23.335 458.215 23.907 459.307 24.453C460.425 24.999 461.387 25.792 462.193 26.832C462.999 27.872 463.402 29.211 463.402 30.849C463.402 32.409 462.999 33.826 462.193 35.1C461.413 36.374 460.269 37.388 458.761 38.142C457.253 38.896 455.472 39.273 453.418 39.273Z" fill="black"/>
<path d="M482.228 16.965V22.503H491.159V27.651H482.228V33.657H492.329V39H475.559V11.622H492.329V16.965H482.228ZM527.558 11.622V39H520.889V22.581L514.766 39H509.384L503.222 22.542V39H496.553V11.622H504.431L512.114 30.576L519.719 11.622H527.558ZM548.822 24.96C550.408 25.298 551.682 26.091 552.644 27.339C553.606 28.561 554.087 29.965 554.087 31.551C554.087 33.839 553.281 35.659 551.669 37.011C550.083 38.337 547.86 39 545 39H532.247V11.622H544.571C547.353 11.622 549.524 12.259 551.084 13.533C552.67 14.807 553.463 16.536 553.463 18.72C553.463 20.332 553.034 21.671 552.176 22.737C551.344 23.803 550.226 24.544 548.822 24.96ZM538.916 22.698H543.284C544.376 22.698 545.208 22.464 545.78 21.996C546.378 21.502 546.677 20.787 546.677 19.851C546.677 18.915 546.378 18.2 545.78 17.706C545.208 17.212 544.376 16.965 543.284 16.965H538.916V22.698ZM543.83 33.618C544.948 33.618 545.806 33.371 546.404 32.877C547.028 32.357 547.34 31.616 547.34 30.654C547.34 29.692 547.015 28.938 546.365 28.392C545.741 27.846 544.87 27.573 543.752 27.573H538.916V33.618H543.83ZM574.892 34.164H564.674L563.036 39H556.055L565.961 11.622H573.683L583.589 39H576.53L574.892 34.164ZM573.176 29.016L569.783 18.993L566.429 29.016H573.176ZM593.05 11.622V28.002C593.05 29.64 593.453 30.901 594.259 31.785C595.065 32.669 596.248 33.111 597.808 33.111C599.368 33.111 600.564 32.669 601.396 31.785C602.228 30.901 602.644 29.64 602.644 28.002V11.622H609.313V27.963C609.313 30.407 608.793 32.474 607.753 34.164C606.713 35.854 605.309 37.128 603.541 37.986C601.799 38.844 599.849 39.273 597.691 39.273C595.533 39.273 593.596 38.857 591.88 38.025C590.19 37.167 588.851 35.893 587.863 34.203C586.875 32.487 586.381 30.407 586.381 27.963V11.622H593.05ZM612.759 25.272C612.759 22.568 613.344 20.163 614.514 18.057C615.684 15.925 617.309 14.274 619.389 13.104C621.495 11.908 623.874 11.31 626.526 11.31C629.776 11.31 632.558 12.168 634.872 13.884C637.186 15.6 638.733 17.94 639.513 20.904H632.181C631.635 19.76 630.855 18.889 629.841 18.291C628.853 17.693 627.722 17.394 626.448 17.394C624.394 17.394 622.73 18.109 621.456 19.539C620.182 20.969 619.545 22.88 619.545 25.272C619.545 27.664 620.182 29.575 621.456 31.005C622.73 32.435 624.394 33.15 626.448 33.15C627.722 33.15 628.853 32.851 629.841 32.253C630.855 31.655 631.635 30.784 632.181 29.64H639.513C638.733 32.604 637.186 34.944 634.872 36.66C632.558 38.35 629.776 39.195 626.526 39.195C623.874 39.195 621.495 38.61 619.389 37.44C617.309 36.244 615.684 34.593 614.514 32.487C613.344 30.381 612.759 27.976 612.759 25.272ZM667.203 11.622V39H660.534V27.729H650.16V39H643.491V11.622H650.16V22.347H660.534V11.622H667.203ZM678.581 16.965V22.503H687.512V27.651H678.581V33.657H688.682V39H671.912V11.622H688.682V16.965H678.581ZM684.665 6.123L675.266 10.062V5.46L684.665 0.935997V6.123Z" fill="#A461D8"/>
<path d="M-0.593292 42.9H473.144V44.85H-0.593292V42.9Z" fill="black"/>
<path d="M473.141 42.9H690.593V44.85H473.141V42.9Z" fill="#A461D8"/>
</svg>
