<svg width="88" height="88" viewBox="0 0 88 88" fill="none" xmlns="http://www.w3.org/2000/svg">
<path d="M33.7331 29.3333H30.7998V32.2666H33.7331V29.3333Z" fill="black"/>
<path d="M33.7331 35.2H30.7998V38.1333H33.7331V35.2Z" fill="black"/>
<path d="M33.7331 41.0667H30.7998V44H33.7331V41.0667Z" fill="black"/>
<path d="M33.7331 46.9333H30.7998V49.8667H33.7331V46.9333Z" fill="black"/>
<path d="M39.6003 29.3333H36.667V32.2666H39.6003V29.3333Z" fill="black"/>
<path d="M39.6003 35.2H36.667V38.1333H39.6003V35.2Z" fill="black"/>
<path d="M39.6003 41.0667H36.667V44H39.6003V41.0667Z" fill="black"/>
<path d="M39.6003 46.9333H36.667V49.8667H39.6003V46.9333Z" fill="black"/>
<path d="M45.4665 29.3333H42.5332V32.2666H45.4665V29.3333Z" fill="black"/>
<path d="M45.4665 35.2H42.5332V38.1333H45.4665V35.2Z" fill="black"/>
<path d="M45.4665 41.0667H42.5332V44H45.4665V41.0667Z" fill="black"/>
<path d="M45.4665 46.9333H42.5332V49.8667H45.4665V46.9333Z" fill="black"/>
<path d="M51.3337 29.3333H48.4004V32.2666H51.3337V29.3333Z" fill="black"/>
<path d="M39.6003 23.4666H36.667V26.3999H39.6003V23.4666Z" fill="black"/>
<path d="M45.4665 23.4666H42.5332V26.3999H45.4665V23.4666Z" fill="black"/>
<path d="M51.3337 23.4666H48.4004V26.3999H51.3337V23.4666Z" fill="black"/>
<path d="M51.3337 35.2H48.4004V38.1333H51.3337V35.2Z" fill="black"/>
<path d="M51.3337 41.0667H48.4004V44H51.3337V41.0667Z" fill="black"/>
<path d="M51.3337 46.9333H48.4004V49.8667H51.3337V46.9333Z" fill="black"/>
<path d="M57.1999 29.3333H54.2666V32.2666H57.1999V29.3333Z" fill="black"/>
<path d="M57.1999 35.2H54.2666V38.1333H57.1999V35.2Z" fill="black"/>
<path d="M57.1999 41.0667H54.2666V44H57.1999V41.0667Z" fill="black"/>
<path d="M57.1999 46.9333H54.2666V49.8667H57.1999V46.9333Z" fill="black"/>
<path d="M86.535 22C86.5344 22 86.5339 22 86.5333 22H64.5333V1.46667C64.5339 0.657067 63.8779 0.000550346 63.0683 3.45611e-07C63.0678 3.45611e-07 63.0672 3.45611e-07 63.0667 3.45611e-07H24.9333C24.1237 -0.000549654 23.4672 0.655417 23.4667 1.46502C23.4667 1.46557 23.4667 1.46612 23.4667 1.46667V22H1.46667C0.657067 21.9995 0.000550346 22.6554 3.45611e-07 23.465C3.45611e-07 23.4656 3.45611e-07 23.4661 3.45611e-07 23.4667V76.2667C-0.000549654 77.0763 0.655417 77.7328 1.46502 77.7333C1.46557 77.7333 1.46612 77.7333 1.46667 77.7333H4.53255C4.44748 78.2177 4.40312 78.7083 4.4 79.2V86.5333C4.39945 87.3429 5.05542 87.9995 5.86502 88C5.86557 88 5.86612 88 5.86667 88H82.1333C82.9429 88.0005 83.5994 87.3446 83.6 86.535C83.6 86.5344 83.6 86.5339 83.6 86.5333V79.2C83.5971 78.7083 83.5527 78.2177 83.4675 77.7333H86.5333C87.3429 77.7339 87.9995 77.0779 88 76.2683C88 76.2678 88 76.2672 88 76.2667V23.4667C88.0005 22.6571 87.3446 22.0006 86.535 22ZM63.0667 63.0667C63.0667 64.6868 61.7535 66 60.1333 66C58.5132 66 57.2 64.6868 57.2 63.0667C57.2 61.4466 58.5132 60.1333 60.1333 60.1333C61.7525 60.1354 63.0647 61.4475 63.0667 63.0667ZM27.8667 60.1333C29.4868 60.1333 30.8 61.4466 30.8 63.0667C30.8 64.6868 29.4868 66 27.8667 66C26.2466 66 24.9333 64.6868 24.9333 63.0667C24.9354 61.4475 26.2475 60.1354 27.8667 60.1333ZM19.0667 85.0667H7.33333V79.2C7.33333 75.96 9.95995 73.3333 13.2 73.3333C16.4401 73.3333 19.0667 75.96 19.0667 79.2V85.0667ZM10.2667 67.4667C10.2667 65.8465 11.5799 64.5333 13.2 64.5333C14.8201 64.5333 16.1333 65.8465 16.1333 67.4667C16.1333 69.0868 14.8201 70.4 13.2 70.4C11.5808 70.398 10.2687 69.0859 10.2667 67.4667ZM19.2889 72.8613C18.7358 72.3278 18.1155 71.8687 17.4438 71.4956C19.6808 69.1519 19.5945 65.4383 17.2508 63.201C14.907 60.9638 11.1934 61.0504 8.9562 63.3941C6.79232 65.661 6.79232 69.2285 8.9562 71.4954C7.55627 72.2724 6.3932 73.4144 5.59057 74.7998H2.93333V24.9333H23.4667V59.2269C21.4526 61.4869 21.5206 64.9174 23.6229 67.0956C21.4229 68.3124 19.8464 70.4097 19.2889 72.8613ZM33.7333 85.0667H22V74.8C22 71.56 24.6266 68.9333 27.8667 68.9333C31.1067 68.9333 33.7333 71.56 33.7333 74.8V85.0667ZM51.3333 85.0667H36.6667V74.8C36.6667 70.75 39.95 67.4667 44 67.4667C48.05 67.4667 51.3333 70.75 51.3333 74.8V85.0667ZM39.6 60.1333C39.6 57.7033 41.5699 55.7333 44 55.7333C46.4301 55.7333 48.4 57.7033 48.4 60.1333C48.4 62.5634 46.4301 64.5333 44 64.5333C41.571 64.5308 39.6026 62.5623 39.6 60.1333ZM52.9324 69.7574C51.9502 68.026 50.4891 66.6153 48.7243 65.6947C51.8221 63.0855 52.2181 58.4591 49.6091 55.3614C46.9999 52.2636 42.3735 51.8676 39.2757 54.4766C36.1779 57.0858 35.7819 61.7122 38.3909 64.81C38.66 65.1295 38.956 65.4254 39.2757 65.6947C37.5109 66.6153 36.0498 68.026 35.0676 69.7574C34.2965 68.6574 33.2853 67.7472 32.1105 67.0956C34.3591 64.7953 34.3172 61.1076 32.0168 58.859C30.5356 57.411 28.3971 56.8588 26.4 57.4083V2.93333H61.6V57.4083C61.1221 57.2764 60.6291 57.2064 60.1333 57.2C56.9019 57.1914 54.2753 59.8041 54.2667 63.0357C54.2626 64.5478 54.8443 66.0029 55.8895 67.0956C54.7147 67.7472 53.7035 68.6574 52.9324 69.7574ZM66 79.2V85.0667H54.2667V74.8C54.2667 71.56 56.8933 68.9333 60.1333 68.9333C63.3734 68.9333 66 71.56 66 74.8V79.2ZM80.6667 85.0667H68.9333V79.2C68.9333 75.96 71.56 73.3333 74.8 73.3333C78.0401 73.3333 80.6667 75.96 80.6667 79.2V85.0667ZM71.8667 67.4667C71.8667 65.8465 73.1799 64.5333 74.8 64.5333C76.4201 64.5333 77.7333 65.8465 77.7333 67.4667C77.7333 69.0868 76.4201 70.4 74.8 70.4C73.1808 70.398 71.8687 69.0859 71.8667 67.4667ZM85.0667 74.8H82.4094C81.6068 73.4146 80.4437 72.2726 79.0438 71.4956C81.2808 69.1519 81.1945 65.4383 78.8508 63.201C76.507 60.964 72.7934 61.0504 70.5562 63.3941C68.3923 65.661 68.3923 69.2285 70.5562 71.4954C69.8845 71.8685 69.2641 72.3276 68.7111 72.8611C68.1538 70.4095 66.5771 68.3122 64.3771 67.0954C66.4794 64.9172 66.5476 61.4867 64.5335 59.2267V24.9333H85.0669V74.8H85.0667Z" fill="black"/>
<path d="M71.8669 33.7334H68.9336V57.2001H71.8669V33.7334Z" fill="black"/>
<path d="M80.6667 33.7334H77.7334V57.2001H80.6667V33.7334Z" fill="black"/>
<path d="M10.2663 33.7334H7.33301V57.2001H10.2663V33.7334Z" fill="black"/>
<path d="M19.0671 33.7334H16.1338V57.2001H19.0671V33.7334Z" fill="black"/>
<path d="M52.8017 5.8667C52.8012 5.8667 52.8006 5.8667 52.8001 5.8667H35.2001C34.3905 5.86615 33.7339 6.52212 33.7334 7.33172C33.7334 7.33227 33.7334 7.33282 33.7334 7.33337V19.0667C33.7328 19.8763 34.3888 20.5328 35.1984 20.5334C35.199 20.5334 35.1995 20.5334 35.2001 20.5334H52.8001C53.6097 20.5339 54.2662 19.8779 54.2667 19.0683C54.2667 19.0678 54.2667 19.0672 54.2667 19.0667V7.33337C54.2673 6.52377 53.6113 5.86725 52.8017 5.8667ZM51.3334 17.6H36.6667V8.80003H51.3334V17.6Z" fill="black"/>
</svg>
