<svg width="22" height="22" viewBox="0 0 22 22" fill="none" xmlns="http://www.w3.org/2000/svg">
<path fill-rule="evenodd" clip-rule="evenodd" d="M8 10.3182C10.7614 10.3182 13 8.21836 13 5.6281C13 3.03784 10.7614 0.938019 8 0.938019C5.23858 0.938019 3 3.03784 3 5.6281C3 8.21836 5.23858 10.3182 8 10.3182ZM8 8.44215C6.34315 8.44215 5 7.18226 5 5.6281C5 4.07394 6.34315 2.81405 8 2.81405C9.65685 2.81405 11 4.07394 11 5.6281C11 7.18226 9.65685 8.44215 8 8.44215ZM8 11.2562C12.4183 11.2562 16 14.6159 16 18.7603V20.6364C16 21.1544 15.5523 21.5744 15 21.5744H1C0.447715 21.5744 0 21.1544 0 20.6364V18.7603C0 14.6159 3.58172 11.2562 8 11.2562ZM14 19.6983V18.7603C14 15.652 11.3137 13.1322 8 13.1322C4.68629 13.1322 2 15.652 2 18.7603V19.6983H14ZM19 11.2562H21C22.3333 11.2562 22.3333 9.38017 21 9.38017H19V7.50413C19 6.25345 17 6.25345 17 7.50413V9.38017H15C13.6667 9.38017 13.6667 11.2562 15 11.2562H17V13.1322C17 14.3829 19 14.3829 19 13.1322V11.2562Z" fill="#92929D"/>
</svg>
