<svg width="22" height="22" viewBox="0 0 22 22" fill="none" xmlns="http://www.w3.org/2000/svg">
<path d="M11.4297 4.41797C11.214 4.41797 11.0391 4.59285 11.0391 4.80859C11.0391 5.02434 11.214 5.19922 11.4297 5.19922H12.7139C12.7166 6.12918 13.0184 6.99781 13.5325 7.70684C12.9998 8.22598 12.3021 8.58035 11.5178 8.67883C11.3038 8.7057 11.152 8.90102 11.1789 9.11504C11.2037 9.31258 11.3719 9.45703 11.5659 9.45703C11.5821 9.45703 11.5986 9.45602 11.6151 9.45395C12.5586 9.33551 13.4 8.91457 14.0469 8.29633C14.6938 8.91457 15.5352 9.33551 16.4788 9.45395C16.4953 9.45602 16.5116 9.45703 16.5279 9.45703C16.7219 9.45703 16.8902 9.31254 16.915 9.11504C16.9418 8.90098 16.7901 8.70566 16.576 8.67883C15.7917 8.58035 15.0939 8.22602 14.5614 7.70684C15.0754 6.99777 15.3772 6.12918 15.3799 5.19922H16.6641C16.8798 5.19922 17.0547 5.02434 17.0547 4.80859C17.0547 4.59285 16.8798 4.41797 16.6641 4.41797H14.4375V3.40234C14.4375 3.1866 14.2626 3.01172 14.0469 3.01172C13.8312 3.01172 13.6562 3.1866 13.6562 3.40234V4.41797H11.4297ZM14.0469 7.07434C13.6992 6.52918 13.4977 5.8848 13.4953 5.19922H14.5984C14.5961 5.8848 14.3946 6.52918 14.0469 7.07434Z" fill="#ADADAD"/>
<path d="M2.86639 21.0549L2.86636 21.0549C2.69255 20.9748 2.58117 20.8008 2.58117 20.6094V18.5441C1.61921 18.3211 0.9 17.4573 0.9 16.4282V10.1031C0.9 8.90544 1.87418 7.93125 3.0718 7.93125H6.99375V3.07184C6.99375 1.87419 7.96793 0.9 9.16555 0.9H12.2891C12.56 0.9 12.7797 1.11965 12.7797 1.39062C12.7797 1.6616 12.56 1.88125 12.2891 1.88125H9.16555C8.50914 1.88125 7.975 2.41542 7.975 3.07184V9.39691C7.975 10.0533 8.50914 10.5875 9.16555 10.5875H16C16.1168 10.5875 16.2297 10.6291 16.3186 10.705C16.3186 10.705 16.3186 10.705 16.3186 10.705L18.4375 12.5141V11.0781C18.4375 10.8071 18.6572 10.5875 18.9282 10.5875C19.5846 10.5875 20.1187 10.0533 20.1187 9.39695V3.07184C20.1187 2.41542 19.5846 1.88125 18.9282 1.88125H15.8047C15.5338 1.88125 15.3141 1.6616 15.3141 1.39062C15.3141 1.11965 15.5338 0.9 15.8047 0.9H18.8282H18.9282C20.1258 0.9 21.1 1.87419 21.1 3.07184V9.39695C21.1 10.426 20.3808 11.2898 19.4189 11.5129L19.4188 13.5781C19.4188 13.7696 19.3074 13.9435 19.1336 14.0237L19.1336 14.0237C19.068 14.0539 18.9979 14.0687 18.9283 14.0688L2.86639 21.0549ZM2.86639 21.0549C2.93203 21.0852 3.00212 21.1 3.07176 21.1M2.86639 21.0549L3.07176 21.1M3.07176 21.1C3.18635 21.1 3.29977 21.0599 3.3904 20.9825M3.07176 21.1L3.3904 20.9825M3.3904 20.9825L6.18094 18.6M3.3904 20.9825L6.18094 18.6M6.18094 18.6H12.8344C14.0321 18.6 15.0063 17.6258 15.0063 16.4282V11.5688H15.8191L18.6096 13.9512C18.7002 14.0286 18.8136 14.0688 18.9282 14.0688L6.18094 18.6ZM7.41323 10.8769L7.41319 10.877C7.41215 10.8795 7.41035 10.8839 7.40858 10.8887C7.40849 10.889 7.40839 10.8893 7.40829 10.8895L5.73678 15.2783C5.64033 15.5315 5.7674 15.8149 6.02061 15.9114L6.02063 15.9114C6.27383 16.0078 6.55727 15.8807 6.65372 15.6275L6.56027 15.5919L6.65372 15.6275L6.94982 14.8501H8.95902L9.25187 15.6261C9.25187 15.6261 9.25187 15.6261 9.25187 15.6261C9.32606 15.8227 9.5128 15.9436 9.71094 15.9436C9.76864 15.9436 9.82722 15.9333 9.8841 15.9119C10.1376 15.8162 10.2655 15.5331 10.1698 15.2796L8.75451 11.5293C8.88755 11.555 9.02488 11.5688 9.16543 11.5688H14.025V16.4282C14.025 17.0846 13.4909 17.6187 12.8345 17.6187H6C5.88319 17.6187 5.77024 17.6604 5.68142 17.7363L3.56242 19.5454V18.1094C3.56242 17.8384 3.34272 17.6187 3.0718 17.6187C2.41539 17.6187 1.88125 17.0846 1.88125 16.4282V10.1031C1.88125 9.44667 2.41539 8.9125 3.0718 8.9125H6.99375V9.39691C6.99375 9.91314 7.17522 10.3875 7.47691 10.7604C7.45177 10.7962 7.43031 10.8352 7.41323 10.8769ZM7.32361 13.8688L7.95907 12.2003L8.58877 13.8688H7.32361Z" fill="#ADADAD" stroke="#ADADAD" stroke-width="0.2"/>
<path d="M14.0469 1.78125C14.1496 1.78125 14.2504 1.73945 14.323 1.6668C14.3957 1.59414 14.4375 1.49336 14.4375 1.39062C14.4375 1.28789 14.3957 1.18711 14.323 1.11445C14.2504 1.0418 14.1496 1 14.0469 1C13.9441 1 13.8434 1.0418 13.7707 1.11445C13.698 1.18711 13.6562 1.28789 13.6562 1.39062C13.6562 1.49336 13.698 1.59414 13.7707 1.6668C13.8434 1.73945 13.9441 1.78125 14.0469 1.78125Z" fill="#ADADAD"/>
</svg>
