<svg width="23" height="26" viewBox="0 0 23 26" fill="none" xmlns="http://www.w3.org/2000/svg">
<path d="M21.3474 6.99605L21.3474 6.99603L22.6617 4.48443C22.7228 4.36781 22.7228 4.22875 22.6617 4.1121L21.3474 1.59915C21.2781 1.46667 21.141 1.38369 20.9915 1.38369H15.1551C14.9332 1.38369 14.7535 1.56348 14.7535 1.78525C14.7535 2.00701 14.9332 2.18681 15.1551 2.18681H20.7485L21.8527 4.29816L20.7485 6.40826H7.64619V2.18676H13.5107C13.7325 2.18676 13.9123 2.00697 13.9123 1.7852C13.9123 1.56344 13.7325 1.38364 13.5107 1.38364H7.61061C7.52352 1.13174 7.28411 0.95 7.00224 0.95H1.59264C1.23826 0.95 0.95 1.23821 0.95 1.59264V7.00238C0.95 7.3574 1.23815 7.64638 1.59264 7.64638H7.00224C7.28435 7.64638 7.52379 7.46397 7.61071 7.21138H20.9915C21.141 7.21138 21.278 7.12839 21.3474 6.99605ZM1.75312 1.75312H6.84307V6.84325H1.75312V1.75312Z" fill="white" stroke="white" stroke-width="0.1"/>
<path d="M21.3474 10.3003C21.2781 10.1678 21.141 10.0848 20.9915 10.0848H7.61029C7.52296 9.83293 7.28387 9.65117 7.00224 9.65117H1.59264C1.23815 9.65117 0.95 9.94015 0.95 10.2951V15.7049C0.95 16.0592 1.23821 16.3475 1.59264 16.3475H7.00224C7.28412 16.3475 7.52348 16.1658 7.61057 15.9139H20.9915C21.141 15.9139 21.2781 15.8309 21.3474 15.6984L22.6617 13.1855C22.6617 13.1855 22.6617 13.1855 22.6617 13.1854C22.7228 13.0689 22.7228 12.9298 22.6617 12.8132C22.6617 12.8132 22.6617 12.8132 22.6617 12.8132L21.3474 10.3003ZM6.84307 15.5444H1.75312V10.4543H6.84307V15.5444ZM21.8527 12.9994L20.7484 15.1108H7.64619V10.888H20.7484L21.8527 12.9994Z" fill="white" stroke="white" stroke-width="0.1"/>
<path d="M4.01953 3.40547H4.17147V5.59093C4.17147 5.8127 4.35126 5.99249 4.57303 5.99249C4.7948 5.99249 4.97459 5.8127 4.97459 5.59093V3.00391V3.00389C4.97454 2.78214 4.79481 2.60234 4.57298 2.60234H4.01953C3.79776 2.60234 3.61797 2.78214 3.61797 3.00391C3.61797 3.22568 3.79776 3.40547 4.01953 3.40547Z" fill="white" stroke="white" stroke-width="0.1"/>
<path d="M5.27646 12.5346L5.27644 12.5347C5.22497 12.7539 5.11035 12.9895 4.93822 13.235C4.93821 13.235 4.9382 13.235 4.93819 13.2351L4.89725 13.2063C4.68754 13.5061 4.52023 13.7376 4.38857 13.9161L5.27646 12.5346ZM5.27646 12.5346C5.2798 12.5203 5.28243 12.5057 5.2842 12.4908M5.27646 12.5346L5.2842 12.4908M5.40817 14.3069C5.40533 14.0856 5.22386 13.906 5.00112 13.9106L5.00216 13.9606L5.00151 13.9106C4.81877 13.913 4.62774 13.9148 4.45091 13.9158L3.98014 12.2907C4.0036 12.1702 4.11068 12.0822 4.2351 12.0822C4.37285 12.0822 4.48589 12.189 4.49545 12.3233L4.48986 12.3698C4.46805 12.4502 4.41395 12.5838 4.28045 12.7742L4.28042 12.7742C3.87155 13.3586 3.62829 13.6768 3.49715 13.8484L3.49572 13.8503L3.49572 13.8503L3.49241 13.8546C3.41386 13.9574 3.3478 14.0438 3.30993 14.1288C3.26973 14.2192 3.26074 14.3085 3.2933 14.4157L3.2933 14.4157C3.33258 14.545 3.42992 14.6442 3.56089 14.6889L3.56122 14.689C3.61746 14.7077 3.6665 14.7205 4.16928 14.7205C4.36853 14.7205 4.6398 14.7184 5.0118 14.7136C5.23356 14.7108 5.41105 14.5287 5.40817 14.3069ZM5.40817 14.3069L5.35817 14.3076L5.40817 14.3069C5.40817 14.3069 5.40817 14.3069 5.40817 14.3069ZM5.2842 12.4908C5.28421 12.4908 5.28421 12.4908 5.28421 12.4908M5.2842 12.4908L5.28421 12.4908M5.28421 12.4908L5.29634 12.3899L5.28421 12.4908ZM5.29923 12.3419C5.29923 12.3579 5.29827 12.3739 5.29635 12.3898L5.29923 12.3419ZM5.29923 12.3419C5.29923 11.7557 4.82186 11.2791 4.2351 11.2791M5.29923 12.3419L4.2351 11.2791M4.2351 11.2791C3.72741 11.2791 3.28869 11.6399 3.19185 12.1372M4.2351 11.2791L3.19185 12.1372M3.19185 12.1372C3.14944 12.3549 3.29159 12.5657 3.50924 12.6081M3.19185 12.1372L3.50924 12.6081M3.50924 12.6081C3.72709 12.6505 3.93779 12.5084 3.98014 12.2907L3.50924 12.6081Z" fill="white" stroke="white" stroke-width="0.1"/>
<path d="M3.24561 22.5108L3.24561 22.5108C3.2383 22.4549 3.23516 22.4101 3.23516 22.3633C3.23516 22.1416 3.41495 21.9618 3.63672 21.9618C3.85849 21.9618 4.03828 22.1416 4.03828 22.3633C4.03828 22.3734 4.03908 22.3848 4.04165 22.4044L3.99208 22.4109L4.04161 22.4041C4.05869 22.5278 4.16927 22.6243 4.2993 22.6243C4.44224 22.6243 4.55895 22.5074 4.55895 22.3633C4.55895 22.2202 4.44244 22.1037 4.2993 22.1037C4.07752 22.1037 3.89773 21.9239 3.89773 21.7021C3.89773 21.4803 4.07752 21.3005 4.2993 21.3005C4.44224 21.3005 4.55895 21.1836 4.55895 21.0395C4.55895 20.8955 4.44223 20.7785 4.2993 20.7785C4.17523 20.7785 4.0671 20.8674 4.04266 20.99C4.04266 20.99 4.04266 20.99 4.04266 20.99L3.99362 20.9802C3.95575 21.1706 3.77078 21.2944 3.58019 21.2564L3.24561 22.5108ZM3.24561 22.5108L3.24566 22.5112C3.31785 23.0338 3.77069 23.4275 4.2993 23.4275C4.88544 23.4275 5.36207 22.95 5.36207 22.3633C5.36207 22.1133 5.2751 21.8834 5.13025 21.7018C5.2751 21.52 5.36207 21.2898 5.36207 21.0395V21.0395C5.36203 20.4528 4.88534 19.9754 4.29925 19.9754C3.79296 19.9754 3.35392 20.3361 3.25501 20.8332C3.21169 21.0507 3.35293 21.2621 3.57039 21.3054L3.24561 22.5108Z" fill="white" stroke="white" stroke-width="0.1"/>
<path d="M9.17187 3.86348H11.34C11.5618 3.86348 11.7416 3.68368 11.7416 3.46191C11.7416 3.24014 11.5618 3.06035 11.34 3.06035H9.17187C8.9501 3.06035 8.77031 3.24014 8.77031 3.46191C8.77031 3.68368 8.9501 3.86348 9.17187 3.86348Z" fill="white" stroke="white" stroke-width="0.1"/>
<path d="M9.17187 5.59004H13.5795C13.8013 5.59004 13.9811 5.41024 13.9811 5.18848C13.9811 4.96671 13.8013 4.78691 13.5795 4.78691H9.17187C8.9501 4.78691 8.77031 4.96671 8.77031 5.18848C8.77031 5.41025 8.9501 5.59004 9.17187 5.59004Z" fill="white" stroke="white" stroke-width="0.1"/>
<path d="M9.17187 12.508H11.34C11.5618 12.508 11.7416 12.3282 11.7416 12.1064C11.7416 11.8847 11.5618 11.7049 11.34 11.7049H9.17187C8.9501 11.7049 8.77031 11.8847 8.77031 12.1064C8.77031 12.3282 8.9501 12.508 9.17187 12.508Z" fill="white" stroke="white" stroke-width="0.1"/>
<path d="M13.5795 13.4324H9.17187C8.9501 13.4324 8.77031 13.6122 8.77031 13.834C8.77031 14.0558 8.9501 14.2355 9.17187 14.2355H13.5795C13.8013 14.2355 13.9811 14.0557 13.9811 13.834C13.9811 13.6122 13.8013 13.4324 13.5795 13.4324Z" fill="white" stroke="white" stroke-width="0.1"/>
<path d="M9.17187 21.2639H11.34C11.5618 21.2639 11.7416 21.0841 11.7416 20.8623C11.7416 20.6405 11.5618 20.4607 11.34 20.4607H9.17187C8.9501 20.4607 8.77031 20.6405 8.77031 20.8623C8.77031 21.0841 8.9501 21.2639 9.17187 21.2639Z" fill="white" stroke="white" stroke-width="0.1"/>
<path d="M9.17187 22.9904H13.5795C13.8013 22.9904 13.9811 22.8106 13.9811 22.5889C13.9811 22.3671 13.8013 22.1873 13.5795 22.1873H9.17187C8.9501 22.1873 8.77031 22.3671 8.77031 22.5889C8.77031 22.8106 8.9501 22.9904 9.17187 22.9904Z" fill="white" stroke="white" stroke-width="0.1"/>
<path d="M21.3474 24.3993L21.3474 24.3993L22.6617 21.8877C22.7228 21.771 22.7228 21.6319 22.6617 21.5153C22.6617 21.5153 22.6617 21.5153 22.6617 21.5153L21.3474 19.0024C21.2781 18.8699 21.141 18.7869 20.9915 18.7869H15.1551C14.9332 18.7869 14.7535 18.9667 14.7535 19.1885C14.7535 19.4102 14.9332 19.59 15.1551 19.59H20.7485L21.8527 21.7014L20.7485 23.8115H7.64619V19.5901H13.5107C13.7325 19.5901 13.9123 19.4103 13.9123 19.1885C13.9123 18.9668 13.7325 18.787 13.5107 18.787H7.61061C7.52353 18.5351 7.28416 18.3533 7.00229 18.3533H1.59264C1.23826 18.3533 0.95 18.6416 0.95 18.996V24.4057C0.95 24.7607 1.23811 25.0497 1.59264 25.0497H7.00224C7.28435 25.0497 7.52379 24.8672 7.61071 24.6147H20.9915C21.141 24.6147 21.278 24.5317 21.3474 24.3993ZM6.84307 24.2465H1.75312V19.1564H6.84307V24.2465Z" fill="white" stroke="white" stroke-width="0.1"/>
</svg>
