<svg width="16" height="16" viewBox="0 0 16 16" fill="none" xmlns="http://www.w3.org/2000/svg">
<path d="M14.0007 2.49912H4.00423C3.45214 2.49912 3.00458 2.94668 3.00458 3.49877C3.00458 4.05086 3.45214 4.49842 4.00423 4.49842H14.0007C14.5528 4.49842 15.0004 4.05086 15.0004 3.49877C15.0004 2.94668 14.5528 2.49912 14.0007 2.49912Z" fill="#999FA9"/>
<path d="M2.0049 3.49877C2.00377 3.23408 1.89772 2.98064 1.71 2.79402C1.32011 2.40644 0.69039 2.40644 0.300496 2.79402C0.112749 2.98064 0.00669296 3.23408 0.00559959 3.49877C-0.00186653 3.56353 -0.00186653 3.62894 0.00559959 3.6937C0.0169081 3.75884 0.0353391 3.82253 0.0605803 3.88364C0.0874146 3.94283 0.119185 3.99969 0.155547 4.05358C0.19144 4.10962 0.233332 4.16157 0.280503 4.20852C0.325987 4.25382 0.376251 4.29405 0.43045 4.32848C0.483088 4.36681 0.540162 4.3987 0.60039 4.42345C0.666648 4.45781 0.73728 4.48305 0.810317 4.49842C0.875075 4.50567 0.94049 4.50567 1.00525 4.49842C1.26922 4.49864 1.52257 4.39442 1.71 4.20852C1.75717 4.16157 1.79906 4.10962 1.83496 4.05358C1.87132 3.99969 1.90309 3.94283 1.92992 3.88364C1.96182 3.82328 1.98697 3.75958 2.0049 3.6937C2.01236 3.62894 2.01236 3.56353 2.0049 3.49877Z" fill="#999FA9"/>
<path d="M2.00491 7.99719C2.01235 7.93243 2.01235 7.86701 2.00491 7.80226C1.98764 7.73775 1.96246 7.67564 1.92994 7.61732C1.9042 7.556 1.87236 7.4974 1.83497 7.44238C1.80033 7.38697 1.75828 7.33651 1.71002 7.29244C1.32012 6.90485 0.690406 6.90485 0.300512 7.29244C0.112765 7.47906 0.0067086 7.7325 0.00561523 7.99719C0.00755205 8.12892 0.0329494 8.25922 0.0805889 8.38205C0.105643 8.44119 0.135757 8.49804 0.170557 8.55199C0.208575 8.60632 0.252122 8.65658 0.300512 8.70194C0.344683 8.75011 0.395103 8.79216 0.450459 8.8269C0.503096 8.86526 0.560139 8.89715 0.620399 8.92186C0.681346 8.94751 0.745105 8.96597 0.810332 8.97684C0.874278 8.99118 0.939724 8.9979 1.00526 8.99684C1.07002 9.0043 1.13544 9.0043 1.20019 8.99684C1.2638 8.98593 1.3259 8.96747 1.38513 8.94186C1.44701 8.9173 1.50574 8.88541 1.56007 8.84689C1.61542 8.81215 1.66584 8.7701 1.71002 8.72193C1.75819 8.67776 1.80023 8.62734 1.83497 8.57199C1.8734 8.51938 1.90529 8.46234 1.92994 8.40205C1.96408 8.33569 1.98929 8.26509 2.00491 8.19212C2.0126 8.12736 2.0126 8.06195 2.00491 7.99719Z" fill="#999FA9"/>
<path d="M2.00491 12.4956C2.01232 12.4308 2.01232 12.3654 2.00491 12.3007C1.98764 12.2346 1.96246 12.1708 1.92994 12.1107C1.9031 12.0515 1.87133 11.9947 1.83497 11.9408C1.80023 11.8854 1.75819 11.835 1.71002 11.7909C1.32012 11.4033 0.690406 11.4033 0.300512 11.7909C0.252341 11.835 0.210293 11.8854 0.175556 11.9408C0.139193 11.9947 0.107423 12.0515 0.0805891 12.1107C0.0546607 12.1716 0.0361985 12.2354 0.0256084 12.3007C0.0115196 12.3647 0.0048345 12.4301 0.00561548 12.4956C0.00674008 12.7603 0.112797 13.0137 0.300512 13.2004C0.344684 13.2485 0.395103 13.2906 0.450459 13.3253C0.503097 13.3637 0.560139 13.3956 0.620399 13.4203C0.681347 13.4459 0.745105 13.4644 0.810332 13.4753C0.874279 13.4896 0.939724 13.4963 1.00526 13.4953C1.07002 13.5027 1.13544 13.5027 1.2002 13.4953C1.2638 13.4844 1.3259 13.4659 1.38513 13.4403C1.44701 13.4157 1.50574 13.3838 1.56007 13.3453C1.61542 13.3106 1.66584 13.2685 1.71002 13.2204C1.75819 13.1762 1.80023 13.1258 1.83497 13.0704C1.87343 13.0178 1.90532 12.9608 1.92994 12.9005C1.96405 12.8341 1.98926 12.7635 2.00491 12.6905C2.0126 12.6258 2.0126 12.5604 2.00491 12.4956Z" fill="#999FA9"/>
<path d="M15.0004 6.99754H4.00423C3.45214 6.99754 3.00458 7.4451 3.00458 7.99719C3.00458 8.54928 3.45214 8.99684 4.00423 8.99684H15.0004C15.5524 8.99684 16 8.54928 16 7.99719C16 7.4451 15.5524 6.99754 15.0004 6.99754Z" fill="#999FA9"/>
<path d="M10.5019 11.496H4.00423C3.45214 11.496 3.00458 11.9435 3.00458 12.4956C3.00458 13.0477 3.45214 13.4953 4.00423 13.4953H10.5019C11.054 13.4953 11.5016 13.0477 11.5016 12.4956C11.5016 11.9435 11.054 11.496 10.5019 11.496Z" fill="#999FA9"/>
</svg>
