<svg width="29" height="23" viewBox="0 0 29 23" fill="none" xmlns="http://www.w3.org/2000/svg">
<path d="M17.332 14.8984C17.332 13.3369 16.0616 12.0664 14.5 12.0664C12.9384 12.0664 11.668 13.3369 11.668 14.8984C11.668 16.46 12.9384 17.7305 14.5 17.7305C16.0616 17.7305 17.332 16.46 17.332 14.8984Z" fill="#A461D8"/>
<path d="M0.141885 14.5234C-0.0472949 14.7376 -0.0472949 15.0592 0.141885 15.2734C0.205096 15.3449 1.71876 17.0455 4.24046 18.7648C7.26643 20.828 10.8382 22.2617 14.5 22.2617C18.1623 22.2617 21.7341 20.8277 24.7595 18.7648C27.2812 17.0455 28.7949 15.345 28.8581 15.2734C29.0472 15.0592 29.0472 14.7376 28.8581 14.5234C28.7948 14.4519 27.2812 12.7514 24.7595 11.032C21.7335 8.96884 18.1618 7.53516 14.5 7.53516C10.8377 7.53516 7.26592 8.96918 4.24051 11.032C1.71876 12.7514 0.205096 14.4519 0.141885 14.5234ZM8.26953 14.8984C8.26953 11.4473 11.0804 8.66797 14.5 8.66797C17.9247 8.66797 20.7305 11.4527 20.7305 14.8984C20.7305 18.3496 17.9196 21.1289 14.5 21.1289C11.0753 21.1289 8.26953 18.3442 8.26953 14.8984ZM24.0962 11.9509C25.8235 13.1254 27.0758 14.3129 27.6531 14.8987C27.0799 15.4809 25.8401 16.657 24.1214 17.8289C22.9447 18.6311 21.4119 19.5154 19.6387 20.1665C21.0102 18.8284 21.8633 16.9613 21.8633 14.8984C21.8633 12.8355 21.0102 10.9683 19.6386 9.63018C21.4014 10.2775 22.9254 11.1548 24.0962 11.9509ZM9.36128 9.63029C7.98984 10.9684 7.13672 12.8355 7.13672 14.8984C7.13672 16.9614 7.98984 18.8286 9.36139 20.1667C7.59857 19.5194 6.07454 18.6421 4.90378 17.846C3.17663 16.6716 1.92431 15.4841 1.34686 14.8982C1.92012 14.316 3.15987 13.1399 4.87863 11.968C6.05534 11.1657 7.58814 10.2814 9.36128 9.63029Z" fill="#A461D8"/>
<path d="M9.68565 6.55946C9.95656 6.40307 10.0494 6.05666 9.89295 5.78575L8.19373 2.84264C8.03735 2.57167 7.69088 2.47889 7.42002 2.63534C7.14911 2.79172 7.05627 3.13814 7.21272 3.40905L8.91193 6.35215C9.06906 6.62443 9.41598 6.71516 9.68565 6.55946Z" fill="#A461D8"/>
<path d="M21.5802 2.63532C21.3093 2.47888 20.9629 2.57172 20.8065 2.84263L19.1072 5.78573C18.9508 6.05664 19.0436 6.40306 19.3146 6.55944C19.5843 6.71515 19.9312 6.62424 20.0883 6.35214L21.7875 3.40903C21.9439 3.13812 21.8511 2.79171 21.5802 2.63532Z" fill="#A461D8"/>
<path d="M15.0664 4.70312V1.30469C15.0664 0.991861 14.8128 0.738281 14.5 0.738281C14.1872 0.738281 13.9336 0.991861 13.9336 1.30469V4.70312C13.9336 5.01595 14.1872 5.26953 14.5 5.26953C14.8128 5.26953 15.0664 5.01595 15.0664 4.70312Z" fill="#A461D8"/>
</svg>
