<svg width="713" height="901" viewBox="0 0 713 901" fill="none" xmlns="http://www.w3.org/2000/svg">
<rect width="713" height="901" fill="#E5E5E5"/>
<g clip-path="url(#clip0_922_333)">
<rect width="1440" height="903" transform="translate(0.0859375 0.5)" fill="white"/>
<g filter="url(#filter0_b_922_333)">
<rect width="712.796" height="903.524" transform="matrix(-1 0 0 1 712.882 -3.02344)" fill="#032339"/>
</g>
<g opacity="0.8">
<path d="M387.096 0.5V149.862C387.096 178.168 376.921 205.531 358.427 226.96L292.455 303.4C268.21 331.492 224.671 331.492 200.426 303.4V303.4C176.181 275.308 132.642 275.308 108.397 303.4L0.0918104 428.891" stroke="#FE8700" stroke-width="20" stroke-linecap="round" stroke-linejoin="round"/>
<path d="M-22.3867 534.298L95.2016 649.594C114.829 668.839 126.989 694.2 129.581 721.298L134.431 772C141.195 842.718 82.5727 902.944 10.2122 899.615L-11.7436 898.605" stroke="#FE8700" stroke-width="20" stroke-linecap="round" stroke-linejoin="round"/>
<path d="M154.906 791.909L338.796 791.909C348.989 791.909 359.059 793.177 368.786 796.225C412.875 810.042 540.302 856.326 522.188 924.958" stroke="#FE8700" stroke-width="20" stroke-linecap="round" stroke-linejoin="round"/>
</g>
<path fill-rule="evenodd" clip-rule="evenodd" d="M178.198 477.706C181.267 483.038 184.339 488.37 187.413 493.7L259.331 476.43L273.102 472.727L178.198 477.706Z" fill="#FE8700"/>
<path fill-rule="evenodd" clip-rule="evenodd" d="M271.956 474.719L206.126 496.727L210.48 504.294C211.088 505.385 211.978 506.29 213.056 506.915C214.135 507.54 215.361 507.86 216.606 507.843H248.802C250.047 507.86 251.273 507.54 252.351 506.915C253.43 506.29 254.32 505.385 254.927 504.294L262.992 490.28L263 490.285L270.345 477.522L253.224 487.064L247.102 497.703H230.716L254.821 484.269L271.956 474.719Z" fill="white"/>
<path fill-rule="evenodd" clip-rule="evenodd" d="M260.54 471.127L272.337 471.397L272.332 471.389L260.048 470.271L207.957 465.752L218.305 447.75H247.1L254.275 460.219V460.239L259.047 468.532L260.18 468.611L271.317 469.624L262.999 455.169L262.99 455.174L254.926 441.159C254.318 440.069 253.428 439.163 252.35 438.539C251.272 437.914 250.045 437.594 248.8 437.611H216.604C215.359 437.594 214.133 437.914 213.055 438.539C211.976 439.164 211.086 440.069 210.479 441.16L202.414 455.174C199.349 460.492 197.012 464.542 193.951 469.862L260.54 471.127Z" fill="white"/>
<path d="M430.714 467.52C432.996 467.52 434.824 468.165 436.197 469.453C437.57 470.741 438.293 472.441 438.364 474.552V492.159H430.928V477.666C430.856 476.485 430.66 475.599 430.339 475.009C430.018 474.418 429.394 474.087 428.467 474.015C426.719 474.015 425.355 474.865 424.374 476.565C423.393 478.265 422.902 480.26 422.902 482.55V492.159H415.412V477.666C415.341 476.485 415.127 475.599 414.77 475.009C414.414 474.418 413.754 474.087 412.791 474.015C411.115 474.015 409.795 474.865 408.832 476.565C407.844 478.363 407.346 480.39 407.387 482.443V492.159H399.897V468.701H406.694L407.229 472.404C409.119 469.148 411.937 467.52 415.682 467.52C417.572 467.52 419.132 467.904 420.363 468.674C421.602 469.454 422.508 470.669 422.904 472.082C423.848 470.738 425.059 469.605 426.462 468.754C427.739 467.959 429.21 467.532 430.714 467.52ZM471.213 468.701V492.159H463.723V489.259C461.476 491.621 458.873 492.802 455.913 492.802C452.453 492.803 449.644 491.765 447.486 489.69C445.327 487.615 444.248 484.537 444.249 480.457C444.249 477.88 444.775 475.617 445.827 473.666C446.797 471.805 448.248 470.238 450.027 469.131C451.712 468.076 453.658 467.517 455.645 467.521C457.713 467.521 459.353 467.834 460.565 468.46C461.808 469.111 462.902 470.016 463.775 471.117L464.257 468.702L471.213 468.701ZM458.053 486.683C460.656 486.683 462.547 485.503 463.724 483.141V477.397C463.305 476.264 462.524 475.301 461.503 474.66C460.39 473.962 459.097 473.608 457.784 473.64C456.996 473.63 456.214 473.787 455.49 474.102C454.766 474.416 454.117 474.881 453.584 475.465C452.425 476.681 451.845 478.22 451.845 480.081C451.835 481.255 452.13 482.412 452.701 483.436C453.237 484.419 454.021 485.243 454.975 485.825C455.902 486.392 456.967 486.689 458.052 486.683H458.053ZM495.181 467.574C497.392 467.574 499.238 468.236 500.718 469.56C501.437 470.187 502.013 470.962 502.406 471.833C502.799 472.704 502.999 473.65 502.993 474.606V492.159H495.503V477.397C495.396 475.107 494.255 473.962 492.079 473.962C490.367 473.962 488.994 474.767 487.96 476.377C486.925 477.988 486.408 480.063 486.408 482.604V492.159H478.918V468.701H485.713L486.248 472.459C487.074 470.95 488.307 469.703 489.804 468.862C491.454 467.97 493.307 467.526 495.181 467.574ZM526.96 467.574C529.171 467.574 531.017 468.236 532.497 469.56C533.216 470.187 533.791 470.963 534.184 471.833C534.576 472.704 534.777 473.65 534.771 474.606V492.159H527.281V477.397C527.174 475.107 526.032 473.962 523.857 473.962C522.145 473.962 520.772 474.767 519.737 476.377C518.703 477.988 518.185 480.063 518.185 482.604V492.159H510.695V468.701H517.489L518.024 472.459C518.851 470.949 520.084 469.703 521.582 468.862C523.232 467.97 525.086 467.526 526.96 467.574Z" fill="white"/>
<path d="M286.586 452.651V492.158H278.828V452.651H286.586ZM311.784 467.574C313.995 467.574 315.841 468.236 317.321 469.56C318.04 470.187 318.616 470.962 319.008 471.833C319.401 472.704 319.601 473.65 319.595 474.606V492.158H312.105V477.397C311.998 475.107 310.857 473.962 308.681 473.962C306.969 473.962 305.596 474.767 304.561 476.377C303.527 477.987 303.01 480.063 303.01 482.604V492.158H295.52V468.701H302.315L302.85 472.459C303.676 470.949 304.909 469.703 306.407 468.862C308.057 467.97 309.911 467.526 311.784 467.574ZM336.982 458.395V468.594H342.653V474.445H336.982V492.158H329.492V474.445H325.854V468.594H329.492V458.395H336.982ZM360.042 486.415C361.54 486.415 363.091 485.896 364.696 484.858L368.012 490.441C366.723 491.159 365.359 491.735 363.946 492.158C362.63 492.571 361.26 492.788 359.88 492.803C357.098 492.803 354.7 492.275 352.684 491.219C350.743 490.236 349.148 488.681 348.11 486.764C347.049 484.738 346.516 482.476 346.559 480.189C346.545 477.949 347.166 475.752 348.351 473.855C349.55 471.918 351.239 470.334 353.246 469.265C355.332 468.133 357.67 467.551 360.041 467.574C363.393 467.574 366.149 468.558 368.306 470.526C370.464 472.494 371.864 475.304 372.506 478.954L355.386 484.429C356.527 485.753 358.079 486.415 360.041 486.415H360.042ZM359.453 473.425C357.777 473.425 356.439 473.997 355.441 475.143C354.442 476.288 353.942 477.826 353.942 479.758V480.241L364.213 476.752C363.464 474.534 361.878 473.425 359.452 473.425H359.453ZM385.294 474.069C385.959 472.786 386.857 471.64 387.941 470.687C388.974 469.747 390.136 468.96 391.392 468.352C392.569 467.797 393.496 467.52 394.174 467.52L393.799 475.035C393.498 474.993 393.194 474.975 392.89 474.981C391.48 474.955 390.097 475.367 388.931 476.162C387.809 476.927 386.905 477.972 386.309 479.195C385.718 480.369 385.406 481.664 385.4 482.979V492.158H377.963V468.701H384.704L385.294 474.069Z" fill="#FE8700"/>
</g>
<defs>
<filter id="filter0_b_922_333" x="-73.9141" y="-77.0234" width="860.796" height="1051.52" filterUnits="userSpaceOnUse" color-interpolation-filters="sRGB">
<feFlood flood-opacity="0" result="BackgroundImageFix"/>
<feGaussianBlur in="BackgroundImage" stdDeviation="37"/>
<feComposite in2="SourceAlpha" operator="in" result="effect1_backgroundBlur_922_333"/>
<feBlend mode="normal" in="SourceGraphic" in2="effect1_backgroundBlur_922_333" result="shape"/>
</filter>
<clipPath id="clip0_922_333">
<rect width="1440" height="903" fill="white" transform="translate(0.0859375 0.5)"/>
</clipPath>
</defs>
</svg>
