<svg width="613" height="800" viewBox="0 0 713 900" fill="none" xmlns="http://www.w3.org/2000/svg">
<rect width="613" height="800" fill="#E5E5E5"/>
<g clip-path="url(#clip0_606_2)">
<rect width="440" height="700" fill="white"/>
<g filter="url(#filter0_b_606_2)">
<rect width="455.796" height="503.524" transform="matrix(-1 0 0 1 712.797 -3.52368)" fill="#032339"/>
</g>
<g opacity="0.8">
<path d="M387.01 -0.00012207V149.362C387.01 177.668 376.835 205.031 358.341 226.459L292.369 302.9C268.124 330.992 224.585 330.992 200.34 302.9V302.9C176.095 274.808 132.556 274.808 108.311 302.9L0.00587294 428.39" stroke="#FE8700" stroke-width="20" stroke-linecap="round" stroke-linejoin="round"/>
<path d="M-22.4727 533.797L95.1156 649.094C114.743 668.339 126.903 693.699 129.495 720.797L134.345 771.5C141.11 842.218 82.4868 902.443 10.1263 899.115L-11.8295 898.105" stroke="#FE8700" stroke-width="20" stroke-linecap="round" stroke-linejoin="round"/>
<path d="M154.82 791.409L338.71 791.409C348.903 791.409 358.973 792.677 368.7 795.725C412.789 809.542 540.216 855.826 522.102 924.458" stroke="#FE8700" stroke-width="20" stroke-linecap="round" stroke-linejoin="round"/>
</g>
<path fill-rule="evenodd" clip-rule="evenodd" d="M178.111 475.621C181.18 480.935 184.252 486.249 187.326 491.561L259.244 474.349L273.015 470.658L178.111 475.621Z" fill="#FE8700"/>
<path fill-rule="evenodd" clip-rule="evenodd" d="M271.87 472.643L206.039 494.579L210.393 502.121C211.001 503.208 211.891 504.11 212.969 504.733C214.048 505.355 215.274 505.675 216.519 505.658H248.715C249.96 505.675 251.186 505.355 252.265 504.733C253.343 504.11 254.233 503.207 254.84 502.121L262.905 488.153L262.913 488.158L270.258 475.438L253.137 484.947L247.015 495.552H230.629L254.734 482.162L271.87 472.643Z" fill="white"/>
<path fill-rule="evenodd" clip-rule="evenodd" d="M260.454 469.063L272.251 469.333L272.246 469.324L259.962 468.211L207.871 463.707L218.219 445.764H247.014L254.189 458.191V458.211L258.961 466.477L260.095 466.556L271.231 467.566L262.913 453.158L262.904 453.163L254.84 439.195C254.232 438.108 253.342 437.206 252.264 436.584C251.186 435.961 249.959 435.642 248.714 435.659H216.519C215.273 435.642 214.047 435.961 212.969 436.584C211.89 437.206 211 438.109 210.393 439.196L202.328 453.164C199.263 458.464 196.926 462.501 193.865 467.803L260.454 469.063Z" fill="white"/>
<path d="M430.625 465.469C432.907 465.469 434.735 466.111 436.108 467.395C437.481 468.679 438.204 470.373 438.276 472.477V490.025H430.839V475.58C430.767 474.403 430.571 473.521 430.25 472.932C429.929 472.344 429.305 472.014 428.378 471.942C426.63 471.942 425.266 472.79 424.285 474.484C423.304 476.178 422.814 478.166 422.814 480.449V490.025H415.324V475.58C415.252 474.403 415.038 473.521 414.682 472.932C414.325 472.344 413.665 472.014 412.702 471.942C411.026 471.942 409.706 472.79 408.743 474.484C407.755 476.276 407.257 478.296 407.299 480.342V490.025H399.809V466.646H406.605L407.14 470.337C409.03 467.091 411.848 465.468 415.593 465.468C417.483 465.468 419.044 465.852 420.274 466.619C421.513 467.397 422.419 468.607 422.815 470.016C423.759 468.676 424.97 467.546 426.373 466.699C427.651 465.906 429.122 465.481 430.625 465.469ZM471.124 466.646V490.025H463.634V487.136C461.387 489.49 458.784 490.667 455.824 490.667C452.364 490.667 449.555 489.633 447.397 487.565C445.238 485.497 444.159 482.429 444.16 478.362C444.16 475.794 444.686 473.539 445.738 471.595C446.708 469.739 448.159 468.178 449.938 467.074C451.623 466.022 453.57 465.466 455.556 465.469C457.624 465.469 459.265 465.781 460.477 466.405C461.72 467.055 462.813 467.957 463.686 469.054L464.168 466.646L471.124 466.646ZM457.964 484.568C460.567 484.568 462.458 483.391 463.635 481.037V475.313C463.216 474.183 462.436 473.224 461.415 472.584C460.301 471.889 459.008 471.536 457.695 471.568C456.907 471.558 456.125 471.715 455.401 472.029C454.677 472.342 454.028 472.805 453.496 473.387C452.336 474.6 451.757 476.133 451.757 477.988C451.746 479.158 452.041 480.311 452.613 481.332C453.148 482.311 453.932 483.133 454.887 483.712C455.813 484.278 456.878 484.574 457.963 484.568H457.964ZM495.092 465.522C497.303 465.522 499.149 466.182 500.629 467.502C501.348 468.127 501.924 468.9 502.317 469.768C502.71 470.636 502.91 471.578 502.904 472.531V490.025H495.414V475.313C495.307 473.03 494.166 471.889 491.99 471.889C490.278 471.889 488.905 472.691 487.871 474.296C486.836 475.901 486.319 477.97 486.319 480.502V490.025H478.829V466.646H485.624L486.159 470.391C486.985 468.887 488.218 467.645 489.715 466.806C491.365 465.917 493.219 465.475 495.092 465.522ZM526.871 465.522C529.082 465.522 530.928 466.182 532.408 467.502C533.127 468.127 533.703 468.9 534.095 469.768C534.488 470.636 534.688 471.578 534.682 472.531V490.025H527.192V475.313C527.085 473.03 525.944 471.889 523.768 471.889C522.056 471.889 520.683 472.691 519.648 474.296C518.614 475.901 518.096 477.97 518.096 480.502V490.025H510.606V466.646H517.401L517.936 470.391C518.762 468.887 519.995 467.645 521.493 466.806C523.143 465.917 524.997 465.475 526.871 465.522Z" fill="white"/>
<path d="M286.498 450.649V490.025H278.74V450.649H286.498ZM311.696 465.522C313.907 465.522 315.753 466.182 317.233 467.502C317.952 468.127 318.528 468.9 318.92 469.768C319.313 470.636 319.513 471.578 319.507 472.531V490.025H312.017V475.313C311.91 473.03 310.769 471.889 308.593 471.889C306.881 471.889 305.508 472.691 304.473 474.296C303.439 475.901 302.922 477.97 302.922 480.502V490.025H295.432V466.646H302.227L302.762 470.391C303.589 468.886 304.821 467.644 306.32 466.806C307.969 465.917 309.823 465.475 311.696 465.522ZM336.895 456.374V466.539H342.566V472.37H336.895V490.025H329.405V472.37H325.767V466.539H329.405V456.374H336.895ZM359.954 484.301C361.452 484.301 363.003 483.784 364.608 482.749L367.924 488.313C366.635 489.029 365.272 489.603 363.858 490.025C362.542 490.436 361.172 490.653 359.792 490.667C357.01 490.667 354.612 490.141 352.597 489.089C350.655 488.109 349.06 486.56 348.022 484.648C346.961 482.63 346.428 480.375 346.471 478.095C346.457 475.863 347.078 473.673 348.263 471.782C349.463 469.852 351.152 468.274 353.158 467.208C355.244 466.08 357.582 465.5 359.953 465.522C363.306 465.522 366.061 466.503 368.219 468.465C370.376 470.427 371.776 473.227 372.418 476.865L355.298 482.322C356.44 483.641 357.991 484.301 359.953 484.301H359.954ZM359.365 471.354C357.689 471.354 356.351 471.925 355.353 473.066C354.354 474.207 353.855 475.741 353.854 477.666V478.147L364.125 474.67C363.377 472.459 361.79 471.354 359.364 471.354H359.365ZM385.206 471.996C385.871 470.718 386.769 469.575 387.853 468.625C388.886 467.688 390.048 466.904 391.304 466.298C392.481 465.745 393.408 465.469 394.086 465.469L393.711 472.959C393.41 472.917 393.106 472.899 392.802 472.905C391.392 472.879 390.009 473.29 388.843 474.082C387.721 474.844 386.817 475.886 386.221 477.105C385.63 478.275 385.318 479.566 385.312 480.877V490.025H377.875V466.646H384.616L385.206 471.996Z" fill="#FE8700"/>
</g>
<defs>
<filter id="filter0_b_606_2" x="-74" y="-77.5237" width="860.797" height="1051.52" filterUnits="userSpaceOnUse" color-interpolation-filters="sRGB">
<feFlood flood-opacity="0" result="BackgroundImageFix"/>
<feGaussianBlur in="BackgroundImage" stdDeviation="37"/>
<feComposite in2="SourceAlpha" operator="in" result="effect1_backgroundBlur_606_2"/>
<feBlend mode="normal" in="SourceGraphic" in2="effect1_backgroundBlur_606_2" result="shape"/>
</filter>
<clipPath id="clip0_606_2">
<rect width="640" height="900" fill="white"/>
</clipPath>
</defs>
</svg>
