<svg width="534" height="904" viewBox="0 0 534 904" fill="none" xmlns="http://www.w3.org/2000/svg">
<g opacity="0.8">
<path d="M387.098 0.5V149.862C387.098 178.168 376.923 205.531 358.429 226.96L292.457 303.4C268.212 331.492 224.672 331.492 200.428 303.4V303.4C176.183 275.308 132.644 275.308 108.399 303.4L0.0937636 428.891" stroke="#FE8700" stroke-width="20" stroke-linecap="round" stroke-linejoin="round"/>
<path d="M-22.3867 534.298L95.2016 649.594C114.829 668.839 126.989 694.2 129.581 721.298L134.431 772C141.195 842.718 82.5727 902.944 10.2122 899.615L-11.7436 898.605" stroke="#FE8700" stroke-width="20" stroke-linecap="round" stroke-linejoin="round"/>
<path d="M154.906 791.908L338.796 791.908C348.989 791.908 359.059 793.177 368.786 796.225C412.875 810.042 540.302 856.326 522.188 924.957" stroke="#FE8700" stroke-width="20" stroke-linecap="round" stroke-linejoin="round"/>
</g>
</svg>
