<svg width="24" height="25" viewBox="0 0 24 25" fill="none" xmlns="http://www.w3.org/2000/svg">
<g clip-path="url(#clip0_2584_33885)">
<path d="M23.2497 11.375H13.75C13.336 11.375 13 11.039 13 10.625C13 10.211 13.336 9.875 13.75 9.875H23.2497C23.6637 9.875 23.9997 10.211 23.9997 10.625C23.9997 11.039 23.6637 11.375 23.2497 11.375Z" fill="white"/>
<path d="M19.4998 15.1255C19.3077 15.1255 19.1158 15.0525 18.9697 14.9056C18.6768 14.6125 18.6768 14.1375 18.9697 13.8446L22.1897 10.6248L18.9697 7.40476C18.6768 7.1118 18.6768 6.63684 18.9697 6.34388C19.2629 6.05074 19.7378 6.05074 20.0308 6.34388L23.7807 10.0938C24.0736 10.3867 24.0736 10.8617 23.7807 11.1546L20.0308 14.9045C19.8838 15.0525 19.6919 15.1255 19.4998 15.1255Z" fill="white"/>
<path d="M7.99981 24.1252C7.78577 24.1252 7.58271 24.0952 7.37983 24.0322L1.3619 22.0273C0.543074 21.7413 0 20.9783 0 20.1254V2.12598C0 1.02298 0.897006 0.125977 2 0.125977C2.21386 0.125977 2.41692 0.156005 2.61997 0.218991L8.63773 2.22393C9.45673 2.50994 9.99963 3.27291 9.99963 4.12579V22.1252C9.99963 23.2282 9.1028 24.1252 7.99981 24.1252ZM2 1.62593C1.72498 1.62593 1.49995 1.85096 1.49995 2.12598V20.1254C1.49995 20.3384 1.64295 20.5363 1.84693 20.6073L7.83667 22.6033C7.8797 22.6172 7.93573 22.6253 7.99981 22.6253C8.27483 22.6253 8.49967 22.4002 8.49967 22.1252V4.12579C8.49967 3.91285 8.35667 3.71491 8.1527 3.64387L2.16296 1.6479C2.11993 1.63399 2.0639 1.62593 2 1.62593Z" fill="white"/>
<path d="M15.2494 8.12579C14.8355 8.12579 14.4995 7.7898 14.4995 7.37581V2.87595C14.4995 2.18695 13.9386 1.62593 13.2496 1.62593H1.99998C1.58599 1.62593 1.25 1.28994 1.25 0.875953C1.25 0.461965 1.58599 0.125977 1.99998 0.125977H13.2496C14.7666 0.125977 15.9994 1.35897 15.9994 2.87595V7.37581C15.9994 7.7898 15.6634 8.12579 15.2494 8.12579Z" fill="white"/>
<path d="M13.25 21.1248H9.24998C8.83599 21.1248 8.5 20.7888 8.5 20.3748C8.5 19.9608 8.83599 19.6249 9.24998 19.6249H13.25C13.939 19.6249 14.4998 19.0638 14.4998 18.3748V13.875C14.4998 13.461 14.8358 13.125 15.2498 13.125C15.6638 13.125 15.9998 13.461 15.9998 13.875V18.3748C15.9998 19.8918 14.767 21.1248 13.25 21.1248Z" fill="white"/>
</g>
<defs>
<clipPath id="clip0_2584_33885">
<rect width="24" height="24" fill="white" transform="translate(0 0.125)"/>
</clipPath>
</defs>
</svg>
