<svg width="36" height="36" viewBox="0 0 36 36" fill="none" xmlns="http://www.w3.org/2000/svg">
<circle cx="18" cy="18" r="17.5" fill="#F5F6F8" stroke="#EAEAEA"/>
<g clip-path="url(#clip0_2584_7994)">
<path d="M27.4136 27.5514C26.8411 27.1127 26.2217 26.7387 25.5668 26.4364L23.2257 25.3555C23.1099 25.6855 22.8071 26.424 22.2088 27.1667C21.956 27.4806 21.6801 27.7587 21.3838 28.0009H28.0002L27.4136 27.5514Z" fill="#8F8F8F"/>
<path d="M13.7913 27.1667C13.193 26.424 12.8903 25.6855 12.7745 25.3555L10.4333 26.4364C9.77841 26.7387 9.15906 27.1127 8.58655 27.5514L8 28.0009H14.6164C14.3202 27.7587 14.0442 27.4807 13.7913 27.1667Z" fill="#8F8F8F"/>
<path d="M21.8148 24.3287V24.1953C20.7822 25.0634 19.4513 25.5871 18.0004 25.5871C16.5494 25.5871 15.2185 25.0634 14.1861 24.1953V24.3287C14.1861 24.5566 14.0525 24.7655 13.8457 24.8609C13.8457 24.8609 14.7499 28.0007 18.0005 28.0007C21.2509 28.0007 22.1552 24.8609 22.1552 24.8609C21.9483 24.7655 21.8148 24.5566 21.8148 24.3287Z" fill="#8F8F8F"/>
<path d="M18 24.4134C20.6279 24.4134 22.7656 22.2747 22.7656 19.6458V17.5352H13.2344V19.6458C13.2344 22.2747 15.3723 24.4134 18 24.4134Z" fill="#8F8F8F"/>
<path d="M11.9982 16.3644H24.0014C24.325 16.3644 24.5873 16.1019 24.5873 15.7783C24.5873 15.4545 24.325 15.192 24.0014 15.192H23.5091V14.586C23.5091 12.6966 22.5539 11.0267 21.1014 10.0332V12.5065C21.1014 12.8303 20.8391 13.0927 20.5155 13.0927C20.192 13.0927 19.9296 12.8303 19.9296 12.5065V9.66043C19.9296 9.58246 19.9451 9.508 19.9729 9.43994C19.5345 9.27118 19.0694 9.15689 18.5857 9.10547V13.2255C18.5857 13.5493 18.3233 13.8117 17.9998 13.8117C17.6761 13.8117 17.4138 13.5493 17.4138 13.2255V9.10547C16.9301 9.15674 16.4652 9.27118 16.027 9.43979C16.0546 9.508 16.0702 9.58231 16.0702 9.66043V12.5065C16.0702 12.8303 15.8079 13.0927 15.4842 13.0927C15.1606 13.0927 14.8983 12.8303 14.8983 12.5065V10.0329C13.4456 11.0264 12.4903 12.6966 12.4903 14.586V15.192H11.998C11.6746 15.192 11.4121 15.4545 11.4121 15.7783C11.4121 16.1019 11.6746 16.3644 11.9982 16.3644Z" fill="#8F8F8F"/>
<path d="M21.1012 9.66046C21.1012 9.33667 20.8389 9.07422 20.5153 9.07422C20.2697 9.07422 20.0596 9.22559 19.9727 9.44012C20.3734 9.59439 20.7518 9.79413 21.1012 10.0332V9.66046Z" fill="#8F8F8F"/>
<path d="M15.4844 9.07422C15.1607 9.07422 14.8984 9.33667 14.8984 9.66046V10.0329C15.2479 9.79382 15.6263 9.59409 16.027 9.43982C15.9398 9.22559 15.7299 9.07422 15.4844 9.07422Z" fill="#8F8F8F"/>
<path d="M18.5859 9.10428V8.58624C18.5859 8.26245 18.3236 8 18 8C17.6764 8 17.4141 8.26245 17.4141 8.58624V9.10428C17.6066 9.08368 17.8021 9.073 18 9.073C18.1979 9.073 18.3934 9.08368 18.5859 9.10428Z" fill="#8F8F8F"/>
</g>
<defs>
<clipPath id="clip0_2584_7994">
<rect width="20" height="20" fill="white" transform="translate(8 8)"/>
</clipPath>
</defs>
</svg>
