<svg width="80" height="80" viewBox="0 0 80 80" fill="none" xmlns="http://www.w3.org/2000/svg">
<rect width="80" height="80" fill="#373A3C"/>
<rect x="-571" y="-1144" width="1892" height="4660" fill="#032339"/>
<rect x="-509" y="-60" width="1767" height="200" rx="10" fill="white"/>
<rect x="-20.5" y="-29.5" width="619" height="139" rx="4.5" fill="#E4F4FF" stroke="#3F76E2"/>
<rect width="80" height="80" rx="40" fill="#3F76E2"/>
<path d="M52.1026 33.039L43.8004 24.7367C43.731 24.665 43.6477 24.6083 43.5556 24.5701C43.4635 24.5319 43.3645 24.5131 43.2647 24.5147H29.7041C28.9004 24.5147 28.1297 24.834 27.5614 25.4023C26.9931 25.9706 26.6738 26.7414 26.6738 27.5451V53.4542C26.6738 54.2578 26.9931 55.0286 27.5614 55.5969C28.1297 56.1652 28.9004 56.4845 29.7041 56.4845H49.2943C50.098 56.4845 50.8687 56.1652 51.437 55.5969C52.0053 55.0286 52.3246 54.2578 52.3246 53.4542V33.5746C52.324 33.3738 52.2442 33.1814 52.1026 33.039ZM49.7382 32.817H45.1587C44.8573 32.817 44.5683 32.6973 44.3552 32.4842C44.142 32.2711 44.0223 31.982 44.0223 31.6807V27.1011L49.7382 32.817ZM49.2943 54.9693H29.7064C29.3046 54.9693 28.9192 54.8097 28.635 54.5255C28.3509 54.2414 28.1913 53.856 28.1913 53.4542V27.5451C28.1913 27.1432 28.3509 26.7578 28.635 26.4737C28.9192 26.1895 29.3046 26.0299 29.7064 26.0299H42.5094V31.6807C42.5094 32.3839 42.7888 33.0583 43.286 33.5556C43.7833 34.0528 44.4577 34.3322 45.161 34.3322H50.8117V53.4542C50.8117 53.6533 50.7724 53.8505 50.6962 54.0345C50.6199 54.2185 50.5081 54.3856 50.3671 54.5263C50.2262 54.6671 50.0589 54.7786 49.8748 54.8546C49.6907 54.9306 49.4935 54.9696 49.2943 54.9693Z" fill="white" stroke="white" stroke-width="0.4"/>
<path d="M36.4569 36.1823C37.0637 36.1823 37.6569 36.0023 38.1614 35.6652C38.666 35.328 39.0593 34.8489 39.2915 34.2882C39.5237 33.7276 39.5845 33.1107 39.4661 32.5155C39.3477 31.9203 39.0555 31.3736 38.6264 30.9445C38.1973 30.5155 37.6506 30.2232 37.0554 30.1049C36.4603 29.9865 35.8433 30.0472 35.2827 30.2795C34.7221 30.5117 34.2429 30.9049 33.9058 31.4095C33.5686 31.9141 33.3887 32.5073 33.3887 33.1141C33.3897 33.9275 33.7132 34.7073 34.2884 35.2825C34.8636 35.8577 35.6434 36.1813 36.4569 36.1823ZM36.4569 31.5611C36.764 31.5611 37.0643 31.6521 37.3197 31.8228C37.5751 31.9934 37.7741 32.236 37.8917 32.5198C38.0092 32.8035 38.04 33.1158 37.98 33.4171C37.9201 33.7183 37.7722 33.995 37.555 34.2122C37.3378 34.4294 37.0611 34.5773 36.7598 34.6373C36.4586 34.6972 36.1463 34.6664 35.8625 34.5489C35.5788 34.4314 35.3362 34.2323 35.1656 33.9769C34.9949 33.7215 34.9038 33.4212 34.9038 33.1141C34.9044 32.7024 35.0682 32.3077 35.3594 32.0166C35.6505 31.7255 36.0451 31.5617 36.4569 31.5611Z" fill="white"/>
<path d="M32.0173 42.0532C32.2183 42.0532 32.411 41.9733 32.553 41.8313C32.6951 41.6892 32.7749 41.4965 32.7749 41.2956V40.8335C32.7759 40.0892 33.072 39.3756 33.5983 38.8493C34.1247 38.323 34.8382 38.0269 35.5825 38.0259H37.3325C38.0768 38.0269 38.7903 38.323 39.3166 38.8493C39.8429 39.3756 40.1391 40.0892 40.1401 40.8335V41.2956C40.1401 41.4965 40.2199 41.6892 40.362 41.8313C40.504 41.9733 40.6967 42.0532 40.8976 42.0532C41.0986 42.0532 41.2913 41.9733 41.4333 41.8313C41.5754 41.6892 41.6552 41.4965 41.6552 41.2956V40.8335C41.6538 39.6874 41.1979 38.5888 40.3876 37.7784C39.5772 36.968 38.4785 36.5121 37.3325 36.5107H35.5825C34.4365 36.5121 33.3378 36.968 32.5274 37.7784C31.717 38.5888 31.2612 39.6874 31.2598 40.8335V41.2956C31.2598 41.4965 31.3396 41.6892 31.4817 41.8313C31.6237 41.9733 31.8164 42.0532 32.0173 42.0532Z" fill="white"/>
<path d="M31.5955 47.5962H40.7886C40.9896 47.5962 41.1823 47.5164 41.3243 47.3743C41.4664 47.2322 41.5462 47.0396 41.5462 46.8386C41.5462 46.6377 41.4664 46.445 41.3243 46.3029C41.1823 46.1609 40.9896 46.0811 40.7886 46.0811H31.5955C31.3945 46.0811 31.2019 46.1609 31.0598 46.3029C30.9177 46.445 30.8379 46.6377 30.8379 46.8386C30.8379 47.0396 30.9177 47.2322 31.0598 47.3743C31.2019 47.5164 31.3945 47.5962 31.5955 47.5962Z" fill="white"/>
<path d="M45.9894 50.0703H31.5955C31.3945 50.0703 31.2019 50.1501 31.0598 50.2922C30.9177 50.4343 30.8379 50.627 30.8379 50.8279C30.8379 51.0288 30.9177 51.2215 31.0598 51.3636C31.2019 51.5056 31.3945 51.5855 31.5955 51.5855H45.9894C46.1903 51.5855 46.383 51.5056 46.5251 51.3636C46.6672 51.2215 46.747 51.0288 46.747 50.8279C46.747 50.627 46.6672 50.4343 46.5251 50.2922C46.383 50.1501 46.1903 50.0703 45.9894 50.0703Z" fill="white"/>
</svg>
