<svg width="13" height="13" viewBox="0 0 13 13" fill="none" xmlns="http://www.w3.org/2000/svg">
<path fill-rule="evenodd" clip-rule="evenodd" d="M6.5 0.699707C3.1865 0.699707 0.5 3.38621 0.5 6.69971C0.5 10.014 3.1865 12.6997 6.5 12.6997C9.8135 12.6997 12.5 10.014 12.5 6.69971C12.5 3.38621 9.8135 0.699707 6.5 0.699707ZM4.78033 3.91967C4.48744 3.62678 4.01256 3.62678 3.71967 3.91967C3.42678 4.21257 3.42678 4.68744 3.71967 4.98033L5.43934 6.7L3.71967 8.41967C3.42678 8.71257 3.42678 9.18744 3.71967 9.48033C4.01256 9.77323 4.48744 9.77323 4.78033 9.48033L6.5 7.76066L8.21967 9.48033C8.51256 9.77323 8.98744 9.77323 9.28033 9.48033C9.57322 9.18744 9.57322 8.71257 9.28033 8.41967L7.56066 6.7L9.28033 4.98033C9.57322 4.68744 9.57322 4.21257 9.28033 3.91967C8.98744 3.62678 8.51256 3.62678 8.21967 3.91967L6.5 5.63934L4.78033 3.91967Z" fill="#032339"/>
</svg>
