<svg width="14" height="15" viewBox="0 0 14 15" fill="none" xmlns="http://www.w3.org/2000/svg">
<path d="M0.772209 10.5301C0.708937 10.5933 0.666369 10.6738 0.648315 10.7606L0.00880433 13.9593C-0.0210097 14.1076 0.0260302 14.2605 0.132698 14.3681C0.218662 14.4541 0.33444 14.5001 0.453033 14.5001C0.481854 14.5001 0.511833 14.4975 0.541647 14.4912L3.73937 13.8517C3.82798 13.8335 3.90848 13.7911 3.97092 13.7276L11.1279 6.5706L7.93023 3.37305L0.772209 10.5301Z" fill="#032339"/>
<path d="M13.3363 1.1615C12.4545 0.2795 11.0197 0.2795 10.1386 1.1615L8.88672 2.41336L12.0844 5.61108L13.3363 4.35905C13.7633 3.93304 13.9985 3.36492 13.9985 2.76069C13.9985 2.15646 13.7633 1.58834 13.3363 1.1615Z" fill="#032339"/>
</svg>
