<svg width="16" height="22" viewBox="0 0 16 22" fill="none" xmlns="http://www.w3.org/2000/svg">
<path d="M15.3407 2.88767C14.9148 2.46092 14.3485 2.22589 13.746 2.22589H12.7282V2.02076C12.7282 1.45522 12.2681 0.995117 11.7026 0.995117H4.31795C3.75241 0.995117 3.29231 1.45522 3.29231 2.02076V2.22589H2.27089C1.02942 2.22589 0.0182578 3.237 0.0168629 4.47979L1.37648e-06 19.7413C-0.000655034 20.3445 0.233478 20.9117 0.659283 21.3385C1.08513 21.7652 1.65149 22.0002 2.25403 22.0002H13.7291C14.9706 22.0002 15.9817 20.9891 15.9831 19.7463L16 4.4848C16.0007 3.8816 15.7665 3.31438 15.3407 2.88767ZM4.52308 2.22589H11.4974V3.45666H4.52308V2.22589ZM14.7536 19.7449C14.753 20.3099 14.2934 20.7695 13.7291 20.7695H2.25403C1.98014 20.7695 1.72271 20.6626 1.52915 20.4687C1.33559 20.2747 1.22917 20.0169 1.22946 19.7427L1.24632 4.48119C1.24693 3.91622 1.70654 3.45666 2.27089 3.45666H3.29231V3.66178C3.29231 4.22732 3.75241 4.68742 4.31795 4.68742H11.7026C12.2681 4.68742 12.7282 4.22732 12.7282 3.66178V3.45666H13.746C14.0199 3.45666 14.2773 3.56349 14.4708 3.75746C14.6644 3.95142 14.7709 4.20927 14.7705 4.4834L14.7536 19.7449Z" fill="#FE8700"/>
<path d="M8.20993 9.2005H12.5821C12.9219 9.2005 13.1975 8.92497 13.1975 8.58511C13.1975 8.24525 12.9219 7.96973 12.5821 7.96973H8.20993C7.87007 7.96973 7.59454 8.24525 7.59454 8.58511C7.59454 8.92497 7.87007 9.2005 8.20993 9.2005Z" fill="#FE8700"/>
<path d="M8.20993 13.303H12.5821C12.9219 13.303 13.1975 13.0275 13.1975 12.6877C13.1975 12.3478 12.9219 12.0723 12.5821 12.0723H8.20993C7.87007 12.0723 7.59454 12.3478 7.59454 12.6877C7.59454 13.0275 7.87007 13.303 8.20993 13.303Z" fill="#FE8700"/>
<path d="M12.5997 16.1748H8.20993C7.87007 16.1748 7.59454 16.4503 7.59454 16.7902C7.59454 17.13 7.87007 17.4056 8.20993 17.4056H12.5997C12.9395 17.4056 13.2151 17.13 13.2151 16.7902C13.2151 16.4503 12.9396 16.1748 12.5997 16.1748Z" fill="#FE8700"/>
<path d="M5.58923 6.90973L4.17007 8.32889L3.83547 7.99425C3.59514 7.75392 3.20552 7.75392 2.96519 7.99425C2.72486 8.23453 2.72486 8.62419 2.96519 8.86452L3.73495 9.63433C3.85036 9.74973 4.00687 9.81459 4.17011 9.81459C4.33331 9.81459 4.48982 9.74977 4.60523 9.63433L6.45955 7.78005C6.69987 7.53976 6.69987 7.1501 6.45955 6.90977C6.21922 6.66941 5.8296 6.6694 5.58923 6.90973Z" fill="#FE8700"/>
<path d="M5.58923 11.3257L4.17007 12.7449L3.83547 12.4103C3.59514 12.1699 3.20552 12.1699 2.96519 12.4103C2.72486 12.6506 2.72486 13.0402 2.96519 13.2805L3.73495 14.0504C3.85036 14.1658 4.00687 14.2306 4.17011 14.2306C4.33331 14.2306 4.48987 14.1658 4.60523 14.0504L6.45955 12.196C6.69987 11.9557 6.69987 11.5661 6.45955 11.3258C6.21922 11.0854 5.82956 11.0854 5.58923 11.3257Z" fill="#FE8700"/>
<path d="M5.58923 15.4283L4.17007 16.8474L3.83547 16.5128C3.59514 16.2725 3.20552 16.2725 2.96519 16.5128C2.72486 16.7531 2.72486 17.1427 2.96519 17.3831L3.73495 18.1529C3.85036 18.2683 4.00687 18.3332 4.17011 18.3332C4.33331 18.3332 4.48987 18.2683 4.60523 18.1529L6.45955 16.2986C6.69987 16.0583 6.69987 15.6686 6.45955 15.4283C6.21922 15.188 5.82956 15.188 5.58923 15.4283Z" fill="#FE8700"/>
</svg>
