<svg width="546" height="46" viewBox="0 0 546 46" fill="none" xmlns="http://www.w3.org/2000/svg">
<path d="M0.479078 24.272C0.479078 21.568 1.06408 19.163 2.23408 17.057C3.40408 14.925 5.02908 13.274 7.10908 12.104C9.21508 10.908 11.5941 10.31 14.2461 10.31C17.4961 10.31 20.2781 11.168 22.5921 12.884C24.9061 14.6 26.4531 16.94 27.2331 19.904H19.9011C19.3551 18.76 18.5751 17.889 17.5611 17.291C16.5731 16.693 15.4421 16.394 14.1681 16.394C12.1141 16.394 10.4501 17.109 9.17608 18.539C7.90208 19.969 7.26508 21.88 7.26508 24.272C7.26508 26.664 7.90208 28.575 9.17608 30.005C10.4501 31.435 12.1141 32.15 14.1681 32.15C15.4421 32.15 16.5731 31.851 17.5611 31.253C18.5751 30.655 19.3551 29.784 19.9011 28.64H27.2331C26.4531 31.604 24.9061 33.944 22.5921 35.66C20.2781 37.35 17.4961 38.195 14.2461 38.195C11.5941 38.195 9.21508 37.61 7.10908 36.44C5.02908 35.244 3.40408 33.593 2.23408 31.487C1.06408 29.381 0.479078 26.976 0.479078 24.272ZM37.8801 32.852H46.6161V38H31.2111V10.622H37.8801V32.852ZM56.3601 10.622V38H49.6911V10.622H56.3601ZM67.756 15.965V21.503H76.687V26.651H67.756V32.657H77.857V38H61.087V10.622H77.857V15.965H67.756ZM106.573 38H99.9036L88.7496 21.113V38H82.0806V10.622H88.7496L99.9036 27.587V10.622H106.573V38ZM130.996 10.622V15.965H123.742V38H117.073V15.965H109.819V10.622H130.996ZM144.143 38.273C142.141 38.273 140.347 37.948 138.761 37.298C137.175 36.648 135.901 35.686 134.939 34.412C134.003 33.138 133.509 31.604 133.457 29.81H140.555C140.659 30.824 141.01 31.604 141.608 32.15C142.206 32.67 142.986 32.93 143.948 32.93C144.936 32.93 145.716 32.709 146.288 32.267C146.86 31.799 147.146 31.162 147.146 30.356C147.146 29.68 146.912 29.121 146.444 28.679C146.002 28.237 145.443 27.873 144.767 27.587C144.117 27.301 143.181 26.976 141.959 26.612C140.191 26.066 138.748 25.52 137.63 24.974C136.512 24.428 135.55 23.622 134.744 22.556C133.938 21.49 133.535 20.099 133.535 18.383C133.535 15.835 134.458 13.846 136.304 12.416C138.15 10.96 140.555 10.232 143.519 10.232C146.535 10.232 148.966 10.96 150.812 12.416C152.658 13.846 153.646 15.848 153.776 18.422H146.561C146.509 17.538 146.184 16.849 145.586 16.355C144.988 15.835 144.221 15.575 143.285 15.575C142.479 15.575 141.829 15.796 141.335 16.238C140.841 16.654 140.594 17.265 140.594 18.071C140.594 18.955 141.01 19.644 141.842 20.138C142.674 20.632 143.974 21.165 145.742 21.737C147.51 22.335 148.94 22.907 150.032 23.453C151.15 23.999 152.112 24.792 152.918 25.832C153.724 26.872 154.127 28.211 154.127 29.849C154.127 31.409 153.724 32.826 152.918 34.1C152.138 35.374 150.994 36.388 149.486 37.142C147.978 37.896 146.197 38.273 144.143 38.273ZM181.143 0.949998L170.691 45.293H164.256L174.708 0.949998H181.143ZM198.677 32.852H207.413V38H192.008V10.622H198.677V32.852ZM217.157 15.965V21.503H226.088V26.651H217.157V32.657H227.258V38H210.488V10.622H227.258V15.965H217.157ZM248.525 33.164H238.307L236.669 38H229.688L239.594 10.622H247.316L257.222 38H250.163L248.525 33.164ZM246.809 28.016L243.416 17.993L240.062 28.016H246.809ZM270.388 10.622C273.274 10.622 275.796 11.194 277.954 12.338C280.112 13.482 281.776 15.094 282.946 17.174C284.142 19.228 284.74 21.607 284.74 24.311C284.74 26.989 284.142 29.368 282.946 31.448C281.776 33.528 280.099 35.14 277.915 36.284C275.757 37.428 273.248 38 270.388 38H260.131V10.622H270.388ZM269.959 32.228C272.481 32.228 274.444 31.539 275.848 30.161C277.252 28.783 277.954 26.833 277.954 24.311C277.954 21.789 277.252 19.826 275.848 18.422C274.444 17.018 272.481 16.316 269.959 16.316H266.8V32.228H269.959Z" fill="black"/>
<path d="M303.188 10.622V38H296.519V10.622H303.188ZM332.407 38H325.738L314.584 21.113V38H307.915V10.622H314.584L325.738 27.587V10.622H332.407V38ZM366.159 19.436C366.159 21.022 365.795 22.478 365.067 23.804C364.339 25.104 363.221 26.157 361.713 26.963C360.205 27.769 358.333 28.172 356.097 28.172H351.963V38H345.294V10.622H356.097C358.281 10.622 360.127 10.999 361.635 11.753C363.143 12.507 364.274 13.547 365.028 14.873C365.782 16.199 366.159 17.72 366.159 19.436ZM355.59 22.868C356.864 22.868 357.813 22.569 358.437 21.971C359.061 21.373 359.373 20.528 359.373 19.436C359.373 18.344 359.061 17.499 358.437 16.901C357.813 16.303 356.864 16.004 355.59 16.004H351.963V22.868H355.59ZM383.487 38L377.793 27.665H376.194V38H369.525V10.622H380.718C382.876 10.622 384.709 10.999 386.217 11.753C387.751 12.507 388.895 13.547 389.649 14.873C390.403 16.173 390.78 17.629 390.78 19.241C390.78 21.061 390.26 22.686 389.22 24.116C388.206 25.546 386.698 26.56 384.696 27.158L391.014 38H383.487ZM376.194 22.946H380.328C381.55 22.946 382.46 22.647 383.058 22.049C383.682 21.451 383.994 20.606 383.994 19.514C383.994 18.474 383.682 17.655 383.058 17.057C382.46 16.459 381.55 16.16 380.328 16.16H376.194V22.946ZM407.808 38.273C405.234 38.273 402.868 37.675 400.71 36.479C398.578 35.283 396.875 33.619 395.601 31.487C394.353 29.329 393.729 26.911 393.729 24.233C393.729 21.555 394.353 19.15 395.601 17.018C396.875 14.886 398.578 13.222 400.71 12.026C402.868 10.83 405.234 10.232 407.808 10.232C410.382 10.232 412.735 10.83 414.867 12.026C417.025 13.222 418.715 14.886 419.937 17.018C421.185 19.15 421.809 21.555 421.809 24.233C421.809 26.911 421.185 29.329 419.937 31.487C418.689 33.619 416.999 35.283 414.867 36.479C412.735 37.675 410.382 38.273 407.808 38.273ZM407.808 32.189C409.992 32.189 411.734 31.461 413.034 30.005C414.36 28.549 415.023 26.625 415.023 24.233C415.023 21.815 414.36 19.891 413.034 18.461C411.734 17.005 409.992 16.277 407.808 16.277C405.598 16.277 403.83 16.992 402.504 18.422C401.204 19.852 400.554 21.789 400.554 24.233C400.554 26.651 401.204 28.588 402.504 30.044C403.83 31.474 405.598 32.189 407.808 32.189ZM443.588 19.28C443.094 18.37 442.379 17.681 441.443 17.213C440.533 16.719 439.454 16.472 438.206 16.472C436.048 16.472 434.319 17.187 433.019 18.617C431.719 20.021 431.069 21.906 431.069 24.272C431.069 26.794 431.745 28.77 433.097 30.2C434.475 31.604 436.36 32.306 438.752 32.306C440.39 32.306 441.768 31.89 442.886 31.058C444.03 30.226 444.862 29.03 445.382 27.47H436.919V22.556H451.427V28.757C450.933 30.421 450.088 31.968 448.892 33.398C447.722 34.828 446.227 35.985 444.407 36.869C442.587 37.753 440.533 38.195 438.245 38.195C435.541 38.195 433.123 37.61 430.991 36.44C428.885 35.244 427.234 33.593 426.038 31.487C424.868 29.381 424.283 26.976 424.283 24.272C424.283 21.568 424.868 19.163 426.038 17.057C427.234 14.925 428.885 13.274 430.991 12.104C433.097 10.908 435.502 10.31 438.206 10.31C441.482 10.31 444.238 11.103 446.474 12.689C448.736 14.275 450.231 16.472 450.959 19.28H443.588ZM468.977 38L463.283 27.665H461.684V38H455.015V10.622H466.208C468.366 10.622 470.199 10.999 471.707 11.753C473.241 12.507 474.385 13.547 475.139 14.873C475.893 16.173 476.27 17.629 476.27 19.241C476.27 21.061 475.75 22.686 474.71 24.116C473.696 25.546 472.188 26.56 470.186 27.158L476.504 38H468.977ZM461.684 22.946H465.818C467.04 22.946 467.95 22.647 468.548 22.049C469.172 21.451 469.484 20.606 469.484 19.514C469.484 18.474 469.172 17.655 468.548 17.057C467.95 16.459 467.04 16.16 465.818 16.16H461.684V22.946ZM487.019 15.965V21.503H495.95V26.651H487.019V32.657H497.12V38H480.35V10.622H497.12V15.965H487.019ZM511.25 38.273C509.248 38.273 507.454 37.948 505.868 37.298C504.282 36.648 503.008 35.686 502.046 34.412C501.11 33.138 500.616 31.604 500.564 29.81H507.662C507.766 30.824 508.117 31.604 508.715 32.15C509.313 32.67 510.093 32.93 511.055 32.93C512.043 32.93 512.823 32.709 513.395 32.267C513.967 31.799 514.253 31.162 514.253 30.356C514.253 29.68 514.019 29.121 513.551 28.679C513.109 28.237 512.55 27.873 511.874 27.587C511.224 27.301 510.288 26.976 509.066 26.612C507.298 26.066 505.855 25.52 504.737 24.974C503.619 24.428 502.657 23.622 501.851 22.556C501.045 21.49 500.642 20.099 500.642 18.383C500.642 15.835 501.565 13.846 503.411 12.416C505.257 10.96 507.662 10.232 510.626 10.232C513.642 10.232 516.073 10.96 517.919 12.416C519.765 13.846 520.753 15.848 520.883 18.422H513.668C513.616 17.538 513.291 16.849 512.693 16.355C512.095 15.835 511.328 15.575 510.392 15.575C509.586 15.575 508.936 15.796 508.442 16.238C507.948 16.654 507.701 17.265 507.701 18.071C507.701 18.955 508.117 19.644 508.949 20.138C509.781 20.632 511.081 21.165 512.849 21.737C514.617 22.335 516.047 22.907 517.139 23.453C518.257 23.999 519.219 24.792 520.025 25.832C520.831 26.872 521.234 28.211 521.234 29.849C521.234 31.409 520.831 32.826 520.025 34.1C519.245 35.374 518.101 36.388 516.593 37.142C515.085 37.896 513.304 38.273 511.25 38.273ZM535.138 38.273C533.136 38.273 531.342 37.948 529.756 37.298C528.17 36.648 526.896 35.686 525.934 34.412C524.998 33.138 524.504 31.604 524.452 29.81H531.55C531.654 30.824 532.005 31.604 532.603 32.15C533.201 32.67 533.981 32.93 534.943 32.93C535.931 32.93 536.711 32.709 537.283 32.267C537.855 31.799 538.141 31.162 538.141 30.356C538.141 29.68 537.907 29.121 537.439 28.679C536.997 28.237 536.438 27.873 535.762 27.587C535.112 27.301 534.176 26.976 532.954 26.612C531.186 26.066 529.743 25.52 528.625 24.974C527.507 24.428 526.545 23.622 525.739 22.556C524.933 21.49 524.53 20.099 524.53 18.383C524.53 15.835 525.453 13.846 527.299 12.416C529.145 10.96 531.55 10.232 534.514 10.232C537.53 10.232 539.961 10.96 541.807 12.416C543.653 13.846 544.641 15.848 544.771 18.422H537.556C537.504 17.538 537.179 16.849 536.581 16.355C535.983 15.835 535.216 15.575 534.28 15.575C533.474 15.575 532.824 15.796 532.33 16.238C531.836 16.654 531.589 17.265 531.589 18.071C531.589 18.955 532.005 19.644 532.837 20.138C533.669 20.632 534.969 21.165 536.737 21.737C538.505 22.335 539.935 22.907 541.027 23.453C542.145 23.999 543.107 24.792 543.913 25.832C544.719 26.872 545.122 28.211 545.122 29.849C545.122 31.409 544.719 32.826 543.913 34.1C543.133 35.374 541.989 36.388 540.481 37.142C538.973 37.896 537.192 38.273 535.138 38.273Z" fill="#A461D8"/>
<path d="M-0.807922 41.9H294.105V43.85H-0.807922V41.9Z" fill="black"/>
<path d="M294.101 41.9H546.799V43.85H294.101V41.9Z" fill="#A461D8"/>
</svg>
