<svg width="25" height="25" viewBox="0 0 25 25" fill="none" xmlns="http://www.w3.org/2000/svg">
<path d="M22.4964 5.11385C20.1814 2.08985 16.6613 0.355469 12.8387 0.355469C10.1512 0.355469 7.60279 1.21887 5.4687 2.85245C4.69654 3.44362 3.998 4.12717 3.38987 4.88163L2.84762 1.8102C2.78825 1.47431 2.46759 1.24967 2.13203 1.30937L0.51022 1.5956C0.348904 1.6241 0.205539 1.7155 0.111582 1.84964C0.0176245 1.98387 -0.019102 2.14979 0.00938983 2.31111L1.29778 9.60938C1.35073 9.90895 1.61127 10.1198 1.90525 10.1198C1.9409 10.1198 1.97705 10.1166 2.01337 10.1102L9.31172 8.82182C9.64761 8.76253 9.87184 8.4422 9.81255 8.10631L9.52623 6.4845C9.49774 6.32318 9.40642 6.17982 9.27219 6.08586C9.13797 5.99191 8.97204 5.95526 8.81072 5.98367L5.76943 6.52057C6.19722 6.01496 6.68141 5.55374 7.2207 5.14094C8.84803 3.89529 10.7913 3.23693 12.8406 3.23693C15.7572 3.23693 18.4424 4.55966 20.208 6.86585C21.7122 8.83063 22.361 11.2636 22.0353 13.7166C21.7094 16.1696 20.4479 18.3489 18.483 19.8529C16.8511 21.1022 14.9109 21.7625 12.872 21.7625C12.4606 21.7625 12.0435 21.7349 11.6322 21.6803C9.17922 21.3545 6.99993 20.093 5.49579 18.1281C4.58027 16.9322 3.96498 15.5211 3.71637 14.0473C3.68912 13.8859 3.59878 13.7418 3.4653 13.6468C3.3319 13.5519 3.16605 13.514 3.00457 13.5411L1.38062 13.815C1.04432 13.8718 0.817701 14.1905 0.874355 14.5268C1.20069 16.4615 2.00736 18.3126 3.20723 19.88C5.17925 22.4561 8.03659 24.1101 11.2526 24.5373C11.7907 24.6088 12.3367 24.645 12.8755 24.645C15.5506 24.645 18.0954 23.7792 20.2347 22.1415C22.8109 20.1695 24.4649 17.3121 24.892 14.096C25.3194 10.8799 24.4686 7.68997 22.4964 5.11385Z" fill="white"/>
</svg>
