<svg width="26" height="25" viewBox="0 0 26 25" fill="none" xmlns="http://www.w3.org/2000/svg">
<path d="M22.0816 7.17085L16.1514 1.24065C16.1019 1.18943 16.0424 1.14893 15.9766 1.12165C15.9108 1.09438 15.8401 1.08092 15.7689 1.0821H6.08272C5.50865 1.0821 4.9581 1.31015 4.55218 1.71607C4.14626 2.12199 3.91821 2.67254 3.91821 3.24661V21.7531C3.91821 22.3272 4.14626 22.8777 4.55218 23.2836C4.9581 23.6896 5.50865 23.9176 6.08272 23.9176H20.0757C20.6497 23.9176 21.2003 23.6896 21.6062 23.2836C22.0121 22.8777 22.2402 22.3272 22.2402 21.7531V7.55342C22.2397 7.41 22.1828 7.27254 22.0816 7.17085ZM20.3928 7.0123H17.1217C16.9064 7.0123 16.6999 6.92678 16.5477 6.77456C16.3955 6.62234 16.31 6.41588 16.31 6.20061V2.92951L20.3928 7.0123ZM20.0757 22.8353H6.08434C5.79731 22.8353 5.52203 22.7213 5.31907 22.5184C5.11611 22.3154 5.00209 22.0401 5.00209 21.7531V3.24661C5.00209 2.95957 5.11611 2.6843 5.31907 2.48134C5.52203 2.27838 5.79731 2.16435 6.08434 2.16435H15.2294V6.20061C15.2294 6.70291 15.4289 7.18464 15.7841 7.53983C16.1393 7.89501 16.621 8.09455 17.1233 8.09455H21.1596V21.7531C21.1596 21.8954 21.1315 22.0362 21.077 22.1676C21.0225 22.299 20.9427 22.4184 20.842 22.5189C20.7413 22.6195 20.6218 22.6991 20.4903 22.7534C20.3588 22.8077 20.2179 22.8356 20.0757 22.8353Z" fill="white" stroke="white" stroke-width="0.4"/>
<path d="M10.9064 9.41534C11.3399 9.41534 11.7636 9.28681 12.124 9.046C12.4844 8.80519 12.7653 8.46291 12.9311 8.06246C13.097 7.662 13.1404 7.22135 13.0559 6.79623C12.9713 6.37111 12.7626 5.98062 12.4561 5.67412C12.1496 5.36763 11.7591 5.1589 11.334 5.07434C10.9088 4.98978 10.4682 5.03318 10.0677 5.19905C9.66727 5.36492 9.325 5.64582 9.08419 6.00622C8.84338 6.36662 8.71484 6.79034 8.71484 7.22379C8.71556 7.8048 8.94669 8.36182 9.35753 8.77266C9.76837 9.1835 10.3254 9.41463 10.9064 9.41534ZM10.9064 6.11448C11.1258 6.11448 11.3403 6.17954 11.5227 6.30143C11.7051 6.42332 11.8473 6.59657 11.9313 6.79927C12.0152 7.00197 12.0372 7.22502 11.9944 7.4402C11.9516 7.65539 11.8459 7.85304 11.6908 8.00818C11.5357 8.16332 11.338 8.26898 11.1228 8.31178C10.9076 8.35458 10.6846 8.33261 10.4819 8.24865C10.2792 8.16469 10.1059 8.02251 9.98405 7.84008C9.86215 7.65766 9.79709 7.44319 9.79709 7.22379C9.79752 6.92971 9.91454 6.6478 10.1225 6.43986C10.3304 6.23192 10.6123 6.11491 10.9064 6.11448Z" fill="white"/>
<path d="M7.73473 13.6093C7.87824 13.6093 8.01588 13.5523 8.11736 13.4508C8.21884 13.3493 8.27585 13.2117 8.27585 13.0681V12.7381C8.27657 12.2064 8.48808 11.6967 8.86402 11.3208C9.23995 10.9449 9.74962 10.7334 10.2813 10.7326H11.5313C12.0629 10.7334 12.5726 10.9449 12.9485 11.3208C13.3244 11.6967 13.536 12.2064 13.5367 12.7381V13.0681C13.5367 13.2117 13.5937 13.3493 13.6952 13.4508C13.7966 13.5523 13.9343 13.6093 14.0778 13.6093C14.2213 13.6093 14.359 13.5523 14.4604 13.4508C14.5619 13.3493 14.6189 13.2117 14.6189 13.0681V12.7381C14.6179 11.9195 14.2923 11.1347 13.7135 10.5559C13.1346 9.97702 12.3499 9.65139 11.5313 9.65039H10.2813C9.46267 9.65139 8.6779 9.97702 8.09907 10.5559C7.52023 11.1347 7.19461 11.9195 7.1936 12.7381V13.0681C7.1936 13.2117 7.25061 13.3493 7.3521 13.4508C7.45358 13.5523 7.59121 13.6093 7.73473 13.6093Z" fill="white"/>
<path d="M7.43346 17.5686H14C14.1435 17.5686 14.2812 17.5116 14.3827 17.4101C14.4841 17.3086 14.5411 17.171 14.5411 17.0275C14.5411 16.8839 14.4841 16.7463 14.3827 16.6448C14.2812 16.5433 14.1435 16.4863 14 16.4863H7.43346C7.28994 16.4863 7.15231 16.5433 7.05083 16.6448C6.94935 16.7463 6.89233 16.8839 6.89233 17.0275C6.89233 17.171 6.94935 17.3086 7.05083 17.4101C7.15231 17.5116 7.28994 17.5686 7.43346 17.5686Z" fill="white"/>
<path d="M17.7148 19.3359H7.43346C7.28994 19.3359 7.15231 19.393 7.05083 19.4944C6.94935 19.5959 6.89233 19.7335 6.89233 19.8771C6.89233 20.0206 6.94935 20.1582 7.05083 20.2597C7.15231 20.3612 7.28994 20.4182 7.43346 20.4182H17.7148C17.8584 20.4182 17.996 20.3612 18.0975 20.2597C18.199 20.1582 18.256 20.0206 18.256 19.8771C18.256 19.7335 18.199 19.5959 18.0975 19.4944C17.996 19.393 17.8584 19.3359 17.7148 19.3359Z" fill="white"/>
</svg>
