<svg width="26" height="25" viewBox="0 0 26 25" fill="none" xmlns="http://www.w3.org/2000/svg">
<path d="M21.9918 7.17085L15.9263 1.24065C15.8757 1.18943 15.8148 1.14893 15.7475 1.12165C15.6802 1.09438 15.6079 1.08092 15.535 1.0821H5.62794C5.04078 1.0821 4.47768 1.31015 4.06249 1.71607C3.64731 2.12199 3.41406 2.67254 3.41406 3.24661V21.7531C3.41406 22.3272 3.64731 22.8777 4.06249 23.2836C4.47768 23.6896 5.04078 23.9176 5.62794 23.9176H19.9401C20.5273 23.9176 21.0904 23.6896 21.5056 23.2836C21.9207 22.8777 22.154 22.3272 22.154 21.7531V7.55342C22.1535 7.41 22.0953 7.27254 21.9918 7.17085ZM20.2644 7.0123H16.9187C16.6985 7.0123 16.4874 6.92678 16.3317 6.77456C16.176 6.62234 16.0885 6.41588 16.0885 6.20061V2.92951L20.2644 7.0123ZM19.9401 22.8353H5.6296C5.33602 22.8353 5.05447 22.7213 4.84688 22.5184C4.63929 22.3154 4.52266 22.0401 4.52266 21.7531V3.24661C4.52266 2.95957 4.63929 2.6843 4.84688 2.48134C5.05447 2.27838 5.33602 2.16435 5.6296 2.16435H14.9832V6.20061C14.9832 6.70291 15.1873 7.18464 15.5506 7.53983C15.9139 7.89501 16.4066 8.09455 16.9204 8.09455H21.0487V21.7531C21.0487 21.8954 21.02 22.0362 20.9643 22.1676C20.9086 22.299 20.8269 22.4184 20.7239 22.5189C20.6209 22.6195 20.4987 22.6991 20.3642 22.7534C20.2297 22.8077 20.0856 22.8356 19.9401 22.8353Z" fill="#3F76E2" stroke="#3F76E2" stroke-width="0.4"/>
<path d="M10.5616 9.41534C11.005 9.41534 11.4383 9.28681 11.807 9.046C12.1756 8.80519 12.4629 8.46291 12.6325 8.06246C12.8022 7.662 12.8466 7.22135 12.7601 6.79623C12.6736 6.37111 12.4601 5.98062 12.1466 5.67412C11.8331 5.36763 11.4337 5.1589 10.9989 5.07434C10.5641 4.98978 10.1134 5.03318 9.70381 5.19905C9.29422 5.36492 8.94414 5.64582 8.69784 6.00622C8.45153 6.36662 8.32007 6.79034 8.32007 7.22379C8.3208 7.8048 8.5572 8.36182 8.97741 8.77266C9.39763 9.1835 9.96735 9.41463 10.5616 9.41534ZM10.5616 6.11448C10.786 6.11448 11.0054 6.17954 11.192 6.30143C11.3786 6.42332 11.524 6.59657 11.6099 6.79927C11.6957 7.00197 11.7182 7.22502 11.6744 7.4402C11.6307 7.65539 11.5226 7.85304 11.3639 8.00818C11.2052 8.16332 11.0031 8.26898 10.783 8.31178C10.5629 8.35458 10.3347 8.33261 10.1274 8.24865C9.9201 8.16469 9.7429 8.02251 9.61822 7.84008C9.49355 7.65766 9.42701 7.44319 9.42701 7.22379C9.42745 6.92971 9.54713 6.6478 9.75981 6.43986C9.9725 6.23192 10.2608 6.11491 10.5616 6.11448Z" fill="#3F76E2"/>
<path d="M7.31763 13.6093C7.46442 13.6093 7.6052 13.5523 7.70899 13.4508C7.81279 13.3493 7.8711 13.2117 7.8711 13.0681V12.7381C7.87183 12.2064 8.08817 11.6967 8.47268 11.3208C8.85719 10.9449 9.37848 10.7334 9.92226 10.7326H11.2008C11.7445 10.7334 12.2658 10.9449 12.6504 11.3208C13.0349 11.6967 13.2512 12.2064 13.2519 12.7381V13.0681C13.2519 13.2117 13.3102 13.3493 13.414 13.4508C13.5178 13.5523 13.6586 13.6093 13.8054 13.6093C13.9522 13.6093 14.093 13.5523 14.1968 13.4508C14.3006 13.3493 14.3589 13.2117 14.3589 13.0681V12.7381C14.3578 11.9195 14.0248 11.1347 13.4328 10.5559C12.8407 9.97702 12.038 9.65139 11.2008 9.65039H9.92226C9.08499 9.65139 8.28231 9.97702 7.69028 10.5559C7.09824 11.1347 6.76519 11.9195 6.76416 12.7381V13.0681C6.76416 13.2117 6.82247 13.3493 6.92627 13.4508C7.03006 13.5523 7.17084 13.6093 7.31763 13.6093Z" fill="#3F76E2"/>
<path d="M7.00952 17.5686H13.7259C13.8727 17.5686 14.0134 17.5116 14.1172 17.4101C14.221 17.3086 14.2793 17.171 14.2793 17.0275C14.2793 16.8839 14.221 16.7463 14.1172 16.6448C14.0134 16.5433 13.8727 16.4863 13.7259 16.4863H7.00952C6.86273 16.4863 6.72196 16.5433 6.61816 16.6448C6.51437 16.7463 6.45605 16.8839 6.45605 17.0275C6.45605 17.171 6.51437 17.3086 6.61816 17.4101C6.72196 17.5116 6.86273 17.5686 7.00952 17.5686Z" fill="#3F76E2"/>
<path d="M17.5254 19.3359H7.00952C6.86273 19.3359 6.72196 19.393 6.61816 19.4944C6.51437 19.5959 6.45605 19.7335 6.45605 19.8771C6.45605 20.0206 6.51437 20.1582 6.61816 20.2597C6.72196 20.3612 6.86273 20.4182 7.00952 20.4182H17.5254C17.6722 20.4182 17.813 20.3612 17.9168 20.2597C18.0206 20.1582 18.0789 20.0206 18.0789 19.8771C18.0789 19.7335 18.0206 19.5959 17.9168 19.4944C17.813 19.393 17.6722 19.3359 17.5254 19.3359Z" fill="#3F76E2"/>
</svg>
