<svg width="26" height="26" viewBox="0 0 26 26" fill="none" xmlns="http://www.w3.org/2000/svg">
<path d="M21.6637 7.63911L15.7335 1.70891C15.684 1.65769 15.6245 1.61719 15.5586 1.58991C15.4928 1.56264 15.4221 1.54918 15.3509 1.55037H5.66475C5.09068 1.55037 4.54014 1.77841 4.13421 2.18433C3.72829 2.59026 3.50024 3.14081 3.50024 3.71487V22.2214C3.50024 22.7954 3.72829 23.346 4.13421 23.7519C4.54014 24.1578 5.09068 24.3859 5.66475 24.3859H19.6577C20.2318 24.3859 20.7823 24.1578 21.1882 23.7519C21.5942 23.346 21.8222 22.7954 21.8222 22.2214V8.02168C21.8218 7.87826 21.7648 7.7408 21.6637 7.63911ZM19.9748 7.48056H16.7037C16.4884 7.48056 16.282 7.39504 16.1298 7.24282C15.9775 7.0906 15.892 6.88414 15.892 6.66887V3.39777L19.9748 7.48056ZM19.6577 23.3036H5.66637C5.37934 23.3036 5.10406 23.1896 4.9011 22.9866C4.69814 22.7837 4.58412 22.5084 4.58412 22.2214V3.71487C4.58412 3.42784 4.69814 3.15256 4.9011 2.9496C5.10406 2.74664 5.37934 2.63262 5.66637 2.63262H14.8114V6.66887C14.8114 7.17118 15.0109 7.65291 15.3661 8.00809C15.7213 8.36327 16.203 8.56281 16.7053 8.56281H20.7416V22.2214C20.7416 22.3636 20.7135 22.5045 20.659 22.6359C20.6046 22.7673 20.5247 22.8867 20.424 22.9872C20.3234 23.0877 20.2039 23.1674 20.0724 23.2217C19.9409 23.276 19.8 23.3038 19.6577 23.3036Z" fill="white" stroke="white" stroke-width="0.4"/>
<path d="M10.4884 9.88361C10.9219 9.88361 11.3456 9.75507 11.706 9.51426C12.0664 9.27345 12.3473 8.93118 12.5132 8.53072C12.679 8.13027 12.7224 7.68962 12.6379 7.2645C12.5533 6.83937 12.3446 6.44888 12.0381 6.14238C11.7316 5.83589 11.3411 5.62716 10.916 5.5426C10.4909 5.45804 10.0502 5.50144 9.64976 5.66731C9.2493 5.83319 8.90703 6.11408 8.66622 6.47448C8.42541 6.83488 8.29688 7.2586 8.29688 7.69205C8.29759 8.27307 8.52872 8.83008 8.93956 9.24092C9.3504 9.65176 9.90742 9.88289 10.4884 9.88361ZM10.4884 6.58274C10.7078 6.58274 10.9223 6.6478 11.1047 6.76969C11.2872 6.89158 11.4293 7.06483 11.5133 7.26753C11.5973 7.47023 11.6192 7.69328 11.5764 7.90846C11.5336 8.12365 11.428 8.32131 11.2728 8.47645C11.1177 8.63159 10.92 8.73724 10.7048 8.78004C10.4897 8.82284 10.2666 8.80087 10.0639 8.71691C9.86122 8.63295 9.68797 8.49077 9.56608 8.30835C9.44419 8.12592 9.37913 7.91145 9.37913 7.69205C9.37956 7.39797 9.49657 7.11607 9.70451 6.90812C9.91245 6.70018 10.1944 6.58317 10.4884 6.58274Z" fill="white"/>
<path d="M7.31676 14.0775C7.46028 14.0775 7.59791 14.0205 7.69939 13.919C7.80087 13.8176 7.85789 13.6799 7.85789 13.5364V13.2063C7.8586 12.6747 8.07012 12.165 8.44605 11.7891C8.82198 11.4131 9.33165 11.2016 9.8633 11.2009H11.1133C11.6449 11.2016 12.1546 11.4131 12.5305 11.7891C12.9065 12.165 13.118 12.6747 13.1187 13.2063V13.5364C13.1187 13.6799 13.1757 13.8176 13.2772 13.919C13.3787 14.0205 13.5163 14.0775 13.6598 14.0775C13.8033 14.0775 13.941 14.0205 14.0425 13.919C14.1439 13.8176 14.201 13.6799 14.201 13.5364V13.2063C14.2 12.3877 13.8743 11.6029 13.2955 11.0241C12.7167 10.4453 11.9319 10.1197 11.1133 10.1187H9.8633C9.04471 10.1197 8.25993 10.4453 7.6811 11.0241C7.10227 11.6029 6.77664 12.3877 6.77563 13.2063V13.5364C6.77563 13.6799 6.83265 13.8176 6.93413 13.919C7.03561 14.0205 7.17324 14.0775 7.31676 14.0775Z" fill="white"/>
<path d="M7.01549 18.0368H13.582C13.7256 18.0368 13.8632 17.9798 13.9647 17.8783C14.0662 17.7769 14.1232 17.6392 14.1232 17.4957C14.1232 17.3522 14.0662 17.2146 13.9647 17.1131C13.8632 17.0116 13.7256 16.9546 13.582 16.9546H7.01549C6.87198 16.9546 6.73434 17.0116 6.63286 17.1131C6.53138 17.2146 6.47437 17.3522 6.47437 17.4957C6.47437 17.6392 6.53138 17.7769 6.63286 17.8783C6.73434 17.9798 6.87198 18.0368 7.01549 18.0368Z" fill="white"/>
<path d="M17.2969 19.8042H7.01549C6.87198 19.8042 6.73434 19.8612 6.63286 19.9627C6.53138 20.0642 6.47437 20.2018 6.47437 20.3453C6.47437 20.4888 6.53138 20.6265 6.63286 20.728C6.73434 20.8294 6.87198 20.8865 7.01549 20.8865H17.2969C17.4404 20.8865 17.578 20.8294 17.6795 20.728C17.781 20.6265 17.838 20.4888 17.838 20.3453C17.838 20.2018 17.781 20.0642 17.6795 19.9627C17.578 19.8612 17.4404 19.8042 17.2969 19.8042Z" fill="white"/>
</svg>
