<svg width="18" height="14" viewBox="0 0 18 14" fill="none" xmlns="http://www.w3.org/2000/svg">
<path fill-rule="evenodd" clip-rule="evenodd" d="M16.7 5.90018H3.95538L7.57768 2.27788C8.00778 1.84778 8.00778 1.15258 7.57768 0.722477C7.14758 0.292377 6.45238 0.292377 6.02228 0.722477L0.522282 6.22248C0.092182 6.65258 0.092182 7.34778 0.522282 7.77788L6.02228 13.2779C6.23678 13.4924 6.51838 13.6002 6.79998 13.6002C7.08158 13.6002 7.36318 13.4924 7.57768 13.2779C8.00778 12.8478 8.00778 12.1526 7.57768 11.7225L3.95538 8.10018H16.7C17.3083 8.10018 17.8 7.60738 17.8 7.00018C17.8 6.39298 17.3083 5.90018 16.7 5.90018Z" fill="black"/>
</svg>
