<svg width="16" height="17" viewBox="0 0 16 17" fill="none" xmlns="http://www.w3.org/2000/svg">
<g clip-path="url(#clip0_3415_55160)">
<path d="M10.7843 0.997562C9.91759 0.676031 8.98025 0.5 8.00169 0.5C7.02313 0.499969 6.08575 0.676031 5.21909 0.997562L4.52344 8.49997L5.21909 16.0024C6.08572 16.324 7.02309 16.5 8.00169 16.5C8.98022 16.5 9.91762 16.324 10.7843 16.0024L11.4799 8.5L10.7843 0.997562Z" fill="#FFDA44"/>
<path d="M15.9987 8.50045C15.9987 5.06077 13.8277 2.12836 10.7812 0.998047V16.0029C13.8277 14.8725 15.9986 11.9402 15.9987 8.50045Z" fill="#D80027"/>
<path d="M0 8.50039C0 11.9402 2.171 14.8725 5.21734 16.0029L5.21737 0.998047C2.171 2.12836 0 5.06067 0 8.50039H0Z" fill="#0052B4"/>
</g>
<defs>
<clipPath id="clip0_3415_55160">
<rect width="16" height="16" fill="white" transform="translate(0 0.5)"/>
</clipPath>
</defs>
</svg>
