<svg width="25" height="26" viewBox="0 0 25 26" fill="none" xmlns="http://www.w3.org/2000/svg">
<g clip-path="url(#clip0_1762_13254)">
<path d="M19.9746 7.84918C19.8977 7.61803 19.5949 7.47345 19.3571 7.59552C19.1647 7.69249 19.0677 7.91822 19.1382 8.12828C19.2124 8.35099 19.4525 8.48443 19.696 8.40689C19.9274 8.33033 20.0521 8.07945 19.9746 7.84918Z" fill="white"/>
<path d="M13.5405 14.4633C13.3177 13.7954 12.808 13.7361 12.4672 13.722L12.4676 13.7215C12.0934 13.7 11.8342 13.7459 11.7454 13.4806C11.7067 13.3635 11.7209 13.2735 11.7914 13.1965C11.9043 13.0738 12.1831 12.9613 12.4828 13.0075C12.546 13.0173 12.6057 13.0266 12.6684 13.0056C12.8481 12.9458 12.8844 12.7353 12.8413 12.6065C12.7531 12.3426 12.358 12.3719 12.0945 12.4243L12.0558 12.3073C12.001 12.1427 11.8222 12.0536 11.6577 12.1085C11.4937 12.1633 11.4046 12.3421 11.4594 12.5066L11.5108 12.6603C11.1504 12.9076 11.0295 13.2749 11.171 13.6984C11.3737 14.3062 11.8649 14.3243 12.2595 14.3389C12.6337 14.3531 12.8594 14.3614 12.9661 14.6817C13.0533 14.9432 12.9544 15.1175 12.6635 15.2145C12.2032 15.3682 12.1107 15.0323 11.8732 15.1116C11.716 15.164 11.6489 15.3697 11.6964 15.5117C11.7674 15.7247 12.1116 15.901 12.5729 15.8432L12.6111 15.9578C12.6659 16.1223 12.8442 16.2114 13.0087 16.1566C13.1733 16.1018 13.2624 15.9235 13.2075 15.759L13.1669 15.6376C13.5699 15.3854 13.7066 14.9604 13.5405 14.4633Z" fill="white"/>
<path d="M17.7573 11.8156C17.6043 11.6627 17.345 11.5448 17.0698 11.5448C16.8274 11.5448 16.5836 11.6332 16.393 11.8063C16.2055 11.967 16.0625 12.2467 16.0625 12.5521C16.0625 13.2381 16.7348 13.7259 17.3885 13.5079C18.1219 13.2631 18.3064 12.3289 17.7573 11.8156ZM17.0697 12.8253C16.9174 12.8253 16.797 12.7014 16.797 12.5521C16.797 12.4003 16.9208 12.2793 17.0697 12.2793C17.222 12.2793 17.343 12.4032 17.343 12.5526C17.343 12.6701 17.2191 12.8253 17.0697 12.8253Z" fill="white"/>
<path d="M18.5115 5.81565C18.7552 5.81565 18.9527 5.61811 18.9527 5.37444C18.9527 5.13076 18.7552 4.93323 18.5115 4.93323C18.2678 4.93323 18.0703 5.13076 18.0703 5.37444C18.0703 5.61811 18.2678 5.81565 18.5115 5.81565Z" fill="white"/>
<path d="M17.0057 3.39915C17.2493 3.39915 17.4469 3.20161 17.4469 2.95793C17.4469 2.71426 17.2493 2.51672 17.0057 2.51672C16.762 2.51672 16.5645 2.71426 16.5645 2.95793C16.5645 3.20161 16.762 3.39915 17.0057 3.39915Z" fill="white"/>
<path d="M13.3617 11.4089C10.7147 10.4104 8.35079 13.4025 9.91071 15.7489C10.0235 15.9182 10.2515 15.963 10.42 15.8509C10.5888 15.7384 10.6345 15.5104 10.522 15.3417C10.5045 15.3153 10.4874 15.2884 10.4709 15.2612C9.40778 13.5075 11.1609 11.3637 13.1024 12.0962C13.2922 12.1678 13.5041 12.072 13.5757 11.8822C13.6473 11.6924 13.5514 11.4805 13.3617 11.4089Z" fill="white"/>
<path d="M14.6818 12.4122C14.5621 12.2484 14.3323 12.2129 14.1686 12.3325C14.0048 12.4522 13.9691 12.682 14.0888 12.8457C14.3642 13.2228 14.5101 13.6723 14.5101 14.1301C14.5101 15.7103 12.8987 16.7426 11.4747 16.1335C11.288 16.0535 11.0722 16.1403 10.9926 16.3267C10.9128 16.5133 10.9993 16.7291 11.1858 16.8088C13.0905 17.6237 15.2446 16.242 15.2446 14.13C15.2446 13.5095 15.045 12.9093 14.6818 12.4122Z" fill="white"/>
<path d="M22.4727 12.3837L22.4728 12.3841C22.4736 12.3864 22.4737 12.3866 22.4727 12.3837Z" fill="white"/>
<path d="M24.8516 11.1795C24.8276 11.1551 25.0176 11.2765 23.3963 10.2222L23.0246 9.50386C23.4516 8.9647 23.4805 8.19497 23.054 7.61567L18.5558 1.50298C18.0465 0.811085 17.0691 0.662208 16.3763 1.17149C16.3347 1.20186 14.9131 2.24829 12.9603 3.68501C11.9672 3.51001 11.2582 3.94483 11.0706 4.06695C-0.515235 11.6 0.149512 11.1406 0.0865723 11.2588C0.0562012 11.3137 0.0390625 11.3749 0.0390625 11.4391V24.9096C0.0390625 25.4385 0.47002 25.8689 0.999854 25.8689H7.77017C7.973 25.8689 8.1374 25.7044 8.1374 25.5017C8.1374 25.2988 7.97295 25.1344 7.77017 25.1344H1.34995L10.0555 18.1604C11.6131 19.1544 13.3495 19.1774 14.943 18.1604L23.6485 25.1344H9.29624C9.09341 25.1344 8.929 25.2989 8.929 25.5017C8.929 25.7044 9.09346 25.8689 9.29624 25.8689H23.9985C24.5283 25.8689 24.9592 25.4385 24.9592 24.9096V11.4391C24.9593 11.3423 24.919 11.2458 24.8516 11.1795ZM22.9294 10.9164C23.1629 11.357 23.2883 11.5906 23.1357 11.9522V11.9527C23.1347 11.9547 23.1337 11.9571 23.1328 11.9591C23.125 11.964 23.1176 11.9694 23.1103 11.9738C22.8682 11.248 22.6568 10.6143 22.6588 10.6203C22.7727 10.6943 22.8659 10.7964 22.9294 10.9164ZM22.4625 8.05098C22.6059 8.24585 22.652 8.48091 22.6084 8.69981L21.8239 7.18325L22.4625 8.05098ZM20.7809 7.31304C20.937 7.78076 21.518 9.52153 21.6721 9.98325V9.98374C21.7128 10.1053 21.4975 9.46035 22.4742 12.3876C22.2323 12.5452 22.035 12.673 21.8739 12.7778C21.9309 12.551 21.8294 12.373 20.9788 9.82407C20.8421 9.41372 20.4293 9.15078 19.9989 9.19976C19.3716 9.27026 18.7546 8.99458 18.3879 8.47993C18.1583 8.15772 17.7313 8.02158 17.3502 8.14844C16.839 8.31904 6.85122 11.652 6.38877 11.8063L6.36084 11.8157L4.72627 12.3612C4.34531 12.488 4.08579 12.8533 4.09556 13.249C4.09702 13.3019 4.09605 13.3547 4.09214 13.4071C3.79883 13.2167 4.01475 13.3567 2.69458 12.4983C5.58433 11.5233 14.0825 8.66519 17.7787 7.45166C17.7801 7.45117 17.7821 7.45069 17.7835 7.4502C18.1111 7.34199 18.4099 7.24404 18.6743 7.15835C18.6762 7.15786 18.6782 7.15689 18.6801 7.1564C19.4641 6.90127 19.9474 6.75044 19.99 6.74995C20.348 6.74649 20.6683 6.97612 20.7809 7.31304ZM13.9376 7.95303C14.8681 7.47437 16.5035 6.62603 16.5084 6.6211C16.947 6.39483 16.7651 6.50337 17.2528 6.84683C16.3773 7.13877 18.4818 6.43726 13.9376 7.95303ZM19.5503 4.51792L20.349 6.05552C19.8285 5.93506 19.6111 6.0604 18.2601 6.51094C17.9452 6.43306 17.6612 6.27246 17.4345 6.04087C17.1535 5.75366 16.7106 5.69151 16.3582 5.87388C16.3581 5.87393 16.3568 5.87456 16.3544 5.87583C16.3494 5.87842 9.4398 9.45274 9.43462 9.45537L6.17974 10.5419L15.2853 5.83028H15.2858C15.9185 5.50293 18.3742 4.23228 18.5064 4.16392C18.9157 3.95235 19.3633 4.15801 19.5503 4.51792ZM12.8912 6.21958C13.1587 6.02446 14.8969 4.75054 14.9292 4.71821C15.6863 4.15454 15.3852 4.30962 15.9928 4.60903C15.9877 4.61167 15.3094 4.96485 15.3043 4.96651H15.3039C15.2988 4.96914 14.5605 5.35352 14.5551 5.35532C13.896 5.69756 13.1943 6.06192 12.8912 6.21958ZM17.2993 1.60288C17.5529 1.60288 17.8031 1.71895 17.9643 1.93833L18.9975 3.34175C18.2419 3.28643 17.9794 3.63067 16.935 4.11934C16.6118 4.0919 16.3062 3.97783 16.0462 3.78438C15.7284 3.54785 15.2803 3.54932 14.9566 3.78779C14.1653 4.37017 9.11856 8.08403 8.67847 8.40791L5.63315 9.98955C17.3296 1.45679 16.7861 1.60288 17.2993 1.60288ZM1.19473 11.3392L1.64521 11.0718C11.9626 4.38516 11.4815 4.6211 11.8746 4.48462C11.2169 4.96861 2.44985 11.4196 1.78726 11.9082C1.471 11.7051 1.58838 11.7863 1.19473 11.5487C1.11489 11.5018 1.11489 11.3862 1.19473 11.3392ZM0.773584 24.655V12.1256C3.74258 14.0561 7.80576 16.6971 7.80879 16.7001H7.80977C7.81465 16.705 7.77197 16.6759 9.40659 17.7388L0.773584 24.655ZM7.34605 15.5225C7.45772 15.5186 7.57031 15.5754 7.61094 15.6949C7.52041 15.6361 7.43174 15.5783 7.34605 15.5225ZM13.635 17.991H13.6345C12.9074 18.2299 12.1028 18.2334 11.3639 17.991H11.3634C10.7812 17.8005 10.5838 17.6364 8.29849 16.1434C8.29849 16.1429 8.29897 16.1429 8.29897 16.1424C8.37681 15.9334 8.38311 15.6977 8.30928 15.475C8.07007 14.7601 7.17212 14.5628 6.65171 15.071C5.74141 14.479 5.15479 14.098 4.76841 13.8468C4.81397 13.6475 4.8355 13.4408 4.83013 13.2308C4.82817 13.1549 4.88105 13.0838 4.95894 13.0579C15.6419 9.49282 17.2109 8.96934 17.5829 8.84522C17.6607 8.81924 17.7454 8.84424 17.7895 8.90645C18.311 9.63804 19.1895 10.0298 20.0807 9.92988C20.1708 9.91909 20.2536 9.97149 20.282 10.0567C20.2927 10.0887 21.135 12.6122 21.137 12.6182C21.1654 12.7029 21.1306 12.7945 21.0522 12.8405C20.6037 13.1044 20.2585 13.4981 20.0519 13.9575V13.958C20.0509 13.9604 20.0499 13.9624 20.0489 13.9648C19.5259 14.3046 18.7047 14.8384 17.3875 15.6948V15.6953C14.4479 17.6065 14.2716 17.7829 13.635 17.991ZM15.5918 17.7388C15.6001 17.7334 19.8409 14.9758 24.2248 12.1256V24.655L15.5918 17.7388Z" fill="white"/>
</g>
<defs>
<clipPath id="clip0_1762_13254">
<rect width="25" height="25" fill="white" transform="translate(0 0.868896)"/>
</clipPath>
</defs>
</svg>
