<svg width="17" height="17" viewBox="0 0 17 17" fill="none" xmlns="http://www.w3.org/2000/svg">
<path d="M13.8878 0.763184H2.62891C1.59503 0.763184 0.753906 1.60431 0.753906 2.63818V14.8882C0.753906 15.9221 1.59503 16.7632 2.62891 16.7632H14.8789C15.9128 16.7632 16.7539 15.9221 16.7539 14.8882V3.62931L13.8878 0.763184ZM5.66016 2.01318H9.37891V4.38818H10.6289V2.01318H11.8789V5.01318C11.8789 5.35781 11.5985 5.63818 11.2539 5.63818H6.28516C5.94053 5.63818 5.66016 5.35781 5.66016 5.01318V2.01318ZM13.1289 15.5132H4.41016V10.0132C4.41016 9.66856 4.69053 9.38818 5.03516 9.38818H12.5039C12.8485 9.38818 13.1289 9.66856 13.1289 10.0132V15.5132ZM15.5039 14.8882C15.5039 15.2328 15.2235 15.5132 14.8789 15.5132H14.3789V10.0132C14.3789 8.97931 13.5378 8.13818 12.5039 8.13818H5.03516C4.00128 8.13818 3.16016 8.97931 3.16016 10.0132V15.5132H2.62891C2.28428 15.5132 2.00391 15.2328 2.00391 14.8882V2.63818C2.00391 2.29356 2.28428 2.01318 2.62891 2.01318H4.41016V5.01318C4.41016 6.04706 5.25128 6.88818 6.28516 6.88818H11.2539C12.2878 6.88818 13.1289 6.04706 13.1289 5.01318V2.01318H13.37L15.5039 4.14706V14.8882Z" fill="white"/>
</svg>
