<svg width="22" height="21" viewBox="0 0 22 21" fill="none" xmlns="http://www.w3.org/2000/svg">
<path d="M13.1055 8.93262C11.21 8.93262 9.66797 10.4747 9.66797 12.3701C9.66797 14.2656 11.21 15.8076 13.1055 15.8076C15.0009 15.8076 16.543 14.2656 16.543 12.3701C16.543 10.4747 15.0009 8.93262 13.1055 8.93262ZM13.1055 15.0264C11.6408 15.0264 10.4492 13.8348 10.4492 12.3701C10.4492 10.9054 11.6408 9.71387 13.1055 9.71387C14.5702 9.71387 15.7617 10.9054 15.7617 12.3701C15.7617 13.8348 14.5702 15.0264 13.1055 15.0264Z" fill="#489767"/>
<path d="M12.6905 0.179743L12.6969 0.160742H12.5581H2.16797C1.46653 0.160742 0.896094 0.731179 0.896094 1.43262V19.0889C0.896094 19.7903 1.46653 20.3607 2.16797 20.3607H15.6046C16.3058 20.3607 16.8764 19.7903 16.8764 19.0889V18.1557L18.6642 19.9436C18.9419 20.2213 19.3069 20.3601 19.6716 20.3601C20.0362 20.3601 20.4012 20.2213 20.6789 19.9436L20.6789 19.9436C21.2343 19.388 21.2343 18.4844 20.6788 17.9288L17.6325 14.8824C18.0472 14.1379 18.2838 13.281 18.2838 12.3701C18.2838 10.9995 17.7484 9.75174 16.8763 8.8247V4.57903V4.47903C16.8763 4.35144 16.8265 4.22609 16.7328 4.13221L16.7327 4.13214L12.905 0.304472C12.8439 0.243375 12.7697 0.201611 12.6905 0.179743ZM19.3582 19.2497L19.3581 19.2496L16.4384 16.3299C16.6647 16.1391 16.8744 15.9293 17.0652 15.703L19.985 18.6226C20.1579 18.7955 20.1579 19.0769 19.985 19.2496L19.985 19.2497C19.8122 19.4225 19.5309 19.4225 19.3582 19.2497ZM13.1056 16.567C10.7916 16.567 8.90875 14.6841 8.90875 12.3701C8.90875 10.0561 10.7916 8.17324 13.1056 8.17324C15.4196 8.17324 17.3025 10.0561 17.3025 12.3701C17.3025 14.6841 15.4196 16.567 13.1056 16.567ZM13.0488 3.69794V1.83595L15.2012 3.98856H13.3394C13.1792 3.98856 13.0488 3.85804 13.0488 3.69794ZM15.8952 19.0889C15.8952 19.2491 15.7647 19.3795 15.6046 19.3795H2.16797C2.00774 19.3795 1.87734 19.2491 1.87734 19.0889V1.43262C1.87734 1.27239 2.00774 1.14199 2.16797 1.14199H12.0675V3.69778C12.0675 4.39922 12.6379 4.96966 13.3394 4.96966H15.895V8.00963C15.0896 7.49242 14.132 7.19199 13.1056 7.19199C10.2503 7.19199 7.9275 9.51475 7.9275 12.3701C7.9275 12.8795 8.00182 13.3721 8.13968 13.8377H3.50205C3.23124 13.8377 3.01142 14.0573 3.01142 14.3283C3.01142 14.5991 3.23121 14.8189 3.50205 14.8189H8.49014C8.5079 14.8189 8.52539 14.8179 8.54256 14.816C9.41696 16.4407 11.1341 17.5482 13.1056 17.5482C14.0164 17.5482 14.8733 17.3117 15.6177 16.897L15.8952 17.1744V19.0889Z" fill="#489767" stroke="#489767" stroke-width="0.2"/>
<path d="M13.1055 10.6123C12.8897 10.6123 12.7148 10.7872 12.7148 11.0029C12.7148 11.2187 12.8897 11.3936 13.1055 11.3936C13.6438 11.3936 14.0819 11.8316 14.0819 12.37C14.0819 12.5857 14.2567 12.7606 14.4725 12.7606C14.6883 12.7606 14.8631 12.5857 14.8631 12.37C14.8631 11.4007 14.0747 10.6123 13.1055 10.6123Z" fill="#489767"/>
<path d="M7.01743 11.2295H3.50195C3.28635 11.2295 3.11133 11.4044 3.11133 11.6201C3.11133 11.8359 3.28635 12.0107 3.50195 12.0107H7.01743C7.23318 12.0107 7.40805 11.8359 7.40805 11.6201C7.40805 11.4044 7.23318 11.2295 7.01743 11.2295Z" fill="#489767"/>
<path d="M7.2489 8.52148H3.50195C3.28635 8.52148 3.11133 8.69635 3.11133 8.91211C3.11133 9.12772 3.28635 9.30273 3.50195 9.30273H7.2489C7.46466 9.30273 7.63953 9.12772 7.63953 8.91211C7.63953 8.69635 7.46466 8.52148 7.2489 8.52148Z" fill="#489767"/>
<path d="M8.41797 16.6465C8.31512 16.6465 8.21442 16.6881 8.14178 16.7609C8.06915 16.8336 8.02734 16.9343 8.02734 17.0371C8.02734 17.1398 8.06915 17.2407 8.14178 17.3131C8.21442 17.3859 8.31512 17.4277 8.41797 17.4277C8.52066 17.4277 8.62152 17.3859 8.69446 17.3131C8.76709 17.2407 8.80859 17.1398 8.80859 17.0371C8.80859 16.9343 8.76709 16.8336 8.69446 16.7609C8.62152 16.6881 8.52066 16.6465 8.41797 16.6465Z" fill="#489767"/>
<path d="M6.81357 16.6465H3.50195C3.28635 16.6465 3.11133 16.8214 3.11133 17.0371C3.11133 17.2527 3.28635 17.4277 3.50195 17.4277H6.81357C7.02917 17.4277 7.20419 17.2527 7.20419 17.0371C7.20419 16.8214 7.02933 16.6465 6.81357 16.6465Z" fill="#489767"/>
<path d="M3.50195 6.59375C3.6051 6.59375 3.70551 6.55194 3.77814 6.47931C3.85123 6.40622 3.89258 6.30597 3.89258 6.20312C3.89258 6.10043 3.85123 5.99973 3.77814 5.92664C3.70551 5.854 3.60464 5.8125 3.50195 5.8125C3.39926 5.8125 3.29886 5.854 3.22577 5.92664C3.15314 5.99927 3.11133 6.09998 3.11133 6.20312C3.11133 6.30597 3.15314 6.40668 3.22577 6.47931C3.29855 6.55194 3.39926 6.59375 3.50195 6.59375Z" fill="#489767"/>
<path d="M10.9965 5.8125H5.1582C4.9426 5.8125 4.76758 5.98737 4.76758 6.20312C4.76758 6.41873 4.9426 6.59375 5.1582 6.59375H10.9965C11.2123 6.59375 11.3871 6.41873 11.3871 6.20312C11.3871 5.98737 11.2123 5.8125 10.9965 5.8125Z" fill="#489767"/>
<path d="M3.50195 3.88574H10.996C11.2118 3.88574 11.3866 3.71088 11.3866 3.49512C11.3866 3.27936 11.2118 3.10449 10.996 3.10449H3.50195C3.28635 3.10449 3.11133 3.27936 3.11133 3.49512C3.11133 3.71088 3.28635 3.88574 3.50195 3.88574Z" fill="#489767"/>
</svg>
