<svg width="24" height="24" viewBox="0 0 24 24" fill="none" xmlns="http://www.w3.org/2000/svg">
<g clip-path="url(#clip0_2584_33840)">
<path d="M12.5896 14.2667C12.253 14.2667 11.9802 14.5395 11.9802 14.8761C11.98 16.4535 10.7011 17.732 9.12367 17.7317C7.54628 17.7314 6.26777 16.4525 6.26805 14.8752C6.26833 13.298 7.54694 12.0195 9.12414 12.0195C9.4607 12.0195 9.73351 11.7467 9.73351 11.4102C9.73351 11.0736 9.4607 10.8008 9.12414 10.8008C6.87405 10.8023 5.05037 12.626 5.04883 14.8761C5.04883 17.1267 6.8733 18.9512 9.12391 18.9512C11.3745 18.9512 13.199 17.1267 13.199 14.8761C13.199 14.5395 12.9262 14.2667 12.5896 14.2667Z" fill="white"/>
<path d="M17.4309 16.2782C17.3728 15.9467 17.057 15.7251 16.7255 15.7832L15.45 16.0068C15.2167 16.0477 15.0282 16.2201 14.9667 16.4489C14.8307 16.9536 14.6295 17.4385 14.3681 17.8912C14.249 18.0969 14.2603 18.3531 14.3972 18.5475L15.1416 19.6082C15.2457 19.756 15.2283 19.9573 15.1003 20.085L14.3353 20.85C14.2078 20.9778 14.0068 20.9955 13.8591 20.8917L12.7983 20.1473C12.6039 20.0104 12.3477 19.9991 12.142 20.1182C11.6894 20.3797 11.2045 20.5809 10.6997 20.7168C10.4709 20.7783 10.2985 20.9668 10.2577 21.2001L10.0313 22.4742C10.0003 22.6521 9.84572 22.7819 9.66516 22.7817H8.58281C8.40225 22.7819 8.24775 22.6521 8.21672 22.4742L7.99313 21.1992C7.95225 20.9659 7.77985 20.7774 7.5511 20.7159C7.0462 20.5799 6.56119 20.3787 6.10828 20.1173C5.9026 19.9981 5.64638 20.0095 5.45203 20.1464L4.39313 20.8903C4.24538 20.9944 4.0441 20.977 3.91641 20.849L3.15141 20.084C3.02372 19.9565 3.00614 19.7556 3.10969 19.6078L3.85406 18.547C3.99089 18.3526 4.00228 18.0964 3.88313 17.8907C3.62161 17.4381 3.42038 16.9532 3.28453 16.4484C3.22303 16.2196 3.03455 16.0472 2.80125 16.0064L1.52625 15.7828C1.34869 15.7518 1.21903 15.5979 1.21875 15.4176V14.3353C1.21856 14.1547 1.34836 14.0002 1.52625 13.9692L2.80125 13.7456C3.03455 13.7047 3.22303 13.5323 3.28453 13.3036C3.42028 12.7982 3.62152 12.3129 3.88313 11.8598C4.00228 11.6541 3.99089 11.3979 3.85406 11.2036L3.11016 10.1461C3.006 9.99831 3.02344 9.79702 3.15141 9.66934L3.91688 8.90387C4.04447 8.77613 4.24547 8.75874 4.39313 8.86262L5.45391 9.60699C5.64825 9.74387 5.90447 9.75521 6.11016 9.63605C6.56302 9.37463 7.04803 9.1734 7.55297 9.03746C7.78172 8.97596 7.95413 8.78748 7.995 8.55418L8.2186 7.27918C8.27672 6.94768 8.0551 6.63184 7.7236 6.57371C7.3921 6.51559 7.07625 6.73721 7.01813 7.06871L6.85969 7.9734C6.51216 8.0882 6.17386 8.22924 5.84766 8.39527L5.09531 7.86746C4.46325 7.42271 3.60277 7.49771 3.05719 8.04512L2.28938 8.80777C1.74249 9.35363 1.66772 10.2138 2.11219 10.8459L2.64 11.5982C2.47392 11.9245 2.33288 12.263 2.21813 12.6107L1.31344 12.7692C0.55322 12.9027 -0.000936193 13.5634 1.30694e-06 14.3353V15.4176C-0.000983068 16.1902 0.554204 16.8515 1.31531 16.9842L2.22 17.1431C2.33475 17.4906 2.4758 17.829 2.64188 18.1551L2.11219 18.9075C1.66786 19.5396 1.74281 20.3998 2.28984 20.9456L3.05531 21.7106C3.60108 22.2577 4.46142 22.3324 5.09344 21.8878L5.84344 21.36C6.16964 21.526 6.50794 21.667 6.85547 21.7818L7.01391 22.6865C7.14741 23.448 7.80975 24.0027 8.58281 24.0004H9.66516C10.4379 24.0014 11.0992 23.4459 11.2317 22.6846L11.3906 21.78C11.7382 21.6652 12.0765 21.5241 12.4027 21.3581L13.1555 21.8859C13.7876 22.3305 14.6479 22.2555 15.1936 21.7082L15.9591 20.9428C16.5061 20.397 16.581 19.5368 16.1367 18.9046L15.6094 18.1546C15.7754 17.8284 15.9164 17.4901 16.0313 17.1426L16.9359 16.9837C17.2674 16.9256 17.4891 16.6097 17.4309 16.2782Z" fill="white"/>
<path d="M22.8561 5.53125L22.2186 5.41969C22.139 5.18981 22.0451 4.96514 21.9374 4.74703L22.3124 4.21875C22.6987 3.66938 22.6336 2.92167 22.1582 2.44735L21.5544 1.84219C21.0799 1.36575 20.331 1.30041 19.7811 1.6875L19.251 2.05922C19.0329 1.9515 18.8082 1.85756 18.5783 1.77797L18.4686 1.14328C18.3532 0.481502 17.7782 -0.00107632 17.1064 1.80287e-06H16.2538C15.5821 -0.000841947 15.0072 0.481971 14.8921 1.14375L14.78 1.78125C14.5502 1.86085 14.3255 1.95478 14.1074 2.0625L13.5772 1.6875C13.0279 1.30116 12.2802 1.36627 11.8058 1.84172L11.203 2.44547C10.7266 2.92003 10.6612 3.66886 11.0483 4.21875L11.42 4.74891C11.3123 4.96702 11.2184 5.19169 11.1388 5.42156L10.5036 5.53125C9.84204 5.64666 9.35951 6.22139 9.36035 6.89297V7.74563C9.35904 8.41753 9.84171 8.99283 10.5036 9.10828L11.1407 9.21985C11.2203 9.44972 11.3142 9.67439 11.4219 9.8925L11.0497 10.4227C10.6633 10.9718 10.728 11.7194 11.203 12.1941L11.8058 12.7969C12.2802 13.2726 13.0282 13.3377 13.5777 12.9511L14.1093 12.5794C14.3274 12.687 14.552 12.781 14.7819 12.8606L14.8939 13.4981C15.0094 14.1597 15.5841 14.6423 16.2557 14.6414H17.1083C17.7801 14.6414 18.3544 14.1578 18.4686 13.4958L18.5802 12.8588C18.8101 12.7792 19.0347 12.6852 19.2529 12.5775L19.7811 12.9516C20.331 13.3388 21.0799 13.2735 21.5544 12.7969L22.1577 12.1936C22.6329 11.7194 22.6981 10.9721 22.3124 10.4227L21.9397 9.89063C22.0474 9.67247 22.1413 9.44785 22.221 9.21797L22.8585 9.10594C23.5186 8.98988 24 8.41636 23.9999 7.7461V6.89344C24.001 6.22153 23.5181 5.64647 22.8561 5.53125ZM22.7811 7.7475C22.7812 7.82705 22.724 7.89506 22.6457 7.90875L21.6407 8.085C21.4074 8.12588 21.2189 8.29828 21.1574 8.52703C21.0531 8.91403 20.8989 9.28575 20.6985 9.63281C20.5793 9.8385 20.5907 10.0947 20.7275 10.2891L21.3139 11.1253C21.3598 11.1904 21.3521 11.2791 21.2957 11.3353L20.6929 11.9381C20.636 11.9927 20.5483 11.999 20.4843 11.9531L19.6466 11.3672C19.4523 11.2303 19.196 11.219 18.9904 11.3381C18.6433 11.5386 18.2716 11.6928 17.8846 11.797C17.6563 11.8593 17.4847 12.0481 17.4444 12.2813L17.2682 13.2863C17.2545 13.3646 17.1865 13.4218 17.1069 13.4217H16.2538C16.1742 13.4218 16.1062 13.3646 16.0925 13.2863L15.9158 12.2813C15.8749 12.048 15.7025 11.8595 15.4738 11.798C15.0867 11.6937 14.7148 11.5395 14.3675 11.3391C14.1619 11.2199 13.9056 11.2313 13.7113 11.3681L12.8774 11.9531C12.8123 11.999 12.7236 11.9912 12.6674 11.9348L12.0646 11.332C12.0082 11.2758 12.0004 11.1871 12.0463 11.122L12.6327 10.2858C12.7696 10.0914 12.7809 9.83522 12.6618 9.62953C12.4613 9.28252 12.307 8.91075 12.2029 8.52375C12.1405 8.29566 11.9517 8.12424 11.7186 8.08406L10.7136 7.90781C10.6353 7.89413 10.5781 7.82611 10.5782 7.74656L10.5786 6.89344C10.5786 6.81389 10.6358 6.74588 10.7141 6.73219L11.7186 6.55547C11.9519 6.5146 12.1404 6.34219 12.2019 6.11344C12.3061 5.72644 12.4604 5.35472 12.6608 5.00766C12.78 4.80197 12.7686 4.54575 12.6318 4.35141L12.0468 3.51563C12.0009 3.45052 12.0087 3.36183 12.065 3.30563L12.6683 2.70235C12.7245 2.64596 12.8132 2.63822 12.8783 2.68406L13.7141 3.27047C13.9084 3.4073 14.1647 3.41869 14.3704 3.29953C14.7174 3.0991 15.0891 2.94483 15.4761 2.84063C15.7049 2.77913 15.8773 2.59064 15.9182 2.35735L16.0944 1.35235C16.1088 1.27542 16.1756 1.21945 16.2538 1.21875H17.1064C17.186 1.2187 17.254 1.27589 17.2677 1.35422L17.4439 2.35922C17.4848 2.59252 17.6572 2.781 17.886 2.8425C18.273 2.94666 18.6447 3.10092 18.9918 3.30141C19.1974 3.42056 19.4537 3.40922 19.648 3.27235L20.4843 2.68594C20.5494 2.6401 20.6381 2.64783 20.6943 2.70422L21.2975 3.3075C21.3523 3.36394 21.3592 3.45131 21.3139 3.51563L20.7275 4.35328C20.5907 4.54763 20.5793 4.80385 20.6985 5.00953C20.8989 5.3566 21.0531 5.72831 21.1574 6.11531C21.2189 6.34407 21.4074 6.51647 21.6407 6.55735L22.6457 6.7336C22.724 6.74728 22.7812 6.8153 22.7811 6.89485V7.7475Z" fill="white"/>
<path d="M16.68 4.4082C15.0721 4.4082 13.7686 5.7117 13.7686 7.31961C13.7704 8.92677 15.0728 10.2292 16.68 10.231C18.2879 10.231 19.5914 8.92752 19.5914 7.31961C19.5914 5.7117 18.2879 4.4082 16.68 4.4082ZM16.68 9.01227C15.7451 9.01227 14.9873 8.25444 14.9873 7.31961C14.9871 6.38431 15.7447 5.62564 16.68 5.62461V5.62695C17.6148 5.62695 18.3726 6.38478 18.3726 7.31961C18.3726 8.25444 17.6148 9.01227 16.68 9.01227Z" fill="white"/>
</g>
<defs>
<clipPath id="clip0_2584_33840">
<rect width="24" height="24" fill="white"/>
</clipPath>
</defs>
</svg>
