<svg width="551" height="27" viewBox="0 0 551 27" fill="none" xmlns="http://www.w3.org/2000/svg">
<path d="M0.925219 13.256C0.925219 11.7307 1.25522 10.374 1.91522 9.186C2.57522 7.98333 3.49189 7.052 4.66522 6.392C5.85322 5.71733 7.19522 5.38 8.69122 5.38C10.5246 5.38 12.0939 5.864 13.3992 6.832C14.7046 7.8 15.5772 9.12 16.0172 10.792H11.8812C11.5732 10.1467 11.1332 9.65533 10.5612 9.318C10.0039 8.98067 9.36589 8.812 8.64722 8.812C7.48855 8.812 6.54989 9.21533 5.83122 10.022C5.11255 10.8287 4.75322 11.9067 4.75322 13.256C4.75322 14.6053 5.11255 15.6833 5.83122 16.49C6.54989 17.2967 7.48855 17.7 8.64722 17.7C9.36589 17.7 10.0039 17.5313 10.5612 17.194C11.1332 16.8567 11.5732 16.3653 11.8812 15.72H16.0172C15.5772 17.392 14.7046 18.712 13.3992 19.68C12.0939 20.6333 10.5246 21.11 8.69122 21.11C7.19522 21.11 5.85322 20.78 4.66522 20.12C3.49189 19.4453 2.57522 18.514 1.91522 17.326C1.25522 16.138 0.925219 14.7813 0.925219 13.256ZM18.573 14.84C18.573 13.5787 18.8077 12.4713 19.277 11.518C19.761 10.5647 20.4137 9.83133 21.235 9.318C22.0564 8.80467 22.973 8.548 23.985 8.548C24.8504 8.548 25.6057 8.724 26.251 9.076C26.911 9.428 27.417 9.89 27.769 10.462V8.724H31.531V21H27.769V19.262C27.4024 19.834 26.889 20.296 26.229 20.648C25.5837 21 24.8284 21.176 23.963 21.176C22.9657 21.176 22.0564 20.9193 21.235 20.406C20.4137 19.878 19.761 19.1373 19.277 18.184C18.8077 17.216 18.573 16.1013 18.573 14.84ZM27.769 14.862C27.769 13.9233 27.505 13.1827 26.977 12.64C26.4637 12.0973 25.833 11.826 25.085 11.826C24.337 11.826 23.699 12.0973 23.171 12.64C22.6577 13.168 22.401 13.9013 22.401 14.84C22.401 15.7787 22.6577 16.5267 23.171 17.084C23.699 17.6267 24.337 17.898 25.085 17.898C25.833 17.898 26.4637 17.6267 26.977 17.084C27.505 16.5413 27.769 15.8007 27.769 14.862ZM42.7327 8.592C44.17 8.592 45.314 9.06133 46.1647 10C47.03 10.924 47.4627 12.2 47.4627 13.828V21H43.7227V14.334C43.7227 13.5127 43.51 12.8747 43.0847 12.42C42.6593 11.9653 42.0873 11.738 41.3687 11.738C40.65 11.738 40.078 11.9653 39.6527 12.42C39.2273 12.8747 39.0147 13.5127 39.0147 14.334V21H35.2527V8.724H39.0147V10.352C39.396 9.80933 39.9093 9.384 40.5547 9.076C41.2 8.75333 41.926 8.592 42.7327 8.592ZM50.3289 14.84C50.3289 13.5787 50.5636 12.4713 51.0329 11.518C51.5169 10.5647 52.1696 9.83133 52.9909 9.318C53.8122 8.80467 54.7289 8.548 55.7409 8.548C56.5476 8.548 57.2809 8.71667 57.9409 9.054C58.6156 9.39133 59.1436 9.846 59.5249 10.418V4.72H63.2869V21H59.5249V19.24C59.1729 19.8267 58.6669 20.296 58.0069 20.648C57.3616 21 56.6062 21.176 55.7409 21.176C54.7289 21.176 53.8122 20.9193 52.9909 20.406C52.1696 19.878 51.5169 19.1373 51.0329 18.184C50.5636 17.216 50.3289 16.1013 50.3289 14.84ZM59.5249 14.862C59.5249 13.9233 59.2609 13.1827 58.7329 12.64C58.2196 12.0973 57.5889 11.826 56.8409 11.826C56.0929 11.826 55.4549 12.0973 54.9269 12.64C54.4136 13.168 54.1569 13.9013 54.1569 14.84C54.1569 15.7787 54.4136 16.5267 54.9269 17.084C55.4549 17.6267 56.0929 17.898 56.8409 17.898C57.5889 17.898 58.2196 17.6267 58.7329 17.084C59.2609 16.5413 59.5249 15.8007 59.5249 14.862ZM68.9005 7.448C68.2405 7.448 67.6979 7.25733 67.2725 6.876C66.8619 6.48 66.6565 5.996 66.6565 5.424C66.6565 4.83733 66.8619 4.35333 67.2725 3.972C67.6979 3.576 68.2405 3.378 68.9005 3.378C69.5459 3.378 70.0739 3.576 70.4845 3.972C70.9099 4.35333 71.1225 4.83733 71.1225 5.424C71.1225 5.996 70.9099 6.48 70.4845 6.876C70.0739 7.25733 69.5459 7.448 68.9005 7.448ZM70.7705 8.724V21H67.0085V8.724H70.7705ZM73.7488 14.84C73.7488 13.5787 73.9835 12.4713 74.4528 11.518C74.9368 10.5647 75.5895 9.83133 76.4108 9.318C77.2321 8.80467 78.1488 8.548 79.1608 8.548C79.9675 8.548 80.7008 8.71667 81.3608 9.054C82.0355 9.39133 82.5635 9.846 82.9448 10.418V4.72H86.7068V21H82.9448V19.24C82.5928 19.8267 82.0868 20.296 81.4268 20.648C80.7815 21 80.0261 21.176 79.1608 21.176C78.1488 21.176 77.2321 20.9193 76.4108 20.406C75.5895 19.878 74.9368 19.1373 74.4528 18.184C73.9835 17.216 73.7488 16.1013 73.7488 14.84ZM82.9448 14.862C82.9448 13.9233 82.6808 13.1827 82.1528 12.64C81.6395 12.0973 81.0088 11.826 80.2608 11.826C79.5128 11.826 78.8748 12.0973 78.3468 12.64C77.8335 13.168 77.5768 13.9013 77.5768 14.84C77.5768 15.7787 77.8335 16.5267 78.3468 17.084C78.8748 17.6267 79.5128 17.898 80.2608 17.898C81.0088 17.898 81.6395 17.6267 82.1528 17.084C82.6808 16.5413 82.9448 15.8007 82.9448 14.862ZM89.6805 14.84C89.6805 13.5787 89.9151 12.4713 90.3845 11.518C90.8685 10.5647 91.5211 9.83133 92.3425 9.318C93.1638 8.80467 94.0805 8.548 95.0925 8.548C95.9578 8.548 96.7131 8.724 97.3585 9.076C98.0185 9.428 98.5245 9.89 98.8765 10.462V8.724H102.638V21H98.8765V19.262C98.5098 19.834 97.9965 20.296 97.3365 20.648C96.6911 21 95.9358 21.176 95.0705 21.176C94.0731 21.176 93.1638 20.9193 92.3425 20.406C91.5211 19.878 90.8685 19.1373 90.3845 18.184C89.9151 17.216 89.6805 16.1013 89.6805 14.84ZM98.8765 14.862C98.8765 13.9233 98.6125 13.1827 98.0845 12.64C97.5711 12.0973 96.9405 11.826 96.1925 11.826C95.4445 11.826 94.8065 12.0973 94.2785 12.64C93.7651 13.168 93.5085 13.9013 93.5085 14.84C93.5085 15.7787 93.7651 16.5267 94.2785 17.084C94.8065 17.6267 95.4445 17.898 96.1925 17.898C96.9405 17.898 97.5711 17.6267 98.0845 17.084C98.6125 16.5413 98.8765 15.8007 98.8765 14.862ZM113.202 17.81V21H111.288C109.924 21 108.861 20.67 108.098 20.01C107.335 19.3353 106.954 18.2427 106.954 16.732V11.848H105.458V8.724H106.954V5.732H110.716V8.724H113.18V11.848H110.716V16.776C110.716 17.1427 110.804 17.4067 110.98 17.568C111.156 17.7293 111.449 17.81 111.86 17.81H113.202ZM121.292 21.176C120.221 21.176 119.268 20.9927 118.432 20.626C117.596 20.2593 116.936 19.7607 116.452 19.13C115.968 18.4847 115.696 17.766 115.638 16.974H119.356C119.4 17.3993 119.598 17.744 119.95 18.008C120.302 18.272 120.734 18.404 121.248 18.404C121.717 18.404 122.076 18.316 122.326 18.14C122.59 17.9493 122.722 17.7073 122.722 17.414C122.722 17.062 122.538 16.8053 122.172 16.644C121.805 16.468 121.211 16.2773 120.39 16.072C119.51 15.8667 118.776 15.654 118.19 15.434C117.603 15.1993 117.097 14.84 116.672 14.356C116.246 13.8573 116.034 13.19 116.034 12.354C116.034 11.65 116.224 11.012 116.606 10.44C117.002 9.85333 117.574 9.39133 118.322 9.054C119.084 8.71667 119.986 8.548 121.028 8.548C122.568 8.548 123.778 8.92933 124.658 9.692C125.552 10.4547 126.066 11.4667 126.198 12.728H122.722C122.663 12.3027 122.472 11.9653 122.15 11.716C121.842 11.4667 121.431 11.342 120.918 11.342C120.478 11.342 120.14 11.43 119.906 11.606C119.671 11.7673 119.554 11.9947 119.554 12.288C119.554 12.64 119.737 12.904 120.104 13.08C120.485 13.256 121.072 13.432 121.864 13.608C122.773 13.8427 123.514 14.0773 124.086 14.312C124.658 14.532 125.156 14.8987 125.582 15.412C126.022 15.9107 126.249 16.5853 126.264 17.436C126.264 18.1547 126.058 18.8 125.648 19.372C125.252 19.9293 124.672 20.3693 123.91 20.692C123.162 21.0147 122.289 21.176 121.292 21.176ZM143.609 0.099999L137.713 25.114H134.083L139.979 0.099999H143.609ZM155.62 8.57V11.694H160.658V14.598H155.62V17.986H161.318V21H151.858V5.556H161.318V8.57H155.62ZM180.424 8.592C181.95 8.592 183.16 9.054 184.054 9.978C184.964 10.902 185.418 12.1853 185.418 13.828V21H181.678V14.334C181.678 13.542 181.466 12.9333 181.04 12.508C180.63 12.068 180.058 11.848 179.324 11.848C178.591 11.848 178.012 12.068 177.586 12.508C177.176 12.9333 176.97 13.542 176.97 14.334V21H173.23V14.334C173.23 13.542 173.018 12.9333 172.592 12.508C172.182 12.068 171.61 11.848 170.876 11.848C170.143 11.848 169.564 12.068 169.138 12.508C168.728 12.9333 168.522 13.542 168.522 14.334V21H164.76V8.724H168.522V10.264C168.904 9.75067 169.402 9.34733 170.018 9.054C170.634 8.746 171.331 8.592 172.108 8.592C173.032 8.592 173.854 8.79 174.572 9.186C175.306 9.582 175.878 10.1467 176.288 10.88C176.714 10.2053 177.293 9.65533 178.026 9.23C178.76 8.80467 179.559 8.592 180.424 8.592ZM192.812 10.462C193.178 9.89 193.684 9.428 194.33 9.076C194.975 8.724 195.73 8.548 196.596 8.548C197.608 8.548 198.524 8.80467 199.346 9.318C200.167 9.83133 200.812 10.5647 201.282 11.518C201.766 12.4713 202.008 13.5787 202.008 14.84C202.008 16.1013 201.766 17.216 201.282 18.184C200.812 19.1373 200.167 19.878 199.346 20.406C198.524 20.9193 197.608 21.176 196.596 21.176C195.745 21.176 194.99 21 194.33 20.648C193.684 20.296 193.178 19.8413 192.812 19.284V26.852H189.05V8.724H192.812V10.462ZM198.18 14.84C198.18 13.9013 197.916 13.168 197.388 12.64C196.874 12.0973 196.236 11.826 195.474 11.826C194.726 11.826 194.088 12.0973 193.56 12.64C193.046 13.1827 192.79 13.9233 192.79 14.862C192.79 15.8007 193.046 16.5413 193.56 17.084C194.088 17.6267 194.726 17.898 195.474 17.898C196.222 17.898 196.86 17.6267 197.388 17.084C197.916 16.5267 198.18 15.7787 198.18 14.84ZM208.743 4.72V21H204.981V4.72H208.743ZM218.057 21.176C216.855 21.176 215.769 20.9193 214.801 20.406C213.848 19.8927 213.093 19.1593 212.535 18.206C211.993 17.2527 211.721 16.138 211.721 14.862C211.721 13.6007 212 12.4933 212.557 11.54C213.115 10.572 213.877 9.83133 214.845 9.318C215.813 8.80467 216.899 8.548 218.101 8.548C219.304 8.548 220.389 8.80467 221.357 9.318C222.325 9.83133 223.088 10.572 223.645 11.54C224.203 12.4933 224.481 13.6007 224.481 14.862C224.481 16.1233 224.195 17.238 223.623 18.206C223.066 19.1593 222.296 19.8927 221.313 20.406C220.345 20.9193 219.26 21.176 218.057 21.176ZM218.057 17.92C218.776 17.92 219.385 17.656 219.883 17.128C220.397 16.6 220.653 15.8447 220.653 14.862C220.653 13.8793 220.404 13.124 219.905 12.596C219.421 12.068 218.82 11.804 218.101 11.804C217.368 11.804 216.759 12.068 216.275 12.596C215.791 13.1093 215.549 13.8647 215.549 14.862C215.549 15.8447 215.784 16.6 216.253 17.128C216.737 17.656 217.339 17.92 218.057 17.92ZM240.017 8.724L232.317 26.83H228.269L231.085 20.582L226.091 8.724H230.293L233.131 16.402L235.947 8.724H240.017ZM253.95 14.664C253.95 15.016 253.928 15.3827 253.884 15.764H245.37C245.428 16.5267 245.67 17.1133 246.096 17.524C246.536 17.92 247.071 18.118 247.702 18.118C248.64 18.118 249.293 17.722 249.66 16.93H253.664C253.458 17.7367 253.084 18.4627 252.542 19.108C252.014 19.7533 251.346 20.2593 250.54 20.626C249.733 20.9927 248.831 21.176 247.834 21.176C246.631 21.176 245.56 20.9193 244.622 20.406C243.683 19.8927 242.95 19.1593 242.422 18.206C241.894 17.2527 241.63 16.138 241.63 14.862C241.63 13.586 241.886 12.4713 242.4 11.518C242.928 10.5647 243.661 9.83133 244.6 9.318C245.538 8.80467 246.616 8.548 247.834 8.548C249.022 8.548 250.078 8.79733 251.002 9.296C251.926 9.79467 252.644 10.506 253.158 11.43C253.686 12.354 253.95 13.432 253.95 14.664ZM250.1 13.674C250.1 13.0287 249.88 12.5153 249.44 12.134C249 11.7527 248.45 11.562 247.79 11.562C247.159 11.562 246.624 11.7453 246.184 12.112C245.758 12.4787 245.494 12.9993 245.392 13.674H250.1ZM261.928 21.176C260.858 21.176 259.904 20.9927 259.068 20.626C258.232 20.2593 257.572 19.7607 257.088 19.13C256.604 18.4847 256.333 17.766 256.274 16.974H259.992C260.036 17.3993 260.234 17.744 260.586 18.008C260.938 18.272 261.371 18.404 261.884 18.404C262.354 18.404 262.713 18.316 262.962 18.14C263.226 17.9493 263.358 17.7073 263.358 17.414C263.358 17.062 263.175 16.8053 262.808 16.644C262.442 16.468 261.848 16.2773 261.026 16.072C260.146 15.8667 259.413 15.654 258.826 15.434C258.24 15.1993 257.734 14.84 257.308 14.356C256.883 13.8573 256.67 13.19 256.67 12.354C256.67 11.65 256.861 11.012 257.242 10.44C257.638 9.85333 258.21 9.39133 258.958 9.054C259.721 8.71667 260.623 8.548 261.664 8.548C263.204 8.548 264.414 8.92933 265.294 9.692C266.189 10.4547 266.702 11.4667 266.834 12.728H263.358C263.3 12.3027 263.109 11.9653 262.786 11.716C262.478 11.4667 262.068 11.342 261.554 11.342C261.114 11.342 260.777 11.43 260.542 11.606C260.308 11.7673 260.19 11.9947 260.19 12.288C260.19 12.64 260.374 12.904 260.74 13.08C261.122 13.256 261.708 13.432 262.5 13.608C263.41 13.8427 264.15 14.0773 264.722 14.312C265.294 14.532 265.793 14.8987 266.218 15.412C266.658 15.9107 266.886 16.5853 266.9 17.436C266.9 18.1547 266.695 18.8 266.284 19.372C265.888 19.9293 265.309 20.3693 264.546 20.692C263.798 21.0147 262.926 21.176 261.928 21.176Z" fill="#252726"/>
<path d="M279.626 18.096H284.554V21H275.864V5.556H279.626V18.096ZM289.24 7.448C288.58 7.448 288.038 7.25733 287.612 6.876C287.202 6.48 286.996 5.996 286.996 5.424C286.996 4.83733 287.202 4.35333 287.612 3.972C288.038 3.576 288.58 3.378 289.24 3.378C289.886 3.378 290.414 3.576 290.824 3.972C291.25 4.35333 291.462 4.83733 291.462 5.424C291.462 5.996 291.25 6.48 290.824 6.876C290.414 7.25733 289.886 7.448 289.24 7.448ZM291.11 8.724V21H287.348V8.724H291.11ZM299.831 21.176C298.76 21.176 297.807 20.9927 296.971 20.626C296.135 20.2593 295.475 19.7607 294.991 19.13C294.507 18.4847 294.235 17.766 294.177 16.974H297.895C297.939 17.3993 298.137 17.744 298.489 18.008C298.841 18.272 299.273 18.404 299.787 18.404C300.256 18.404 300.615 18.316 300.865 18.14C301.129 17.9493 301.261 17.7073 301.261 17.414C301.261 17.062 301.077 16.8053 300.711 16.644C300.344 16.468 299.75 16.2773 298.929 16.072C298.049 15.8667 297.315 15.654 296.729 15.434C296.142 15.1993 295.636 14.84 295.211 14.356C294.785 13.8573 294.573 13.19 294.573 12.354C294.573 11.65 294.763 11.012 295.145 10.44C295.541 9.85333 296.113 9.39133 296.861 9.054C297.623 8.71667 298.525 8.548 299.567 8.548C301.107 8.548 302.317 8.92933 303.197 9.692C304.091 10.4547 304.605 11.4667 304.737 12.728H301.261C301.202 12.3027 301.011 11.9653 300.689 11.716C300.381 11.4667 299.97 11.342 299.457 11.342C299.017 11.342 298.679 11.43 298.445 11.606C298.21 11.7673 298.093 11.9947 298.093 12.288C298.093 12.64 298.276 12.904 298.643 13.08C299.024 13.256 299.611 13.432 300.403 13.608C301.312 13.8427 302.053 14.0773 302.625 14.312C303.197 14.532 303.695 14.8987 304.121 15.412C304.561 15.9107 304.788 16.5853 304.803 17.436C304.803 18.1547 304.597 18.8 304.187 19.372C303.791 19.9293 303.211 20.3693 302.449 20.692C301.701 21.0147 300.828 21.176 299.831 21.176ZM314.946 17.81V21H313.032C311.668 21 310.605 20.67 309.842 20.01C309.08 19.3353 308.698 18.2427 308.698 16.732V11.848H307.202V8.724H308.698V5.732H312.46V8.724H314.924V11.848H312.46V16.776C312.46 17.1427 312.548 17.4067 312.724 17.568C312.9 17.7293 313.194 17.81 313.604 17.81H314.946ZM334.814 5.556V8.57H330.722V21H326.96V8.57H322.868V5.556H334.814ZM343.29 21.176C342.087 21.176 341.002 20.9193 340.034 20.406C339.081 19.8927 338.325 19.1593 337.768 18.206C337.225 17.2527 336.954 16.138 336.954 14.862C336.954 13.6007 337.233 12.4933 337.79 11.54C338.347 10.572 339.11 9.83133 340.078 9.318C341.046 8.80467 342.131 8.548 343.334 8.548C344.537 8.548 345.622 8.80467 346.59 9.318C347.558 9.83133 348.321 10.572 348.878 11.54C349.435 12.4933 349.714 13.6007 349.714 14.862C349.714 16.1233 349.428 17.238 348.856 18.206C348.299 19.1593 347.529 19.8927 346.546 20.406C345.578 20.9193 344.493 21.176 343.29 21.176ZM343.29 17.92C344.009 17.92 344.617 17.656 345.116 17.128C345.629 16.6 345.886 15.8447 345.886 14.862C345.886 13.8793 345.637 13.124 345.138 12.596C344.654 12.068 344.053 11.804 343.334 11.804C342.601 11.804 341.992 12.068 341.508 12.596C341.024 13.1093 340.782 13.8647 340.782 14.862C340.782 15.8447 341.017 16.6 341.486 17.128C341.97 17.656 342.571 17.92 343.29 17.92ZM364.158 5.556C365.786 5.556 367.208 5.87867 368.426 6.524C369.643 7.16933 370.582 8.07867 371.242 9.252C371.916 10.4107 372.254 11.7527 372.254 13.278C372.254 14.7887 371.916 16.1307 371.242 17.304C370.582 18.4773 369.636 19.3867 368.404 20.032C367.186 20.6773 365.771 21 364.158 21H358.372V5.556H364.158ZM363.916 17.744C365.338 17.744 366.446 17.3553 367.238 16.578C368.03 15.8007 368.426 14.7007 368.426 13.278C368.426 11.8553 368.03 10.748 367.238 9.956C366.446 9.164 365.338 8.768 363.916 8.768H362.134V17.744H363.916ZM380.944 21.176C379.742 21.176 378.656 20.9193 377.688 20.406C376.735 19.8927 375.98 19.1593 375.422 18.206C374.88 17.2527 374.608 16.138 374.608 14.862C374.608 13.6007 374.887 12.4933 375.444 11.54C376.002 10.572 376.764 9.83133 377.732 9.318C378.7 8.80467 379.786 8.548 380.988 8.548C382.191 8.548 383.276 8.80467 384.244 9.318C385.212 9.83133 385.975 10.572 386.532 11.54C387.09 12.4933 387.368 13.6007 387.368 14.862C387.368 16.1233 387.082 17.238 386.51 18.206C385.953 19.1593 385.183 19.8927 384.2 20.406C383.232 20.9193 382.147 21.176 380.944 21.176ZM380.944 17.92C381.663 17.92 382.272 17.656 382.77 17.128C383.284 16.6 383.54 15.8447 383.54 14.862C383.54 13.8793 383.291 13.124 382.792 12.596C382.308 12.068 381.707 11.804 380.988 11.804C380.255 11.804 379.646 12.068 379.162 12.596C378.678 13.1093 378.436 13.8647 378.436 14.862C378.436 15.8447 378.671 16.6 379.14 17.128C379.624 17.656 380.226 17.92 380.944 17.92ZM404.408 0.099999L398.512 25.114H394.882L400.778 0.099999H404.408ZM416.419 8.57V11.694H421.457V14.598H416.419V17.986H422.117V21H412.657V5.556H422.117V8.57H416.419ZM433.039 8.592C434.477 8.592 435.621 9.06133 436.471 10C437.337 10.924 437.769 12.2 437.769 13.828V21H434.029V14.334C434.029 13.5127 433.817 12.8747 433.391 12.42C432.966 11.9653 432.394 11.738 431.675 11.738C430.957 11.738 430.385 11.9653 429.959 12.42C429.534 12.8747 429.321 13.5127 429.321 14.334V21H425.559V8.724H429.321V10.352C429.703 9.80933 430.216 9.384 430.861 9.076C431.507 8.75333 432.233 8.592 433.039 8.592ZM452.634 21.154C451.504 21.154 450.492 20.9707 449.598 20.604C448.703 20.2373 447.984 19.6947 447.442 18.976C446.914 18.2573 446.635 17.392 446.606 16.38H450.61C450.668 16.952 450.866 17.392 451.204 17.7C451.541 17.9933 451.981 18.14 452.524 18.14C453.081 18.14 453.521 18.0153 453.844 17.766C454.166 17.502 454.328 17.1427 454.328 16.688C454.328 16.3067 454.196 15.9913 453.932 15.742C453.682 15.4927 453.367 15.2873 452.986 15.126C452.619 14.9647 452.091 14.7813 451.402 14.576C450.404 14.268 449.59 13.96 448.96 13.652C448.329 13.344 447.786 12.8893 447.332 12.288C446.877 11.6867 446.65 10.902 446.65 9.934C446.65 8.49667 447.17 7.37467 448.212 6.568C449.253 5.74667 450.61 5.336 452.282 5.336C453.983 5.336 455.354 5.74667 456.396 6.568C457.437 7.37467 457.994 8.504 458.068 9.956H453.998C453.968 9.45733 453.785 9.06867 453.448 8.79C453.11 8.49667 452.678 8.35 452.15 8.35C451.695 8.35 451.328 8.47467 451.05 8.724C450.771 8.95867 450.632 9.30333 450.632 9.758C450.632 10.2567 450.866 10.6453 451.336 10.924C451.805 11.2027 452.538 11.5033 453.536 11.826C454.533 12.1633 455.34 12.486 455.956 12.794C456.586 13.102 457.129 13.5493 457.584 14.136C458.038 14.7227 458.266 15.478 458.266 16.402C458.266 17.282 458.038 18.0813 457.584 18.8C457.144 19.5187 456.498 20.0907 455.648 20.516C454.797 20.9413 453.792 21.154 452.634 21.154ZM467.169 21.176C465.966 21.176 464.881 20.9193 463.913 20.406C462.959 19.8927 462.204 19.1593 461.647 18.206C461.104 17.2527 460.833 16.138 460.833 14.862C460.833 13.6007 461.111 12.4933 461.669 11.54C462.226 10.572 462.989 9.83133 463.957 9.318C464.925 8.80467 466.01 8.548 467.213 8.548C468.415 8.548 469.501 8.80467 470.469 9.318C471.437 9.83133 472.199 10.572 472.757 11.54C473.314 12.4933 473.593 13.6007 473.593 14.862C473.593 16.1233 473.307 17.238 472.735 18.206C472.177 19.1593 471.407 19.8927 470.425 20.406C469.457 20.9193 468.371 21.176 467.169 21.176ZM467.169 17.92C467.887 17.92 468.496 17.656 468.995 17.128C469.508 16.6 469.765 15.8447 469.765 14.862C469.765 13.8793 469.515 13.124 469.017 12.596C468.533 12.068 467.931 11.804 467.213 11.804C466.479 11.804 465.871 12.068 465.387 12.596C464.903 13.1093 464.661 13.8647 464.661 14.862C464.661 15.8447 464.895 16.6 465.365 17.128C465.849 17.656 466.45 17.92 467.169 17.92ZM492.253 8.592C493.778 8.592 494.988 9.054 495.883 9.978C496.792 10.902 497.247 12.1853 497.247 13.828V21H493.507V14.334C493.507 13.542 493.294 12.9333 492.869 12.508C492.458 12.068 491.886 11.848 491.153 11.848C490.419 11.848 489.84 12.068 489.415 12.508C489.004 12.9333 488.799 13.542 488.799 14.334V21H485.059V14.334C485.059 13.542 484.846 12.9333 484.421 12.508C484.01 12.068 483.438 11.848 482.705 11.848C481.971 11.848 481.392 12.068 480.967 12.508C480.556 12.9333 480.351 13.542 480.351 14.334V21H476.589V8.724H480.351V10.264C480.732 9.75067 481.231 9.34733 481.847 9.054C482.463 8.746 483.159 8.592 483.937 8.592C484.861 8.592 485.682 8.79 486.401 9.186C487.134 9.582 487.706 10.1467 488.117 10.88C488.542 10.2053 489.121 9.65533 489.855 9.23C490.588 8.80467 491.387 8.592 492.253 8.592ZM516.542 8.592C518.067 8.592 519.277 9.054 520.172 9.978C521.081 10.902 521.536 12.1853 521.536 13.828V21H517.796V14.334C517.796 13.542 517.583 12.9333 517.158 12.508C516.747 12.068 516.175 11.848 515.442 11.848C514.708 11.848 514.129 12.068 513.704 12.508C513.293 12.9333 513.088 13.542 513.088 14.334V21H509.348V14.334C509.348 13.542 509.135 12.9333 508.71 12.508C508.299 12.068 507.727 11.848 506.994 11.848C506.26 11.848 505.681 12.068 505.256 12.508C504.845 12.9333 504.64 13.542 504.64 14.334V21H500.878V8.724H504.64V10.264C505.021 9.75067 505.52 9.34733 506.136 9.054C506.752 8.746 507.448 8.592 508.226 8.592C509.15 8.592 509.971 8.79 510.69 9.186C511.423 9.582 511.995 10.1467 512.406 10.88C512.831 10.2053 513.41 9.65533 514.144 9.23C514.877 8.80467 515.676 8.592 516.542 8.592ZM536.739 14.664C536.739 15.016 536.717 15.3827 536.673 15.764H528.159C528.217 16.5267 528.459 17.1133 528.885 17.524C529.325 17.92 529.86 18.118 530.491 18.118C531.429 18.118 532.082 17.722 532.449 16.93H536.453C536.247 17.7367 535.873 18.4627 535.331 19.108C534.803 19.7533 534.135 20.2593 533.329 20.626C532.522 20.9927 531.62 21.176 530.623 21.176C529.42 21.176 528.349 20.9193 527.411 20.406C526.472 19.8927 525.739 19.1593 525.211 18.206C524.683 17.2527 524.419 16.138 524.419 14.862C524.419 13.586 524.675 12.4713 525.189 11.518C525.717 10.5647 526.45 9.83133 527.389 9.318C528.327 8.80467 529.405 8.548 530.623 8.548C531.811 8.548 532.867 8.79733 533.791 9.296C534.715 9.79467 535.433 10.506 535.947 11.43C536.475 12.354 536.739 13.432 536.739 14.664ZM532.889 13.674C532.889 13.0287 532.669 12.5153 532.229 12.134C531.789 11.7527 531.239 11.562 530.579 11.562C529.948 11.562 529.413 11.7453 528.973 12.112C528.547 12.4787 528.283 12.9993 528.181 13.674H532.889ZM541.615 7.448C540.955 7.448 540.413 7.25733 539.987 6.876C539.577 6.48 539.371 5.996 539.371 5.424C539.371 4.83733 539.577 4.35333 539.987 3.972C540.413 3.576 540.955 3.378 541.615 3.378C542.261 3.378 542.789 3.576 543.199 3.972C543.625 4.35333 543.837 4.83733 543.837 5.424C543.837 5.996 543.625 6.48 543.199 6.876C542.789 7.25733 542.261 7.448 541.615 7.448ZM543.485 8.724V21H539.723V8.724H543.485ZM550.974 4.72V21H547.212V4.72H550.974Z" fill="#3F76E2"/>
</svg>
