<svg width="22" height="22" viewBox="0 0 22 22" fill="none" xmlns="http://www.w3.org/2000/svg">
<g clip-path="url(#clip0_4077_25688)">
<path d="M18.6471 7.69585C18.5496 7.60455 18.4189 7.5526 18.2824 7.55079H14.7522C14.6119 7.55269 14.4782 7.60741 14.38 7.70304L10.9986 10.9205L7.62791 7.70304C7.52718 7.60493 7.38907 7.54998 7.24512 7.55079H3.55545C3.26188 7.55474 3.02717 7.78511 3.0313 8.06534C3.03325 8.1957 3.08763 8.3204 3.18327 8.41351L10.5414 15.4372C10.7482 15.6362 11.0848 15.6375 11.2933 15.4402C11.2944 15.4392 11.2954 15.4382 11.2964 15.4372L18.6546 8.41351C18.8601 8.2134 18.8568 7.89211 18.6471 7.69585ZM10.9986 14.3613L4.88461 8.5658H7.01126L10.584 12.037C10.6821 12.1327 10.8159 12.1874 10.9562 12.1893C11.0964 12.1874 11.2302 12.1327 11.3283 12.037L14.9649 8.59625H17.0277L10.9986 14.3613Z" fill="white"/>
<path d="M18.814 0.872847C18.7325 0.683346 18.5395 0.559217 18.3249 0.558218H14.7522C14.6119 0.560121 14.4782 0.614835 14.38 0.710465L10.9986 3.91779L7.62796 0.669834C7.52723 0.57173 7.38912 0.516778 7.24517 0.517587H3.55545C3.26188 0.521536 3.02717 0.751905 3.0313 1.03214C3.03325 1.1625 3.08763 1.2872 3.18327 1.38031L10.5414 8.404C10.7482 8.60301 11.0848 8.6043 11.2933 8.40695C11.2944 8.40595 11.2954 8.405 11.2964 8.404L18.6545 1.38031C18.8033 1.25318 18.8649 1.05716 18.814 0.872847ZM10.9986 7.33827L4.88461 1.54273H7.01126L10.584 4.93276C10.6821 5.02839 10.8159 5.0831 10.9562 5.08501C11.1001 5.08582 11.2382 5.03086 11.339 4.93276L14.9755 1.49197H17.0384L10.9986 7.33827Z" fill="white"/>
<path d="M21.1956 14.0059H17.6015C17.3079 14.0059 17.0699 14.2331 17.0699 14.5134V17.1117H4.92685V14.5134C4.92685 14.2331 4.6888 14.0059 4.39518 14.0059H0.801205C0.507581 14.0059 0.269531 14.2331 0.269531 14.5134V21.0194C0.275313 21.2957 0.511668 21.5168 0.801205 21.5167H21.1956C21.4892 21.5167 21.7272 21.2895 21.7272 21.0092V14.5134C21.7272 14.2331 21.4892 14.0059 21.1956 14.0059ZM20.6639 20.5119H1.33283V15.0107H3.8635V17.5684C3.8635 17.8487 4.10155 18.076 4.39518 18.076H17.6015C17.8952 18.076 18.1332 17.8487 18.1332 17.5684V15.0208H20.6639V20.5119Z" fill="white"/>
</g>
<defs>
<clipPath id="clip0_4077_25688">
<rect width="22" height="21" fill="white" transform="translate(0 0.517578)"/>
</clipPath>
</defs>
</svg>
