<svg width="22" height="21" viewBox="0 0 22 21" fill="none" xmlns="http://www.w3.org/2000/svg">
<g clip-path="url(#clip0_3253_63322)">
<path d="M18.6491 7.17828C18.5515 7.08697 18.4209 7.03502 18.2843 7.03321H14.7541C14.6139 7.03512 14.4801 7.08983 14.3819 7.18546L11.0006 10.403L7.62987 7.18546C7.52913 7.08735 7.39102 7.0324 7.24707 7.03321H3.5574C3.26383 7.03716 3.02912 7.26753 3.03326 7.54776C3.0352 7.67812 3.08958 7.80282 3.18523 7.89593L10.5434 14.9196C10.7501 15.1186 11.0868 15.1199 11.2953 14.9226C11.2963 14.9216 11.2973 14.9206 11.2984 14.9196L18.6565 7.89593C18.8621 7.69582 18.8587 7.37453 18.6491 7.17828ZM11.0006 13.8438L4.88656 8.04823H7.01321L10.5859 11.5195C10.6841 11.6151 10.8179 11.6698 10.9581 11.6717C11.0984 11.6698 11.2321 11.6151 11.3303 11.5195L14.9668 8.07868H17.0297L11.0006 13.8438Z" fill="white"/>
<path d="M18.816 0.355268C18.7344 0.165768 18.5415 0.0416389 18.3268 0.0406398H14.7541C14.6139 0.0425429 14.4801 0.0972568 14.3819 0.192887L11.0006 3.40022L7.62992 0.152256C7.52919 0.0541518 7.39107 -0.00080001 7.24712 8.80378e-06H3.5574C3.26383 0.00395772 3.02912 0.234327 3.03326 0.514557C3.0352 0.644919 3.08958 0.769619 3.18523 0.862728L10.5434 7.88642C10.7501 8.08544 11.0868 8.08672 11.2953 7.88937C11.2963 7.88837 11.2973 7.88742 11.2984 7.88642L18.6565 0.862728C18.8053 0.735601 18.8669 0.539583 18.816 0.355268ZM11.0006 6.82069L4.88656 1.02516H7.01321L10.5859 4.41518C10.6841 4.51081 10.8179 4.56553 10.9581 4.56743C11.1021 4.56824 11.2402 4.51329 11.3409 4.41518L14.9775 0.974392H17.0403L11.0006 6.82069Z" fill="white"/>
<path d="M21.1975 13.4883H17.6035C17.3099 13.4883 17.0718 13.7155 17.0718 13.9958V16.5941H4.9288V13.9958C4.9288 13.7155 4.69075 13.4883 4.39713 13.4883H0.803158C0.509534 13.4883 0.271484 13.7155 0.271484 13.9958V20.5018C0.277266 20.7782 0.513621 20.9993 0.803158 20.9992H21.1975C21.4911 20.9992 21.7292 20.7719 21.7292 20.4917V13.9958C21.7292 13.7155 21.4911 13.4883 21.1975 13.4883ZM20.6658 19.9943H1.33478V14.4931H3.86545V17.0509C3.86545 17.3311 4.1035 17.5584 4.39713 17.5584H17.6035C17.8971 17.5584 18.1352 17.3311 18.1352 17.0509V14.5032H20.6658V19.9943Z" fill="white"/>
</g>
<defs>
<clipPath id="clip0_3253_63322">
<rect width="22" height="21" fill="white"/>
</clipPath>
</defs>
</svg>
