<svg width="111" height="24" viewBox="0 0 111 24" fill="none" xmlns="http://www.w3.org/2000/svg">
<path d="M25.9 12.916C25.9 15.088 27.316 16.084 29.044 16.084C30.772 16.084 32.2 15.088 32.2 12.916V7.636H31.108V12.928C31.108 14.464 30.292 15.124 29.056 15.124C27.82 15.124 26.992 14.464 26.992 12.928V7.636H25.9V12.916ZM35.1137 10.636V9.424H34.0217V19.12H35.1137V14.788C35.5217 15.46 36.3737 16.108 37.5737 16.108C39.3377 16.108 40.6937 14.728 40.6937 12.688C40.6937 10.636 39.3377 9.316 37.5737 9.316C36.3737 9.316 35.5097 9.94 35.1137 10.636ZM39.5777 12.688C39.5777 14.236 38.5577 15.148 37.3457 15.148C36.1577 15.148 35.1137 14.248 35.1137 12.7C35.1137 11.176 36.1577 10.264 37.3457 10.264C38.5577 10.264 39.5777 11.14 39.5777 12.688ZM42.131 16H43.223V7.12H42.131V16ZM51.3242 12.7C51.3242 10.624 49.8722 9.316 48.0002 9.316C46.1402 9.316 44.6762 10.624 44.6762 12.7C44.6762 14.788 46.0922 16.108 47.9522 16.108C49.8242 16.108 51.3242 14.788 51.3242 12.7ZM45.7922 12.7C45.7922 11.044 46.8362 10.264 47.9882 10.264C49.1162 10.264 50.2082 11.044 50.2082 12.7C50.2082 14.368 49.0922 15.148 47.9522 15.148C46.8122 15.148 45.7922 14.368 45.7922 12.7ZM52.3519 12.688C52.3519 14.728 53.7079 16.108 55.4599 16.108C56.6719 16.108 57.5239 15.484 57.9199 14.776V16H59.0239V9.424H57.9199V10.624C57.5359 9.94 56.6959 9.316 55.4719 9.316C53.7079 9.316 52.3519 10.636 52.3519 12.688ZM57.9199 12.7C57.9199 14.248 56.8879 15.148 55.6879 15.148C54.4879 15.148 53.4679 14.236 53.4679 12.688C53.4679 11.14 54.4879 10.264 55.6879 10.264C56.8879 10.264 57.9199 11.176 57.9199 12.7ZM60.4613 12.688C60.4613 14.728 61.8173 16.108 63.5813 16.108C64.7813 16.108 65.6333 15.496 66.0293 14.764V16H67.1333V7.12H66.0293V10.6C65.5733 9.844 64.6253 9.316 63.5933 9.316C61.8173 9.316 60.4613 10.636 60.4613 12.688ZM66.0293 12.7C66.0293 14.248 64.9973 15.148 63.7973 15.148C62.5973 15.148 61.5773 14.236 61.5773 12.688C61.5773 11.14 62.5973 10.264 63.7973 10.264C64.9973 10.264 66.0293 11.176 66.0293 12.7ZM72.1779 16H73.2699V7.636H72.1779V16ZM84.623 16H85.703V12.124C85.703 10.24 84.539 9.304 83.039 9.304C82.031 9.304 81.095 9.82 80.711 10.768C80.279 9.784 79.379 9.304 78.299 9.304C77.435 9.304 76.655 9.676 76.223 10.372V9.424H75.131V16H76.223V12.376C76.223 10.96 76.979 10.252 78.083 10.252C79.163 10.252 79.883 10.936 79.883 12.28V16H80.963V12.376C80.963 10.96 81.719 10.252 82.823 10.252C83.903 10.252 84.623 10.936 84.623 12.28V16ZM87.0863 12.688C87.0863 14.728 88.4423 16.108 90.1943 16.108C91.4063 16.108 92.2583 15.484 92.6543 14.776V16H93.7583V9.424H92.6543V10.624C92.2703 9.94 91.4303 9.316 90.2063 9.316C88.4423 9.316 87.0863 10.636 87.0863 12.688ZM92.6543 12.7C92.6543 14.248 91.6223 15.148 90.4223 15.148C89.2223 15.148 88.2023 14.236 88.2023 12.688C88.2023 11.14 89.2223 10.264 90.4223 10.264C91.6223 10.264 92.6543 11.176 92.6543 12.7ZM95.1957 12.688C95.1957 14.728 96.5517 16.108 98.3157 16.108C99.5157 16.108 100.368 15.472 100.764 14.764V16.144C100.764 17.548 99.8877 18.292 98.7237 18.292C97.6437 18.292 96.8637 17.752 96.6237 16.96H95.5437C95.7597 18.364 96.9957 19.24 98.7237 19.24C100.656 19.24 101.868 17.956 101.868 16.144V9.424H100.764V10.624C100.38 9.916 99.5157 9.316 98.3157 9.316C96.5517 9.316 95.1957 10.636 95.1957 12.688ZM100.764 12.7C100.764 14.248 99.7317 15.148 98.5317 15.148C97.3317 15.148 96.3117 14.236 96.3117 12.688C96.3117 11.14 97.3317 10.264 98.5317 10.264C99.7317 10.264 100.764 11.176 100.764 12.7ZM106.509 10.24C107.637 10.24 108.597 10.948 108.585 12.232H104.433C104.553 10.948 105.441 10.24 106.509 10.24ZM109.581 13.972H108.405C108.165 14.68 107.541 15.184 106.557 15.184C105.441 15.184 104.505 14.452 104.421 13.12H109.677C109.701 12.892 109.713 12.7 109.713 12.46C109.713 10.66 108.465 9.316 106.557 9.316C104.637 9.316 103.305 10.624 103.305 12.7C103.305 14.788 104.685 16.108 106.557 16.108C108.189 16.108 109.245 15.172 109.581 13.972Z" fill="#8F8F8F"/>
<path d="M10.707 4.29325C10.316 3.90225 9.68401 3.90225 9.29301 4.29325L6.29301 7.29325C5.90201 7.68425 5.90201 8.31625 6.29301 8.70725C6.48801 8.90225 6.74401 9.00025 7.00001 9.00025C7.25601 9.00025 7.51201 8.90225 7.70701 8.70725L9.00001 7.41425V15.0002C9.00001 15.5522 9.44701 16.0002 10 16.0002C10.553 16.0002 11 15.5522 11 15.0002V7.41425L12.293 8.70725C12.684 9.09825 13.316 9.09825 13.707 8.70725C14.098 8.31625 14.098 7.68425 13.707 7.29325L10.707 4.29325Z" fill="#92929D"/>
<path d="M3 18C2.44772 18 2 18.4477 2 19C2 19.5523 2.44772 20 3 20H17C17.5523 20 18 19.5523 18 19C18 18.4477 17.5523 18 17 18H3Z" fill="#92929D"/>
</svg>
