<svg width="14" height="14" viewBox="0 0 14 14" fill="none" xmlns="http://www.w3.org/2000/svg">
<path d="M13 0H2.5C2.2 0 2 0.2 2 0.5V2H0.5C0.2 2 0 2.2 0 2.5V13C0 13.3 0.2 13.5 0.5 13.5H11C11.3 13.5 11.5 13.3 11.5 13V11.5H13C13.3 11.5 13.5 11.3 13.5 11V0.5C13.5 0.2 13.3 0 13 0ZM10.5 12.5H1V3H2.5H10.5V11V12.5ZM12.5 10.5H11.5V2.5C11.5 2.2 11.3 2 11 2H3V1H12.5V10.5Z" fill="#92929D"/>
<path d="M8 7.5H6V5.5C6 5.2 5.8 5 5.5 5C5.2 5 5 5.2 5 5.5V7.5H3C2.7 7.5 2.5 7.7 2.5 8C2.5 8.3 2.7 8.5 3 8.5H5V10.5C5 10.8 5.2 11 5.5 11C5.8 11 6 10.8 6 10.5V8.5H8C8.3 8.5 8.5 8.3 8.5 8C8.5 7.7 8.3 7.5 8 7.5Z" fill="#92929D"/>
</svg>
