<svg width="16" height="16" viewBox="0 0 16 16" fill="none" xmlns="http://www.w3.org/2000/svg">
<path d="M7.99742 16C6.94676 16.0019 5.90611 15.7962 4.93521 15.3947C3.96432 14.9932 3.08236 14.4038 2.33998 13.6603C-0.779993 10.5403 -0.779993 5.46413 2.33998 2.34417C3.08124 1.59874 3.96301 1.00773 4.93423 0.605363C5.90542 0.202988 6.94679 -0.00276021 7.99807 2.79624e-05C10.1354 2.79624e-05 12.1448 0.832191 13.6555 2.34417C15.1668 3.85551 15.9996 5.86485 15.9996 8.00224C15.9996 10.1396 15.1674 12.149 13.6555 13.6603C12.913 14.4038 12.0309 14.9932 11.0599 15.3947C10.0889 15.7962 9.04815 16.0019 7.99742 16ZM7.99807 1.28028C7.11495 1.27777 6.24014 1.45052 5.42428 1.78851C4.60843 2.1265 3.86773 2.62302 3.24512 3.24929C1.97575 4.51869 1.27673 6.20668 1.27673 8.00224C1.27673 9.7978 1.97575 11.4852 3.24512 12.7552C5.86579 15.3759 10.1303 15.3765 12.7504 12.7552C14.0197 11.4858 14.7194 9.7978 14.7194 8.00224C14.7194 6.20668 14.0203 4.51931 12.7504 3.24929C12.1277 2.6232 11.3871 2.12681 10.5714 1.78883C9.75567 1.45085 8.88104 1.278 7.99807 1.28028Z" fill="#92929D"/>
<path d="M5.28153 11.3574C5.15481 11.3577 5.03084 11.3203 4.92541 11.25C4.81997 11.1797 4.73778 11.0797 4.6893 10.9626C4.64079 10.8456 4.62821 10.7167 4.65304 10.5924C4.67792 10.4682 4.73915 10.3541 4.82896 10.2647L10.2604 4.83325C10.3199 4.77382 10.3904 4.72669 10.4681 4.69449C10.5457 4.66233 10.6289 4.6458 10.713 4.6458C10.797 4.6458 10.8803 4.66233 10.9579 4.69449C11.0356 4.72669 11.1061 4.77382 11.1656 4.83325C11.225 4.89267 11.2721 4.96323 11.3043 5.04089C11.3365 5.11855 11.353 5.20176 11.353 5.28581C11.353 5.36985 11.3365 5.4531 11.3043 5.53076C11.2721 5.60839 11.225 5.67894 11.1656 5.73837L5.73409 11.1699C5.67481 11.2295 5.60429 11.2768 5.52659 11.309C5.44892 11.3412 5.36561 11.3576 5.28153 11.3574Z" fill="#92929D"/>
<path d="M10.714 11.3574C10.6299 11.3575 10.5466 11.341 10.469 11.3088C10.3913 11.2766 10.3208 11.2294 10.2614 11.1699L4.82991 5.73837C4.77048 5.67894 4.72335 5.60839 4.69119 5.53076C4.65903 5.4531 4.64246 5.36985 4.64246 5.28581C4.64246 5.20176 4.65903 5.11855 4.69119 5.04089C4.72335 4.96323 4.77048 4.89267 4.82991 4.83325C4.88937 4.77382 4.95992 4.72669 5.03755 4.69449C5.11521 4.66233 5.19846 4.6458 5.2825 4.6458C5.36655 4.6458 5.44976 4.66233 5.52742 4.69449C5.60508 4.72669 5.67564 4.77382 5.73507 4.83325L11.1665 10.2647C11.2563 10.3541 11.3176 10.4682 11.3424 10.5924C11.3673 10.7167 11.3547 10.8456 11.3062 10.9626C11.2577 11.0797 11.1755 11.1797 11.0701 11.25C10.9646 11.3203 10.8407 11.3577 10.714 11.3574Z" fill="#92929D"/>
</svg>
