<svg width="664" height="46" viewBox="0 0 664 46" fill="none" xmlns="http://www.w3.org/2000/svg">
<path d="M0.619764 24.272C0.619764 21.568 1.20476 19.163 2.37476 17.057C3.54476 14.925 5.16976 13.274 7.24976 12.104C9.35576 10.908 11.7348 10.31 14.3868 10.31C17.6368 10.31 20.4188 11.168 22.7328 12.884C25.0468 14.6 26.5938 16.94 27.3738 19.904H20.0418C19.4958 18.76 18.7158 17.889 17.7018 17.291C16.7138 16.693 15.5828 16.394 14.3088 16.394C12.2548 16.394 10.5908 17.109 9.31676 18.539C8.04276 19.969 7.40576 21.88 7.40576 24.272C7.40576 26.664 8.04276 28.575 9.31676 30.005C10.5908 31.435 12.2548 32.15 14.3088 32.15C15.5828 32.15 16.7138 31.851 17.7018 31.253C18.7158 30.655 19.4958 29.784 20.0418 28.64H27.3738C26.5938 31.604 25.0468 33.944 22.7328 35.66C20.4188 37.35 17.6368 38.195 14.3868 38.195C11.7348 38.195 9.35576 37.61 7.24976 36.44C5.16976 35.244 3.54476 33.593 2.37476 31.487C1.20476 29.381 0.619764 26.976 0.619764 24.272ZM38.0208 32.852H46.7568V38H31.3518V10.622H38.0208V32.852ZM56.5008 10.622V38H49.8317V10.622H56.5008ZM67.8967 15.965V21.503H76.8277V26.651H67.8967V32.657H77.9977V38H61.2277V10.622H77.9977V15.965H67.8967ZM106.713 38H100.044L88.8903 21.113V38H82.2213V10.622H88.8903L100.044 27.587V10.622H106.713V38ZM131.137 10.622V15.965H123.883V38H117.214V15.965H109.96V10.622H131.137ZM144.284 38.273C142.282 38.273 140.488 37.948 138.902 37.298C137.316 36.648 136.042 35.686 135.08 34.412C134.144 33.138 133.65 31.604 133.598 29.81H140.696C140.8 30.824 141.151 31.604 141.749 32.15C142.347 32.67 143.127 32.93 144.089 32.93C145.077 32.93 145.857 32.709 146.429 32.267C147.001 31.799 147.287 31.162 147.287 30.356C147.287 29.68 147.053 29.121 146.585 28.679C146.143 28.237 145.584 27.873 144.908 27.587C144.258 27.301 143.322 26.976 142.1 26.612C140.332 26.066 138.889 25.52 137.771 24.974C136.653 24.428 135.691 23.622 134.885 22.556C134.079 21.49 133.676 20.099 133.676 18.383C133.676 15.835 134.599 13.846 136.445 12.416C138.291 10.96 140.696 10.232 143.66 10.232C146.676 10.232 149.107 10.96 150.953 12.416C152.799 13.846 153.787 15.848 153.917 18.422H146.702C146.65 17.538 146.325 16.849 145.727 16.355C145.129 15.835 144.362 15.575 143.426 15.575C142.62 15.575 141.97 15.796 141.476 16.238C140.982 16.654 140.735 17.265 140.735 18.071C140.735 18.955 141.151 19.644 141.983 20.138C142.815 20.632 144.115 21.165 145.883 21.737C147.651 22.335 149.081 22.907 150.173 23.453C151.291 23.999 152.253 24.792 153.059 25.832C153.865 26.872 154.268 28.211 154.268 29.849C154.268 31.409 153.865 32.826 153.059 34.1C152.279 35.374 151.135 36.388 149.627 37.142C148.119 37.896 146.338 38.273 144.284 38.273ZM181.283 0.949998L170.831 45.293H164.396L174.848 0.949998H181.283ZM198.818 32.852H207.554V38H192.149V10.622H198.818V32.852ZM217.298 15.965V21.503H226.229V26.651H217.298V32.657H227.399V38H210.629V10.622H227.399V15.965H217.298ZM248.665 33.164H238.447L236.809 38H229.828L239.734 10.622H247.456L257.362 38H250.303L248.665 33.164ZM246.949 28.016L243.556 17.993L240.202 28.016H246.949ZM270.528 10.622C273.414 10.622 275.936 11.194 278.094 12.338C280.252 13.482 281.916 15.094 283.086 17.174C284.282 19.228 284.88 21.607 284.88 24.311C284.88 26.989 284.282 29.368 283.086 31.448C281.916 33.528 280.239 35.14 278.055 36.284C275.897 37.428 273.388 38 270.528 38H260.271V10.622H270.528ZM270.099 32.228C272.621 32.228 274.584 31.539 275.988 30.161C277.392 28.783 278.094 26.833 278.094 24.311C278.094 21.789 277.392 19.826 275.988 18.422C274.584 17.018 272.621 16.316 270.099 16.316H266.94V32.228H270.099Z" fill="black"/>
<path d="M306.566 38.273C304.564 38.273 302.77 37.948 301.184 37.298C299.598 36.648 298.324 35.686 297.362 34.412C296.426 33.138 295.932 31.604 295.88 29.81H302.978C303.082 30.824 303.433 31.604 304.031 32.15C304.629 32.67 305.409 32.93 306.371 32.93C307.359 32.93 308.139 32.709 308.711 32.267C309.283 31.799 309.569 31.162 309.569 30.356C309.569 29.68 309.335 29.121 308.867 28.679C308.425 28.237 307.866 27.873 307.19 27.587C306.54 27.301 305.604 26.976 304.382 26.612C302.614 26.066 301.171 25.52 300.053 24.974C298.935 24.428 297.973 23.622 297.167 22.556C296.361 21.49 295.958 20.099 295.958 18.383C295.958 15.835 296.881 13.846 298.727 12.416C300.573 10.96 302.978 10.232 305.942 10.232C308.958 10.232 311.389 10.96 313.235 12.416C315.081 13.846 316.069 15.848 316.199 18.422H308.984C308.932 17.538 308.607 16.849 308.009 16.355C307.411 15.835 306.644 15.575 305.708 15.575C304.902 15.575 304.252 15.796 303.758 16.238C303.264 16.654 303.017 17.265 303.017 18.071C303.017 18.955 303.433 19.644 304.265 20.138C305.097 20.632 306.397 21.165 308.165 21.737C309.933 22.335 311.363 22.907 312.455 23.453C313.573 23.999 314.535 24.792 315.341 25.832C316.147 26.872 316.55 28.211 316.55 29.849C316.55 31.409 316.147 32.826 315.341 34.1C314.561 35.374 313.417 36.388 311.909 37.142C310.401 37.896 308.62 38.273 306.566 38.273ZM327.217 10.622V38H320.548V10.622H327.217ZM350.118 19.28C349.624 18.37 348.909 17.681 347.973 17.213C347.063 16.719 345.984 16.472 344.736 16.472C342.578 16.472 340.849 17.187 339.549 18.617C338.249 20.021 337.599 21.906 337.599 24.272C337.599 26.794 338.275 28.77 339.627 30.2C341.005 31.604 342.89 32.306 345.282 32.306C346.92 32.306 348.298 31.89 349.416 31.058C350.56 30.226 351.392 29.03 351.912 27.47H343.449V22.556H357.957V28.757C357.463 30.421 356.618 31.968 355.422 33.398C354.252 34.828 352.757 35.985 350.937 36.869C349.117 37.753 347.063 38.195 344.775 38.195C342.071 38.195 339.653 37.61 337.521 36.44C335.415 35.244 333.764 33.593 332.568 31.487C331.398 29.381 330.813 26.976 330.813 24.272C330.813 21.568 331.398 19.163 332.568 17.057C333.764 14.925 335.415 13.274 337.521 12.104C339.627 10.908 342.032 10.31 344.736 10.31C348.012 10.31 350.768 11.103 353.004 12.689C355.266 14.275 356.761 16.472 357.489 19.28H350.118ZM386.037 38H379.368L368.214 21.113V38H361.545V10.622H368.214L379.368 27.587V10.622H386.037V38ZM397.434 15.965V21.503H406.365V26.651H397.434V32.657H407.535V38H390.765V10.622H407.535V15.965H397.434ZM422.016 10.622C424.902 10.622 427.424 11.194 429.582 12.338C431.74 13.482 433.404 15.094 434.574 17.174C435.77 19.228 436.368 21.607 436.368 24.311C436.368 26.989 435.77 29.368 434.574 31.448C433.404 33.528 431.727 35.14 429.543 36.284C427.385 37.428 424.876 38 422.016 38H411.759V10.622H422.016ZM421.587 32.228C424.109 32.228 426.072 31.539 427.476 30.161C428.88 28.783 429.582 26.833 429.582 24.311C429.582 21.789 428.88 19.826 427.476 18.422C426.072 17.018 424.109 16.316 421.587 16.316H418.428V32.228H421.587ZM447.016 24.272C447.016 21.568 447.601 19.163 448.771 17.057C449.941 14.925 451.566 13.274 453.646 12.104C455.752 10.908 458.131 10.31 460.783 10.31C464.033 10.31 466.815 11.168 469.129 12.884C471.443 14.6 472.99 16.94 473.77 19.904H466.438C465.892 18.76 465.112 17.889 464.098 17.291C463.11 16.693 461.979 16.394 460.705 16.394C458.651 16.394 456.987 17.109 455.713 18.539C454.439 19.969 453.802 21.88 453.802 24.272C453.802 26.664 454.439 28.575 455.713 30.005C456.987 31.435 458.651 32.15 460.705 32.15C461.979 32.15 463.11 31.851 464.098 31.253C465.112 30.655 465.892 29.784 466.438 28.64H473.77C472.99 31.604 471.443 33.944 469.129 35.66C466.815 37.35 464.033 38.195 460.783 38.195C458.131 38.195 455.752 37.61 453.646 36.44C451.566 35.244 449.941 33.593 448.771 31.487C447.601 29.381 447.016 26.976 447.016 24.272ZM490.697 38.273C488.123 38.273 485.757 37.675 483.599 36.479C481.467 35.283 479.764 33.619 478.49 31.487C477.242 29.329 476.618 26.911 476.618 24.233C476.618 21.555 477.242 19.15 478.49 17.018C479.764 14.886 481.467 13.222 483.599 12.026C485.757 10.83 488.123 10.232 490.697 10.232C493.271 10.232 495.624 10.83 497.756 12.026C499.914 13.222 501.604 14.886 502.826 17.018C504.074 19.15 504.698 21.555 504.698 24.233C504.698 26.911 504.074 29.329 502.826 31.487C501.578 33.619 499.888 35.283 497.756 36.479C495.624 37.675 493.271 38.273 490.697 38.273ZM490.697 32.189C492.881 32.189 494.623 31.461 495.923 30.005C497.249 28.549 497.912 26.625 497.912 24.233C497.912 21.815 497.249 19.891 495.923 18.461C494.623 17.005 492.881 16.277 490.697 16.277C488.487 16.277 486.719 16.992 485.393 18.422C484.093 19.852 483.443 21.789 483.443 24.233C483.443 26.651 484.093 28.588 485.393 30.044C486.719 31.474 488.487 32.189 490.697 32.189ZM532.794 38H526.125L514.971 21.113V38H508.302V10.622H514.971L526.125 27.587V10.622H532.794V38ZM557.217 10.622V15.965H549.963V38H543.294V15.965H536.04V10.622H557.217ZM574.42 38L568.726 27.665H567.127V38H560.458V10.622H571.651C573.809 10.622 575.642 10.999 577.15 11.753C578.684 12.507 579.828 13.547 580.582 14.873C581.336 16.173 581.713 17.629 581.713 19.241C581.713 21.061 581.193 22.686 580.153 24.116C579.139 25.546 577.631 26.56 575.629 27.158L581.947 38H574.42ZM567.127 22.946H571.261C572.483 22.946 573.393 22.647 573.991 22.049C574.615 21.451 574.927 20.606 574.927 19.514C574.927 18.474 574.615 17.655 573.991 17.057C573.393 16.459 572.483 16.16 571.261 16.16H567.127V22.946ZM602.836 33.164H592.618L590.98 38H583.999L593.905 10.622H601.627L611.533 38H604.474L602.836 33.164ZM601.12 28.016L597.727 17.993L594.373 28.016H601.12ZM613.311 24.272C613.311 21.568 613.896 19.163 615.066 17.057C616.236 14.925 617.861 13.274 619.941 12.104C622.047 10.908 624.426 10.31 627.078 10.31C630.328 10.31 633.11 11.168 635.424 12.884C637.738 14.6 639.285 16.94 640.065 19.904H632.733C632.187 18.76 631.407 17.889 630.393 17.291C629.405 16.693 628.274 16.394 627 16.394C624.946 16.394 623.282 17.109 622.008 18.539C620.734 19.969 620.097 21.88 620.097 24.272C620.097 26.664 620.734 28.575 622.008 30.005C623.282 31.435 624.946 32.15 627 32.15C628.274 32.15 629.405 31.851 630.393 31.253C631.407 30.655 632.187 29.784 632.733 28.64H640.065C639.285 31.604 637.738 33.944 635.424 35.66C633.11 37.35 630.328 38.195 627.078 38.195C624.426 38.195 622.047 37.61 619.941 36.44C617.861 35.244 616.236 33.593 615.066 31.487C613.896 29.381 613.311 26.976 613.311 24.272ZM663.738 10.622V15.965H656.484V38H649.815V15.965H642.561V10.622H663.738Z" fill="#489767"/>
<path d="M-0.667236 41.9H294.245V43.85H-0.667236V41.9Z" fill="black"/>
<path d="M294.242 41.9H664.674V43.85H294.242V41.9Z" fill="#489767"/>
</svg>
