<svg width="13" height="13" viewBox="0 0 13 13" fill="none" xmlns="http://www.w3.org/2000/svg">
<path fill-rule="evenodd" clip-rule="evenodd" d="M6.5 0.5C3.1865 0.5 0.5 3.1865 0.5 6.5C0.5 9.81425 3.1865 12.5 6.5 12.5C9.8135 12.5 12.5 9.81425 12.5 6.5C12.5 3.1865 9.8135 0.5 6.5 0.5ZM4.78033 3.71997C4.48744 3.42707 4.01256 3.42707 3.71967 3.71997C3.42678 4.01286 3.42678 4.48773 3.71967 4.78063L5.43934 6.5003L3.71967 8.21997C3.42678 8.51286 3.42678 8.98773 3.71967 9.28063C4.01256 9.57352 4.48744 9.57352 4.78033 9.28063L6.5 7.56096L8.21967 9.28063C8.51256 9.57352 8.98744 9.57352 9.28033 9.28063C9.57322 8.98773 9.57322 8.51286 9.28033 8.21997L7.56066 6.5003L9.28033 4.78063C9.57322 4.48773 9.57322 4.01286 9.28033 3.71997C8.98744 3.42707 8.51256 3.42707 8.21967 3.71997L6.5 5.43964L4.78033 3.71997Z" fill="#032339"/>
</svg>
