<svg width="576" height="45" viewBox="0 0 576 45" fill="none" xmlns="http://www.w3.org/2000/svg">
<path d="M6.73147 13.965V19.503H15.6625V24.651H6.73147V30.657H16.8325V36H0.0624703V8.622H16.8325V13.965H6.73147ZM31.3131 8.622C34.1991 8.622 36.7211 9.194 38.8791 10.338C41.0371 11.482 42.7011 13.094 43.8711 15.174C45.0671 17.228 45.6651 19.607 45.6651 22.311C45.6651 24.989 45.0671 27.368 43.8711 29.448C42.7011 31.528 41.0241 33.14 38.8401 34.284C36.6821 35.428 34.1731 36 31.3131 36H21.0561V8.622H31.3131ZM30.8841 30.228C33.4061 30.228 35.3691 29.539 36.7731 28.161C38.1771 26.783 38.8791 24.833 38.8791 22.311C38.8791 19.789 38.1771 17.826 36.7731 16.422C35.3691 15.018 33.4061 14.316 30.8841 14.316H27.7251V30.228H30.8841ZM55.955 8.622V36H49.286V8.622H55.955ZM80.377 8.622V13.965H73.123V36H66.454V13.965H59.2V8.622H80.377ZM109.6 8.622V13.965H98.4456V19.737H106.792V24.924H98.4456V36H91.7766V8.622H109.6ZM119.668 8.622V36H112.999V8.622H119.668ZM131.064 30.852H139.8V36H124.395V8.622H131.064V30.852ZM149.544 13.965V19.503H158.475V24.651H149.544V30.657H159.645V36H142.875V8.622H159.645V13.965H149.544ZM166.988 36.312C165.818 36.312 164.856 35.974 164.102 35.298C163.374 34.596 163.01 33.738 163.01 32.724C163.01 31.684 163.374 30.813 164.102 30.111C164.856 29.409 165.818 29.058 166.988 29.058C168.132 29.058 169.068 29.409 169.796 30.111C170.55 30.813 170.927 31.684 170.927 32.724C170.927 33.738 170.55 34.596 169.796 35.298C169.068 35.974 168.132 36.312 166.988 36.312ZM166.988 20.439C165.818 20.439 164.856 20.101 164.102 19.425C163.374 18.723 163.01 17.865 163.01 16.851C163.01 15.811 163.374 14.94 164.102 14.238C164.856 13.536 165.818 13.185 166.988 13.185C168.132 13.185 169.068 13.536 169.796 14.238C170.55 14.94 170.927 15.811 170.927 16.851C170.927 17.865 170.55 18.723 169.796 19.425C169.068 20.101 168.132 20.439 166.988 20.439Z" fill="black"/>
<path d="M192.294 19.62C193.568 19.568 194.504 19.295 195.102 18.801C195.7 18.281 195.999 17.553 195.999 16.617C195.999 15.915 195.869 14.524 195.609 12.444C195.583 12.236 195.505 11.573 195.375 10.455C195.245 9.311 195.18 8.284 195.18 7.374C195.18 5.164 195.856 3.448 197.208 2.226C198.56 0.977998 200.367 0.353999 202.629 0.353999H205.437V5.814H203.916C203.084 5.814 202.486 5.996 202.122 6.36C201.758 6.724 201.576 7.283 201.576 8.037C201.576 8.609 201.68 9.909 201.888 11.937C202.122 14.459 202.239 16.11 202.239 16.89C202.239 18.32 201.888 19.503 201.186 20.439C200.51 21.375 199.47 21.973 198.066 22.233V22.311C199.47 22.597 200.51 23.208 201.186 24.144C201.888 25.054 202.239 26.237 202.239 27.693C202.239 28.473 202.122 30.124 201.888 32.646C201.68 34.622 201.576 35.909 201.576 36.507C201.576 37.261 201.758 37.82 202.122 38.184C202.486 38.574 203.084 38.769 203.916 38.769H205.437V44.229H202.629C200.367 44.229 198.56 43.605 197.208 42.357C195.856 41.135 195.18 39.406 195.18 37.17C195.18 36.26 195.245 35.246 195.375 34.128C195.505 32.984 195.583 32.308 195.609 32.1C195.869 30.02 195.999 28.629 195.999 27.927C195.999 27.043 195.7 26.341 195.102 25.821C194.504 25.275 193.568 24.976 192.294 24.924V19.62ZM209.388 22.272C209.388 19.568 209.973 17.163 211.143 15.057C212.313 12.925 213.938 11.274 216.018 10.104C218.124 8.908 220.503 8.31 223.155 8.31C226.405 8.31 229.187 9.168 231.501 10.884C233.815 12.6 235.362 14.94 236.142 17.904H228.81C228.264 16.76 227.484 15.889 226.47 15.291C225.482 14.693 224.351 14.394 223.077 14.394C221.023 14.394 219.359 15.109 218.085 16.539C216.811 17.969 216.174 19.88 216.174 22.272C216.174 24.664 216.811 26.575 218.085 28.005C219.359 29.435 221.023 30.15 223.077 30.15C224.351 30.15 225.482 29.851 226.47 29.253C227.484 28.655 228.264 27.784 228.81 26.64H236.142C235.362 29.604 233.815 31.944 231.501 33.66C229.187 35.35 226.405 36.195 223.155 36.195C220.503 36.195 218.124 35.61 216.018 34.44C213.938 33.244 212.313 31.593 211.143 29.487C209.973 27.381 209.388 24.976 209.388 22.272ZM257.163 31.164H246.945L245.307 36H238.326L248.232 8.622H255.954L265.86 36H258.801L257.163 31.164ZM255.447 26.016L252.054 15.993L248.7 26.016H255.447ZM293.26 36H286.591L275.437 19.113V36H268.768V8.622H275.437L286.591 25.587V8.622H293.26V36ZM308.246 8.622C311.132 8.622 313.654 9.194 315.812 10.338C317.97 11.482 319.634 13.094 320.804 15.174C322 17.228 322.598 19.607 322.598 22.311C322.598 24.989 322 27.368 320.804 29.448C319.634 31.528 317.957 33.14 315.773 34.284C313.615 35.428 311.106 36 308.246 36H297.989V8.622H308.246ZM307.817 30.228C310.339 30.228 312.302 29.539 313.706 28.161C315.11 26.783 315.812 24.833 315.812 22.311C315.812 19.789 315.11 17.826 313.706 16.422C312.302 15.018 310.339 14.316 307.817 14.316H304.658V30.228H307.817ZM332.888 8.622V36H326.219V8.622H332.888ZM347.872 8.622C350.758 8.622 353.28 9.194 355.438 10.338C357.596 11.482 359.26 13.094 360.43 15.174C361.626 17.228 362.224 19.607 362.224 22.311C362.224 24.989 361.626 27.368 360.43 29.448C359.26 31.528 357.583 33.14 355.399 34.284C353.241 35.428 350.732 36 347.872 36H337.615V8.622H347.872ZM347.443 30.228C349.965 30.228 351.928 29.539 353.332 28.161C354.736 26.783 355.438 24.833 355.438 22.311C355.438 19.789 354.736 17.826 353.332 16.422C351.928 15.018 349.965 14.316 347.443 14.316H344.284V30.228H347.443ZM382.888 31.164H372.67L371.032 36H364.051L373.957 8.622H381.679L391.585 36H384.526L382.888 31.164ZM381.172 26.016L377.779 15.993L374.425 26.016H381.172ZM414.188 8.622V13.965H406.934V36H400.265V13.965H393.011V8.622H414.188ZM442.506 37.599V43.995H418.326V37.599H442.506ZM472.246 36H465.577L454.423 19.113V36H447.754V8.622H454.423L465.577 25.587V8.622H472.246V36ZM494.017 31.164H483.799L482.161 36H475.18L485.086 8.622H492.808L502.714 36H495.655L494.017 31.164ZM492.301 26.016L488.908 15.993L485.554 26.016H492.301ZM536.628 8.622V36H529.959V19.581L523.836 36H518.454L512.292 19.542V36H505.623V8.622H513.501L521.184 27.576L528.789 8.622H536.628ZM547.987 13.965V19.503H556.918V24.651H547.987V30.657H558.088V36H541.318V8.622H558.088V13.965H547.987ZM575.806 24.924C574.532 24.976 573.596 25.275 572.998 25.821C572.4 26.341 572.101 27.043 572.101 27.927C572.101 28.629 572.231 30.02 572.491 32.1C572.517 32.308 572.595 32.984 572.725 34.128C572.855 35.246 572.92 36.26 572.92 37.17C572.92 39.406 572.244 41.135 570.892 42.357C569.54 43.605 567.733 44.229 565.471 44.229H562.663V38.769H564.184C565.016 38.769 565.614 38.574 565.978 38.184C566.342 37.82 566.524 37.261 566.524 36.507C566.524 35.909 566.42 34.622 566.212 32.646C565.978 30.124 565.861 28.473 565.861 27.693C565.861 26.237 566.199 25.054 566.875 24.144C567.577 23.208 568.63 22.597 570.034 22.311V22.233C568.63 21.973 567.577 21.375 566.875 20.439C566.199 19.503 565.861 18.32 565.861 16.89C565.861 16.11 565.978 14.459 566.212 11.937C566.42 9.909 566.524 8.609 566.524 8.037C566.524 7.283 566.342 6.724 565.978 6.36C565.614 5.996 565.016 5.814 564.184 5.814H562.663V0.353999H565.471C567.733 0.353999 569.54 0.977998 570.892 2.226C572.244 3.448 572.92 5.164 572.92 7.374C572.92 8.284 572.855 9.311 572.725 10.455C572.595 11.573 572.517 12.236 572.491 12.444C572.231 14.524 572.101 15.915 572.101 16.617C572.101 17.553 572.4 18.281 572.998 18.801C573.596 19.295 574.532 19.568 575.806 19.62V24.924Z" fill="#C4C4C4"/>
<path d="M-2.35553 39.9H188.748V41.85H-2.35553V39.9Z" fill="black"/>
<path d="M188.745 39.9H579.355V41.85H188.745V39.9Z" fill="#C4C4C4"/>
</svg>
