<svg width="20" height="20" viewBox="0 0 20 20" fill="none" xmlns="http://www.w3.org/2000/svg">
<circle cx="10" cy="10" r="10" fill="#DEDEDE"/>
<g clip-path="url(#clip0_1632_5596)">
<path d="M12.9166 10.0194C12.6862 10.0194 12.5 10.2061 12.5 10.436V13.7694C12.5 13.999 12.3133 14.186 12.0834 14.186H6.25C6.01997 14.186 5.83336 13.999 5.83336 13.7694V7.93604C5.83336 7.70647 6.01997 7.51939 6.25 7.51939H9.58336C9.81377 7.51939 10 7.3327 10 7.10275C10 6.87273 9.81377 6.68604 9.58336 6.68604H6.25C5.56084 6.68604 5 7.24687 5 7.93604V13.7694C5 14.4586 5.56084 15.0194 6.25 15.0194H12.0834C12.7725 15.0194 13.3334 14.4586 13.3334 13.7694V10.436C13.3334 10.2056 13.147 10.0194 12.9166 10.0194Z" fill="white"/>
<path d="M8.90672 9.63943C8.87758 9.66858 8.85797 9.70566 8.84965 9.74564L8.55508 11.219C8.54135 11.2873 8.56302 11.3577 8.61215 11.4073C8.65175 11.4469 8.70507 11.4681 8.7597 11.4681C8.77298 11.4681 8.78679 11.4669 8.80052 11.464L10.2734 11.1694C10.3143 11.161 10.3513 11.1415 10.3801 11.1123L13.6768 7.81563L12.2038 6.34277L8.90672 9.63943Z" fill="white"/>
<path d="M14.6951 5.32423C14.2889 4.91796 13.628 4.91796 13.2221 5.32423L12.6455 5.90086L14.1184 7.37379L14.6951 6.79708C14.8918 6.60086 15.0001 6.33917 15.0001 6.06085C15.0001 5.78253 14.8918 5.52084 14.6951 5.32423Z" fill="white"/>
</g>
<defs>
<clipPath id="clip0_1632_5596">
<rect width="10" height="10" fill="white" transform="translate(5 5)"/>
</clipPath>
</defs>
</svg>
