<svg width="50" height="50" viewBox="0 0 50 50" fill="none" xmlns="http://www.w3.org/2000/svg">
<rect width="50" height="50" fill="#E5E5E5"/>
<g clip-path="url(#clip0_922_333)">
<rect x="-1015" y="-714" width="1440" height="2500" fill="#F7F8FA"/>
<g filter="url(#filter0_d_922_333)">
<rect x="-714" y="-205.858" width="1111" height="1772.56" rx="10" fill="white"/>
</g>
<rect width="50" height="50" rx="25" fill="#CCCCCC"/>
<path fill-rule="evenodd" clip-rule="evenodd" d="M18.0009 27.7999L12.9273 23.5999C11.9697 22.8341 12.3897 21.2941 13.6049 21.1205L20.8009 20.7999L23.8739 13.0957C24.0881 12.6687 24.5235 12.3999 25.0009 12.3999C25.4783 12.3999 25.9137 12.6701 26.1279 13.0957L29.2009 20.7999L36.3969 21.1205C37.6121 21.2941 38.0321 22.8341 37.0745 23.5999L32.0009 27.7999L33.3855 35.9997C33.5451 37.1183 32.3831 37.9555 31.3737 37.4501L25.0009 33.3999L18.6281 37.4487C17.6173 37.9541 16.4567 37.1169 16.6163 35.9983L18.0009 27.7999Z" fill="#E7E7E7"/>
</g>
<rect x="-1014.5" y="-713.5" width="1439" height="2499" stroke="black"/>
<defs>
<filter id="filter0_d_922_333" x="-762" y="-251.858" width="1207" height="1868.56" filterUnits="userSpaceOnUse" color-interpolation-filters="sRGB">
<feFlood flood-opacity="0" result="BackgroundImageFix"/>
<feColorMatrix in="SourceAlpha" type="matrix" values="0 0 0 0 0 0 0 0 0 0 0 0 0 0 0 0 0 0 127 0" result="hardAlpha"/>
<feOffset dy="2"/>
<feGaussianBlur stdDeviation="24"/>
<feColorMatrix type="matrix" values="0 0 0 0 0 0 0 0 0 0 0 0 0 0 0 0 0 0 0.04 0"/>
<feBlend mode="normal" in2="BackgroundImageFix" result="effect1_dropShadow_922_333"/>
<feBlend mode="normal" in="SourceGraphic" in2="effect1_dropShadow_922_333" result="shape"/>
</filter>
<clipPath id="clip0_922_333">
<rect x="-1015" y="-714" width="1440" height="2500" fill="white"/>
</clipPath>
</defs>
</svg>
