<svg width="20" height="20" viewBox="0 0 20 20" fill="none" xmlns="http://www.w3.org/2000/svg">
<path d="M11.9531 12.3438C11.9531 11.2668 11.077 10.3906 10 10.3906C8.92305 10.3906 8.04688 11.2668 8.04688 12.3438C8.04688 13.4207 8.92305 14.2969 10 14.2969C11.077 14.2969 11.9531 13.4207 11.9531 12.3438Z" fill="white"/>
<path d="M0.0978516 12.0851C-0.0326172 12.2329 -0.0326172 12.4546 0.0978516 12.6023C0.141445 12.6517 1.18535 13.8245 2.92445 15.0102C5.01133 16.4331 7.47465 17.4219 10 17.4219C12.5257 17.4219 14.989 16.4329 17.0755 15.0102C18.8146 13.8245 19.8586 12.6517 19.9021 12.6023C20.0326 12.4546 20.0326 12.2329 19.9021 12.0851C19.8585 12.0358 18.8146 10.863 17.0755 9.67723C14.9886 8.25437 12.5254 7.26562 10 7.26562C7.4743 7.26562 5.01098 8.25461 2.92449 9.67727C1.18535 10.863 0.141445 12.0358 0.0978516 12.0851ZM5.70312 12.3438C5.70312 9.96363 7.64168 8.04688 10 8.04688C12.3618 8.04688 14.2969 9.96738 14.2969 12.3438C14.2969 14.7239 12.3583 16.6406 10 16.6406C7.63816 16.6406 5.70312 14.7201 5.70312 12.3438ZM16.6181 10.3109C17.8093 11.1209 18.673 11.9399 19.0711 12.3439C18.6758 12.7454 17.8208 13.5565 16.6354 14.3647C15.8239 14.918 14.7668 15.5279 13.5439 15.9769C14.4898 15.0541 15.0781 13.7664 15.0781 12.3438C15.0781 10.921 14.4898 9.63332 13.5439 8.71047C14.7596 9.15688 15.8106 9.76191 16.6181 10.3109ZM6.45605 8.71055C5.51023 9.63336 4.92188 10.9211 4.92188 12.3438C4.92188 13.7665 5.51023 15.0542 6.45613 15.977C5.24039 15.5306 4.18934 14.9256 3.38191 14.3766C2.19078 13.5666 1.32711 12.7477 0.928867 12.3436C1.32422 11.9421 2.17922 11.131 3.36457 10.3228C4.17609 9.76945 5.2332 9.15961 6.45605 8.71055Z" fill="white"/>
<path d="M6.67976 6.5927C6.86659 6.48484 6.93062 6.24594 6.82272 6.0591L5.65085 4.02937C5.543 3.8425 5.30405 3.77851 5.11726 3.88641C4.93042 3.99426 4.8664 4.23316 4.97429 4.42L6.14616 6.44973C6.25452 6.6375 6.49378 6.70008 6.67976 6.5927Z" fill="white"/>
<path d="M14.8829 3.8864C14.6961 3.77851 14.4571 3.84253 14.3493 4.02937L13.1774 6.05909C13.0695 6.24593 13.1335 6.48483 13.3204 6.59268C13.5064 6.70007 13.7457 6.63737 13.854 6.44972L15.0258 4.41999C15.1337 4.23315 15.0697 3.99425 14.8829 3.8864Z" fill="white"/>
<path d="M10.3906 5.3125V2.96875C10.3906 2.75301 10.2157 2.57812 10 2.57812C9.78426 2.57812 9.60938 2.75301 9.60938 2.96875V5.3125C9.60938 5.52824 9.78426 5.70312 10 5.70312C10.2157 5.70312 10.3906 5.52824 10.3906 5.3125Z" fill="white"/>
</svg>
