<svg width="498" height="46" viewBox="0 0 498 46" fill="none" xmlns="http://www.w3.org/2000/svg">
<path d="M0.134565 24.272C0.134565 21.568 0.719565 19.163 1.88956 17.057C3.05956 14.925 4.68456 13.274 6.76457 12.104C8.87057 10.908 11.2496 10.31 13.9016 10.31C17.1516 10.31 19.9336 11.168 22.2476 12.884C24.5616 14.6 26.1086 16.94 26.8886 19.904H19.5566C19.0106 18.76 18.2306 17.889 17.2166 17.291C16.2286 16.693 15.0976 16.394 13.8236 16.394C11.7696 16.394 10.1056 17.109 8.83157 18.539C7.55757 19.969 6.92057 21.88 6.92057 24.272C6.92057 26.664 7.55757 28.575 8.83157 30.005C10.1056 31.435 11.7696 32.15 13.8236 32.15C15.0976 32.15 16.2286 31.851 17.2166 31.253C18.2306 30.655 19.0106 29.784 19.5566 28.64H26.8886C26.1086 31.604 24.5616 33.944 22.2476 35.66C19.9336 37.35 17.1516 38.195 13.9016 38.195C11.2496 38.195 8.87057 37.61 6.76457 36.44C4.68456 35.244 3.05956 33.593 1.88956 31.487C0.719565 29.381 0.134565 26.976 0.134565 24.272ZM37.5356 32.852H46.2716V38H30.8666V10.622H37.5356V32.852ZM56.0156 10.622V38H49.3466V10.622H56.0156ZM67.4115 15.965V21.503H76.3425V26.651H67.4115V32.657H77.5125V38H60.7425V10.622H77.5125V15.965H67.4115ZM106.228 38H99.5591L88.4051 21.113V38H81.7361V10.622H88.4051L99.5591 27.587V10.622H106.228V38ZM130.651 10.622V15.965H123.397V38H116.728V15.965H109.474V10.622H130.651ZM143.798 38.273C141.796 38.273 140.002 37.948 138.416 37.298C136.83 36.648 135.556 35.686 134.594 34.412C133.658 33.138 133.164 31.604 133.112 29.81H140.21C140.314 30.824 140.665 31.604 141.263 32.15C141.861 32.67 142.641 32.93 143.603 32.93C144.591 32.93 145.371 32.709 145.943 32.267C146.515 31.799 146.801 31.162 146.801 30.356C146.801 29.68 146.567 29.121 146.099 28.679C145.657 28.237 145.098 27.873 144.422 27.587C143.772 27.301 142.836 26.976 141.614 26.612C139.846 26.066 138.403 25.52 137.285 24.974C136.167 24.428 135.205 23.622 134.399 22.556C133.593 21.49 133.19 20.099 133.19 18.383C133.19 15.835 134.113 13.846 135.959 12.416C137.805 10.96 140.21 10.232 143.174 10.232C146.19 10.232 148.621 10.96 150.467 12.416C152.313 13.846 153.301 15.848 153.431 18.422H146.216C146.164 17.538 145.839 16.849 145.241 16.355C144.643 15.835 143.876 15.575 142.94 15.575C142.134 15.575 141.484 15.796 140.99 16.238C140.496 16.654 140.249 17.265 140.249 18.071C140.249 18.955 140.665 19.644 141.497 20.138C142.329 20.632 143.629 21.165 145.397 21.737C147.165 22.335 148.595 22.907 149.687 23.453C150.805 23.999 151.767 24.792 152.573 25.832C153.379 26.872 153.782 28.211 153.782 29.849C153.782 31.409 153.379 32.826 152.573 34.1C151.793 35.374 150.649 36.388 149.141 37.142C147.633 37.896 145.852 38.273 143.798 38.273ZM180.798 0.949998L170.346 45.293H163.911L174.363 0.949998H180.798ZM198.333 32.852H207.069V38H191.664V10.622H198.333V32.852ZM216.813 15.965V21.503H225.744V26.651H216.813V32.657H226.914V38H210.144V10.622H226.914V15.965H216.813ZM248.18 33.164H237.962L236.324 38H229.343L239.249 10.622H246.971L256.877 38H249.818L248.18 33.164ZM246.464 28.016L243.071 17.993L239.717 28.016H246.464ZM270.043 10.622C272.929 10.622 275.451 11.194 277.609 12.338C279.767 13.482 281.431 15.094 282.601 17.174C283.797 19.228 284.395 21.607 284.395 24.311C284.395 26.989 283.797 29.368 282.601 31.448C281.431 33.528 279.754 35.14 277.57 36.284C275.412 37.428 272.903 38 270.043 38H259.786V10.622H270.043ZM269.614 32.228C272.136 32.228 274.099 31.539 275.503 30.161C276.907 28.783 277.609 26.833 277.609 24.311C277.609 21.789 276.907 19.826 275.503 18.422C274.099 17.018 272.136 16.316 269.614 16.316H266.455V32.228H269.614Z" fill="black"/>
<path d="M302.844 32.852H311.58V38H296.175V10.622H302.844V32.852ZM321.324 10.622V38H314.655V10.622H321.324ZM335.957 38.273C333.955 38.273 332.161 37.948 330.575 37.298C328.989 36.648 327.715 35.686 326.753 34.412C325.817 33.138 325.323 31.604 325.271 29.81H332.369C332.473 30.824 332.824 31.604 333.422 32.15C334.02 32.67 334.8 32.93 335.762 32.93C336.75 32.93 337.53 32.709 338.102 32.267C338.674 31.799 338.96 31.162 338.96 30.356C338.96 29.68 338.726 29.121 338.258 28.679C337.816 28.237 337.257 27.873 336.581 27.587C335.931 27.301 334.995 26.976 333.773 26.612C332.005 26.066 330.562 25.52 329.444 24.974C328.326 24.428 327.364 23.622 326.558 22.556C325.752 21.49 325.349 20.099 325.349 18.383C325.349 15.835 326.272 13.846 328.118 12.416C329.964 10.96 332.369 10.232 335.333 10.232C338.349 10.232 340.78 10.96 342.626 12.416C344.472 13.846 345.46 15.848 345.59 18.422H338.375C338.323 17.538 337.998 16.849 337.4 16.355C336.802 15.835 336.035 15.575 335.099 15.575C334.293 15.575 333.643 15.796 333.149 16.238C332.655 16.654 332.408 17.265 332.408 18.071C332.408 18.955 332.824 19.644 333.656 20.138C334.488 20.632 335.788 21.165 337.556 21.737C339.324 22.335 340.754 22.907 341.846 23.453C342.964 23.999 343.926 24.792 344.732 25.832C345.538 26.872 345.941 28.211 345.941 29.849C345.941 31.409 345.538 32.826 344.732 34.1C343.952 35.374 342.808 36.388 341.3 37.142C339.792 37.896 338.011 38.273 335.957 38.273ZM369.634 10.622V15.965H362.38V38H355.711V15.965H348.457V10.622H369.634ZM400.728 10.622V15.965H393.474V38H386.805V15.965H379.551V10.622H400.728ZM416.917 38.273C414.343 38.273 411.977 37.675 409.819 36.479C407.687 35.283 405.984 33.619 404.71 31.487C403.462 29.329 402.838 26.911 402.838 24.233C402.838 21.555 403.462 19.15 404.71 17.018C405.984 14.886 407.687 13.222 409.819 12.026C411.977 10.83 414.343 10.232 416.917 10.232C419.491 10.232 421.844 10.83 423.976 12.026C426.134 13.222 427.824 14.886 429.046 17.018C430.294 19.15 430.918 21.555 430.918 24.233C430.918 26.911 430.294 29.329 429.046 31.487C427.798 33.619 426.108 35.283 423.976 36.479C421.844 37.675 419.491 38.273 416.917 38.273ZM416.917 32.189C419.101 32.189 420.843 31.461 422.143 30.005C423.469 28.549 424.132 26.625 424.132 24.233C424.132 21.815 423.469 19.891 422.143 18.461C420.843 17.005 419.101 16.277 416.917 16.277C414.707 16.277 412.939 16.992 411.613 18.422C410.313 19.852 409.663 21.789 409.663 24.233C409.663 26.651 410.313 28.588 411.613 30.044C412.939 31.474 414.707 32.189 416.917 32.189ZM452.938 10.622C455.824 10.622 458.346 11.194 460.504 12.338C462.662 13.482 464.326 15.094 465.496 17.174C466.692 19.228 467.29 21.607 467.29 24.311C467.29 26.989 466.692 29.368 465.496 31.448C464.326 33.528 462.649 35.14 460.465 36.284C458.307 37.428 455.798 38 452.938 38H442.681V10.622H452.938ZM452.509 32.228C455.031 32.228 456.994 31.539 458.398 30.161C459.802 28.783 460.504 26.833 460.504 24.311C460.504 21.789 459.802 19.826 458.398 18.422C456.994 17.018 455.031 16.316 452.509 16.316H449.35V32.228H452.509ZM483.859 38.273C481.285 38.273 478.919 37.675 476.761 36.479C474.629 35.283 472.926 33.619 471.652 31.487C470.404 29.329 469.78 26.911 469.78 24.233C469.78 21.555 470.404 19.15 471.652 17.018C472.926 14.886 474.629 13.222 476.761 12.026C478.919 10.83 481.285 10.232 483.859 10.232C486.433 10.232 488.786 10.83 490.918 12.026C493.076 13.222 494.766 14.886 495.988 17.018C497.236 19.15 497.86 21.555 497.86 24.233C497.86 26.911 497.236 29.329 495.988 31.487C494.74 33.619 493.05 35.283 490.918 36.479C488.786 37.675 486.433 38.273 483.859 38.273ZM483.859 32.189C486.043 32.189 487.785 31.461 489.085 30.005C490.411 28.549 491.074 26.625 491.074 24.233C491.074 21.815 490.411 19.891 489.085 18.461C487.785 17.005 486.043 16.277 483.859 16.277C481.649 16.277 479.881 16.992 478.555 18.422C477.255 19.852 476.605 21.789 476.605 24.233C476.605 26.651 477.255 28.588 478.555 30.044C479.881 31.474 481.649 32.189 483.859 32.189Z" fill="#697E8D"/>
<path d="M-1.15244 41.9H293.76V43.85H-1.15244V41.9Z" fill="black"/>
<path d="M293.757 41.9H499.147V43.85H293.757V41.9Z" fill="#697E8D"/>
</svg>
