<svg width="421" height="67" viewBox="0 0 421 67" fill="none" xmlns="http://www.w3.org/2000/svg">
<path d="M249.845 24.9752C253.595 24.9752 256.598 26.0299 258.853 28.1393C261.109 30.2488 262.296 33.032 262.414 36.4891V65.3177H250.196V41.5869C250.079 39.6532 249.757 38.2031 249.229 37.2364C248.702 36.2698 247.677 35.7277 246.153 35.6102C243.282 35.6102 241.041 37.0019 239.429 39.7853C237.818 42.5687 237.012 45.8353 237.012 49.585V65.3177H224.707V41.5869C224.59 39.6532 224.238 38.2031 223.652 37.2364C223.066 36.2698 221.982 35.7277 220.4 35.6102C217.646 35.6102 215.478 37.0019 213.896 39.7853C212.274 42.7292 211.455 46.0485 211.523 49.4093V65.3177H199.218V26.9089H210.383L211.262 32.972C214.368 27.6399 218.997 24.9738 225.149 24.9738C228.255 24.9738 230.818 25.6038 232.84 26.8637C234.876 28.1418 236.364 30.1309 237.015 32.4447C238.565 30.2434 240.555 28.3878 242.86 26.9953C244.958 25.6935 247.375 24.9946 249.845 24.9752ZM316.379 26.9089V65.3177H304.074V60.5706C300.383 64.4379 296.106 66.3715 291.243 66.3715C285.56 66.3721 280.945 64.6735 277.399 61.2756C273.852 57.8778 272.08 52.8383 272.081 46.1572C272.081 41.9384 272.946 38.2322 274.674 35.0386C276.268 31.9902 278.65 29.4256 281.574 27.6125C284.341 25.8842 287.54 24.9704 290.802 24.9757C294.201 24.9757 296.896 25.4883 298.887 26.5136C300.929 27.58 302.725 29.0621 304.16 30.8645L304.951 26.9093L316.379 26.9089ZM294.758 56.3527C299.036 56.3527 302.141 54.4191 304.075 50.5519V41.1474C303.388 39.2915 302.105 37.7154 300.428 36.6649C298.598 35.523 296.474 34.9424 294.318 34.9949C293.022 34.9789 291.737 35.2368 290.548 35.7518C289.359 36.2668 288.293 37.0272 287.418 37.9833C285.513 39.9755 284.561 42.4951 284.561 45.542C284.543 47.4644 285.028 49.3582 285.967 51.0355C286.847 52.6449 288.136 53.9939 289.703 54.9465C291.225 55.8754 292.975 56.3623 294.758 56.3527H294.758ZM355.755 25.0631C359.388 25.0631 362.42 26.1471 364.851 28.3151C366.033 29.3414 366.979 30.6111 367.624 32.0371C368.269 33.4632 368.599 35.0118 368.589 36.577V65.3177H356.284V41.1474C356.109 37.3973 354.234 35.5223 350.659 35.5223C347.847 35.5223 345.591 36.8407 343.891 39.4774C342.192 42.1142 341.342 45.5127 341.342 49.6729V65.3177H329.037V26.9089H340.2L341.079 33.0613C342.437 30.5901 344.461 28.5497 346.922 27.1725C349.632 25.712 352.677 24.9848 355.755 25.0631ZM407.963 25.0631C411.596 25.0631 414.628 26.1471 417.059 28.3151C418.241 29.3416 419.186 30.6114 419.831 32.0374C420.476 33.4635 420.805 35.012 420.795 36.577V65.3177H408.49V41.1474C408.314 37.3973 406.439 35.5223 402.865 35.5223C400.052 35.5223 397.796 36.8407 396.097 39.4774C394.397 42.1142 393.547 45.5127 393.547 49.6729V65.3177H381.242V26.9089H392.404L393.283 33.0613C394.642 30.5899 396.667 28.5495 399.128 27.1725C401.839 25.7117 404.884 24.9845 407.963 25.0631Z" fill="#032339"/>
<path d="M13.0644 0.628418V65.3171H0.320068V0.628418H13.0644ZM54.4617 25.0625C58.0946 25.0625 61.1268 26.1465 63.5583 28.3145C64.7396 29.341 65.6851 30.6108 66.3298 32.0368C66.9746 33.4628 67.3035 35.0113 67.2939 36.5763V65.3171H54.989V41.1467C54.8132 37.3967 52.9382 35.5216 49.3639 35.5216C46.5514 35.5216 44.2953 36.84 42.5958 39.4768C40.8962 42.1135 40.0466 45.512 40.0469 49.6723V65.3171H27.7424V26.9082H38.9048L39.7837 33.0606C41.1422 30.5892 43.1674 28.5488 45.6287 27.1719C48.339 25.7113 51.3839 24.9842 54.4617 25.0625ZM95.8589 10.0329V26.7324H105.175V36.3127H95.8589V65.3171H83.554V36.3127H77.5773V26.7324H83.554V10.0329H95.8589ZM133.742 55.9126C136.203 55.9126 138.752 55.063 141.388 53.3637L146.836 62.5045C144.718 63.6803 142.478 64.6233 140.157 65.3171C137.993 65.9922 135.743 66.3475 133.477 66.3718C128.906 66.3718 124.966 65.5076 121.655 63.7792C118.466 62.1688 115.844 59.6236 114.14 56.4837C112.397 53.1671 111.52 49.4637 111.592 45.7176C111.568 42.051 112.589 38.4535 114.536 35.3463C116.506 32.1752 119.281 29.5823 122.578 27.8313C126.005 25.9784 129.845 25.0257 133.74 25.0625C139.248 25.0625 143.775 26.6738 147.32 29.8965C150.864 33.1192 153.164 37.7192 154.218 43.6965L126.093 52.6615C127.969 54.8289 130.518 55.9126 133.74 55.9126H133.742ZM132.775 34.6427C130.021 34.6427 127.824 35.5802 126.183 37.4553C124.542 39.3303 123.722 41.8494 123.721 45.0126V45.8036L140.594 40.0906C139.365 36.4587 136.758 34.6427 132.774 34.6427H132.775ZM175.228 35.6974C176.321 33.5974 177.795 31.7196 179.576 30.1602C181.273 28.62 183.182 27.3324 185.245 26.3371C187.179 25.4284 188.702 24.9741 189.816 24.9741L189.2 37.279C188.705 37.2112 188.206 37.1818 187.706 37.1911C185.39 37.1476 183.118 37.8232 181.202 39.1247C179.359 40.3772 177.875 42.089 176.896 44.0909C175.923 46.0123 175.412 48.1337 175.401 50.2871V65.3171H163.184V26.9082H174.259L175.228 35.6974Z" fill="#FE8700"/>
</svg>
