<svg width="419" height="26" viewBox="0 0 419 26" fill="none" xmlns="http://www.w3.org/2000/svg">
<path d="M17.26 5.644V21H14.18V11.012L10.066 21H7.734L3.598 11.012V21H0.518V5.644H4.016L8.9 17.062L13.784 5.644H17.26ZM25.7171 21.198C24.5438 21.198 23.4878 20.9413 22.5491 20.428C21.6104 19.9 20.8698 19.1593 20.3271 18.206C19.7991 17.2527 19.5351 16.1527 19.5351 14.906C19.5351 13.6593 19.8064 12.5593 20.3491 11.606C20.9064 10.6527 21.6618 9.91933 22.6151 9.406C23.5684 8.878 24.6318 8.614 25.8051 8.614C26.9784 8.614 28.0418 8.878 28.9951 9.406C29.9484 9.91933 30.6964 10.6527 31.2391 11.606C31.7964 12.5593 32.0751 13.6593 32.0751 14.906C32.0751 16.1527 31.7891 17.2527 31.2171 18.206C30.6598 19.1593 29.8971 19.9 28.9291 20.428C27.9758 20.9413 26.9051 21.198 25.7171 21.198ZM25.7171 18.514C26.2744 18.514 26.7951 18.382 27.2791 18.118C27.7778 17.8393 28.1738 17.4287 28.4671 16.886C28.7604 16.3433 28.9071 15.6833 28.9071 14.906C28.9071 13.7473 28.5991 12.86 27.9831 12.244C27.3818 11.6133 26.6411 11.298 25.7611 11.298C24.8811 11.298 24.1404 11.6133 23.5391 12.244C22.9524 12.86 22.6591 13.7473 22.6591 14.906C22.6591 16.0647 22.9451 16.9593 23.5171 17.59C24.1038 18.206 24.8371 18.514 25.7171 18.514ZM39.4164 18.162L42.4964 8.812H45.7744L41.2644 21H37.5244L33.0364 8.812H36.3364L39.4164 18.162ZM58.8343 14.642C58.8343 15.082 58.805 15.478 58.7463 15.83H49.8363C49.9097 16.71 50.2177 17.3993 50.7603 17.898C51.303 18.3967 51.9703 18.646 52.7623 18.646C53.9063 18.646 54.7203 18.1547 55.2043 17.172H58.5263C58.1743 18.3453 57.4997 19.3133 56.5023 20.076C55.505 20.824 54.2803 21.198 52.8283 21.198C51.655 21.198 50.599 20.9413 49.6603 20.428C48.7363 19.9 48.0103 19.1593 47.4823 18.206C46.969 17.2527 46.7123 16.1527 46.7123 14.906C46.7123 13.6447 46.969 12.5373 47.4823 11.584C47.9957 10.6307 48.7143 9.89733 49.6383 9.384C50.5623 8.87067 51.6257 8.614 52.8283 8.614C53.987 8.614 55.021 8.86333 55.9303 9.362C56.8543 9.86067 57.5657 10.572 58.0643 11.496C58.5777 12.4053 58.8343 13.454 58.8343 14.642ZM55.6443 13.762C55.6297 12.97 55.3437 12.3393 54.7863 11.87C54.229 11.386 53.547 11.144 52.7403 11.144C51.9777 11.144 51.3323 11.3787 50.8043 11.848C50.291 12.3027 49.9757 12.9407 49.8583 13.762H55.6443ZM67.2266 11.804C67.9306 11.7453 68.4586 11.5547 68.8106 11.232C69.1773 10.9093 69.3606 10.4767 69.3606 9.934C69.3606 9.318 69.2946 8.43067 69.1626 7.272C69.016 5.89333 68.9426 4.88867 68.9426 4.258C68.9426 3.114 69.28 2.22667 69.9546 1.596C70.644 0.950666 71.5533 0.627999 72.6826 0.627999H74.2006V3.224H73.2766C72.3673 3.224 71.9126 3.65667 71.9126 4.522C71.9126 4.93267 71.9713 5.754 72.0886 6.986C72.1033 7.13267 72.14 7.55067 72.1986 8.24C72.2573 8.91467 72.2866 9.516 72.2866 10.044C72.2866 10.8213 72.096 11.4667 71.7146 11.98C71.3333 12.4933 70.754 12.8233 69.9766 12.97V13.014C70.754 13.1753 71.3333 13.5127 71.7146 14.026C72.096 14.5247 72.2866 15.17 72.2866 15.962C72.2866 16.4607 72.2573 17.0547 72.1986 17.744C72.14 18.4187 72.1033 18.844 72.0886 19.02C71.9713 20.252 71.9126 21.066 71.9126 21.462C71.9126 21.9167 72.0226 22.2467 72.2426 22.452C72.4626 22.6573 72.8073 22.76 73.2766 22.76H74.2006V25.378H72.6826C71.5533 25.378 70.644 25.0553 69.9546 24.41C69.28 23.7793 68.9426 22.892 68.9426 21.748C68.9426 21.1027 69.016 20.0907 69.1626 18.712C69.2946 17.5533 69.3606 16.6733 69.3606 16.072C69.3606 15.5293 69.1773 15.0967 68.8106 14.774C68.4586 14.4513 67.9306 14.2607 67.2266 14.202V11.804ZM76.7045 14.906C76.7045 13.6447 76.9612 12.5447 77.4745 11.606C77.9878 10.6527 78.6992 9.91933 79.6085 9.406C80.5178 8.878 81.5592 8.614 82.7325 8.614C84.2432 8.614 85.4898 8.99533 86.4725 9.758C87.4698 10.506 88.1372 11.562 88.4745 12.926H85.1525C84.9765 12.398 84.6758 11.9873 84.2505 11.694C83.8398 11.386 83.3265 11.232 82.7105 11.232C81.8305 11.232 81.1338 11.5547 80.6205 12.2C80.1072 12.8307 79.8505 13.7327 79.8505 14.906C79.8505 16.0647 80.1072 16.9667 80.6205 17.612C81.1338 18.2427 81.8305 18.558 82.7105 18.558C83.9572 18.558 84.7712 18.0007 85.1525 16.886H88.4745C88.1372 18.206 87.4698 19.2547 86.4725 20.032C85.4752 20.8093 84.2285 21.198 82.7325 21.198C81.5592 21.198 80.5178 20.9413 79.6085 20.428C78.6992 19.9 77.9878 19.1667 77.4745 18.228C76.9612 17.2747 76.7045 16.1673 76.7045 14.906ZM89.9389 14.862C89.9389 13.63 90.1809 12.5373 90.6649 11.584C91.1636 10.6307 91.8309 9.89733 92.6669 9.384C93.5176 8.87067 94.4636 8.614 95.5049 8.614C96.4142 8.614 97.2062 8.79733 97.8809 9.164C98.5702 9.53067 99.1202 9.99267 99.5309 10.55V8.812H102.633V21H99.5309V19.218C99.1349 19.79 98.5849 20.2667 97.8809 20.648C97.1916 21.0147 96.3922 21.198 95.4829 21.198C94.4562 21.198 93.5176 20.934 92.6669 20.406C91.8309 19.878 91.1636 19.1373 90.6649 18.184C90.1809 17.216 89.9389 16.1087 89.9389 14.862ZM99.5309 14.906C99.5309 14.158 99.3842 13.52 99.0909 12.992C98.7976 12.4493 98.4016 12.0387 97.9029 11.76C97.4042 11.4667 96.8689 11.32 96.2969 11.32C95.7249 11.32 95.1969 11.4593 94.7129 11.738C94.2289 12.0167 93.8329 12.4273 93.5249 12.97C93.2316 13.498 93.0849 14.1287 93.0849 14.862C93.0849 15.5953 93.2316 16.2407 93.5249 16.798C93.8329 17.3407 94.2289 17.7587 94.7129 18.052C95.2116 18.3453 95.7396 18.492 96.2969 18.492C96.8689 18.492 97.4042 18.3527 97.9029 18.074C98.4016 17.7807 98.7976 17.37 99.0909 16.842C99.3842 16.2993 99.5309 15.654 99.5309 14.906ZM112.395 8.636C113.847 8.636 115.02 9.098 115.915 10.022C116.81 10.9313 117.257 12.2073 117.257 13.85V21H114.177V14.268C114.177 13.3 113.935 12.5593 113.451 12.046C112.967 11.518 112.307 11.254 111.471 11.254C110.62 11.254 109.946 11.518 109.447 12.046C108.963 12.5593 108.721 13.3 108.721 14.268V21H105.641V8.812H108.721V10.33C109.132 9.802 109.652 9.39133 110.283 9.098C110.928 8.79 111.632 8.636 112.395 8.636ZM119.394 14.862C119.394 13.63 119.636 12.5373 120.12 11.584C120.619 10.6307 121.293 9.89733 122.144 9.384C122.995 8.87067 123.941 8.614 124.982 8.614C125.774 8.614 126.529 8.79 127.248 9.142C127.967 9.47933 128.539 9.934 128.964 10.506V4.72H132.088V21H128.964V19.196C128.583 19.7973 128.047 20.2813 127.358 20.648C126.669 21.0147 125.869 21.198 124.96 21.198C123.933 21.198 122.995 20.934 122.144 20.406C121.293 19.878 120.619 19.1373 120.12 18.184C119.636 17.216 119.394 16.1087 119.394 14.862ZM128.986 14.906C128.986 14.158 128.839 13.52 128.546 12.992C128.253 12.4493 127.857 12.0387 127.358 11.76C126.859 11.4667 126.324 11.32 125.752 11.32C125.18 11.32 124.652 11.4593 124.168 11.738C123.684 12.0167 123.288 12.4273 122.98 12.97C122.687 13.498 122.54 14.1287 122.54 14.862C122.54 15.5953 122.687 16.2407 122.98 16.798C123.288 17.3407 123.684 17.7587 124.168 18.052C124.667 18.3453 125.195 18.492 125.752 18.492C126.324 18.492 126.859 18.3527 127.358 18.074C127.857 17.7807 128.253 17.37 128.546 16.842C128.839 16.2993 128.986 15.654 128.986 14.906ZM136.658 7.36C136.115 7.36 135.661 7.19133 135.294 6.854C134.942 6.502 134.766 6.06933 134.766 5.556C134.766 5.04267 134.942 4.61733 135.294 4.28C135.661 3.928 136.115 3.752 136.658 3.752C137.201 3.752 137.648 3.928 138 4.28C138.367 4.61733 138.55 5.04267 138.55 5.556C138.55 6.06933 138.367 6.502 138 6.854C137.648 7.19133 137.201 7.36 136.658 7.36ZM138.176 8.812V21H135.096V8.812H138.176ZM140.427 14.862C140.427 13.63 140.669 12.5373 141.153 11.584C141.652 10.6307 142.327 9.89733 143.177 9.384C144.028 8.87067 144.974 8.614 146.015 8.614C146.807 8.614 147.563 8.79 148.281 9.142C149 9.47933 149.572 9.934 149.997 10.506V4.72H153.121V21H149.997V19.196C149.616 19.7973 149.081 20.2813 148.391 20.648C147.702 21.0147 146.903 21.198 145.993 21.198C144.967 21.198 144.028 20.934 143.177 20.406C142.327 19.878 141.652 19.1373 141.153 18.184C140.669 17.216 140.427 16.1087 140.427 14.862ZM150.019 14.906C150.019 14.158 149.873 13.52 149.579 12.992C149.286 12.4493 148.89 12.0387 148.391 11.76C147.893 11.4667 147.357 11.32 146.785 11.32C146.213 11.32 145.685 11.4593 145.201 11.738C144.717 12.0167 144.321 12.4273 144.013 12.97C143.72 13.498 143.573 14.1287 143.573 14.862C143.573 15.5953 143.72 16.2407 144.013 16.798C144.321 17.3407 144.717 17.7587 145.201 18.052C145.7 18.3453 146.228 18.492 146.785 18.492C147.357 18.492 147.893 18.3527 148.391 18.074C148.89 17.7807 149.286 17.37 149.579 16.842C149.873 16.2993 150.019 15.654 150.019 14.906ZM155.337 14.862C155.337 13.63 155.579 12.5373 156.063 11.584C156.562 10.6307 157.229 9.89733 158.065 9.384C158.916 8.87067 159.862 8.614 160.903 8.614C161.813 8.614 162.605 8.79733 163.279 9.164C163.969 9.53067 164.519 9.99267 164.929 10.55V8.812H168.031V21H164.929V19.218C164.533 19.79 163.983 20.2667 163.279 20.648C162.59 21.0147 161.791 21.198 160.881 21.198C159.855 21.198 158.916 20.934 158.065 20.406C157.229 19.878 156.562 19.1373 156.063 18.184C155.579 17.216 155.337 16.1087 155.337 14.862ZM164.929 14.906C164.929 14.158 164.783 13.52 164.489 12.992C164.196 12.4493 163.8 12.0387 163.301 11.76C162.803 11.4667 162.267 11.32 161.695 11.32C161.123 11.32 160.595 11.4593 160.111 11.738C159.627 12.0167 159.231 12.4273 158.923 12.97C158.63 13.498 158.483 14.1287 158.483 14.862C158.483 15.5953 158.63 16.2407 158.923 16.798C159.231 17.3407 159.627 17.7587 160.111 18.052C160.61 18.3453 161.138 18.492 161.695 18.492C162.267 18.492 162.803 18.3527 163.301 18.074C163.8 17.7807 164.196 17.37 164.489 16.842C164.783 16.2993 164.929 15.654 164.929 14.906ZM174.625 11.342V17.238C174.625 17.6487 174.721 17.9493 174.911 18.14C175.117 18.316 175.454 18.404 175.923 18.404H177.353V21H175.417C172.821 21 171.523 19.7387 171.523 17.216V11.342H170.071V8.812H171.523V5.798H174.625V8.812H177.353V11.342H174.625ZM193.319 21.88V24.806H180.405V21.88H193.319ZM210.084 21H207.004L200.03 10.462V21H196.95V5.622H200.03L207.004 16.182V5.622H210.084V21ZM212.335 14.862C212.335 13.63 212.577 12.5373 213.061 11.584C213.56 10.6307 214.227 9.89733 215.063 9.384C215.914 8.87067 216.86 8.614 217.901 8.614C218.811 8.614 219.603 8.79733 220.277 9.164C220.967 9.53067 221.517 9.99267 221.927 10.55V8.812H225.029V21H221.927V19.218C221.531 19.79 220.981 20.2667 220.277 20.648C219.588 21.0147 218.789 21.198 217.879 21.198C216.853 21.198 215.914 20.934 215.063 20.406C214.227 19.878 213.56 19.1373 213.061 18.184C212.577 17.216 212.335 16.1087 212.335 14.862ZM221.927 14.906C221.927 14.158 221.781 13.52 221.487 12.992C221.194 12.4493 220.798 12.0387 220.299 11.76C219.801 11.4667 219.265 11.32 218.693 11.32C218.121 11.32 217.593 11.4593 217.109 11.738C216.625 12.0167 216.229 12.4273 215.921 12.97C215.628 13.498 215.481 14.1287 215.481 14.862C215.481 15.5953 215.628 16.2407 215.921 16.798C216.229 17.3407 216.625 17.7587 217.109 18.052C217.608 18.3453 218.136 18.492 218.693 18.492C219.265 18.492 219.801 18.3527 220.299 18.074C220.798 17.7807 221.194 17.37 221.487 16.842C221.781 16.2993 221.927 15.654 221.927 14.906ZM243.174 8.636C244.67 8.636 245.872 9.098 246.782 10.022C247.706 10.9313 248.168 12.2073 248.168 13.85V21H245.088V14.268C245.088 13.3147 244.846 12.5887 244.362 12.09C243.878 11.5767 243.218 11.32 242.382 11.32C241.546 11.32 240.878 11.5767 240.38 12.09C239.896 12.5887 239.654 13.3147 239.654 14.268V21H236.574V14.268C236.574 13.3147 236.332 12.5887 235.848 12.09C235.364 11.5767 234.704 11.32 233.868 11.32C233.017 11.32 232.342 11.5767 231.844 12.09C231.36 12.5887 231.118 13.3147 231.118 14.268V21H228.038V8.812H231.118V10.286C231.514 9.77267 232.02 9.36933 232.636 9.076C233.266 8.78267 233.956 8.636 234.704 8.636C235.657 8.636 236.508 8.84133 237.256 9.252C238.004 9.648 238.583 10.22 238.994 10.968C239.39 10.264 239.962 9.69933 240.71 9.274C241.472 8.84867 242.294 8.636 243.174 8.636ZM262.42 14.642C262.42 15.082 262.391 15.478 262.332 15.83H253.422C253.496 16.71 253.804 17.3993 254.346 17.898C254.889 18.3967 255.556 18.646 256.348 18.646C257.492 18.646 258.306 18.1547 258.79 17.172H262.112C261.76 18.3453 261.086 19.3133 260.088 20.076C259.091 20.824 257.866 21.198 256.414 21.198C255.241 21.198 254.185 20.9413 253.246 20.428C252.322 19.9 251.596 19.1593 251.068 18.206C250.555 17.2527 250.298 16.1527 250.298 14.906C250.298 13.6447 250.555 12.5373 251.068 11.584C251.582 10.6307 252.3 9.89733 253.224 9.384C254.148 8.87067 255.212 8.614 256.414 8.614C257.573 8.614 258.607 8.86333 259.516 9.362C260.44 9.86067 261.152 10.572 261.65 11.496C262.164 12.4053 262.42 13.454 262.42 14.642ZM259.23 13.762C259.216 12.97 258.93 12.3393 258.372 11.87C257.815 11.386 257.133 11.144 256.326 11.144C255.564 11.144 254.918 11.3787 254.39 11.848C253.877 12.3027 253.562 12.9407 253.444 13.762H259.23ZM271.906 14.202C271.202 14.2607 270.667 14.4513 270.3 14.774C269.948 15.0967 269.772 15.5293 269.772 16.072C269.772 16.6733 269.838 17.5533 269.97 18.712C270.117 20.0907 270.19 21.1027 270.19 21.748C270.19 22.892 269.846 23.7793 269.156 24.41C268.482 25.0553 267.58 25.378 266.45 25.378H264.932V22.76H265.856C266.326 22.76 266.67 22.6573 266.89 22.452C267.11 22.2467 267.22 21.9167 267.22 21.462C267.22 21.066 267.162 20.252 267.044 19.02C267.03 18.844 266.993 18.4187 266.934 17.744C266.876 17.0547 266.846 16.4607 266.846 15.962C266.846 15.17 267.037 14.5247 267.418 14.026C267.8 13.5127 268.379 13.1753 269.156 13.014V12.97C268.379 12.8233 267.8 12.4933 267.418 11.98C267.037 11.4667 266.846 10.8213 266.846 10.044C266.846 9.516 266.876 8.91467 266.934 8.24C266.993 7.55067 267.03 7.13267 267.044 6.986C267.162 5.754 267.22 4.93267 267.22 4.522C267.22 3.65667 266.766 3.224 265.856 3.224H264.932V0.627999H266.45C267.58 0.627999 268.482 0.950666 269.156 1.596C269.846 2.22667 270.19 3.114 270.19 4.258C270.19 4.88867 270.117 5.89333 269.97 7.272C269.838 8.43067 269.772 9.318 269.772 9.934C269.772 10.4767 269.948 10.9093 270.3 11.232C270.667 11.5547 271.202 11.7453 271.906 11.804V14.202ZM284.668 11.342V17.238C284.668 17.6487 284.764 17.9493 284.954 18.14C285.16 18.316 285.497 18.404 285.966 18.404H287.396V21H285.46C282.864 21 281.566 19.7387 281.566 17.216V11.342H280.114V8.812H281.566V5.798H284.668V8.812H287.396V11.342H284.668ZM295.024 21.198C293.85 21.198 292.794 20.9413 291.856 20.428C290.917 19.9 290.176 19.1593 289.634 18.206C289.106 17.2527 288.842 16.1527 288.842 14.906C288.842 13.6593 289.113 12.5593 289.656 11.606C290.213 10.6527 290.968 9.91933 291.922 9.406C292.875 8.878 293.938 8.614 295.112 8.614C296.285 8.614 297.348 8.878 298.302 9.406C299.255 9.91933 300.003 10.6527 300.546 11.606C301.103 12.5593 301.382 13.6593 301.382 14.906C301.382 16.1527 301.096 17.2527 300.524 18.206C299.966 19.1593 299.204 19.9 298.236 20.428C297.282 20.9413 296.212 21.198 295.024 21.198ZM295.024 18.514C295.581 18.514 296.102 18.382 296.586 18.118C297.084 17.8393 297.48 17.4287 297.774 16.886C298.067 16.3433 298.214 15.6833 298.214 14.906C298.214 13.7473 297.906 12.86 297.29 12.244C296.688 11.6133 295.948 11.298 295.068 11.298C294.188 11.298 293.447 11.6133 292.846 12.244C292.259 12.86 291.966 13.7473 291.966 14.906C291.966 16.0647 292.252 16.9593 292.824 17.59C293.41 18.206 294.144 18.514 295.024 18.514Z" fill="black"/>
<path d="M318.299 18.074H312.183L311.171 21H307.937L313.459 5.622H317.045L322.567 21H319.311L318.299 18.074ZM317.463 15.61L315.241 9.186L313.019 15.61H317.463ZM332.551 21L329.163 15.016H327.711V21H324.631V5.644H330.395C331.583 5.644 332.595 5.85667 333.431 6.282C334.267 6.69267 334.891 7.25733 335.301 7.976C335.727 8.68 335.939 9.472 335.939 10.352C335.939 11.364 335.646 12.2807 335.059 13.102C334.473 13.9087 333.6 14.466 332.441 14.774L336.115 21H332.551ZM327.711 12.706H330.285C331.121 12.706 331.745 12.508 332.155 12.112C332.566 11.7013 332.771 11.1367 332.771 10.418C332.771 9.714 332.566 9.17133 332.155 8.79C331.745 8.394 331.121 8.196 330.285 8.196H327.711V12.706ZM337.977 13.3C337.977 11.7893 338.314 10.44 338.989 9.252C339.678 8.04933 340.61 7.118 341.783 6.458C342.971 5.78333 344.298 5.446 345.765 5.446C347.481 5.446 348.984 5.886 350.275 6.766C351.566 7.646 352.468 8.86333 352.981 10.418H349.439C349.087 9.68467 348.588 9.13467 347.943 8.768C347.312 8.40133 346.579 8.218 345.743 8.218C344.848 8.218 344.049 8.43067 343.345 8.856C342.656 9.26667 342.113 9.85333 341.717 10.616C341.336 11.3787 341.145 12.2733 341.145 13.3C341.145 14.312 341.336 15.2067 341.717 15.984C342.113 16.7467 342.656 17.3407 343.345 17.766C344.049 18.1767 344.848 18.382 345.743 18.382C346.579 18.382 347.312 18.1987 347.943 17.832C348.588 17.4507 349.087 16.8933 349.439 16.16H352.981C352.468 17.7293 351.566 18.954 350.275 19.834C348.999 20.6993 347.496 21.132 345.765 21.132C344.298 21.132 342.971 20.802 341.783 20.142C340.61 19.4673 339.678 18.536 338.989 17.348C338.314 16.16 337.977 14.8107 337.977 13.3ZM368.35 5.644V21H365.27V14.466H358.692V21H355.612V5.644H358.692V11.958H365.27V5.644H368.35ZM374.461 5.644V21H371.381V5.644H374.461ZM391.298 5.644L385.666 21H381.926L376.294 5.644H379.594L383.818 17.854L388.02 5.644H391.298ZM396.225 8.13V11.98H401.395V14.422H396.225V18.492H402.055V21H393.145V5.622H402.055V8.13H396.225ZM410.222 5.644C411.835 5.644 413.251 5.95933 414.468 6.59C415.7 7.22067 416.646 8.12267 417.306 9.296C417.981 10.4547 418.318 11.804 418.318 13.344C418.318 14.884 417.981 16.2333 417.306 17.392C416.646 18.536 415.7 19.4233 414.468 20.054C413.251 20.6847 411.835 21 410.222 21H404.854V5.644H410.222ZM410.112 18.382C411.725 18.382 412.972 17.942 413.852 17.062C414.732 16.182 415.172 14.9427 415.172 13.344C415.172 11.7453 414.732 10.4987 413.852 9.604C412.972 8.69467 411.725 8.24 410.112 8.24H407.934V18.382H410.112Z" fill="#FF0000"/>
</svg>
