<svg width="513" height="41" viewBox="0 0 513 41" fill="none" xmlns="http://www.w3.org/2000/svg">
<path d="M6.955 13H6.37L2.457 4.836L1.014 13H0.429L2.041 3.887H2.626L6.552 12.025L7.982 3.887H8.567L6.955 13ZM12.2199 13.104C11.3359 13.104 10.6252 12.8483 10.0879 12.337C9.55923 11.8257 9.2949 11.1323 9.2949 10.257C9.2949 9.45967 9.47257 8.723 9.8279 8.047C10.1919 7.371 10.6946 6.838 11.3359 6.448C11.9772 6.04933 12.6922 5.85 13.4809 5.85C14.0529 5.85 14.5599 5.967 15.0019 6.201C15.4439 6.42633 15.7862 6.75567 16.0289 7.189C16.2802 7.61367 16.4059 8.11633 16.4059 8.697C16.4059 9.49433 16.2239 10.231 15.8599 10.907C15.4959 11.583 14.9932 12.1203 14.3519 12.519C13.7192 12.909 13.0086 13.104 12.2199 13.104ZM12.2979 12.597C12.9739 12.597 13.5762 12.4193 14.1049 12.064C14.6422 11.7087 15.0582 11.2363 15.3529 10.647C15.6562 10.0577 15.8079 9.41633 15.8079 8.723C15.8079 7.95167 15.5782 7.36233 15.1189 6.955C14.6596 6.54767 14.0832 6.344 13.3899 6.344C12.7052 6.344 12.0986 6.52167 11.5699 6.877C11.0412 7.23233 10.6296 7.709 10.3349 8.307C10.0402 8.89633 9.8929 9.53333 9.8929 10.218C9.8929 10.9893 10.1182 11.5787 10.5689 11.986C11.0282 12.3933 11.6046 12.597 12.2979 12.597ZM18.6878 11.115C18.6531 11.2883 18.6358 11.4617 18.6358 11.635C18.6358 11.947 18.7225 12.168 18.8958 12.298C19.0691 12.4193 19.3551 12.48 19.7538 12.48H20.5338L20.4428 13H19.5588C19.0388 13 18.6531 12.9003 18.4018 12.701C18.1591 12.5017 18.0378 12.1723 18.0378 11.713C18.0378 11.5137 18.0551 11.3143 18.0898 11.115L18.9218 6.448H17.8558L17.9468 5.941H19.0128L19.3248 4.147H19.9228L19.6108 5.941H21.6908L21.5998 6.448H19.5198L18.6878 11.115ZM26.3146 5.85C26.9126 5.85 27.4196 5.967 27.8356 6.201C28.2603 6.42633 28.5766 6.734 28.7846 7.124C29.0013 7.50533 29.1096 7.93433 29.1096 8.411C29.1096 8.619 29.0923 8.80967 29.0576 8.983C29.0056 9.295 28.9536 9.529 28.9016 9.685H22.8046C22.77 9.96233 22.7526 10.1617 22.7526 10.283C22.7526 11.0283 22.978 11.6003 23.4286 11.999C23.8793 12.3977 24.447 12.597 25.1316 12.597C25.8163 12.597 26.423 12.428 26.9516 12.09C27.489 11.7433 27.8703 11.2753 28.0956 10.686H28.7066C28.4293 11.4053 27.9656 11.9903 27.3156 12.441C26.6743 12.883 25.916 13.104 25.0406 13.104C24.174 13.104 23.4763 12.8527 22.9476 12.35C22.4276 11.8473 22.1676 11.1627 22.1676 10.296C22.1676 10.0273 22.1936 9.75 22.2456 9.464C22.3756 8.72733 22.6356 8.086 23.0256 7.54C23.4156 6.994 23.8923 6.578 24.4556 6.292C25.0276 5.99733 25.6473 5.85 26.3146 5.85ZM28.4336 9.23C28.4943 8.97867 28.5246 8.723 28.5246 8.463C28.5246 7.77833 28.3036 7.254 27.8616 6.89C27.4283 6.526 26.878 6.344 26.2106 6.344C25.7166 6.344 25.24 6.45233 24.7806 6.669C24.3213 6.88567 23.9226 7.21067 23.5846 7.644C23.2466 8.07733 23.0126 8.606 22.8826 9.23H28.4336ZM37.6238 13.039C37.5025 13.039 37.4028 13.0043 37.3248 12.935C37.2468 12.857 37.2078 12.7573 37.2078 12.636C37.2078 12.4627 37.2685 12.3197 37.3898 12.207C37.5112 12.0857 37.6542 12.025 37.8188 12.025C37.9402 12.025 38.0398 12.064 38.1178 12.142C38.1958 12.2113 38.2348 12.3067 38.2348 12.428C38.2348 12.6013 38.1742 12.7487 38.0528 12.87C37.9315 12.9827 37.7885 13.039 37.6238 13.039ZM37.6238 7.267C37.5025 7.267 37.4028 7.23233 37.3248 7.163C37.2468 7.085 37.2078 6.98533 37.2078 6.864C37.2078 6.69067 37.2685 6.54767 37.3898 6.435C37.5112 6.31367 37.6542 6.253 37.8188 6.253C37.9402 6.253 38.0398 6.292 38.1178 6.37C38.1958 6.43933 38.2348 6.53467 38.2348 6.656C38.2348 6.82933 38.1742 6.97667 38.0528 7.098C37.9315 7.21067 37.7885 7.267 37.6238 7.267ZM50.1475 3.874L50.0565 4.355H47.4565L45.9355 13H45.3505L46.8715 4.355H44.2715L44.3625 3.874H50.1475ZM54.413 5.798C55.115 5.798 55.6827 5.993 56.116 6.383C56.5494 6.76433 56.766 7.332 56.766 8.086C56.766 8.32 56.74 8.58 56.688 8.866L55.96 13H55.388L56.116 8.905C56.1594 8.62767 56.181 8.398 56.181 8.216C56.181 7.592 56.0077 7.11967 55.661 6.799C55.3144 6.46967 54.829 6.305 54.205 6.305C53.4424 6.305 52.7924 6.552 52.255 7.046C51.7177 7.53133 51.3624 8.24633 51.189 9.191V9.178L50.513 13H49.928L51.631 3.38H52.216L51.501 7.449C51.7957 6.91167 52.1987 6.50433 52.71 6.227C53.23 5.941 53.7977 5.798 54.413 5.798ZM59.8476 4.368C59.7263 4.368 59.6266 4.33333 59.5486 4.264C59.4706 4.186 59.4316 4.08633 59.4316 3.965C59.4316 3.79167 59.4923 3.64867 59.6136 3.536C59.735 3.41467 59.8736 3.354 60.0296 3.354C60.151 3.354 60.2506 3.393 60.3286 3.471C60.4153 3.549 60.4586 3.64867 60.4586 3.77C60.4586 3.94333 60.3936 4.08633 60.2636 4.199C60.1423 4.31167 60.0036 4.368 59.8476 4.368ZM59.8736 5.941L58.6126 13H58.0276L59.2886 5.941H59.8736ZM62.9801 13.104C62.2521 13.104 61.6715 12.9307 61.2381 12.584C60.8135 12.2373 60.6271 11.7433 60.6791 11.102H61.2641C61.2208 11.5613 61.3508 11.9297 61.6541 12.207C61.9661 12.4757 62.4211 12.61 63.0191 12.61C63.6345 12.61 64.1241 12.4757 64.4881 12.207C64.8521 11.9297 65.0341 11.5743 65.0341 11.141C65.0341 10.881 64.9605 10.6643 64.8131 10.491C64.6658 10.3177 64.4838 10.179 64.2671 10.075C64.0505 9.971 63.7471 9.84967 63.3571 9.711C62.9238 9.56367 62.5685 9.42067 62.2911 9.282C62.0225 9.14333 61.7928 8.95267 61.6021 8.71C61.4201 8.45867 61.3291 8.14233 61.3291 7.761C61.3291 7.38833 61.4375 7.059 61.6541 6.773C61.8708 6.47833 62.1698 6.253 62.5511 6.097C62.9325 5.93233 63.3571 5.85 63.8251 5.85C64.4751 5.85 65.0168 6.019 65.4501 6.357C65.8835 6.68633 66.1001 7.124 66.1001 7.67C66.1001 7.78267 66.0958 7.86933 66.0871 7.93H65.5151C65.5238 7.88667 65.5281 7.81733 65.5281 7.722C65.5281 7.306 65.3591 6.97233 65.0211 6.721C64.6918 6.461 64.2758 6.331 63.7731 6.331C63.2358 6.331 62.7895 6.461 62.4341 6.721C62.0875 6.97233 61.9141 7.31467 61.9141 7.748C61.9141 8.034 61.9921 8.27233 62.1481 8.463C62.3041 8.645 62.4948 8.79233 62.7201 8.905C62.9541 9.009 63.2661 9.13033 63.6561 9.269C64.0895 9.41633 64.4318 9.555 64.6831 9.685C64.9431 9.815 65.1641 9.997 65.3461 10.231C65.5281 10.465 65.6191 10.764 65.6191 11.128C65.6191 11.7347 65.3721 12.2157 64.8781 12.571C64.3928 12.9263 63.7601 13.104 62.9801 13.104ZM71.2876 9.464C71.4176 8.736 71.6733 8.099 72.0546 7.553C72.4446 7.007 72.9256 6.58667 73.4976 6.292C74.0696 5.99733 74.685 5.85 75.3436 5.85C76.0803 5.85 76.674 6.032 77.1246 6.396C77.584 6.76 77.87 7.22367 77.9826 7.787L78.3076 5.941H78.8926L77.6316 13H77.0596L77.3846 11.141C77.0813 11.713 76.635 12.1853 76.0456 12.558C75.4563 12.922 74.789 13.104 74.0436 13.104C73.1856 13.104 72.4966 12.8527 71.9766 12.35C71.4653 11.8387 71.2096 11.1497 71.2096 10.283C71.2096 10.023 71.2356 9.75 71.2876 9.464ZM77.6836 9.464C77.727 9.204 77.7486 8.97433 77.7486 8.775C77.7486 8.03833 77.5276 7.45333 77.0856 7.02C76.6436 6.578 76.0586 6.357 75.3306 6.357C74.7586 6.357 74.23 6.48267 73.7446 6.734C73.268 6.97667 72.865 7.332 72.5356 7.8C72.215 8.268 71.9983 8.82267 71.8856 9.464C71.8423 9.75 71.8206 9.99267 71.8206 10.192C71.8206 10.946 72.033 11.5353 72.4576 11.96C72.891 12.376 73.4803 12.584 74.2256 12.584C74.7716 12.584 75.2873 12.4583 75.7726 12.207C76.2666 11.947 76.6783 11.583 77.0076 11.115C77.3456 10.6383 77.571 10.088 77.6836 9.464ZM80.0347 9.464C80.1647 8.72733 80.4247 8.086 80.8147 7.54C81.2047 6.994 81.6814 6.578 82.2447 6.292C82.8167 5.99733 83.432 5.85 84.0907 5.85C84.9747 5.85 85.6594 6.071 86.1447 6.513C86.6387 6.955 86.89 7.54867 86.8987 8.294H86.2877C86.279 7.696 86.0667 7.22367 85.6507 6.877C85.2434 6.52167 84.693 6.344 83.9997 6.344C83.4884 6.344 82.9987 6.461 82.5307 6.695C82.0627 6.92033 81.6597 7.27133 81.3217 7.748C80.9837 8.216 80.754 8.788 80.6327 9.464C80.5807 9.73267 80.5547 9.99267 80.5547 10.244C80.5547 11.0067 80.7714 11.5917 81.2047 11.999C81.6467 12.3977 82.21 12.597 82.8947 12.597C83.588 12.597 84.199 12.4237 84.7277 12.077C85.265 11.7303 85.6464 11.2537 85.8717 10.647H86.4957C86.2184 11.3923 85.7547 11.9903 85.1047 12.441C84.4547 12.883 83.6877 13.104 82.8037 13.104C81.937 13.104 81.2437 12.857 80.7237 12.363C80.2124 11.8603 79.9567 11.1757 79.9567 10.309C79.9567 10.0403 79.9827 9.75867 80.0347 9.464ZM89.0579 11.115C89.0233 11.2883 89.0059 11.4617 89.0059 11.635C89.0059 11.947 89.0926 12.168 89.2659 12.298C89.4393 12.4193 89.7253 12.48 90.1239 12.48H90.9039L90.8129 13H89.9289C89.4089 13 89.0233 12.9003 88.7719 12.701C88.5293 12.5017 88.4079 12.1723 88.4079 11.713C88.4079 11.5137 88.4253 11.3143 88.4599 11.115L89.2919 6.448H88.2259L88.3169 5.941H89.3829L89.6949 4.147H90.2929L89.9809 5.941H92.0609L91.9699 6.448H89.8899L89.0579 11.115ZM94.1758 4.368C94.0544 4.368 93.9548 4.33333 93.8768 4.264C93.7988 4.186 93.7598 4.08633 93.7598 3.965C93.7598 3.79167 93.8204 3.64867 93.9418 3.536C94.0631 3.41467 94.2018 3.354 94.3578 3.354C94.4791 3.354 94.5788 3.393 94.6568 3.471C94.7434 3.549 94.7868 3.64867 94.7868 3.77C94.7868 3.94333 94.7218 4.08633 94.5918 4.199C94.4704 4.31167 94.3318 4.368 94.1758 4.368ZM94.2018 5.941L92.9408 13H92.3558L93.6168 5.941H94.2018ZM98.2053 13.104C97.3213 13.104 96.6106 12.8483 96.0733 12.337C95.5446 11.8257 95.2803 11.1323 95.2803 10.257C95.2803 9.45967 95.4579 8.723 95.8133 8.047C96.1773 7.371 96.6799 6.838 97.3213 6.448C97.9626 6.04933 98.6776 5.85 99.4663 5.85C100.038 5.85 100.545 5.967 100.987 6.201C101.429 6.42633 101.772 6.75567 102.014 7.189C102.266 7.61367 102.391 8.11633 102.391 8.697C102.391 9.49433 102.209 10.231 101.845 10.907C101.481 11.583 100.979 12.1203 100.337 12.519C99.7046 12.909 98.9939 13.104 98.2053 13.104ZM98.2833 12.597C98.9593 12.597 99.5616 12.4193 100.09 12.064C100.628 11.7087 101.044 11.2363 101.338 10.647C101.642 10.0577 101.793 9.41633 101.793 8.723C101.793 7.95167 101.564 7.36233 101.104 6.955C100.645 6.54767 100.069 6.344 99.3753 6.344C98.6906 6.344 98.0839 6.52167 97.5553 6.877C97.0266 7.23233 96.6149 7.709 96.3203 8.307C96.0256 8.89633 95.8783 9.53333 95.8783 10.218C95.8783 10.9893 96.1036 11.5787 96.5543 11.986C97.0136 12.3933 97.5899 12.597 98.2833 12.597ZM107.923 5.798C108.642 5.798 109.219 5.993 109.652 6.383C110.085 6.76433 110.302 7.332 110.302 8.086C110.302 8.32 110.276 8.58 110.224 8.866L109.496 13H108.924L109.652 8.905C109.695 8.62767 109.717 8.398 109.717 8.216C109.717 7.592 109.544 7.11967 109.197 6.799C108.85 6.46967 108.365 6.305 107.741 6.305C107.013 6.305 106.385 6.53033 105.856 6.981C105.327 7.43167 104.963 8.09467 104.764 8.97L104.049 13H103.464L104.725 5.941H105.31L105.05 7.423C105.345 6.89433 105.743 6.49133 106.246 6.214C106.757 5.93667 107.316 5.798 107.923 5.798ZM125.85 5.941L122.379 13H121.82L120.676 6.734L117.309 13H116.75L115.788 5.941H116.399L117.179 12.259L120.546 5.941H121.118L122.236 12.259L125.252 5.941H125.85ZM127.704 4.368C127.583 4.368 127.483 4.33333 127.405 4.264C127.327 4.186 127.288 4.08633 127.288 3.965C127.288 3.79167 127.349 3.64867 127.47 3.536C127.591 3.41467 127.73 3.354 127.886 3.354C128.007 3.354 128.107 3.393 128.185 3.471C128.272 3.549 128.315 3.64867 128.315 3.77C128.315 3.94333 128.25 4.08633 128.12 4.199C127.999 4.31167 127.86 4.368 127.704 4.368ZM127.73 5.941L126.469 13H125.884L127.145 5.941H127.73ZM130.902 3.38L129.199 13H128.614L130.317 3.38H130.902ZM133.631 3.38L131.928 13H131.343L133.046 3.38H133.631ZM138.141 9.464C138.271 8.736 138.527 8.099 138.908 7.553C139.298 7.007 139.779 6.58667 140.351 6.292C140.923 5.99733 141.538 5.85 142.197 5.85C142.934 5.85 143.527 6.032 143.978 6.396C144.437 6.76 144.723 7.22367 144.836 7.787L145.161 5.941H145.746L144.485 13H143.913L144.238 11.141C143.935 11.713 143.488 12.1853 142.899 12.558C142.31 12.922 141.642 13.104 140.897 13.104C140.039 13.104 139.35 12.8527 138.83 12.35C138.319 11.8387 138.063 11.1497 138.063 10.283C138.063 10.023 138.089 9.75 138.141 9.464ZM144.537 9.464C144.58 9.204 144.602 8.97433 144.602 8.775C144.602 8.03833 144.381 7.45333 143.939 7.02C143.497 6.578 142.912 6.357 142.184 6.357C141.612 6.357 141.083 6.48267 140.598 6.734C140.121 6.97667 139.718 7.332 139.389 7.8C139.068 8.268 138.852 8.82267 138.739 9.464C138.696 9.75 138.674 9.99267 138.674 10.192C138.674 10.946 138.886 11.5353 139.311 11.96C139.744 12.376 140.334 12.584 141.079 12.584C141.625 12.584 142.141 12.4583 142.626 12.207C143.12 11.947 143.532 11.583 143.861 11.115C144.199 10.6383 144.424 10.088 144.537 9.464ZM153.843 5.941L152.595 13H152.01L152.283 11.479C151.989 12.0077 151.586 12.415 151.074 12.701C150.563 12.9783 150.008 13.117 149.41 13.117C148.691 13.117 148.11 12.9263 147.668 12.545C147.235 12.155 147.018 11.5787 147.018 10.816C147.018 10.53 147.04 10.2743 147.083 10.049L147.824 5.941H148.396L147.668 10.01C147.625 10.2873 147.603 10.5127 147.603 10.686C147.603 11.3187 147.777 11.7997 148.123 12.129C148.47 12.4497 148.955 12.61 149.579 12.61C150.342 12.61 150.992 12.3673 151.529 11.882C152.075 11.388 152.426 10.6687 152.582 9.724V9.763L153.258 5.941H153.843ZM155.937 11.115C155.902 11.2883 155.885 11.4617 155.885 11.635C155.885 11.947 155.971 12.168 156.145 12.298C156.318 12.4193 156.604 12.48 157.003 12.48H157.783L157.692 13H156.808C156.288 13 155.902 12.9003 155.651 12.701C155.408 12.5017 155.287 12.1723 155.287 11.713C155.287 11.5137 155.304 11.3143 155.339 11.115L156.171 6.448H155.105L155.196 5.941H156.262L156.574 4.147H157.172L156.86 5.941H158.94L158.849 6.448H156.769L155.937 11.115ZM162.355 13.104C161.471 13.104 160.76 12.8483 160.223 12.337C159.694 11.8257 159.43 11.1323 159.43 10.257C159.43 9.45967 159.607 8.723 159.963 8.047C160.327 7.371 160.829 6.838 161.471 6.448C162.112 6.04933 162.827 5.85 163.616 5.85C164.188 5.85 164.695 5.967 165.137 6.201C165.579 6.42633 165.921 6.75567 166.164 7.189C166.415 7.61367 166.541 8.11633 166.541 8.697C166.541 9.49433 166.359 10.231 165.995 10.907C165.631 11.583 165.128 12.1203 164.487 12.519C163.854 12.909 163.143 13.104 162.355 13.104ZM162.433 12.597C163.109 12.597 163.711 12.4193 164.24 12.064C164.777 11.7087 165.193 11.2363 165.488 10.647C165.791 10.0577 165.943 9.41633 165.943 8.723C165.943 7.95167 165.713 7.36233 165.254 6.955C164.794 6.54767 164.218 6.344 163.525 6.344C162.84 6.344 162.233 6.52167 161.705 6.877C161.176 7.23233 160.764 7.709 160.47 8.307C160.175 8.89633 160.028 9.53333 160.028 10.218C160.028 10.9893 160.253 11.5787 160.704 11.986C161.163 12.3933 161.739 12.597 162.433 12.597ZM177.234 5.798C177.927 5.798 178.482 5.993 178.898 6.383C179.314 6.76433 179.522 7.332 179.522 8.086C179.522 8.32 179.496 8.58 179.444 8.866L178.703 13H178.131L178.859 8.905C178.902 8.68833 178.924 8.44567 178.924 8.177C178.924 7.57033 178.759 7.10667 178.43 6.786C178.109 6.46533 177.654 6.305 177.065 6.305C176.337 6.305 175.704 6.55633 175.167 7.059C174.638 7.56167 174.291 8.28967 174.127 9.243V9.23L173.451 13H172.879L173.607 8.905C173.65 8.68833 173.672 8.44567 173.672 8.177C173.672 7.57033 173.507 7.10667 173.178 6.786C172.857 6.46533 172.402 6.305 171.813 6.305C171.085 6.305 170.452 6.55633 169.915 7.059C169.386 7.56167 169.039 8.28967 168.875 9.243V9.217L168.199 13H167.614L168.875 5.941H169.46L169.187 7.449C169.49 6.903 169.889 6.49133 170.383 6.214C170.877 5.93667 171.41 5.798 171.982 5.798C172.623 5.798 173.143 5.96267 173.542 6.292C173.949 6.62133 174.183 7.111 174.244 7.761C174.53 7.11967 174.941 6.63433 175.479 6.305C176.016 5.967 176.601 5.798 177.234 5.798ZM181.039 9.464C181.169 8.736 181.424 8.099 181.806 7.553C182.196 7.007 182.677 6.58667 183.249 6.292C183.821 5.99733 184.436 5.85 185.095 5.85C185.831 5.85 186.425 6.032 186.876 6.396C187.335 6.76 187.621 7.22367 187.734 7.787L188.059 5.941H188.644L187.383 13H186.811L187.136 11.141C186.832 11.713 186.386 12.1853 185.797 12.558C185.207 12.922 184.54 13.104 183.795 13.104C182.937 13.104 182.248 12.8527 181.728 12.35C181.216 11.8387 180.961 11.1497 180.961 10.283C180.961 10.023 180.987 9.75 181.039 9.464ZM187.435 9.464C187.478 9.204 187.5 8.97433 187.5 8.775C187.5 8.03833 187.279 7.45333 186.837 7.02C186.395 6.578 185.81 6.357 185.082 6.357C184.51 6.357 183.981 6.48267 183.496 6.734C183.019 6.97667 182.616 7.332 182.287 7.8C181.966 8.268 181.749 8.82267 181.637 9.464C181.593 9.75 181.572 9.99267 181.572 10.192C181.572 10.946 181.784 11.5353 182.209 11.96C182.642 12.376 183.231 12.584 183.977 12.584C184.523 12.584 185.038 12.4583 185.524 12.207C186.018 11.947 186.429 11.583 186.759 11.115C187.097 10.6383 187.322 10.088 187.435 9.464ZM190.735 11.115C190.7 11.2883 190.683 11.4617 190.683 11.635C190.683 11.947 190.769 12.168 190.943 12.298C191.116 12.4193 191.402 12.48 191.801 12.48H192.581L192.49 13H191.606C191.086 13 190.7 12.9003 190.449 12.701C190.206 12.5017 190.085 12.1723 190.085 11.713C190.085 11.5137 190.102 11.3143 190.137 11.115L190.969 6.448H189.903L189.994 5.941H191.06L191.372 4.147H191.97L191.658 5.941H193.738L193.647 6.448H191.567L190.735 11.115ZM195.853 4.368C195.731 4.368 195.632 4.33333 195.554 4.264C195.476 4.186 195.437 4.08633 195.437 3.965C195.437 3.79167 195.497 3.64867 195.619 3.536C195.74 3.41467 195.879 3.354 196.035 3.354C196.156 3.354 196.256 3.393 196.334 3.471C196.42 3.549 196.464 3.64867 196.464 3.77C196.464 3.94333 196.399 4.08633 196.269 4.199C196.147 4.31167 196.009 4.368 195.853 4.368ZM195.879 5.941L194.618 13H194.033L195.294 5.941H195.879ZM197.022 9.464C197.152 8.72733 197.412 8.086 197.802 7.54C198.192 6.994 198.669 6.578 199.232 6.292C199.804 5.99733 200.419 5.85 201.078 5.85C201.962 5.85 202.647 6.071 203.132 6.513C203.626 6.955 203.877 7.54867 203.886 8.294H203.275C203.266 7.696 203.054 7.22367 202.638 6.877C202.231 6.52167 201.68 6.344 200.987 6.344C200.476 6.344 199.986 6.461 199.518 6.695C199.05 6.92033 198.647 7.27133 198.309 7.748C197.971 8.216 197.741 8.788 197.62 9.464C197.568 9.73267 197.542 9.99267 197.542 10.244C197.542 11.0067 197.759 11.5917 198.192 11.999C198.634 12.3977 199.197 12.597 199.882 12.597C200.575 12.597 201.186 12.4237 201.715 12.077C202.252 11.7303 202.634 11.2537 202.859 10.647H203.483C203.206 11.3923 202.742 11.9903 202.092 12.441C201.442 12.883 200.675 13.104 199.791 13.104C198.924 13.104 198.231 12.857 197.711 12.363C197.2 11.8603 196.944 11.1757 196.944 10.309C196.944 10.0403 196.97 9.75867 197.022 9.464ZM205.096 9.464C205.226 8.72733 205.486 8.086 205.876 7.54C206.266 6.994 206.743 6.578 207.306 6.292C207.878 5.99733 208.494 5.85 209.152 5.85C210.036 5.85 210.721 6.071 211.206 6.513C211.7 6.955 211.952 7.54867 211.96 8.294H211.349C211.341 7.696 211.128 7.22367 210.712 6.877C210.305 6.52167 209.755 6.344 209.061 6.344C208.55 6.344 208.06 6.461 207.592 6.695C207.124 6.92033 206.721 7.27133 206.383 7.748C206.045 8.216 205.816 8.788 205.694 9.464C205.642 9.73267 205.616 9.99267 205.616 10.244C205.616 11.0067 205.833 11.5917 206.266 11.999C206.708 12.3977 207.272 12.597 207.956 12.597C208.65 12.597 209.261 12.4237 209.789 12.077C210.327 11.7303 210.708 11.2537 210.933 10.647H211.557C211.28 11.3923 210.816 11.9903 210.166 12.441C209.516 12.883 208.749 13.104 207.865 13.104C206.999 13.104 206.305 12.857 205.785 12.363C205.274 11.8603 205.018 11.1757 205.018 10.309C205.018 10.0403 205.044 9.75867 205.096 9.464ZM215.198 3.38L213.495 13H212.91L214.613 3.38H215.198ZM217.928 3.38L216.225 13H215.64L217.343 3.38H217.928ZM219.422 5.941L220.943 12.272L224.518 5.941H225.142L219.201 16.315H218.564L220.475 12.987L218.785 5.941H219.422ZM238.615 5.798C239.309 5.798 239.863 5.993 240.279 6.383C240.695 6.76433 240.903 7.332 240.903 8.086C240.903 8.32 240.877 8.58 240.825 8.866L240.084 13H239.512L240.24 8.905C240.284 8.68833 240.305 8.44567 240.305 8.177C240.305 7.57033 240.141 7.10667 239.811 6.786C239.491 6.46533 239.036 6.305 238.446 6.305C237.718 6.305 237.086 6.55633 236.548 7.059C236.02 7.56167 235.673 8.28967 235.508 9.243V9.23L234.832 13H234.26L234.988 8.905C235.032 8.68833 235.053 8.44567 235.053 8.177C235.053 7.57033 234.889 7.10667 234.559 6.786C234.239 6.46533 233.784 6.305 233.194 6.305C232.466 6.305 231.834 6.55633 231.296 7.059C230.768 7.56167 230.421 8.28967 230.256 9.243V9.217L229.58 13H228.995L230.256 5.941H230.841L230.568 7.449C230.872 6.903 231.27 6.49133 231.764 6.214C232.258 5.93667 232.791 5.798 233.363 5.798C234.005 5.798 234.525 5.96267 234.923 6.292C235.331 6.62133 235.565 7.111 235.625 7.761C235.911 7.11967 236.323 6.63433 236.86 6.305C237.398 5.967 237.983 5.798 238.615 5.798ZM245.28 13.104C244.396 13.104 243.686 12.8483 243.148 12.337C242.62 11.8257 242.355 11.1323 242.355 10.257C242.355 9.45967 242.533 8.723 242.888 8.047C243.252 7.371 243.755 6.838 244.396 6.448C245.038 6.04933 245.753 5.85 246.541 5.85C247.113 5.85 247.62 5.967 248.062 6.201C248.504 6.42633 248.847 6.75567 249.089 7.189C249.341 7.61367 249.466 8.11633 249.466 8.697C249.466 9.49433 249.284 10.231 248.92 10.907C248.556 11.583 248.054 12.1203 247.412 12.519C246.78 12.909 246.069 13.104 245.28 13.104ZM245.358 12.597C246.034 12.597 246.637 12.4193 247.165 12.064C247.703 11.7087 248.119 11.2363 248.413 10.647C248.717 10.0577 248.868 9.41633 248.868 8.723C248.868 7.95167 248.639 7.36233 248.179 6.955C247.72 6.54767 247.144 6.344 246.45 6.344C245.766 6.344 245.159 6.52167 244.63 6.877C244.102 7.23233 243.69 7.709 243.395 8.307C243.101 8.89633 242.953 9.53333 242.953 10.218C242.953 10.9893 243.179 11.5787 243.629 11.986C244.089 12.3933 244.665 12.597 245.358 12.597ZM253.061 12.311L256.766 5.941H257.403L253.23 13H252.619L250.955 5.941H251.579L253.061 12.311ZM261.775 5.85C262.373 5.85 262.88 5.967 263.296 6.201C263.72 6.42633 264.037 6.734 264.245 7.124C264.461 7.50533 264.57 7.93433 264.57 8.411C264.57 8.619 264.552 8.80967 264.518 8.983C264.466 9.295 264.414 9.529 264.362 9.685H258.265C258.23 9.96233 258.213 10.1617 258.213 10.283C258.213 11.0283 258.438 11.6003 258.889 11.999C259.339 12.3977 259.907 12.597 260.592 12.597C261.276 12.597 261.883 12.428 262.412 12.09C262.949 11.7433 263.33 11.2753 263.556 10.686H264.167C263.889 11.4053 263.426 11.9903 262.776 12.441C262.134 12.883 261.376 13.104 260.501 13.104C259.634 13.104 258.936 12.8527 258.408 12.35C257.888 11.8473 257.628 11.1627 257.628 10.296C257.628 10.0273 257.654 9.75 257.706 9.464C257.836 8.72733 258.096 8.086 258.486 7.54C258.876 6.994 259.352 6.578 259.916 6.292C260.488 5.99733 261.107 5.85 261.775 5.85ZM263.894 9.23C263.954 8.97867 263.985 8.723 263.985 8.463C263.985 7.77833 263.764 7.254 263.322 6.89C262.888 6.526 262.338 6.344 261.671 6.344C261.177 6.344 260.7 6.45233 260.241 6.669C259.781 6.88567 259.383 7.21067 259.045 7.644C258.707 8.07733 258.473 8.606 258.343 9.23H263.894ZM270.588 11.115C270.554 11.2883 270.536 11.4617 270.536 11.635C270.536 11.947 270.623 12.168 270.796 12.298C270.97 12.4193 271.256 12.48 271.654 12.48H272.434L272.343 13H271.459C270.939 13 270.554 12.9003 270.302 12.701C270.06 12.5017 269.938 12.1723 269.938 11.713C269.938 11.5137 269.956 11.3143 269.99 11.115L270.822 6.448H269.756L269.847 5.941H270.913L271.225 4.147H271.823L271.511 5.941H273.591L273.5 6.448H271.42L270.588 11.115ZM278.371 5.798C279.073 5.798 279.641 5.993 280.074 6.383C280.507 6.76433 280.724 7.332 280.724 8.086C280.724 8.32 280.698 8.58 280.646 8.866L279.918 13H279.346L280.074 8.905C280.117 8.62767 280.139 8.398 280.139 8.216C280.139 7.592 279.966 7.11967 279.619 6.799C279.272 6.46967 278.787 6.305 278.163 6.305C277.4 6.305 276.75 6.552 276.213 7.046C275.676 7.53133 275.32 8.24633 275.147 9.191V9.178L274.471 13H273.886L275.589 3.38H276.174L275.459 7.449C275.754 6.91167 276.157 6.50433 276.668 6.227C277.188 5.941 277.756 5.798 278.371 5.798ZM283.806 4.368C283.684 4.368 283.585 4.33333 283.507 4.264C283.429 4.186 283.39 4.08633 283.39 3.965C283.39 3.79167 283.45 3.64867 283.572 3.536C283.693 3.41467 283.832 3.354 283.988 3.354C284.109 3.354 284.209 3.393 284.287 3.471C284.373 3.549 284.417 3.64867 284.417 3.77C284.417 3.94333 284.352 4.08633 284.222 4.199C284.1 4.31167 283.962 4.368 283.806 4.368ZM283.832 5.941L282.571 13H281.986L283.247 5.941H283.832ZM286.938 13.104C286.21 13.104 285.629 12.9307 285.196 12.584C284.771 12.2373 284.585 11.7433 284.637 11.102H285.222C285.179 11.5613 285.309 11.9297 285.612 12.207C285.924 12.4757 286.379 12.61 286.977 12.61C287.592 12.61 288.082 12.4757 288.446 12.207C288.81 11.9297 288.992 11.5743 288.992 11.141C288.992 10.881 288.918 10.6643 288.771 10.491C288.624 10.3177 288.442 10.179 288.225 10.075C288.008 9.971 287.705 9.84967 287.315 9.711C286.882 9.56367 286.526 9.42067 286.249 9.282C285.98 9.14333 285.751 8.95267 285.56 8.71C285.378 8.45867 285.287 8.14233 285.287 7.761C285.287 7.38833 285.395 7.059 285.612 6.773C285.829 6.47833 286.128 6.253 286.509 6.097C286.89 5.93233 287.315 5.85 287.783 5.85C288.433 5.85 288.975 6.019 289.408 6.357C289.841 6.68633 290.058 7.124 290.058 7.67C290.058 7.78267 290.054 7.86933 290.045 7.93H289.473C289.482 7.88667 289.486 7.81733 289.486 7.722C289.486 7.306 289.317 6.97233 288.979 6.721C288.65 6.461 288.234 6.331 287.731 6.331C287.194 6.331 286.747 6.461 286.392 6.721C286.045 6.97233 285.872 7.31467 285.872 7.748C285.872 8.034 285.95 8.27233 286.106 8.463C286.262 8.645 286.453 8.79233 286.678 8.905C286.912 9.009 287.224 9.13033 287.614 9.269C288.047 9.41633 288.39 9.555 288.641 9.685C288.901 9.815 289.122 9.997 289.304 10.231C289.486 10.465 289.577 10.764 289.577 11.128C289.577 11.7347 289.33 12.2157 288.836 12.571C288.351 12.9263 287.718 13.104 286.938 13.104ZM295.246 9.464C295.376 8.72733 295.636 8.086 296.026 7.54C296.416 6.994 296.892 6.578 297.456 6.292C298.028 5.99733 298.643 5.85 299.302 5.85C300.186 5.85 300.87 6.071 301.356 6.513C301.85 6.955 302.101 7.54867 302.11 8.294H301.499C301.49 7.696 301.278 7.22367 300.862 6.877C300.454 6.52167 299.904 6.344 299.211 6.344C298.699 6.344 298.21 6.461 297.742 6.695C297.274 6.92033 296.871 7.27133 296.533 7.748C296.195 8.216 295.965 8.788 295.844 9.464C295.792 9.73267 295.766 9.99267 295.766 10.244C295.766 11.0067 295.982 11.5917 296.416 11.999C296.858 12.3977 297.421 12.597 298.106 12.597C298.799 12.597 299.41 12.4237 299.939 12.077C300.476 11.7303 300.857 11.2537 301.083 10.647H301.707C301.429 11.3923 300.966 11.9903 300.316 12.441C299.666 12.883 298.899 13.104 298.015 13.104C297.148 13.104 296.455 12.857 295.935 12.363C295.423 11.8603 295.168 11.1757 295.168 10.309C295.168 10.0403 295.194 9.75867 295.246 9.464ZM305.348 3.38L303.645 13H303.06L304.763 3.38H305.348ZM307.609 4.368C307.488 4.368 307.388 4.33333 307.31 4.264C307.232 4.186 307.193 4.08633 307.193 3.965C307.193 3.79167 307.254 3.64867 307.375 3.536C307.497 3.41467 307.635 3.354 307.791 3.354C307.913 3.354 308.012 3.393 308.09 3.471C308.177 3.549 308.22 3.64867 308.22 3.77C308.22 3.94333 308.155 4.08633 308.025 4.199C307.904 4.31167 307.765 4.368 307.609 4.368ZM307.635 5.941L306.374 13H305.789L307.05 5.941H307.635ZM312.848 5.85C313.446 5.85 313.953 5.967 314.369 6.201C314.794 6.42633 315.11 6.734 315.318 7.124C315.535 7.50533 315.643 7.93433 315.643 8.411C315.643 8.619 315.626 8.80967 315.591 8.983C315.539 9.295 315.487 9.529 315.435 9.685H309.338C309.303 9.96233 309.286 10.1617 309.286 10.283C309.286 11.0283 309.511 11.6003 309.962 11.999C310.413 12.3977 310.98 12.597 311.665 12.597C312.35 12.597 312.956 12.428 313.485 12.09C314.022 11.7433 314.404 11.2753 314.629 10.686H315.24C314.963 11.4053 314.499 11.9903 313.849 12.441C313.208 12.883 312.449 13.104 311.574 13.104C310.707 13.104 310.01 12.8527 309.481 12.35C308.961 11.8473 308.701 11.1627 308.701 10.296C308.701 10.0273 308.727 9.75 308.779 9.464C308.909 8.72733 309.169 8.086 309.559 7.54C309.949 6.994 310.426 6.578 310.989 6.292C311.561 5.99733 312.181 5.85 312.848 5.85ZM314.967 9.23C315.028 8.97867 315.058 8.723 315.058 8.463C315.058 7.77833 314.837 7.254 314.395 6.89C313.962 6.526 313.411 6.344 312.744 6.344C312.25 6.344 311.773 6.45233 311.314 6.669C310.855 6.88567 310.456 7.21067 310.118 7.644C309.78 8.07733 309.546 8.606 309.416 9.23H314.967ZM321.103 5.798C321.822 5.798 322.399 5.993 322.832 6.383C323.265 6.76433 323.482 7.332 323.482 8.086C323.482 8.32 323.456 8.58 323.404 8.866L322.676 13H322.104L322.832 8.905C322.875 8.62767 322.897 8.398 322.897 8.216C322.897 7.592 322.724 7.11967 322.377 6.799C322.03 6.46967 321.545 6.305 320.921 6.305C320.193 6.305 319.565 6.53033 319.036 6.981C318.507 7.43167 318.143 8.09467 317.944 8.97L317.229 13H316.644L317.905 5.941H318.49L318.23 7.423C318.525 6.89433 318.923 6.49133 319.426 6.214C319.937 5.93667 320.496 5.798 321.103 5.798ZM325.952 11.115C325.918 11.2883 325.9 11.4617 325.9 11.635C325.9 11.947 325.987 12.168 326.16 12.298C326.334 12.4193 326.62 12.48 327.018 12.48H327.798L327.707 13H326.823C326.303 13 325.918 12.9003 325.666 12.701C325.424 12.5017 325.302 12.1723 325.302 11.713C325.302 11.5137 325.32 11.3143 325.354 11.115L326.186 6.448H325.12L325.211 5.941H326.277L326.589 4.147H327.187L326.875 5.941H328.955L328.864 6.448H326.784L325.952 11.115ZM335.009 0.819L328.899 15.093H328.314L334.411 0.819H335.009ZM336.743 3.38L335.04 13H334.455L336.158 3.38H336.743ZM341.514 5.85C342.112 5.85 342.619 5.967 343.035 6.201C343.46 6.42633 343.776 6.734 343.984 7.124C344.201 7.50533 344.309 7.93433 344.309 8.411C344.309 8.619 344.292 8.80967 344.257 8.983C344.205 9.295 344.153 9.529 344.101 9.685H338.004C337.969 9.96233 337.952 10.1617 337.952 10.283C337.952 11.0283 338.177 11.6003 338.628 11.999C339.079 12.3977 339.646 12.597 340.331 12.597C341.016 12.597 341.622 12.428 342.151 12.09C342.688 11.7433 343.07 11.2753 343.295 10.686H343.906C343.629 11.4053 343.165 11.9903 342.515 12.441C341.874 12.883 341.115 13.104 340.24 13.104C339.373 13.104 338.676 12.8527 338.147 12.35C337.627 11.8473 337.367 11.1627 337.367 10.296C337.367 10.0273 337.393 9.75 337.445 9.464C337.575 8.72733 337.835 8.086 338.225 7.54C338.615 6.994 339.092 6.578 339.655 6.292C340.227 5.99733 340.847 5.85 341.514 5.85ZM343.633 9.23C343.694 8.97867 343.724 8.723 343.724 8.463C343.724 7.77833 343.503 7.254 343.061 6.89C342.628 6.526 342.077 6.344 341.41 6.344C340.916 6.344 340.439 6.45233 339.98 6.669C339.521 6.88567 339.122 7.21067 338.784 7.644C338.446 8.07733 338.212 8.606 338.082 9.23H343.633ZM345.57 9.464C345.7 8.736 345.956 8.099 346.337 7.553C346.727 7.007 347.208 6.58667 347.78 6.292C348.352 5.99733 348.967 5.85 349.626 5.85C350.363 5.85 350.956 6.032 351.407 6.396C351.866 6.76 352.152 7.22367 352.265 7.787L352.59 5.941H353.175L351.914 13H351.342L351.667 11.141C351.364 11.713 350.917 12.1853 350.328 12.558C349.739 12.922 349.071 13.104 348.326 13.104C347.468 13.104 346.779 12.8527 346.259 12.35C345.748 11.8387 345.492 11.1497 345.492 10.283C345.492 10.023 345.518 9.75 345.57 9.464ZM351.966 9.464C352.009 9.204 352.031 8.97433 352.031 8.775C352.031 8.03833 351.81 7.45333 351.368 7.02C350.926 6.578 350.341 6.357 349.613 6.357C349.041 6.357 348.512 6.48267 348.027 6.734C347.55 6.97667 347.147 7.332 346.818 7.8C346.497 8.268 346.281 8.82267 346.168 9.464C346.125 9.75 346.103 9.99267 346.103 10.192C346.103 10.946 346.315 11.5353 346.74 11.96C347.173 12.376 347.763 12.584 348.508 12.584C349.054 12.584 349.57 12.4583 350.055 12.207C350.549 11.947 350.961 11.583 351.29 11.115C351.628 10.6383 351.853 10.088 351.966 9.464ZM354.317 9.464C354.447 8.736 354.703 8.099 355.084 7.553C355.474 7.007 355.955 6.58667 356.527 6.292C357.099 5.99733 357.714 5.85 358.373 5.85C359.092 5.85 359.682 6.032 360.141 6.396C360.609 6.75133 360.899 7.215 361.012 7.787L361.792 3.38H362.364L360.661 13H360.089L360.427 11.128C360.124 11.7087 359.677 12.1853 359.088 12.558C358.499 12.922 357.831 13.104 357.086 13.104C356.219 13.104 355.526 12.8527 355.006 12.35C354.495 11.8387 354.239 11.1497 354.239 10.283C354.239 10.023 354.265 9.75 354.317 9.464ZM360.713 9.464C360.756 9.204 360.778 8.97433 360.778 8.775C360.778 8.03833 360.557 7.45333 360.115 7.02C359.673 6.578 359.088 6.357 358.36 6.357C357.788 6.357 357.259 6.48267 356.774 6.734C356.297 6.97667 355.894 7.332 355.565 7.8C355.244 8.268 355.028 8.82267 354.915 9.464C354.872 9.75 354.85 9.99267 354.85 10.192C354.85 10.946 355.062 11.5353 355.487 11.96C355.92 12.376 356.51 12.584 357.255 12.584C357.801 12.584 358.317 12.4583 358.802 12.207C359.296 11.947 359.708 11.583 360.037 11.115C360.375 10.6383 360.6 10.088 360.713 9.464ZM367.822 11.115C367.787 11.2883 367.77 11.4617 367.77 11.635C367.77 11.947 367.856 12.168 368.03 12.298C368.203 12.4193 368.489 12.48 368.888 12.48H369.668L369.577 13H368.693C368.173 13 367.787 12.9003 367.536 12.701C367.293 12.5017 367.172 12.1723 367.172 11.713C367.172 11.5137 367.189 11.3143 367.224 11.115L368.056 6.448H366.99L367.081 5.941H368.147L368.459 4.147H369.057L368.745 5.941H370.825L370.734 6.448H368.654L367.822 11.115ZM374.239 13.104C373.355 13.104 372.645 12.8483 372.107 12.337C371.579 11.8257 371.314 11.1323 371.314 10.257C371.314 9.45967 371.492 8.723 371.847 8.047C372.211 7.371 372.714 6.838 373.355 6.448C373.997 6.04933 374.712 5.85 375.5 5.85C376.072 5.85 376.579 5.967 377.021 6.201C377.463 6.42633 377.806 6.75567 378.048 7.189C378.3 7.61367 378.425 8.11633 378.425 8.697C378.425 9.49433 378.243 10.231 377.879 10.907C377.515 11.583 377.013 12.1203 376.371 12.519C375.739 12.909 375.028 13.104 374.239 13.104ZM374.317 12.597C374.993 12.597 375.596 12.4193 376.124 12.064C376.662 11.7087 377.078 11.2363 377.372 10.647C377.676 10.0577 377.827 9.41633 377.827 8.723C377.827 7.95167 377.598 7.36233 377.138 6.955C376.679 6.54767 376.103 6.344 375.409 6.344C374.725 6.344 374.118 6.52167 373.589 6.877C373.061 7.23233 372.649 7.709 372.354 8.307C372.06 8.89633 371.912 9.53333 371.912 10.218C371.912 10.9893 372.138 11.5787 372.588 11.986C373.048 12.3933 373.624 12.597 374.317 12.597ZM385.53 13.104C384.802 13.104 384.221 12.9307 383.788 12.584C383.363 12.2373 383.177 11.7433 383.229 11.102H383.814C383.771 11.5613 383.901 11.9297 384.204 12.207C384.516 12.4757 384.971 12.61 385.569 12.61C386.184 12.61 386.674 12.4757 387.038 12.207C387.402 11.9297 387.584 11.5743 387.584 11.141C387.584 10.881 387.51 10.6643 387.363 10.491C387.216 10.3177 387.034 10.179 386.817 10.075C386.6 9.971 386.297 9.84967 385.907 9.711C385.474 9.56367 385.118 9.42067 384.841 9.282C384.572 9.14333 384.343 8.95267 384.152 8.71C383.97 8.45867 383.879 8.14233 383.879 7.761C383.879 7.38833 383.987 7.059 384.204 6.773C384.421 6.47833 384.72 6.253 385.101 6.097C385.482 5.93233 385.907 5.85 386.375 5.85C387.025 5.85 387.567 6.019 388 6.357C388.433 6.68633 388.65 7.124 388.65 7.67C388.65 7.78267 388.646 7.86933 388.637 7.93H388.065C388.074 7.88667 388.078 7.81733 388.078 7.722C388.078 7.306 387.909 6.97233 387.571 6.721C387.242 6.461 386.826 6.331 386.323 6.331C385.786 6.331 385.339 6.461 384.984 6.721C384.637 6.97233 384.464 7.31467 384.464 7.748C384.464 8.034 384.542 8.27233 384.698 8.463C384.854 8.645 385.045 8.79233 385.27 8.905C385.504 9.009 385.816 9.13033 386.206 9.269C386.639 9.41633 386.982 9.555 387.233 9.685C387.493 9.815 387.714 9.997 387.896 10.231C388.078 10.465 388.169 10.764 388.169 11.128C388.169 11.7347 387.922 12.2157 387.428 12.571C386.943 12.9263 386.31 13.104 385.53 13.104ZM390.978 11.115C390.943 11.2883 390.926 11.4617 390.926 11.635C390.926 11.947 391.013 12.168 391.186 12.298C391.359 12.4193 391.645 12.48 392.044 12.48H392.824L392.733 13H391.849C391.329 13 390.943 12.9003 390.692 12.701C390.449 12.5017 390.328 12.1723 390.328 11.713C390.328 11.5137 390.345 11.3143 390.38 11.115L391.212 6.448H390.146L390.237 5.941H391.303L391.615 4.147H392.213L391.901 5.941H393.981L393.89 6.448H391.81L390.978 11.115ZM394.536 9.464C394.666 8.736 394.921 8.099 395.303 7.553C395.693 7.007 396.174 6.58667 396.746 6.292C397.318 5.99733 397.933 5.85 398.592 5.85C399.328 5.85 399.922 6.032 400.373 6.396C400.832 6.76 401.118 7.22367 401.231 7.787L401.556 5.941H402.141L400.88 13H400.308L400.633 11.141C400.329 11.713 399.883 12.1853 399.294 12.558C398.704 12.922 398.037 13.104 397.292 13.104C396.434 13.104 395.745 12.8527 395.225 12.35C394.713 11.8387 394.458 11.1497 394.458 10.283C394.458 10.023 394.484 9.75 394.536 9.464ZM400.932 9.464C400.975 9.204 400.997 8.97433 400.997 8.775C400.997 8.03833 400.776 7.45333 400.334 7.02C399.892 6.578 399.307 6.357 398.579 6.357C398.007 6.357 397.478 6.48267 396.993 6.734C396.516 6.97667 396.113 7.332 395.784 7.8C395.463 8.268 395.246 8.82267 395.134 9.464C395.09 9.75 395.069 9.99267 395.069 10.192C395.069 10.946 395.281 11.5353 395.706 11.96C396.139 12.376 396.728 12.584 397.474 12.584C398.02 12.584 398.535 12.4583 399.021 12.207C399.515 11.947 399.926 11.583 400.256 11.115C400.594 10.6383 400.819 10.088 400.932 9.464ZM404.232 11.115C404.197 11.2883 404.18 11.4617 404.18 11.635C404.18 11.947 404.266 12.168 404.44 12.298C404.613 12.4193 404.899 12.48 405.298 12.48H406.078L405.987 13H405.103C404.583 13 404.197 12.9003 403.946 12.701C403.703 12.5017 403.582 12.1723 403.582 11.713C403.582 11.5137 403.599 11.3143 403.634 11.115L404.466 6.448H403.4L403.491 5.941H404.557L404.869 4.147H405.467L405.155 5.941H407.235L407.144 6.448H405.064L404.232 11.115ZM414.745 5.941L413.497 13H412.912L413.185 11.479C412.89 12.0077 412.487 12.415 411.976 12.701C411.464 12.9783 410.91 13.117 410.312 13.117C409.592 13.117 409.012 12.9263 408.57 12.545C408.136 12.155 407.92 11.5787 407.92 10.816C407.92 10.53 407.941 10.2743 407.985 10.049L408.726 5.941H409.298L408.57 10.01C408.526 10.2873 408.505 10.5127 408.505 10.686C408.505 11.3187 408.678 11.7997 409.025 12.129C409.371 12.4497 409.857 12.61 410.481 12.61C411.243 12.61 411.893 12.3673 412.431 11.882C412.977 11.388 413.328 10.6687 413.484 9.724V9.763L414.16 5.941H414.745ZM417.852 13.104C417.124 13.104 416.544 12.9307 416.11 12.584C415.686 12.2373 415.499 11.7433 415.551 11.102H416.136C416.093 11.5613 416.223 11.9297 416.526 12.207C416.838 12.4757 417.293 12.61 417.891 12.61C418.507 12.61 418.996 12.4757 419.36 12.207C419.724 11.9297 419.906 11.5743 419.906 11.141C419.906 10.881 419.833 10.6643 419.685 10.491C419.538 10.3177 419.356 10.179 419.139 10.075C418.923 9.971 418.619 9.84967 418.229 9.711C417.796 9.56367 417.441 9.42067 417.163 9.282C416.895 9.14333 416.665 8.95267 416.474 8.71C416.292 8.45867 416.201 8.14233 416.201 7.761C416.201 7.38833 416.31 7.059 416.526 6.773C416.743 6.47833 417.042 6.253 417.423 6.097C417.805 5.93233 418.229 5.85 418.697 5.85C419.347 5.85 419.889 6.019 420.322 6.357C420.756 6.68633 420.972 7.124 420.972 7.67C420.972 7.78267 420.968 7.86933 420.959 7.93H420.387C420.396 7.88667 420.4 7.81733 420.4 7.722C420.4 7.306 420.231 6.97233 419.893 6.721C419.564 6.461 419.148 6.331 418.645 6.331C418.108 6.331 417.662 6.461 417.306 6.721C416.96 6.97233 416.786 7.31467 416.786 7.748C416.786 8.034 416.864 8.27233 417.02 8.463C417.176 8.645 417.367 8.79233 417.592 8.905C417.826 9.009 418.138 9.13033 418.528 9.269C418.962 9.41633 419.304 9.555 419.555 9.685C419.815 9.815 420.036 9.997 420.218 10.231C420.4 10.465 420.491 10.764 420.491 11.128C420.491 11.7347 420.244 12.2157 419.75 12.571C419.265 12.9263 418.632 13.104 417.852 13.104ZM430.606 7.865L430.515 8.372H425.627L425.718 7.865H430.606ZM433.276 5.07H434.004L436.903 8.125L432.938 11.167H432.21L436.162 8.125L433.276 5.07ZM2.249 28.368C2.12767 28.368 2.028 28.3333 1.95 28.264C1.872 28.186 1.833 28.0863 1.833 27.965C1.833 27.7917 1.89367 27.6487 2.015 27.536C2.13633 27.4147 2.275 27.354 2.431 27.354C2.55233 27.354 2.652 27.393 2.73 27.471C2.81667 27.549 2.86 27.6487 2.86 27.77C2.86 27.9433 2.795 28.0863 2.665 28.199C2.54367 28.3117 2.405 28.368 2.249 28.368ZM2.275 29.941L1.014 37H0.429L1.69 29.941H2.275ZM7.44849 27.783C6.77249 27.783 6.27849 27.913 5.96649 28.173C5.66316 28.433 5.45949 28.8577 5.35549 29.447L5.26449 29.941H7.09749L7.00649 30.461H5.17349L4.01649 37H3.43149L4.57549 30.461H3.52249L3.61349 29.941H4.66649L4.75749 29.447C4.88749 28.7017 5.16916 28.1513 5.60249 27.796C6.04449 27.4407 6.69016 27.263 7.53949 27.263L7.44849 27.783ZM12.3655 35.115C12.3309 35.2883 12.3135 35.4617 12.3135 35.635C12.3135 35.947 12.4002 36.168 12.5735 36.298C12.7469 36.4193 13.0329 36.48 13.4315 36.48H14.2115L14.1205 37H13.2365C12.7165 37 12.3309 36.9003 12.0795 36.701C11.8369 36.5017 11.7155 36.1723 11.7155 35.713C11.7155 35.5137 11.7329 35.3143 11.7675 35.115L12.5995 30.448H11.5335L11.6245 29.941H12.6905L13.0025 28.147H13.6005L13.2885 29.941H15.3685L15.2775 30.448H13.1975L12.3655 35.115ZM20.1484 29.798C20.8504 29.798 21.418 29.993 21.8514 30.383C22.2847 30.7643 22.5014 31.332 22.5014 32.086C22.5014 32.32 22.4754 32.58 22.4234 32.866L21.6954 37H21.1234L21.8514 32.905C21.8947 32.6277 21.9164 32.398 21.9164 32.216C21.9164 31.592 21.743 31.1197 21.3964 30.799C21.0497 30.4697 20.5644 30.305 19.9404 30.305C19.1777 30.305 18.5277 30.552 17.9904 31.046C17.453 31.5313 17.0977 32.2463 16.9244 33.191V33.178L16.2484 37H15.6634L17.3664 27.38H17.9514L17.2364 31.449C17.531 30.9117 17.934 30.5043 18.4454 30.227C18.9654 29.941 19.533 29.798 20.1484 29.798ZM25.583 28.368C25.4617 28.368 25.362 28.3333 25.284 28.264C25.206 28.186 25.167 28.0863 25.167 27.965C25.167 27.7917 25.2277 27.6487 25.349 27.536C25.4703 27.4147 25.609 27.354 25.765 27.354C25.8863 27.354 25.986 27.393 26.064 27.471C26.1507 27.549 26.194 27.6487 26.194 27.77C26.194 27.9433 26.129 28.0863 25.999 28.199C25.8777 28.3117 25.739 28.368 25.583 28.368ZM25.609 29.941L24.348 37H23.763L25.024 29.941H25.609ZM28.7155 37.104C27.9875 37.104 27.4068 36.9307 26.9735 36.584C26.5488 36.2373 26.3625 35.7433 26.4145 35.102H26.9995C26.9561 35.5613 27.0861 35.9297 27.3895 36.207C27.7015 36.4757 28.1565 36.61 28.7545 36.61C29.3698 36.61 29.8595 36.4757 30.2235 36.207C30.5875 35.9297 30.7695 35.5743 30.7695 35.141C30.7695 34.881 30.6958 34.6643 30.5485 34.491C30.4011 34.3177 30.2191 34.179 30.0025 34.075C29.7858 33.971 29.4825 33.8497 29.0925 33.711C28.6591 33.5637 28.3038 33.4207 28.0265 33.282C27.7578 33.1433 27.5281 32.9527 27.3375 32.71C27.1555 32.4587 27.0645 32.1423 27.0645 31.761C27.0645 31.3883 27.1728 31.059 27.3895 30.773C27.6061 30.4783 27.9051 30.253 28.2865 30.097C28.6678 29.9323 29.0925 29.85 29.5605 29.85C30.2105 29.85 30.7521 30.019 31.1855 30.357C31.6188 30.6863 31.8355 31.124 31.8355 31.67C31.8355 31.7827 31.8311 31.8693 31.8225 31.93H31.2505C31.2591 31.8867 31.2635 31.8173 31.2635 31.722C31.2635 31.306 31.0945 30.9723 30.7565 30.721C30.4271 30.461 30.0111 30.331 29.5085 30.331C28.9711 30.331 28.5248 30.461 28.1695 30.721C27.8228 30.9723 27.6495 31.3147 27.6495 31.748C27.6495 32.034 27.7275 32.2723 27.8835 32.463C28.0395 32.645 28.2301 32.7923 28.4555 32.905C28.6895 33.009 29.0015 33.1303 29.3915 33.269C29.8248 33.4163 30.1671 33.555 30.4185 33.685C30.6785 33.815 30.8995 33.997 31.0815 34.231C31.2635 34.465 31.3545 34.764 31.3545 35.128C31.3545 35.7347 31.1075 36.2157 30.6135 36.571C30.1281 36.9263 29.4955 37.104 28.7155 37.104ZM37.023 33.464C37.153 32.7273 37.413 32.086 37.803 31.54C38.193 30.994 38.6697 30.578 39.233 30.292C39.805 29.9973 40.4203 29.85 41.079 29.85C41.963 29.85 42.6477 30.071 43.133 30.513C43.627 30.955 43.8783 31.5487 43.887 32.294H43.276C43.2673 31.696 43.055 31.2237 42.639 30.877C42.2317 30.5217 41.6813 30.344 40.988 30.344C40.4767 30.344 39.987 30.461 39.519 30.695C39.051 30.9203 38.648 31.2713 38.31 31.748C37.972 32.216 37.7423 32.788 37.621 33.464C37.569 33.7327 37.543 33.9927 37.543 34.244C37.543 35.0067 37.7597 35.5917 38.193 35.999C38.635 36.3977 39.1983 36.597 39.883 36.597C40.5763 36.597 41.1873 36.4237 41.716 36.077C42.2533 35.7303 42.6347 35.2537 42.86 34.647H43.484C43.2067 35.3923 42.743 35.9903 42.093 36.441C41.443 36.883 40.676 37.104 39.792 37.104C38.9253 37.104 38.232 36.857 37.712 36.363C37.2007 35.8603 36.945 35.1757 36.945 34.309C36.945 34.0403 36.971 33.7587 37.023 33.464ZM47.1252 27.38L45.4222 37H44.8372L46.5402 27.38H47.1252ZM49.3867 28.368C49.2654 28.368 49.1657 28.3333 49.0877 28.264C49.0097 28.186 48.9707 28.0863 48.9707 27.965C48.9707 27.7917 49.0314 27.6487 49.1527 27.536C49.274 27.4147 49.4127 27.354 49.5687 27.354C49.69 27.354 49.7897 27.393 49.8677 27.471C49.9544 27.549 49.9977 27.6487 49.9977 27.77C49.9977 27.9433 49.9327 28.0863 49.8027 28.199C49.6814 28.3117 49.5427 28.368 49.3867 28.368ZM49.4127 29.941L48.1517 37H47.5667L48.8277 29.941H49.4127ZM54.6252 29.85C55.2232 29.85 55.7302 29.967 56.1462 30.201C56.5709 30.4263 56.8872 30.734 57.0952 31.124C57.3119 31.5053 57.4202 31.9343 57.4202 32.411C57.4202 32.619 57.4029 32.8097 57.3682 32.983C57.3162 33.295 57.2642 33.529 57.2122 33.685H51.1152C51.0805 33.9623 51.0632 34.1617 51.0632 34.283C51.0632 35.0283 51.2885 35.6003 51.7392 35.999C52.1899 36.3977 52.7575 36.597 53.4422 36.597C54.1269 36.597 54.7335 36.428 55.2622 36.09C55.7995 35.7433 56.1809 35.2753 56.4062 34.686H57.0172C56.7399 35.4053 56.2762 35.9903 55.6262 36.441C54.9849 36.883 54.2265 37.104 53.3512 37.104C52.4845 37.104 51.7869 36.8527 51.2582 36.35C50.7382 35.8473 50.4782 35.1627 50.4782 34.296C50.4782 34.0273 50.5042 33.75 50.5562 33.464C50.6862 32.7273 50.9462 32.086 51.3362 31.54C51.7262 30.994 52.2029 30.578 52.7662 30.292C53.3382 29.9973 53.9579 29.85 54.6252 29.85ZM56.7442 33.23C56.8049 32.9787 56.8352 32.723 56.8352 32.463C56.8352 31.7783 56.6142 31.254 56.1722 30.89C55.7389 30.526 55.1885 30.344 54.5212 30.344C54.0272 30.344 53.5505 30.4523 53.0912 30.669C52.6319 30.8857 52.2332 31.2107 51.8952 31.644C51.5572 32.0773 51.3232 32.606 51.1932 33.23H56.7442ZM62.8802 29.798C63.5995 29.798 64.1759 29.993 64.6092 30.383C65.0425 30.7643 65.2592 31.332 65.2592 32.086C65.2592 32.32 65.2332 32.58 65.1812 32.866L64.4532 37H63.8812L64.6092 32.905C64.6525 32.6277 64.6742 32.398 64.6742 32.216C64.6742 31.592 64.5009 31.1197 64.1542 30.799C63.8075 30.4697 63.3222 30.305 62.6982 30.305C61.9702 30.305 61.3419 30.5303 60.8132 30.981C60.2845 31.4317 59.9205 32.0947 59.7212 32.97L59.0062 37H58.4212L59.6822 29.941H60.2672L60.0072 31.423C60.3019 30.8943 60.7005 30.4913 61.2032 30.214C61.7145 29.9367 62.2735 29.798 62.8802 29.798ZM67.7298 35.115C67.6951 35.2883 67.6778 35.4617 67.6778 35.635C67.6778 35.947 67.7645 36.168 67.9378 36.298C68.1111 36.4193 68.3971 36.48 68.7958 36.48H69.5758L69.4848 37H68.6008C68.0808 37 67.6951 36.9003 67.4438 36.701C67.2011 36.5017 67.0798 36.1723 67.0798 35.713C67.0798 35.5137 67.0971 35.3143 67.1318 35.115L67.9638 30.448H66.8978L66.9888 29.941H68.0548L68.3668 28.147H68.9648L68.6528 29.941H70.7328L70.6418 30.448H68.5618L67.7298 35.115ZM76.7866 24.819L70.6766 39.093H70.0916L76.1886 24.819H76.7866ZM78.5207 27.38L76.8177 37H76.2327L77.9357 27.38H78.5207ZM83.2912 29.85C83.8892 29.85 84.3962 29.967 84.8122 30.201C85.2369 30.4263 85.5532 30.734 85.7612 31.124C85.9779 31.5053 86.0862 31.9343 86.0862 32.411C86.0862 32.619 86.0689 32.8097 86.0342 32.983C85.9822 33.295 85.9302 33.529 85.8782 33.685H79.7812C79.7465 33.9623 79.7292 34.1617 79.7292 34.283C79.7292 35.0283 79.9545 35.6003 80.4052 35.999C80.8559 36.3977 81.4235 36.597 82.1082 36.597C82.7929 36.597 83.3995 36.428 83.9282 36.09C84.4655 35.7433 84.8469 35.2753 85.0722 34.686H85.6832C85.4059 35.4053 84.9422 35.9903 84.2922 36.441C83.6509 36.883 82.8925 37.104 82.0172 37.104C81.1505 37.104 80.4529 36.8527 79.9242 36.35C79.4042 35.8473 79.1442 35.1627 79.1442 34.296C79.1442 34.0273 79.1702 33.75 79.2222 33.464C79.3522 32.7273 79.6122 32.086 80.0022 31.54C80.3922 30.994 80.8689 30.578 81.4322 30.292C82.0042 29.9973 82.6239 29.85 83.2912 29.85ZM85.4102 33.23C85.4709 32.9787 85.5012 32.723 85.5012 32.463C85.5012 31.7783 85.2802 31.254 84.8382 30.89C84.4049 30.526 83.8545 30.344 83.1872 30.344C82.6932 30.344 82.2165 30.4523 81.7572 30.669C81.2979 30.8857 80.8992 31.2107 80.5612 31.644C80.2232 32.0773 79.9892 32.606 79.8592 33.23H85.4102ZM87.3472 33.464C87.4772 32.736 87.7329 32.099 88.1142 31.553C88.5042 31.007 88.9852 30.5867 89.5572 30.292C90.1292 29.9973 90.7445 29.85 91.4032 29.85C92.1399 29.85 92.7335 30.032 93.1842 30.396C93.6435 30.76 93.9295 31.2237 94.0422 31.787L94.3672 29.941H94.9522L93.6912 37H93.1192L93.4442 35.141C93.1409 35.713 92.6945 36.1853 92.1052 36.558C91.5159 36.922 90.8485 37.104 90.1032 37.104C89.2452 37.104 88.5562 36.8527 88.0362 36.35C87.5249 35.8387 87.2692 35.1497 87.2692 34.283C87.2692 34.023 87.2952 33.75 87.3472 33.464ZM93.7432 33.464C93.7865 33.204 93.8082 32.9743 93.8082 32.775C93.8082 32.0383 93.5872 31.4533 93.1452 31.02C92.7032 30.578 92.1182 30.357 91.3902 30.357C90.8182 30.357 90.2895 30.4827 89.8042 30.734C89.3275 30.9767 88.9245 31.332 88.5952 31.8C88.2745 32.268 88.0579 32.8227 87.9452 33.464C87.9019 33.75 87.8802 33.9927 87.8802 34.192C87.8802 34.946 88.0925 35.5353 88.5172 35.96C88.9505 36.376 89.5399 36.584 90.2852 36.584C90.8312 36.584 91.3469 36.4583 91.8322 36.207C92.3262 35.947 92.7379 35.583 93.0672 35.115C93.4052 34.6383 93.6305 34.088 93.7432 33.464ZM96.0943 33.464C96.2243 32.736 96.4799 32.099 96.8613 31.553C97.2513 31.007 97.7323 30.5867 98.3043 30.292C98.8763 29.9973 99.4916 29.85 100.15 29.85C100.87 29.85 101.459 30.032 101.918 30.396C102.386 30.7513 102.677 31.215 102.789 31.787L103.569 27.38H104.141L102.438 37H101.866L102.204 35.128C101.901 35.7087 101.455 36.1853 100.865 36.558C100.276 36.922 99.6086 37.104 98.8633 37.104C97.9966 37.104 97.3033 36.8527 96.7833 36.35C96.2719 35.8387 96.0163 35.1497 96.0163 34.283C96.0163 34.023 96.0423 33.75 96.0943 33.464ZM102.49 33.464C102.534 33.204 102.555 32.9743 102.555 32.775C102.555 32.0383 102.334 31.4533 101.892 31.02C101.45 30.578 100.865 30.357 100.137 30.357C99.5653 30.357 99.0366 30.4827 98.5513 30.734C98.0746 30.9767 97.6716 31.332 97.3423 31.8C97.0216 32.268 96.8049 32.8227 96.6923 33.464C96.6489 33.75 96.6273 33.9927 96.6273 34.192C96.6273 34.946 96.8396 35.5353 97.2643 35.96C97.6976 36.376 98.2869 36.584 99.0323 36.584C99.5783 36.584 100.094 36.4583 100.579 36.207C101.073 35.947 101.485 35.583 101.814 35.115C102.152 34.6383 102.378 34.088 102.49 33.464ZM110.21 28.368C110.089 28.368 109.989 28.3333 109.911 28.264C109.833 28.186 109.794 28.0863 109.794 27.965C109.794 27.7917 109.855 27.6487 109.976 27.536C110.097 27.4147 110.236 27.354 110.392 27.354C110.513 27.354 110.613 27.393 110.691 27.471C110.778 27.549 110.821 27.6487 110.821 27.77C110.821 27.9433 110.756 28.0863 110.626 28.199C110.505 28.3117 110.366 28.368 110.21 28.368ZM110.236 29.941L108.975 37H108.39L109.651 29.941H110.236ZM113.342 37.104C112.614 37.104 112.034 36.9307 111.6 36.584C111.176 36.2373 110.989 35.7433 111.041 35.102H111.626C111.583 35.5613 111.713 35.9297 112.016 36.207C112.328 36.4757 112.783 36.61 113.381 36.61C113.997 36.61 114.486 36.4757 114.85 36.207C115.214 35.9297 115.396 35.5743 115.396 35.141C115.396 34.881 115.323 34.6643 115.175 34.491C115.028 34.3177 114.846 34.179 114.629 34.075C114.413 33.971 114.109 33.8497 113.719 33.711C113.286 33.5637 112.931 33.4207 112.653 33.282C112.385 33.1433 112.155 32.9527 111.964 32.71C111.782 32.4587 111.691 32.1423 111.691 31.761C111.691 31.3883 111.8 31.059 112.016 30.773C112.233 30.4783 112.532 30.253 112.913 30.097C113.295 29.9323 113.719 29.85 114.187 29.85C114.837 29.85 115.379 30.019 115.812 30.357C116.246 30.6863 116.462 31.124 116.462 31.67C116.462 31.7827 116.458 31.8693 116.449 31.93H115.877C115.886 31.8867 115.89 31.8173 115.89 31.722C115.89 31.306 115.721 30.9723 115.383 30.721C115.054 30.461 114.638 30.331 114.135 30.331C113.598 30.331 113.152 30.461 112.796 30.721C112.45 30.9723 112.276 31.3147 112.276 31.748C112.276 32.034 112.354 32.2723 112.51 32.463C112.666 32.645 112.857 32.7923 113.082 32.905C113.316 33.009 113.628 33.1303 114.018 33.269C114.452 33.4163 114.794 33.555 115.045 33.685C115.305 33.815 115.526 33.997 115.708 34.231C115.89 34.465 115.981 34.764 115.981 35.128C115.981 35.7347 115.734 36.2157 115.24 36.571C114.755 36.9263 114.122 37.104 113.342 37.104ZM122.04 29.798C122.76 29.798 123.336 29.993 123.769 30.383C124.203 30.7643 124.419 31.332 124.419 32.086C124.419 32.32 124.393 32.58 124.341 32.866L123.613 37H123.041L123.769 32.905C123.813 32.6277 123.834 32.398 123.834 32.216C123.834 31.592 123.661 31.1197 123.314 30.799C122.968 30.4697 122.482 30.305 121.858 30.305C121.13 30.305 120.502 30.5303 119.973 30.981C119.445 31.4317 119.081 32.0947 118.881 32.97L118.166 37H117.581L118.842 29.941H119.427L119.167 31.423C119.462 30.8943 119.861 30.4913 120.363 30.214C120.875 29.9367 121.434 29.798 122.04 29.798ZM127.423 27.874H128.164L126.682 30.539H126.227L127.423 27.874ZM129.124 35.115C129.09 35.2883 129.072 35.4617 129.072 35.635C129.072 35.947 129.159 36.168 129.332 36.298C129.506 36.4193 129.792 36.48 130.19 36.48H130.97L130.879 37H129.995C129.475 37 129.09 36.9003 128.838 36.701C128.596 36.5017 128.474 36.1723 128.474 35.713C128.474 35.5137 128.492 35.3143 128.526 35.115L129.358 30.448H128.292L128.383 29.941H129.449L129.761 28.147H130.359L130.047 29.941H132.127L132.036 30.448H129.956L129.124 35.115ZM136.491 33.464C136.621 32.736 136.876 32.099 137.258 31.553C137.648 31.007 138.129 30.5867 138.701 30.292C139.273 29.9973 139.888 29.85 140.547 29.85C141.283 29.85 141.877 30.032 142.328 30.396C142.787 30.76 143.073 31.2237 143.186 31.787L143.511 29.941H144.096L142.835 37H142.263L142.588 35.141C142.284 35.713 141.838 36.1853 141.249 36.558C140.659 36.922 139.992 37.104 139.247 37.104C138.389 37.104 137.7 36.8527 137.18 36.35C136.668 35.8387 136.413 35.1497 136.413 34.283C136.413 34.023 136.439 33.75 136.491 33.464ZM142.887 33.464C142.93 33.204 142.952 32.9743 142.952 32.775C142.952 32.0383 142.731 31.4533 142.289 31.02C141.847 30.578 141.262 30.357 140.534 30.357C139.962 30.357 139.433 30.4827 138.948 30.734C138.471 30.9767 138.068 31.332 137.739 31.8C137.418 32.268 137.201 32.8227 137.089 33.464C137.045 33.75 137.024 33.9927 137.024 34.192C137.024 34.946 137.236 35.5353 137.661 35.96C138.094 36.376 138.683 36.584 139.429 36.584C139.975 36.584 140.49 36.4583 140.976 36.207C141.47 35.947 141.881 35.583 142.211 35.115C142.549 34.6383 142.774 34.088 142.887 33.464ZM147.266 27.38L145.563 37H144.978L146.681 27.38H147.266ZM149.28 31.462C149.558 30.9247 149.939 30.513 150.424 30.227C150.918 29.941 151.503 29.798 152.179 29.798L152.062 30.409H151.88C151.187 30.409 150.576 30.6083 150.047 31.007C149.519 31.397 149.176 32.0383 149.02 32.931L148.292 37H147.707L148.968 29.941H149.553L149.28 31.462ZM156.581 29.85C157.179 29.85 157.686 29.967 158.102 30.201C158.527 30.4263 158.843 30.734 159.051 31.124C159.268 31.5053 159.376 31.9343 159.376 32.411C159.376 32.619 159.359 32.8097 159.324 32.983C159.272 33.295 159.22 33.529 159.168 33.685H153.071C153.037 33.9623 153.019 34.1617 153.019 34.283C153.019 35.0283 153.245 35.6003 153.695 35.999C154.146 36.3977 154.714 36.597 155.398 36.597C156.083 36.597 156.69 36.428 157.218 36.09C157.756 35.7433 158.137 35.2753 158.362 34.686H158.973C158.696 35.4053 158.232 35.9903 157.582 36.441C156.941 36.883 156.183 37.104 155.307 37.104C154.441 37.104 153.743 36.8527 153.214 36.35C152.694 35.8473 152.434 35.1627 152.434 34.296C152.434 34.0273 152.46 33.75 152.512 33.464C152.642 32.7273 152.902 32.086 153.292 31.54C153.682 30.994 154.159 30.578 154.722 30.292C155.294 29.9973 155.914 29.85 156.581 29.85ZM158.7 33.23C158.761 32.9787 158.791 32.723 158.791 32.463C158.791 31.7783 158.57 31.254 158.128 30.89C157.695 30.526 157.145 30.344 156.477 30.344C155.983 30.344 155.507 30.4523 155.047 30.669C154.588 30.8857 154.189 31.2107 153.851 31.644C153.513 32.0773 153.279 32.606 153.149 33.23H158.7ZM160.637 33.464C160.767 32.736 161.023 32.099 161.404 31.553C161.794 31.007 162.275 30.5867 162.847 30.292C163.419 29.9973 164.035 29.85 164.693 29.85C165.43 29.85 166.024 30.032 166.474 30.396C166.934 30.76 167.22 31.2237 167.332 31.787L167.657 29.941H168.242L166.981 37H166.409L166.734 35.141C166.431 35.713 165.985 36.1853 165.395 36.558C164.806 36.922 164.139 37.104 163.393 37.104C162.535 37.104 161.846 36.8527 161.326 36.35C160.815 35.8387 160.559 35.1497 160.559 34.283C160.559 34.023 160.585 33.75 160.637 33.464ZM167.033 33.464C167.077 33.204 167.098 32.9743 167.098 32.775C167.098 32.0383 166.877 31.4533 166.435 31.02C165.993 30.578 165.408 30.357 164.68 30.357C164.108 30.357 163.58 30.4827 163.094 30.734C162.618 30.9767 162.215 31.332 161.885 31.8C161.565 32.268 161.348 32.8227 161.235 33.464C161.192 33.75 161.17 33.9927 161.17 34.192C161.17 34.946 161.383 35.5353 161.807 35.96C162.241 36.376 162.83 36.584 163.575 36.584C164.121 36.584 164.637 36.4583 165.122 36.207C165.616 35.947 166.028 35.583 166.357 35.115C166.695 34.6383 166.921 34.088 167.033 33.464ZM169.384 33.464C169.514 32.736 169.77 32.099 170.151 31.553C170.541 31.007 171.022 30.5867 171.594 30.292C172.166 29.9973 172.782 29.85 173.44 29.85C174.16 29.85 174.749 30.032 175.208 30.396C175.676 30.7513 175.967 31.215 176.079 31.787L176.859 27.38H177.431L175.728 37H175.156L175.494 35.128C175.191 35.7087 174.745 36.1853 174.155 36.558C173.566 36.922 172.899 37.104 172.153 37.104C171.287 37.104 170.593 36.8527 170.073 36.35C169.562 35.8387 169.306 35.1497 169.306 34.283C169.306 34.023 169.332 33.75 169.384 33.464ZM175.78 33.464C175.824 33.204 175.845 32.9743 175.845 32.775C175.845 32.0383 175.624 31.4533 175.182 31.02C174.74 30.578 174.155 30.357 173.427 30.357C172.855 30.357 172.327 30.4827 171.841 30.734C171.365 30.9767 170.962 31.332 170.632 31.8C170.312 32.268 170.095 32.8227 169.982 33.464C169.939 33.75 169.917 33.9927 169.917 34.192C169.917 34.946 170.13 35.5353 170.554 35.96C170.988 36.376 171.577 36.584 172.322 36.584C172.868 36.584 173.384 36.4583 173.869 36.207C174.363 35.947 174.775 35.583 175.104 35.115C175.442 34.6383 175.668 34.088 175.78 33.464ZM178.924 29.941L180.445 36.272L184.02 29.941H184.644L178.703 40.315H178.066L179.977 36.987L178.287 29.941H178.924ZM198.975 29.941L195.504 37H194.945L193.801 30.734L190.434 37H189.875L188.913 29.941H189.524L190.304 36.259L193.671 29.941H194.243L195.361 36.259L198.377 29.941H198.975ZM200.829 28.368C200.708 28.368 200.608 28.3333 200.53 28.264C200.452 28.186 200.413 28.0863 200.413 27.965C200.413 27.7917 200.474 27.6487 200.595 27.536C200.716 27.4147 200.855 27.354 201.011 27.354C201.132 27.354 201.232 27.393 201.31 27.471C201.397 27.549 201.44 27.6487 201.44 27.77C201.44 27.9433 201.375 28.0863 201.245 28.199C201.124 28.3117 200.985 28.368 200.829 28.368ZM200.855 29.941L199.594 37H199.009L200.27 29.941H200.855ZM202.948 35.115C202.913 35.2883 202.896 35.4617 202.896 35.635C202.896 35.947 202.982 36.168 203.156 36.298C203.329 36.4193 203.615 36.48 204.014 36.48H204.794L204.703 37H203.819C203.299 37 202.913 36.9003 202.662 36.701C202.419 36.5017 202.298 36.1723 202.298 35.713C202.298 35.5137 202.315 35.3143 202.35 35.115L203.182 30.448H202.116L202.207 29.941H203.273L203.585 28.147H204.183L203.871 29.941H205.951L205.86 30.448H203.78L202.948 35.115ZM210.73 29.798C211.432 29.798 212 29.993 212.433 30.383C212.867 30.7643 213.083 31.332 213.083 32.086C213.083 32.32 213.057 32.58 213.005 32.866L212.277 37H211.705L212.433 32.905C212.477 32.6277 212.498 32.398 212.498 32.216C212.498 31.592 212.325 31.1197 211.978 30.799C211.632 30.4697 211.146 30.305 210.522 30.305C209.76 30.305 209.11 30.552 208.572 31.046C208.035 31.5313 207.68 32.2463 207.506 33.191V33.178L206.83 37H206.245L207.948 27.38H208.533L207.818 31.449C208.113 30.9117 208.516 30.5043 209.027 30.227C209.547 29.941 210.115 29.798 210.73 29.798ZM219.363 35.115C219.328 35.2883 219.311 35.4617 219.311 35.635C219.311 35.947 219.397 36.168 219.571 36.298C219.744 36.4193 220.03 36.48 220.429 36.48H221.209L221.118 37H220.234C219.714 37 219.328 36.9003 219.077 36.701C218.834 36.5017 218.713 36.1723 218.713 35.713C218.713 35.5137 218.73 35.3143 218.765 35.115L219.597 30.448H218.531L218.622 29.941H219.688L220 28.147H220.598L220.286 29.941H222.366L222.275 30.448H220.195L219.363 35.115ZM227.145 29.798C227.847 29.798 228.415 29.993 228.848 30.383C229.282 30.7643 229.498 31.332 229.498 32.086C229.498 32.32 229.472 32.58 229.42 32.866L228.692 37H228.12L228.848 32.905C228.892 32.6277 228.913 32.398 228.913 32.216C228.913 31.592 228.74 31.1197 228.393 30.799C228.047 30.4697 227.561 30.305 226.937 30.305C226.175 30.305 225.525 30.552 224.987 31.046C224.45 31.5313 224.095 32.2463 223.921 33.191V33.178L223.245 37H222.66L224.363 27.38H224.948L224.233 31.449C224.528 30.9117 224.931 30.5043 225.442 30.227C225.962 29.941 226.53 29.798 227.145 29.798ZM232.58 28.368C232.459 28.368 232.359 28.3333 232.281 28.264C232.203 28.186 232.164 28.0863 232.164 27.965C232.164 27.7917 232.225 27.6487 232.346 27.536C232.467 27.4147 232.606 27.354 232.762 27.354C232.883 27.354 232.983 27.393 233.061 27.471C233.148 27.549 233.191 27.6487 233.191 27.77C233.191 27.9433 233.126 28.0863 232.996 28.199C232.875 28.3117 232.736 28.368 232.58 28.368ZM232.606 29.941L231.345 37H230.76L232.021 29.941H232.606ZM235.713 37.104C234.985 37.104 234.404 36.9307 233.971 36.584C233.546 36.2373 233.36 35.7433 233.412 35.102H233.997C233.953 35.5613 234.083 35.9297 234.387 36.207C234.699 36.4757 235.154 36.61 235.752 36.61C236.367 36.61 236.857 36.4757 237.221 36.207C237.585 35.9297 237.767 35.5743 237.767 35.141C237.767 34.881 237.693 34.6643 237.546 34.491C237.398 34.3177 237.216 34.179 237 34.075C236.783 33.971 236.48 33.8497 236.09 33.711C235.656 33.5637 235.301 33.4207 235.024 33.282C234.755 33.1433 234.525 32.9527 234.335 32.71C234.153 32.4587 234.062 32.1423 234.062 31.761C234.062 31.3883 234.17 31.059 234.387 30.773C234.603 30.4783 234.902 30.253 235.284 30.097C235.665 29.9323 236.09 29.85 236.558 29.85C237.208 29.85 237.749 30.019 238.183 30.357C238.616 30.6863 238.833 31.124 238.833 31.67C238.833 31.7827 238.828 31.8693 238.82 31.93H238.248C238.256 31.8867 238.261 31.8173 238.261 31.722C238.261 31.306 238.092 30.9723 237.754 30.721C237.424 30.461 237.008 30.331 236.506 30.331C235.968 30.331 235.522 30.461 235.167 30.721C234.82 30.9723 234.647 31.3147 234.647 31.748C234.647 32.034 234.725 32.2723 234.881 32.463C235.037 32.645 235.227 32.7923 235.453 32.905C235.687 33.009 235.999 33.1303 236.389 33.269C236.822 33.4163 237.164 33.555 237.416 33.685C237.676 33.815 237.897 33.997 238.079 34.231C238.261 34.465 238.352 34.764 238.352 35.128C238.352 35.7347 238.105 36.2157 237.611 36.571C237.125 36.9263 236.493 37.104 235.713 37.104ZM245.983 37.104C245.255 37.104 244.674 36.9307 244.241 36.584C243.816 36.2373 243.63 35.7433 243.682 35.102H244.267C244.224 35.5613 244.354 35.9297 244.657 36.207C244.969 36.4757 245.424 36.61 246.022 36.61C246.637 36.61 247.127 36.4757 247.491 36.207C247.855 35.9297 248.037 35.5743 248.037 35.141C248.037 34.881 247.963 34.6643 247.816 34.491C247.669 34.3177 247.487 34.179 247.27 34.075C247.053 33.971 246.75 33.8497 246.36 33.711C245.927 33.5637 245.571 33.4207 245.294 33.282C245.025 33.1433 244.796 32.9527 244.605 32.71C244.423 32.4587 244.332 32.1423 244.332 31.761C244.332 31.3883 244.44 31.059 244.657 30.773C244.874 30.4783 245.173 30.253 245.554 30.097C245.935 29.9323 246.36 29.85 246.828 29.85C247.478 29.85 248.02 30.019 248.453 30.357C248.886 30.6863 249.103 31.124 249.103 31.67C249.103 31.7827 249.099 31.8693 249.09 31.93H248.518C248.527 31.8867 248.531 31.8173 248.531 31.722C248.531 31.306 248.362 30.9723 248.024 30.721C247.695 30.461 247.279 30.331 246.776 30.331C246.239 30.331 245.792 30.461 245.437 30.721C245.09 30.9723 244.917 31.3147 244.917 31.748C244.917 32.034 244.995 32.2723 245.151 32.463C245.307 32.645 245.498 32.7923 245.723 32.905C245.957 33.009 246.269 33.1303 246.659 33.269C247.092 33.4163 247.435 33.555 247.686 33.685C247.946 33.815 248.167 33.997 248.349 34.231C248.531 34.465 248.622 34.764 248.622 35.128C248.622 35.7347 248.375 36.2157 247.881 36.571C247.396 36.9263 246.763 37.104 245.983 37.104ZM251.431 35.115C251.396 35.2883 251.379 35.4617 251.379 35.635C251.379 35.947 251.466 36.168 251.639 36.298C251.812 36.4193 252.098 36.48 252.497 36.48H253.277L253.186 37H252.302C251.782 37 251.396 36.9003 251.145 36.701C250.902 36.5017 250.781 36.1723 250.781 35.713C250.781 35.5137 250.798 35.3143 250.833 35.115L251.665 30.448H250.599L250.69 29.941H251.756L252.068 28.147H252.666L252.354 29.941H254.434L254.343 30.448H252.263L251.431 35.115ZM254.989 33.464C255.119 32.736 255.374 32.099 255.756 31.553C256.146 31.007 256.627 30.5867 257.199 30.292C257.771 29.9973 258.386 29.85 259.045 29.85C259.781 29.85 260.375 30.032 260.826 30.396C261.285 30.76 261.571 31.2237 261.684 31.787L262.009 29.941H262.594L261.333 37H260.761L261.086 35.141C260.782 35.713 260.336 36.1853 259.747 36.558C259.157 36.922 258.49 37.104 257.745 37.104C256.887 37.104 256.198 36.8527 255.678 36.35C255.166 35.8387 254.911 35.1497 254.911 34.283C254.911 34.023 254.937 33.75 254.989 33.464ZM261.385 33.464C261.428 33.204 261.45 32.9743 261.45 32.775C261.45 32.0383 261.229 31.4533 260.787 31.02C260.345 30.578 259.76 30.357 259.032 30.357C258.46 30.357 257.931 30.4827 257.446 30.734C256.969 30.9767 256.566 31.332 256.237 31.8C255.916 32.268 255.699 32.8227 255.587 33.464C255.543 33.75 255.522 33.9927 255.522 34.192C255.522 34.946 255.734 35.5353 256.159 35.96C256.592 36.376 257.181 36.584 257.927 36.584C258.473 36.584 258.988 36.4583 259.474 36.207C259.968 35.947 260.379 35.583 260.709 35.115C261.047 34.6383 261.272 34.088 261.385 33.464ZM264.685 35.115C264.65 35.2883 264.633 35.4617 264.633 35.635C264.633 35.947 264.72 36.168 264.893 36.298C265.066 36.4193 265.352 36.48 265.751 36.48H266.531L266.44 37H265.556C265.036 37 264.65 36.9003 264.399 36.701C264.156 36.5017 264.035 36.1723 264.035 35.713C264.035 35.5137 264.052 35.3143 264.087 35.115L264.919 30.448H263.853L263.944 29.941H265.01L265.322 28.147H265.92L265.608 29.941H267.688L267.597 30.448H265.517L264.685 35.115ZM275.198 29.941L273.95 37H273.365L273.638 35.479C273.343 36.0077 272.94 36.415 272.429 36.701C271.917 36.9783 271.363 37.117 270.765 37.117C270.045 37.117 269.465 36.9263 269.023 36.545C268.589 36.155 268.373 35.5787 268.373 34.816C268.373 34.53 268.394 34.2743 268.438 34.049L269.179 29.941H269.751L269.023 34.01C268.979 34.2873 268.958 34.5127 268.958 34.686C268.958 35.3187 269.131 35.7997 269.478 36.129C269.824 36.4497 270.31 36.61 270.934 36.61C271.696 36.61 272.346 36.3673 272.884 35.882C273.43 35.388 273.781 34.6687 273.937 33.724V33.763L274.613 29.941H275.198ZM278.305 37.104C277.577 37.104 276.997 36.9307 276.563 36.584C276.139 36.2373 275.952 35.7433 276.004 35.102H276.589C276.546 35.5613 276.676 35.9297 276.979 36.207C277.291 36.4757 277.746 36.61 278.344 36.61C278.96 36.61 279.449 36.4757 279.813 36.207C280.177 35.9297 280.359 35.5743 280.359 35.141C280.359 34.881 280.286 34.6643 280.138 34.491C279.991 34.3177 279.809 34.179 279.592 34.075C279.376 33.971 279.072 33.8497 278.682 33.711C278.249 33.5637 277.894 33.4207 277.616 33.282C277.348 33.1433 277.118 32.9527 276.927 32.71C276.745 32.4587 276.654 32.1423 276.654 31.761C276.654 31.3883 276.763 31.059 276.979 30.773C277.196 30.4783 277.495 30.253 277.876 30.097C278.258 29.9323 278.682 29.85 279.15 29.85C279.8 29.85 280.342 30.019 280.775 30.357C281.209 30.6863 281.425 31.124 281.425 31.67C281.425 31.7827 281.421 31.8693 281.412 31.93H280.84C280.849 31.8867 280.853 31.8173 280.853 31.722C280.853 31.306 280.684 30.9723 280.346 30.721C280.017 30.461 279.601 30.331 279.098 30.331C278.561 30.331 278.115 30.461 277.759 30.721C277.413 30.9723 277.239 31.3147 277.239 31.748C277.239 32.034 277.317 32.2723 277.473 32.463C277.629 32.645 277.82 32.7923 278.045 32.905C278.279 33.009 278.591 33.1303 278.981 33.269C279.415 33.4163 279.757 33.555 280.008 33.685C280.268 33.815 280.489 33.997 280.671 34.231C280.853 34.465 280.944 34.764 280.944 35.128C280.944 35.7347 280.697 36.2157 280.203 36.571C279.718 36.9263 279.085 37.104 278.305 37.104ZM282.44 37.039C282.319 37.039 282.219 37.0043 282.141 36.935C282.063 36.857 282.024 36.7573 282.024 36.636C282.024 36.4627 282.085 36.3197 282.206 36.207C282.328 36.0857 282.471 36.025 282.635 36.025C282.757 36.025 282.856 36.064 282.934 36.142C283.012 36.2113 283.051 36.3067 283.051 36.428C283.051 36.6013 282.991 36.7487 282.869 36.87C282.748 36.9827 282.605 37.039 282.44 37.039Z" fill="black"/>
<path d="M443.865 3.874L442.24 13H441.655L443.28 3.874H443.865ZM448.843 5.798C449.562 5.798 450.139 5.993 450.572 6.383C451.005 6.76433 451.222 7.332 451.222 8.086C451.222 8.32 451.196 8.58 451.144 8.866L450.416 13H449.844L450.572 8.905C450.615 8.62767 450.637 8.398 450.637 8.216C450.637 7.592 450.464 7.11967 450.117 6.799C449.77 6.46967 449.285 6.305 448.661 6.305C447.933 6.305 447.305 6.53033 446.776 6.981C446.247 7.43167 445.883 8.09467 445.684 8.97L444.969 13H444.384L445.645 5.941H446.23L445.97 7.423C446.265 6.89433 446.663 6.49133 447.166 6.214C447.677 5.93667 448.236 5.798 448.843 5.798ZM457.8 7.8C458.104 7.23667 458.55 6.773 459.139 6.409C459.729 6.03633 460.392 5.85 461.128 5.85C462.004 5.85 462.697 6.10133 463.208 6.604C463.72 7.098 463.975 7.77833 463.975 8.645C463.975 8.905 463.949 9.178 463.897 9.464C463.767 10.192 463.507 10.8333 463.117 11.388C462.736 11.934 462.259 12.3587 461.687 12.662C461.124 12.9567 460.513 13.104 459.854 13.104C459.118 13.104 458.52 12.922 458.06 12.558C457.601 12.1853 457.315 11.7173 457.202 11.154L456.292 16.328H455.72L457.553 5.941H458.125L457.8 7.8ZM463.299 9.464C463.343 9.24733 463.364 9.00033 463.364 8.723C463.364 7.97767 463.148 7.397 462.714 6.981C462.281 6.565 461.696 6.357 460.959 6.357C460.413 6.357 459.898 6.487 459.412 6.747C458.927 6.99833 458.515 7.36233 458.177 7.839C457.839 8.307 457.614 8.84867 457.501 9.464C457.458 9.74133 457.436 9.971 457.436 10.153C457.436 10.8983 457.657 11.492 458.099 11.934C458.55 12.3673 459.135 12.584 459.854 12.584C460.426 12.584 460.951 12.4583 461.427 12.207C461.913 11.9557 462.316 11.596 462.636 11.128C462.966 10.66 463.187 10.1053 463.299 9.464ZM466.612 7.462C466.89 6.92467 467.271 6.513 467.756 6.227C468.25 5.941 468.835 5.798 469.511 5.798L469.394 6.409H469.212C468.519 6.409 467.908 6.60833 467.379 7.007C466.851 7.397 466.508 8.03833 466.352 8.931L465.624 13H465.039L466.3 5.941H466.885L466.612 7.462ZM472.704 13.104C471.82 13.104 471.11 12.8483 470.572 12.337C470.044 11.8257 469.779 11.1323 469.779 10.257C469.779 9.45967 469.957 8.723 470.312 8.047C470.676 7.371 471.179 6.838 471.82 6.448C472.462 6.04933 473.177 5.85 473.965 5.85C474.537 5.85 475.044 5.967 475.486 6.201C475.928 6.42633 476.271 6.75567 476.513 7.189C476.765 7.61367 476.89 8.11633 476.89 8.697C476.89 9.49433 476.708 10.231 476.344 10.907C475.98 11.583 475.478 12.1203 474.836 12.519C474.204 12.909 473.493 13.104 472.704 13.104ZM472.782 12.597C473.458 12.597 474.061 12.4193 474.589 12.064C475.127 11.7087 475.543 11.2363 475.837 10.647C476.141 10.0577 476.292 9.41633 476.292 8.723C476.292 7.95167 476.063 7.36233 475.603 6.955C475.144 6.54767 474.568 6.344 473.874 6.344C473.19 6.344 472.583 6.52167 472.054 6.877C471.526 7.23233 471.114 7.709 470.819 8.307C470.525 8.89633 470.377 9.53333 470.377 10.218C470.377 10.9893 470.603 11.5787 471.053 11.986C471.513 12.3933 472.089 12.597 472.782 12.597ZM482.279 5.85C483.016 5.85 483.614 6.032 484.073 6.396C484.533 6.75133 484.814 7.21067 484.918 7.774L485.243 5.941H485.828L484.541 13.221C484.42 13.871 484.173 14.4387 483.8 14.924C483.436 15.418 482.986 15.795 482.448 16.055C481.92 16.3237 481.356 16.458 480.758 16.458C479.874 16.458 479.177 16.2457 478.665 15.821C478.163 15.3963 477.89 14.8243 477.846 14.105H478.431C478.501 14.6683 478.743 15.1147 479.159 15.444C479.575 15.782 480.139 15.951 480.849 15.951C481.343 15.951 481.807 15.8383 482.24 15.613C482.682 15.3963 483.055 15.08 483.358 14.664C483.662 14.2567 483.861 13.7757 483.956 13.221L484.32 11.154C484.017 11.7173 483.571 12.1853 482.981 12.558C482.392 12.922 481.729 13.104 480.992 13.104C480.126 13.104 479.432 12.8527 478.912 12.35C478.401 11.8387 478.145 11.1497 478.145 10.283C478.145 10.023 478.171 9.75 478.223 9.464C478.353 8.736 478.609 8.099 478.99 7.553C479.38 7.007 479.861 6.58667 480.433 6.292C481.005 5.99733 481.621 5.85 482.279 5.85ZM484.619 9.464C484.663 9.204 484.684 8.97433 484.684 8.775C484.684 8.03833 484.463 7.45333 484.021 7.02C483.579 6.578 482.994 6.357 482.266 6.357C481.694 6.357 481.166 6.48267 480.68 6.734C480.204 6.97667 479.801 7.332 479.471 7.8C479.151 8.268 478.934 8.82267 478.821 9.464C478.778 9.75 478.756 9.99267 478.756 10.192C478.756 10.946 478.969 11.5353 479.393 11.96C479.827 12.376 480.416 12.584 481.161 12.584C481.707 12.584 482.223 12.4583 482.708 12.207C483.202 11.947 483.614 11.583 483.943 11.115C484.281 10.6383 484.507 10.088 484.619 9.464ZM488.283 7.462C488.561 6.92467 488.942 6.513 489.427 6.227C489.921 5.941 490.506 5.798 491.182 5.798L491.065 6.409H490.883C490.19 6.409 489.579 6.60833 489.05 7.007C488.522 7.397 488.179 8.03833 488.023 8.931L487.295 13H486.71L487.971 5.941H488.556L488.283 7.462ZM495.584 5.85C496.182 5.85 496.689 5.967 497.105 6.201C497.53 6.42633 497.846 6.734 498.054 7.124C498.271 7.50533 498.379 7.93433 498.379 8.411C498.379 8.619 498.362 8.80967 498.327 8.983C498.275 9.295 498.223 9.529 498.171 9.685H492.074C492.04 9.96233 492.022 10.1617 492.022 10.283C492.022 11.0283 492.248 11.6003 492.698 11.999C493.149 12.3977 493.717 12.597 494.401 12.597C495.086 12.597 495.693 12.428 496.221 12.09C496.759 11.7433 497.14 11.2753 497.365 10.686H497.976C497.699 11.4053 497.235 11.9903 496.585 12.441C495.944 12.883 495.186 13.104 494.31 13.104C493.444 13.104 492.746 12.8527 492.217 12.35C491.697 11.8473 491.437 11.1627 491.437 10.296C491.437 10.0273 491.463 9.75 491.515 9.464C491.645 8.72733 491.905 8.086 492.295 7.54C492.685 6.994 493.162 6.578 493.725 6.292C494.297 5.99733 494.917 5.85 495.584 5.85ZM497.703 9.23C497.764 8.97867 497.794 8.723 497.794 8.463C497.794 7.77833 497.573 7.254 497.131 6.89C496.698 6.526 496.148 6.344 495.48 6.344C494.986 6.344 494.51 6.45233 494.05 6.669C493.591 6.88567 493.192 7.21067 492.854 7.644C492.516 8.07733 492.282 8.606 492.152 9.23H497.703ZM501.603 13.104C500.875 13.104 500.295 12.9307 499.861 12.584C499.437 12.2373 499.25 11.7433 499.302 11.102H499.887C499.844 11.5613 499.974 11.9297 500.277 12.207C500.589 12.4757 501.044 12.61 501.642 12.61C502.258 12.61 502.747 12.4757 503.111 12.207C503.475 11.9297 503.657 11.5743 503.657 11.141C503.657 10.881 503.584 10.6643 503.436 10.491C503.289 10.3177 503.107 10.179 502.89 10.075C502.674 9.971 502.37 9.84967 501.98 9.711C501.547 9.56367 501.192 9.42067 500.914 9.282C500.646 9.14333 500.416 8.95267 500.225 8.71C500.043 8.45867 499.952 8.14233 499.952 7.761C499.952 7.38833 500.061 7.059 500.277 6.773C500.494 6.47833 500.793 6.253 501.174 6.097C501.556 5.93233 501.98 5.85 502.448 5.85C503.098 5.85 503.64 6.019 504.073 6.357C504.507 6.68633 504.723 7.124 504.723 7.67C504.723 7.78267 504.719 7.86933 504.71 7.93H504.138C504.147 7.88667 504.151 7.81733 504.151 7.722C504.151 7.306 503.982 6.97233 503.644 6.721C503.315 6.461 502.899 6.331 502.396 6.331C501.859 6.331 501.413 6.461 501.057 6.721C500.711 6.97233 500.537 7.31467 500.537 7.748C500.537 8.034 500.615 8.27233 500.771 8.463C500.927 8.645 501.118 8.79233 501.343 8.905C501.577 9.009 501.889 9.13033 502.279 9.269C502.713 9.41633 503.055 9.555 503.306 9.685C503.566 9.815 503.787 9.997 503.969 10.231C504.151 10.465 504.242 10.764 504.242 11.128C504.242 11.7347 503.995 12.2157 503.501 12.571C503.016 12.9263 502.383 13.104 501.603 13.104ZM508.065 13.104C507.337 13.104 506.756 12.9307 506.323 12.584C505.898 12.2373 505.712 11.7433 505.764 11.102H506.349C506.306 11.5613 506.436 11.9297 506.739 12.207C507.051 12.4757 507.506 12.61 508.104 12.61C508.719 12.61 509.209 12.4757 509.573 12.207C509.937 11.9297 510.119 11.5743 510.119 11.141C510.119 10.881 510.045 10.6643 509.898 10.491C509.751 10.3177 509.569 10.179 509.352 10.075C509.135 9.971 508.832 9.84967 508.442 9.711C508.009 9.56367 507.653 9.42067 507.376 9.282C507.107 9.14333 506.878 8.95267 506.687 8.71C506.505 8.45867 506.414 8.14233 506.414 7.761C506.414 7.38833 506.522 7.059 506.739 6.773C506.956 6.47833 507.255 6.253 507.636 6.097C508.017 5.93233 508.442 5.85 508.91 5.85C509.56 5.85 510.102 6.019 510.535 6.357C510.968 6.68633 511.185 7.124 511.185 7.67C511.185 7.78267 511.181 7.86933 511.172 7.93H510.6C510.609 7.88667 510.613 7.81733 510.613 7.722C510.613 7.306 510.444 6.97233 510.106 6.721C509.777 6.461 509.361 6.331 508.858 6.331C508.321 6.331 507.874 6.461 507.519 6.721C507.172 6.97233 506.999 7.31467 506.999 7.748C506.999 8.034 507.077 8.27233 507.233 8.463C507.389 8.645 507.58 8.79233 507.805 8.905C508.039 9.009 508.351 9.13033 508.741 9.269C509.174 9.41633 509.517 9.555 509.768 9.685C510.028 9.815 510.249 9.997 510.431 10.231C510.613 10.465 510.704 10.764 510.704 11.128C510.704 11.7347 510.457 12.2157 509.963 12.571C509.478 12.9263 508.845 13.104 508.065 13.104ZM512.941 11.635L511.147 14.963H510.692L512.265 11.635H512.941Z" fill="#A461D8"/>
<path d="M0 14.3H29.6816V14.95H0V14.3Z" fill="black"/>
</svg>
