<svg width="20" height="20" viewBox="0 0 20 20" fill="none" xmlns="http://www.w3.org/2000/svg">
<path fill-rule="evenodd" clip-rule="evenodd" d="M10 0C4.4775 0 0 4.4775 0 10C0 15.5238 4.4775 20 10 20C15.5225 20 20 15.5238 20 10C20 4.4775 15.5225 0 10 0ZM7.13388 5.36661C6.64573 4.87846 5.85427 4.87846 5.36612 5.36661C4.87796 5.85477 4.87796 6.64622 5.36612 7.13438L8.23223 10.0005L5.36612 12.8666C4.87796 13.3548 4.87796 14.1462 5.36612 14.6344C5.85427 15.1225 6.64573 15.1225 7.13388 14.6344L10 11.7683L12.8661 14.6344C13.3543 15.1225 14.1457 15.1225 14.6339 14.6344C15.122 14.1462 15.122 13.3548 14.6339 12.8666L11.7678 10.0005L14.6339 7.13438C15.122 6.64622 15.122 5.85477 14.6339 5.36661C14.1457 4.87846 13.3543 4.87846 12.8661 5.36661L10 8.23273L7.13388 5.36661Z" fill="#DEDEDE"/>
</svg>
