<svg width="24" height="24" viewBox="0 0 24 24" fill="none" xmlns="http://www.w3.org/2000/svg">
<g clip-path="url(#clip0_922_769)">
<path d="M12.5897 14.2669C12.2531 14.2669 11.9803 14.5397 11.9803 14.8762C11.98 16.4536 10.7011 17.7321 9.12373 17.7319C7.54634 17.7316 6.26783 16.4527 6.26811 14.8753C6.26839 13.2981 7.547 12.0197 9.1242 12.0197C9.46076 12.0197 9.73358 11.7469 9.73358 11.4103C9.73358 11.0737 9.46076 10.8009 9.1242 10.8009C6.87411 10.8025 5.05044 12.6262 5.04889 14.8762C5.04889 17.1269 6.87336 18.9513 9.12397 18.9513C11.3746 18.9513 13.199 17.1269 13.199 14.8762C13.199 14.5397 12.9262 14.2669 12.5897 14.2669Z" fill="black"/>
<path d="M17.4309 16.2778C17.3728 15.9463 17.057 15.7247 16.7255 15.7828L15.45 16.0064C15.2167 16.0473 15.0282 16.2197 14.9667 16.4484C14.8307 16.9532 14.6295 17.4381 14.3681 17.8908C14.249 18.0965 14.2603 18.3527 14.3972 18.547L15.1416 19.6078C15.2457 19.7556 15.2283 19.9568 15.1003 20.0845L14.3353 20.8495C14.2078 20.9774 14.0068 20.995 13.8591 20.8913L12.7983 20.1469C12.6039 20.01 12.3477 19.9987 12.142 20.1178C11.6894 20.3792 11.2045 20.5805 10.6997 20.7164C10.4709 20.7779 10.2985 20.9664 10.2577 21.1997L10.0313 22.4738C10.0003 22.6516 9.84572 22.7814 9.66516 22.7813H8.58281C8.40225 22.7814 8.24775 22.6516 8.21672 22.4738L7.99313 21.1988C7.95225 20.9655 7.77985 20.777 7.5511 20.7155C7.0462 20.5795 6.56119 20.3783 6.10828 20.1169C5.9026 19.9977 5.64638 20.0091 5.45203 20.1459L4.39313 20.8898C4.24538 20.994 4.0441 20.9766 3.91641 20.8486L3.15141 20.0836C3.02372 19.956 3.00614 19.7552 3.10969 19.6073L3.85406 18.5466C3.99089 18.3522 4.00228 18.096 3.88313 17.8903C3.62161 17.4376 3.42038 16.9528 3.28453 16.448C3.22303 16.2192 3.03455 16.0468 2.80125 16.0059L1.52625 15.7823C1.34869 15.7514 1.21903 15.5974 1.21875 15.4172V14.3348C1.21856 14.1543 1.34836 13.9998 1.52625 13.9688L2.80125 13.7452C3.03455 13.7043 3.22303 13.5319 3.28453 13.3031C3.42028 12.7978 3.62152 12.3125 3.88313 11.8594C4.00228 11.6537 3.99089 11.3975 3.85406 11.2031L3.11016 10.1456C3.006 9.99788 3.02344 9.7966 3.15141 9.66891L3.91688 8.90344C4.04447 8.77571 4.24547 8.75831 4.39313 8.86219L5.45391 9.60657C5.64825 9.74344 5.90447 9.75478 6.11016 9.63563C6.56302 9.37421 7.04803 9.17297 7.55297 9.03703C7.78172 8.97553 7.95413 8.78705 7.995 8.55375L8.2186 7.27875C8.27672 6.94725 8.0551 6.63141 7.7236 6.57328C7.3921 6.51516 7.07625 6.73678 7.01813 7.06828L6.85969 7.97297C6.51216 8.08777 6.17386 8.22881 5.84766 8.39485L5.09531 7.86703C4.46325 7.42228 3.60277 7.49728 3.05719 8.04469L2.28938 8.80735C1.74249 9.35321 1.66772 10.2134 2.11219 10.8455L2.64 11.5978C2.47392 11.9241 2.33288 12.2626 2.21813 12.6103L1.31344 12.7688C0.55322 12.9023 -0.000936193 13.563 1.30694e-06 14.3348V15.4172C-0.000983068 16.1898 0.554204 16.851 1.31531 16.9838L2.22 17.1427C2.33475 17.4902 2.4758 17.8285 2.64188 18.1547L2.11219 18.907C1.66786 19.5392 1.74281 20.3994 2.28984 20.9452L3.05531 21.7102C3.60108 22.2572 4.46142 22.332 5.09344 21.8873L5.84344 21.3595C6.16964 21.5256 6.50794 21.6666 6.85547 21.7814L7.01391 22.6861C7.14741 23.4475 7.80975 24.0023 8.58281 24H9.66516C10.4379 24.0009 11.0992 23.4455 11.2317 22.6842L11.3906 21.7795C11.7382 21.6647 12.0765 21.5237 12.4027 21.3577L13.1555 21.8855C13.7876 22.33 14.6479 22.255 15.1936 21.7078L15.9591 20.9423C16.5061 20.3966 16.581 19.5364 16.1367 18.9042L15.6094 18.1542C15.7754 17.828 15.9164 17.4897 16.0313 17.1422L16.9359 16.9833C17.2674 16.9252 17.4891 16.6093 17.4309 16.2778Z" fill="black"/>
<path d="M22.8563 5.53125L22.2188 5.41969C22.1391 5.18981 22.0452 4.96514 21.9375 4.74703L22.3125 4.21875C22.6989 3.66938 22.6337 2.92167 22.1583 2.44735L21.5545 1.84219C21.08 1.36575 20.3311 1.30041 19.7813 1.6875L19.2511 2.05922C19.033 1.9515 18.8083 1.85756 18.5784 1.77797L18.4688 1.14328C18.3534 0.481502 17.7783 -0.00107632 17.1066 1.80287e-06H16.2539C15.5822 -0.000841947 15.0074 0.481971 14.8922 1.14375L14.7802 1.78125C14.5503 1.86085 14.3256 1.95478 14.1075 2.0625L13.5774 1.6875C13.028 1.30116 12.2803 1.36627 11.8059 1.84172L11.2031 2.44547C10.7267 2.92003 10.6614 3.66886 11.0484 4.21875L11.4202 4.74891C11.3124 4.96702 11.2185 5.19169 11.1389 5.42156L10.5038 5.53125C9.84216 5.64666 9.35963 6.22139 9.36048 6.89297V7.74563C9.35916 8.41753 9.84184 8.99283 10.5038 9.10828L11.1408 9.21985C11.2204 9.44972 11.3143 9.67439 11.422 9.8925L11.0499 10.4227C10.6635 10.9718 10.7281 11.7194 11.2031 12.1941L11.8059 12.7969C12.2804 13.2726 13.0284 13.3377 13.5778 12.9511L14.1094 12.5794C14.3275 12.687 14.5522 12.781 14.782 12.8606L14.8941 13.4981C15.0095 14.1597 15.5842 14.6423 16.2558 14.6414H17.1084C17.7802 14.6414 18.3545 14.1578 18.4688 13.4958L18.5803 12.8588C18.8102 12.7792 19.0349 12.6852 19.253 12.5775L19.7813 12.9516C20.3311 13.3388 21.0801 13.2735 21.5545 12.7969L22.1578 12.1936C22.633 11.7194 22.6982 10.9721 22.3125 10.4227L21.9399 9.89063C22.0475 9.67247 22.1415 9.44785 22.2211 9.21797L22.8586 9.10594C23.5187 8.98988 24.0001 8.41636 24 7.7461V6.89344C24.0011 6.22153 23.5182 5.64647 22.8563 5.53125ZM22.7813 7.7475C22.7813 7.82705 22.7241 7.89506 22.6458 7.90875L21.6408 8.085C21.4075 8.12588 21.219 8.29828 21.1575 8.52703C21.0533 8.91403 20.899 9.28575 20.6986 9.63281C20.5794 9.8385 20.5908 10.0947 20.7277 10.2891L21.3141 11.1253C21.3599 11.1904 21.3522 11.2791 21.2958 11.3353L20.693 11.9381C20.6361 11.9927 20.5485 11.999 20.4844 11.9531L19.6467 11.3672C19.4524 11.2303 19.1962 11.219 18.9905 11.3381C18.6434 11.5386 18.2717 11.6928 17.8847 11.797C17.6564 11.8593 17.4848 12.0481 17.4445 12.2813L17.2683 13.2863C17.2546 13.3646 17.1866 13.4218 17.107 13.4217H16.2539C16.1744 13.4218 16.1064 13.3646 16.0927 13.2863L15.9159 12.2813C15.8751 12.048 15.7027 11.8595 15.4739 11.798C15.0868 11.6937 14.7149 11.5395 14.3677 11.3391C14.162 11.2199 13.9058 11.2313 13.7114 11.3681L12.8775 11.9531C12.8124 11.999 12.7237 11.9912 12.6675 11.9348L12.0647 11.332C12.0083 11.2758 12.0006 11.1871 12.0464 11.122L12.6328 10.2858C12.7697 10.0914 12.781 9.83522 12.6619 9.62953C12.4614 9.28252 12.3071 8.91075 12.203 8.52375C12.1406 8.29566 11.9518 8.12424 11.7188 8.08406L10.7138 7.90781C10.6354 7.89413 10.5782 7.82611 10.5783 7.74656L10.5788 6.89344C10.5787 6.81389 10.6359 6.74588 10.7142 6.73219L11.7188 6.55547C11.9521 6.5146 12.1405 6.34219 12.202 6.11344C12.3062 5.72644 12.4605 5.35472 12.6609 5.00766C12.7801 4.80197 12.7688 4.54575 12.6319 4.35141L12.0469 3.51563C12.001 3.45052 12.0088 3.36183 12.0652 3.30563L12.6684 2.70235C12.7246 2.64596 12.8133 2.63822 12.8784 2.68406L13.7142 3.27047C13.9086 3.4073 14.1648 3.41869 14.3705 3.29953C14.7175 3.0991 15.0893 2.94483 15.4763 2.84063C15.705 2.77913 15.8774 2.59064 15.9183 2.35735L16.0945 1.35235C16.1089 1.27542 16.1757 1.21945 16.2539 1.21875H17.1066C17.1861 1.2187 17.2541 1.27589 17.2678 1.35422L17.4441 2.35922C17.4849 2.59252 17.6574 2.781 17.8861 2.8425C18.2731 2.94666 18.6449 3.10092 18.9919 3.30141C19.1976 3.42056 19.4538 3.40922 19.6481 3.27235L20.4844 2.68594C20.5495 2.6401 20.6382 2.64783 20.6944 2.70422L21.2977 3.3075C21.3525 3.36394 21.3594 3.45131 21.3141 3.51563L20.7277 4.35328C20.5908 4.54763 20.5794 4.80385 20.6986 5.00953C20.899 5.3566 21.0533 5.72831 21.1575 6.11531C21.219 6.34407 21.4075 6.51647 21.6408 6.55735L22.6458 6.7336C22.7241 6.74728 22.7813 6.8153 22.7813 6.89485V7.7475Z" fill="black"/>
<path d="M16.68 4.4086C15.0721 4.4086 13.7686 5.7121 13.7686 7.32001C13.7704 8.92716 15.0729 10.2296 16.68 10.2314C18.2879 10.2314 19.5914 8.92791 19.5914 7.32001C19.5914 5.7121 18.2879 4.4086 16.68 4.4086ZM16.68 9.01266C15.7452 9.01266 14.9874 8.25483 14.9874 7.32001C14.9871 6.38471 15.7447 5.62604 16.68 5.62501V5.62735C17.6148 5.62735 18.3727 6.38518 18.3727 7.32001C18.3727 8.25483 17.6148 9.01266 16.68 9.01266Z" fill="black"/>
</g>
<defs>
<clipPath id="clip0_922_769">
<rect width="24" height="24" fill="white"/>
</clipPath>
</defs>
</svg>
