<svg width="678" height="46" viewBox="0 0 678 46" fill="none" xmlns="http://www.w3.org/2000/svg">
<path d="M0.722089 24.272C0.722089 21.568 1.30709 19.163 2.47709 17.057C3.64709 14.925 5.27209 13.274 7.35209 12.104C9.45809 10.908 11.8371 10.31 14.4891 10.31C17.7391 10.31 20.5211 11.168 22.8351 12.884C25.1491 14.6 26.6961 16.94 27.4761 19.904H20.1441C19.5981 18.76 18.8181 17.889 17.8041 17.291C16.8161 16.693 15.6851 16.394 14.4111 16.394C12.3571 16.394 10.6931 17.109 9.41909 18.539C8.14509 19.969 7.50809 21.88 7.50809 24.272C7.50809 26.664 8.14509 28.575 9.41909 30.005C10.6931 31.435 12.3571 32.15 14.4111 32.15C15.6851 32.15 16.8161 31.851 17.8041 31.253C18.8181 30.655 19.5981 29.784 20.1441 28.64H27.4761C26.6961 31.604 25.1491 33.944 22.8351 35.66C20.5211 37.35 17.7391 38.195 14.4891 38.195C11.8371 38.195 9.45809 37.61 7.35209 36.44C5.27209 35.244 3.64709 33.593 2.47709 31.487C1.30709 29.381 0.722089 26.976 0.722089 24.272ZM48.4971 33.164H38.2791L36.6411 38H29.6601L39.5661 10.622H47.2881L57.1941 38H50.1351L48.4971 33.164ZM46.7811 28.016L43.3881 17.993L40.0341 28.016H46.7811ZM84.595 38H77.926L66.772 21.113V38H60.103V10.622H66.772L77.926 27.587V10.622H84.595V38ZM99.5802 10.622C102.466 10.622 104.988 11.194 107.146 12.338C109.304 13.482 110.968 15.094 112.138 17.174C113.334 19.228 113.932 21.607 113.932 24.311C113.932 26.989 113.334 29.368 112.138 31.448C110.968 33.528 109.291 35.14 107.107 36.284C104.949 37.428 102.44 38 99.5802 38H89.3232V10.622H99.5802ZM99.1512 32.228C101.673 32.228 103.636 31.539 105.04 30.161C106.444 28.783 107.146 26.833 107.146 24.311C107.146 21.789 106.444 19.826 105.04 18.422C103.636 17.018 101.673 16.316 99.1512 16.316H95.9922V32.228H99.1512ZM124.222 10.622V38H117.553V10.622H124.222ZM139.206 10.622C142.092 10.622 144.614 11.194 146.772 12.338C148.93 13.482 150.594 15.094 151.764 17.174C152.96 19.228 153.558 21.607 153.558 24.311C153.558 26.989 152.96 29.368 151.764 31.448C150.594 33.528 148.917 35.14 146.733 36.284C144.575 37.428 142.066 38 139.206 38H128.949V10.622H139.206ZM138.777 32.228C141.299 32.228 143.262 31.539 144.666 30.161C146.07 28.783 146.772 26.833 146.772 24.311C146.772 21.789 146.07 19.826 144.666 18.422C143.262 17.018 141.299 16.316 138.777 16.316H135.618V32.228H138.777ZM174.222 33.164H164.004L162.366 38H155.385L165.291 10.622H173.013L182.919 38H175.86L174.222 33.164ZM172.506 28.016L169.113 17.993L165.759 28.016H172.506ZM205.523 10.622V15.965H198.269V38H191.6V15.965H184.346V10.622H205.523ZM218.67 38.273C216.668 38.273 214.874 37.948 213.288 37.298C211.702 36.648 210.428 35.686 209.466 34.412C208.53 33.138 208.036 31.604 207.984 29.81H215.082C215.186 30.824 215.537 31.604 216.135 32.15C216.733 32.67 217.513 32.93 218.475 32.93C219.463 32.93 220.243 32.709 220.815 32.267C221.387 31.799 221.673 31.162 221.673 30.356C221.673 29.68 221.439 29.121 220.971 28.679C220.529 28.237 219.97 27.873 219.294 27.587C218.644 27.301 217.708 26.976 216.486 26.612C214.718 26.066 213.275 25.52 212.157 24.974C211.039 24.428 210.077 23.622 209.271 22.556C208.465 21.49 208.062 20.099 208.062 18.383C208.062 15.835 208.985 13.846 210.831 12.416C212.677 10.96 215.082 10.232 218.046 10.232C221.062 10.232 223.493 10.96 225.339 12.416C227.185 13.846 228.173 15.848 228.303 18.422H221.088C221.036 17.538 220.711 16.849 220.113 16.355C219.515 15.835 218.748 15.575 217.812 15.575C217.006 15.575 216.356 15.796 215.862 16.238C215.368 16.654 215.121 17.265 215.121 18.071C215.121 18.955 215.537 19.644 216.369 20.138C217.201 20.632 218.501 21.165 220.269 21.737C222.037 22.335 223.467 22.907 224.559 23.453C225.677 23.999 226.639 24.792 227.445 25.832C228.251 26.872 228.654 28.211 228.654 29.849C228.654 31.409 228.251 32.826 227.445 34.1C226.665 35.374 225.521 36.388 224.013 37.142C222.505 37.896 220.724 38.273 218.67 38.273ZM255.67 0.949998L245.218 45.293H238.783L249.235 0.949998H255.67ZM273.204 15.965V21.503H282.135V26.651H273.204V32.657H283.305V38H266.535V10.622H283.305V15.965H273.204ZM318.534 10.622V38H311.865V21.581L305.742 38H300.36L294.198 21.542V38H287.529V10.622H295.407L303.09 29.576L310.695 10.622H318.534ZM344.089 19.436C344.089 21.022 343.725 22.478 342.997 23.804C342.269 25.104 341.151 26.157 339.643 26.963C338.135 27.769 336.263 28.172 334.027 28.172H329.893V38H323.224V10.622H334.027C336.211 10.622 338.057 10.999 339.565 11.753C341.073 12.507 342.204 13.547 342.958 14.873C343.712 16.199 344.089 17.72 344.089 19.436ZM333.52 22.868C334.794 22.868 335.743 22.569 336.367 21.971C336.991 21.373 337.303 20.528 337.303 19.436C337.303 18.344 336.991 17.499 336.367 16.901C335.743 16.303 334.794 16.004 333.52 16.004H329.893V22.868H333.52ZM354.124 32.852H362.86V38H347.455V10.622H354.124V32.852ZM378.883 38.273C376.309 38.273 373.943 37.675 371.785 36.479C369.653 35.283 367.95 33.619 366.676 31.487C365.428 29.329 364.804 26.911 364.804 24.233C364.804 21.555 365.428 19.15 366.676 17.018C367.95 14.886 369.653 13.222 371.785 12.026C373.943 10.83 376.309 10.232 378.883 10.232C381.457 10.232 383.81 10.83 385.942 12.026C388.1 13.222 389.79 14.886 391.012 17.018C392.26 19.15 392.884 21.555 392.884 24.233C392.884 26.911 392.26 29.329 391.012 31.487C389.764 33.619 388.074 35.283 385.942 36.479C383.81 37.675 381.457 38.273 378.883 38.273ZM378.883 32.189C381.067 32.189 382.809 31.461 384.109 30.005C385.435 28.549 386.098 26.625 386.098 24.233C386.098 21.815 385.435 19.891 384.109 18.461C382.809 17.005 381.067 16.277 378.883 16.277C376.673 16.277 374.905 16.992 373.579 18.422C372.279 19.852 371.629 21.789 371.629 24.233C371.629 26.651 372.279 28.588 373.579 30.044C374.905 31.474 376.673 32.189 378.883 32.189ZM419.966 10.622L410.489 28.952V38H403.82V28.952L394.343 10.622H401.909L407.213 22.088L412.478 10.622H419.966ZM429.216 15.965V21.503H438.147V26.651H429.216V32.657H439.317V38H422.547V10.622H439.317V15.965H429.216ZM453.446 38.273C451.444 38.273 449.65 37.948 448.064 37.298C446.478 36.648 445.204 35.686 444.242 34.412C443.306 33.138 442.812 31.604 442.76 29.81H449.858C449.962 30.824 450.313 31.604 450.911 32.15C451.509 32.67 452.289 32.93 453.251 32.93C454.239 32.93 455.019 32.709 455.591 32.267C456.163 31.799 456.449 31.162 456.449 30.356C456.449 29.68 456.215 29.121 455.747 28.679C455.305 28.237 454.746 27.873 454.07 27.587C453.42 27.301 452.484 26.976 451.262 26.612C449.494 26.066 448.051 25.52 446.933 24.974C445.815 24.428 444.853 23.622 444.047 22.556C443.241 21.49 442.838 20.099 442.838 18.383C442.838 15.835 443.761 13.846 445.607 12.416C447.453 10.96 449.858 10.232 452.822 10.232C455.838 10.232 458.269 10.96 460.115 12.416C461.961 13.846 462.949 15.848 463.079 18.422H455.864C455.812 17.538 455.487 16.849 454.889 16.355C454.291 15.835 453.524 15.575 452.588 15.575C451.782 15.575 451.132 15.796 450.638 16.238C450.144 16.654 449.897 17.265 449.897 18.071C449.897 18.955 450.313 19.644 451.145 20.138C451.977 20.632 453.277 21.165 455.045 21.737C456.813 22.335 458.243 22.907 459.335 23.453C460.453 23.999 461.415 24.792 462.221 25.832C463.027 26.872 463.43 28.211 463.43 29.849C463.43 31.409 463.027 32.826 462.221 34.1C461.441 35.374 460.297 36.388 458.789 37.142C457.281 37.896 455.5 38.273 453.446 38.273Z" fill="black"/>
<path d="M482.256 32.852H490.992V38H475.587V10.622H482.256V32.852ZM500.736 10.622V38H494.067V10.622H500.736ZM515.369 38.273C513.367 38.273 511.573 37.948 509.987 37.298C508.401 36.648 507.127 35.686 506.165 34.412C505.229 33.138 504.735 31.604 504.683 29.81H511.781C511.885 30.824 512.236 31.604 512.834 32.15C513.432 32.67 514.212 32.93 515.174 32.93C516.162 32.93 516.942 32.709 517.514 32.267C518.086 31.799 518.372 31.162 518.372 30.356C518.372 29.68 518.138 29.121 517.67 28.679C517.228 28.237 516.669 27.873 515.993 27.587C515.343 27.301 514.407 26.976 513.185 26.612C511.417 26.066 509.974 25.52 508.856 24.974C507.738 24.428 506.776 23.622 505.97 22.556C505.164 21.49 504.761 20.099 504.761 18.383C504.761 15.835 505.684 13.846 507.53 12.416C509.376 10.96 511.781 10.232 514.745 10.232C517.761 10.232 520.192 10.96 522.038 12.416C523.884 13.846 524.872 15.848 525.002 18.422H517.787C517.735 17.538 517.41 16.849 516.812 16.355C516.214 15.835 515.447 15.575 514.511 15.575C513.705 15.575 513.055 15.796 512.561 16.238C512.067 16.654 511.82 17.265 511.82 18.071C511.82 18.955 512.236 19.644 513.068 20.138C513.9 20.632 515.2 21.165 516.968 21.737C518.736 22.335 520.166 22.907 521.258 23.453C522.376 23.999 523.338 24.792 524.144 25.832C524.95 26.872 525.353 28.211 525.353 29.849C525.353 31.409 524.95 32.826 524.144 34.1C523.364 35.374 522.22 36.388 520.712 37.142C519.204 37.896 517.423 38.273 515.369 38.273ZM549.046 10.622V15.965H541.792V38H535.123V15.965H527.869V10.622H549.046ZM580.141 10.622V15.965H572.887V38H566.218V15.965H558.964V10.622H580.141ZM596.33 38.273C593.756 38.273 591.39 37.675 589.232 36.479C587.1 35.283 585.397 33.619 584.123 31.487C582.875 29.329 582.251 26.911 582.251 24.233C582.251 21.555 582.875 19.15 584.123 17.018C585.397 14.886 587.1 13.222 589.232 12.026C591.39 10.83 593.756 10.232 596.33 10.232C598.904 10.232 601.257 10.83 603.389 12.026C605.547 13.222 607.237 14.886 608.459 17.018C609.707 19.15 610.331 21.555 610.331 24.233C610.331 26.911 609.707 29.329 608.459 31.487C607.211 33.619 605.521 35.283 603.389 36.479C601.257 37.675 598.904 38.273 596.33 38.273ZM596.33 32.189C598.514 32.189 600.256 31.461 601.556 30.005C602.882 28.549 603.545 26.625 603.545 24.233C603.545 21.815 602.882 19.891 601.556 18.461C600.256 17.005 598.514 16.277 596.33 16.277C594.12 16.277 592.352 16.992 591.026 18.422C589.726 19.852 589.076 21.789 589.076 24.233C589.076 26.651 589.726 28.588 591.026 30.044C592.352 31.474 594.12 32.189 596.33 32.189ZM632.351 10.622C635.237 10.622 637.759 11.194 639.917 12.338C642.075 13.482 643.739 15.094 644.909 17.174C646.105 19.228 646.703 21.607 646.703 24.311C646.703 26.989 646.105 29.368 644.909 31.448C643.739 33.528 642.062 35.14 639.878 36.284C637.72 37.428 635.211 38 632.351 38H622.094V10.622H632.351ZM631.922 32.228C634.444 32.228 636.407 31.539 637.811 30.161C639.215 28.783 639.917 26.833 639.917 24.311C639.917 21.789 639.215 19.826 637.811 18.422C636.407 17.018 634.444 16.316 631.922 16.316H628.763V32.228H631.922ZM663.272 38.273C660.698 38.273 658.332 37.675 656.174 36.479C654.042 35.283 652.339 33.619 651.065 31.487C649.817 29.329 649.193 26.911 649.193 24.233C649.193 21.555 649.817 19.15 651.065 17.018C652.339 14.886 654.042 13.222 656.174 12.026C658.332 10.83 660.698 10.232 663.272 10.232C665.846 10.232 668.199 10.83 670.331 12.026C672.489 13.222 674.179 14.886 675.401 17.018C676.649 19.15 677.273 21.555 677.273 24.233C677.273 26.911 676.649 29.329 675.401 31.487C674.153 33.619 672.463 35.283 670.331 36.479C668.199 37.675 665.846 38.273 663.272 38.273ZM663.272 32.189C665.456 32.189 667.198 31.461 668.498 30.005C669.824 28.549 670.487 26.625 670.487 24.233C670.487 21.815 669.824 19.891 668.498 18.461C667.198 17.005 665.456 16.277 663.272 16.277C661.062 16.277 659.294 16.992 657.968 18.422C656.668 19.852 656.018 21.789 656.018 24.233C656.018 26.651 656.668 28.588 657.968 30.044C659.294 31.474 661.062 32.189 663.272 32.189Z" fill="#697E8D"/>
<path d="M-0.564911 41.9H473.173V43.85H-0.564911V41.9Z" fill="black"/>
<path d="M473.169 41.9H678.56V43.85H473.169V41.9Z" fill="#697E8D"/>
</svg>
