<svg width="424" height="56" viewBox="0 0 424 56" fill="none" xmlns="http://www.w3.org/2000/svg">
<path d="M79.488 13.08V17.964C79.488 19.012 79.212 19.8 78.66 20.328C78.108 20.856 77.304 21.12 76.248 21.12C75.208 21.12 74.408 20.856 73.848 20.328C73.296 19.8 73.02 19.012 73.02 17.964V13.08H74.304V17.808C74.304 18.552 74.464 19.104 74.784 19.464C75.104 19.824 75.592 20.004 76.248 20.004C76.912 20.004 77.404 19.824 77.724 19.464C78.044 19.104 78.204 18.552 78.204 17.808V13.08H79.488ZM81.4569 23.52V15H82.5969L82.6929 16.68L82.5249 16.476C82.6209 16.164 82.7689 15.888 82.9689 15.648C83.1689 15.408 83.4169 15.22 83.7129 15.084C84.0169 14.948 84.3489 14.88 84.7089 14.88C85.1969 14.88 85.6409 15.004 86.0409 15.252C86.4409 15.5 86.7569 15.856 86.9889 16.32C87.2209 16.776 87.3369 17.332 87.3369 17.988C87.3369 18.644 87.2169 19.208 86.9769 19.68C86.7449 20.144 86.4249 20.5 86.0169 20.748C85.6169 20.996 85.1689 21.12 84.6729 21.12C84.1609 21.12 83.7249 20.988 83.3649 20.724C83.0049 20.452 82.7489 20.108 82.5969 19.692L82.7409 19.488V23.52H81.4569ZM84.3969 20.076C84.9169 20.076 85.3209 19.892 85.6089 19.524C85.9049 19.156 86.0529 18.648 86.0529 18C86.0529 17.352 85.9089 16.844 85.6209 16.476C85.3329 16.1 84.9329 15.912 84.4209 15.912C84.0849 15.912 83.7889 16 83.5329 16.176C83.2849 16.344 83.0889 16.584 82.9449 16.896C82.8089 17.2 82.7409 17.568 82.7409 18C82.7409 18.424 82.8089 18.792 82.9449 19.104C83.0809 19.416 83.2729 19.656 83.5209 19.824C83.7689 19.992 84.0609 20.076 84.3969 20.076ZM90.2284 12.3V19.32C90.2284 19.616 90.2804 19.82 90.3844 19.932C90.4884 20.044 90.6604 20.1 90.9004 20.1C91.0444 20.1 91.1644 20.092 91.2604 20.076C91.3644 20.052 91.4924 20.012 91.6444 19.956L91.5004 20.916C91.3644 20.98 91.2084 21.028 91.0324 21.06C90.8564 21.1 90.6804 21.12 90.5044 21.12C89.9684 21.12 89.5724 20.984 89.3164 20.712C89.0684 20.432 88.9444 20.004 88.9444 19.428V12.3H90.2284ZM95.3227 14.88C95.9067 14.88 96.4227 15.004 96.8707 15.252C97.3187 15.5 97.6667 15.86 97.9147 16.332C98.1707 16.796 98.2987 17.352 98.2987 18C98.2987 18.648 98.1707 19.208 97.9147 19.68C97.6667 20.144 97.3187 20.5 96.8707 20.748C96.4227 20.996 95.9067 21.12 95.3227 21.12C94.7387 21.12 94.2227 20.996 93.7747 20.748C93.3267 20.5 92.9747 20.144 92.7187 19.68C92.4627 19.208 92.3347 18.648 92.3347 18C92.3347 17.352 92.4627 16.796 92.7187 16.332C92.9747 15.86 93.3267 15.5 93.7747 15.252C94.2227 15.004 94.7387 14.88 95.3227 14.88ZM95.3227 15.888C94.9627 15.888 94.6547 15.972 94.3987 16.14C94.1507 16.3 93.9587 16.536 93.8227 16.848C93.6867 17.16 93.6187 17.544 93.6187 18C93.6187 18.448 93.6867 18.832 93.8227 19.152C93.9587 19.464 94.1507 19.704 94.3987 19.872C94.6547 20.032 94.9627 20.112 95.3227 20.112C95.6827 20.112 95.9867 20.032 96.2347 19.872C96.4827 19.704 96.6747 19.464 96.8107 19.152C96.9467 18.832 97.0147 18.448 97.0147 18C97.0147 17.544 96.9467 17.16 96.8107 16.848C96.6747 16.536 96.4827 16.3 96.2347 16.14C95.9867 15.972 95.6827 15.888 95.3227 15.888ZM103.37 17.148C103.37 16.748 103.258 16.44 103.034 16.224C102.818 16 102.518 15.888 102.134 15.888C101.774 15.888 101.466 15.972 101.21 16.14C100.954 16.308 100.766 16.58 100.646 16.956L99.5663 16.5C99.7183 16.012 100.014 15.62 100.454 15.324C100.902 15.028 101.478 14.88 102.182 14.88C102.662 14.88 103.086 14.96 103.454 15.12C103.822 15.272 104.11 15.504 104.318 15.816C104.534 16.128 104.642 16.528 104.642 17.016V19.692C104.642 19.988 104.79 20.136 105.086 20.136C105.23 20.136 105.37 20.116 105.506 20.076L105.434 20.964C105.25 21.052 105.018 21.096 104.738 21.096C104.482 21.096 104.25 21.052 104.042 20.964C103.842 20.868 103.682 20.728 103.562 20.544C103.45 20.352 103.394 20.116 103.394 19.836V19.752L103.658 19.74C103.586 20.052 103.438 20.312 103.214 20.52C102.99 20.72 102.73 20.872 102.434 20.976C102.138 21.072 101.838 21.12 101.534 21.12C101.158 21.12 100.818 21.06 100.514 20.94C100.218 20.82 99.9823 20.64 99.8063 20.4C99.6383 20.152 99.5543 19.848 99.5543 19.488C99.5543 19.04 99.6983 18.672 99.9863 18.384C100.282 18.096 100.698 17.9 101.234 17.796L103.562 17.34L103.55 18.24L101.858 18.588C101.522 18.652 101.27 18.744 101.102 18.864C100.934 18.984 100.85 19.16 100.85 19.392C100.85 19.616 100.934 19.796 101.102 19.932C101.278 20.06 101.51 20.124 101.798 20.124C101.998 20.124 102.19 20.1 102.374 20.052C102.566 20.004 102.738 19.928 102.89 19.824C103.042 19.712 103.158 19.572 103.238 19.404C103.326 19.228 103.37 19.02 103.37 18.78V17.148ZM109.038 21.12C108.542 21.12 108.09 20.996 107.682 20.748C107.282 20.5 106.966 20.144 106.734 19.68C106.502 19.216 106.386 18.66 106.386 18.012C106.386 17.34 106.51 16.772 106.758 16.308C107.006 15.844 107.338 15.492 107.754 15.252C108.17 15.004 108.626 14.88 109.122 14.88C109.634 14.88 110.066 15.02 110.418 15.3C110.77 15.58 111.006 15.944 111.126 16.392L110.982 16.524V12.3H112.266V21H111.126L111.03 19.368L111.198 19.38C111.142 19.74 111.01 20.052 110.802 20.316C110.594 20.572 110.334 20.772 110.022 20.916C109.718 21.052 109.39 21.12 109.038 21.12ZM109.314 20.088C109.658 20.088 109.954 20 110.202 19.824C110.45 19.648 110.642 19.4 110.778 19.08C110.914 18.76 110.982 18.376 110.982 17.928C110.982 17.512 110.914 17.156 110.778 16.86C110.642 16.556 110.45 16.324 110.202 16.164C109.962 16.004 109.682 15.924 109.362 15.924C108.826 15.924 108.41 16.108 108.114 16.476C107.818 16.844 107.67 17.352 107.67 18C107.67 18.648 107.814 19.16 108.102 19.536C108.39 19.904 108.794 20.088 109.314 20.088ZM124.904 18.9C124.744 19.38 124.504 19.788 124.184 20.124C123.864 20.452 123.488 20.7 123.056 20.868C122.624 21.036 122.148 21.12 121.628 21.12C120.868 21.12 120.208 20.956 119.648 20.628C119.088 20.3 118.656 19.832 118.352 19.224C118.048 18.616 117.896 17.888 117.896 17.04C117.896 16.192 118.048 15.464 118.352 14.856C118.656 14.248 119.088 13.78 119.648 13.452C120.208 13.124 120.864 12.96 121.616 12.96C122.136 12.96 122.604 13.032 123.02 13.176C123.444 13.32 123.804 13.536 124.1 13.824C124.396 14.112 124.624 14.472 124.784 14.904L123.572 15.444C123.412 14.972 123.18 14.628 122.876 14.412C122.572 14.188 122.176 14.076 121.688 14.076C121.2 14.076 120.772 14.192 120.404 14.424C120.036 14.656 119.748 14.992 119.54 15.432C119.34 15.872 119.24 16.408 119.24 17.04C119.24 17.664 119.336 18.2 119.528 18.648C119.72 19.088 119.996 19.424 120.356 19.656C120.716 19.888 121.148 20.004 121.652 20.004C122.14 20.004 122.56 19.88 122.912 19.632C123.272 19.376 123.528 18.996 123.68 18.492L124.904 18.9ZM129.831 17.148C129.831 16.748 129.719 16.44 129.495 16.224C129.279 16 128.979 15.888 128.595 15.888C128.235 15.888 127.927 15.972 127.671 16.14C127.415 16.308 127.227 16.58 127.107 16.956L126.027 16.5C126.179 16.012 126.475 15.62 126.915 15.324C127.363 15.028 127.939 14.88 128.643 14.88C129.123 14.88 129.547 14.96 129.915 15.12C130.283 15.272 130.571 15.504 130.779 15.816C130.995 16.128 131.103 16.528 131.103 17.016V19.692C131.103 19.988 131.251 20.136 131.547 20.136C131.691 20.136 131.831 20.116 131.967 20.076L131.895 20.964C131.711 21.052 131.479 21.096 131.199 21.096C130.943 21.096 130.711 21.052 130.503 20.964C130.303 20.868 130.143 20.728 130.023 20.544C129.911 20.352 129.855 20.116 129.855 19.836V19.752L130.119 19.74C130.047 20.052 129.899 20.312 129.675 20.52C129.451 20.72 129.191 20.872 128.895 20.976C128.599 21.072 128.299 21.12 127.995 21.12C127.619 21.12 127.279 21.06 126.975 20.94C126.679 20.82 126.443 20.64 126.267 20.4C126.099 20.152 126.015 19.848 126.015 19.488C126.015 19.04 126.159 18.672 126.447 18.384C126.743 18.096 127.159 17.9 127.695 17.796L130.023 17.34L130.011 18.24L128.319 18.588C127.983 18.652 127.731 18.744 127.563 18.864C127.395 18.984 127.311 19.16 127.311 19.392C127.311 19.616 127.395 19.796 127.563 19.932C127.739 20.06 127.971 20.124 128.259 20.124C128.459 20.124 128.651 20.1 128.835 20.052C129.027 20.004 129.199 19.928 129.351 19.824C129.503 19.712 129.619 19.572 129.699 19.404C129.787 19.228 129.831 19.02 129.831 18.78V17.148ZM133.207 21V15H134.347L134.431 16.56L134.263 16.392C134.375 16.048 134.535 15.764 134.743 15.54C134.959 15.308 135.211 15.14 135.499 15.036C135.795 14.932 136.107 14.88 136.435 14.88C136.859 14.88 137.239 14.964 137.575 15.132C137.919 15.292 138.191 15.536 138.391 15.864C138.591 16.192 138.691 16.608 138.691 17.112V21H137.407V17.508C137.407 16.916 137.283 16.508 137.035 16.284C136.795 16.052 136.491 15.936 136.123 15.936C135.859 15.936 135.603 16 135.355 16.128C135.107 16.248 134.899 16.444 134.731 16.716C134.571 16.988 134.491 17.352 134.491 17.808V21H133.207ZM142.941 21.12C142.445 21.12 141.993 20.996 141.585 20.748C141.185 20.5 140.869 20.144 140.637 19.68C140.405 19.216 140.289 18.66 140.289 18.012C140.289 17.34 140.413 16.772 140.661 16.308C140.909 15.844 141.241 15.492 141.657 15.252C142.073 15.004 142.529 14.88 143.025 14.88C143.537 14.88 143.969 15.02 144.321 15.3C144.673 15.58 144.909 15.944 145.029 16.392L144.885 16.524V12.3H146.169V21H145.029L144.933 19.368L145.101 19.38C145.045 19.74 144.913 20.052 144.705 20.316C144.497 20.572 144.237 20.772 143.925 20.916C143.621 21.052 143.293 21.12 142.941 21.12ZM143.217 20.088C143.561 20.088 143.857 20 144.105 19.824C144.353 19.648 144.545 19.4 144.681 19.08C144.817 18.76 144.885 18.376 144.885 17.928C144.885 17.512 144.817 17.156 144.681 16.86C144.545 16.556 144.353 16.324 144.105 16.164C143.865 16.004 143.585 15.924 143.265 15.924C142.729 15.924 142.313 16.108 142.017 16.476C141.721 16.844 141.573 17.352 141.573 18C141.573 18.648 141.717 19.16 142.005 19.536C142.293 19.904 142.697 20.088 143.217 20.088ZM148.808 13.992C148.528 13.992 148.312 13.924 148.16 13.788C148.016 13.644 147.944 13.444 147.944 13.188C147.944 12.932 148.016 12.736 148.16 12.6C148.312 12.464 148.528 12.396 148.808 12.396C149.08 12.396 149.288 12.464 149.432 12.6C149.584 12.736 149.66 12.932 149.66 13.188C149.66 13.444 149.584 13.644 149.432 13.788C149.288 13.924 149.08 13.992 148.808 13.992ZM149.444 15V21H148.16V15H149.444ZM153.757 21.12C153.261 21.12 152.809 20.996 152.401 20.748C152.001 20.5 151.685 20.144 151.453 19.68C151.221 19.216 151.105 18.66 151.105 18.012C151.105 17.34 151.229 16.772 151.477 16.308C151.725 15.844 152.057 15.492 152.473 15.252C152.889 15.004 153.345 14.88 153.841 14.88C154.353 14.88 154.785 15.02 155.137 15.3C155.489 15.58 155.725 15.944 155.845 16.392L155.701 16.524V12.3H156.985V21H155.845L155.749 19.368L155.917 19.38C155.861 19.74 155.729 20.052 155.521 20.316C155.313 20.572 155.053 20.772 154.741 20.916C154.437 21.052 154.109 21.12 153.757 21.12ZM154.033 20.088C154.377 20.088 154.673 20 154.921 19.824C155.169 19.648 155.361 19.4 155.497 19.08C155.633 18.76 155.701 18.376 155.701 17.928C155.701 17.512 155.633 17.156 155.497 16.86C155.361 16.556 155.169 16.324 154.921 16.164C154.681 16.004 154.401 15.924 154.081 15.924C153.545 15.924 153.129 16.108 152.833 16.476C152.537 16.844 152.389 17.352 152.389 18C152.389 18.648 152.533 19.16 152.821 19.536C153.109 19.904 153.513 20.088 154.033 20.088ZM162.444 17.148C162.444 16.748 162.332 16.44 162.108 16.224C161.892 16 161.592 15.888 161.208 15.888C160.848 15.888 160.54 15.972 160.284 16.14C160.028 16.308 159.84 16.58 159.72 16.956L158.64 16.5C158.792 16.012 159.088 15.62 159.528 15.324C159.976 15.028 160.552 14.88 161.256 14.88C161.736 14.88 162.16 14.96 162.528 15.12C162.896 15.272 163.184 15.504 163.392 15.816C163.608 16.128 163.716 16.528 163.716 17.016V19.692C163.716 19.988 163.864 20.136 164.16 20.136C164.304 20.136 164.444 20.116 164.58 20.076L164.508 20.964C164.324 21.052 164.092 21.096 163.812 21.096C163.556 21.096 163.324 21.052 163.116 20.964C162.916 20.868 162.756 20.728 162.636 20.544C162.524 20.352 162.468 20.116 162.468 19.836V19.752L162.732 19.74C162.66 20.052 162.512 20.312 162.288 20.52C162.064 20.72 161.804 20.872 161.508 20.976C161.212 21.072 160.912 21.12 160.608 21.12C160.232 21.12 159.892 21.06 159.588 20.94C159.292 20.82 159.056 20.64 158.88 20.4C158.712 20.152 158.628 19.848 158.628 19.488C158.628 19.04 158.772 18.672 159.06 18.384C159.356 18.096 159.772 17.9 160.308 17.796L162.636 17.34L162.624 18.24L160.932 18.588C160.596 18.652 160.344 18.744 160.176 18.864C160.008 18.984 159.924 19.16 159.924 19.392C159.924 19.616 160.008 19.796 160.176 19.932C160.352 20.06 160.584 20.124 160.872 20.124C161.072 20.124 161.264 20.1 161.448 20.052C161.64 20.004 161.812 19.928 161.964 19.824C162.116 19.712 162.232 19.572 162.312 19.404C162.4 19.228 162.444 19.02 162.444 18.78V17.148ZM167.338 13.236V19.2C167.338 19.496 167.414 19.712 167.566 19.848C167.726 19.984 167.938 20.052 168.202 20.052C168.418 20.052 168.606 20.02 168.766 19.956C168.926 19.884 169.074 19.788 169.21 19.668L169.498 20.604C169.314 20.764 169.086 20.892 168.814 20.988C168.55 21.076 168.254 21.12 167.926 21.12C167.582 21.12 167.266 21.064 166.978 20.952C166.69 20.84 166.466 20.66 166.306 20.412C166.146 20.156 166.062 19.824 166.054 19.416V13.596L167.338 13.236ZM169.402 15V16.008H164.902V15H169.402ZM173.312 21.12C172.712 21.12 172.184 20.996 171.728 20.748C171.272 20.5 170.916 20.144 170.66 19.68C170.412 19.208 170.288 18.648 170.288 18C170.288 17.352 170.412 16.796 170.66 16.332C170.916 15.86 171.268 15.5 171.716 15.252C172.164 15.004 172.672 14.88 173.24 14.88C173.824 14.88 174.32 15 174.728 15.24C175.136 15.48 175.448 15.808 175.664 16.224C175.88 16.64 175.988 17.112 175.988 17.64C175.988 17.784 175.984 17.92 175.976 18.048C175.968 18.176 175.956 18.288 175.94 18.384H171.116V17.4H175.376L174.74 17.592C174.74 17.048 174.604 16.632 174.332 16.344C174.06 16.048 173.688 15.9 173.216 15.9C172.872 15.9 172.572 15.98 172.316 16.14C172.06 16.3 171.864 16.54 171.728 16.86C171.592 17.172 171.524 17.556 171.524 18.012C171.524 18.46 171.596 18.84 171.74 19.152C171.884 19.464 172.088 19.7 172.352 19.86C172.616 20.02 172.928 20.1 173.288 20.1C173.688 20.1 174.012 20.024 174.26 19.872C174.508 19.72 174.704 19.508 174.848 19.236L175.868 19.716C175.724 20.004 175.528 20.256 175.28 20.472C175.04 20.68 174.752 20.84 174.416 20.952C174.08 21.064 173.712 21.12 173.312 21.12ZM188.256 18.9C188.096 19.38 187.856 19.788 187.536 20.124C187.216 20.452 186.84 20.7 186.408 20.868C185.976 21.036 185.5 21.12 184.98 21.12C184.22 21.12 183.56 20.956 183 20.628C182.44 20.3 182.008 19.832 181.704 19.224C181.4 18.616 181.248 17.888 181.248 17.04C181.248 16.192 181.4 15.464 181.704 14.856C182.008 14.248 182.44 13.78 183 13.452C183.56 13.124 184.216 12.96 184.968 12.96C185.488 12.96 185.956 13.032 186.372 13.176C186.796 13.32 187.156 13.536 187.452 13.824C187.748 14.112 187.976 14.472 188.136 14.904L186.924 15.444C186.764 14.972 186.532 14.628 186.228 14.412C185.924 14.188 185.528 14.076 185.04 14.076C184.552 14.076 184.124 14.192 183.756 14.424C183.388 14.656 183.1 14.992 182.892 15.432C182.692 15.872 182.592 16.408 182.592 17.04C182.592 17.664 182.688 18.2 182.88 18.648C183.072 19.088 183.348 19.424 183.708 19.656C184.068 19.888 184.5 20.004 185.004 20.004C185.492 20.004 185.912 19.88 186.264 19.632C186.624 19.376 186.88 18.996 187.032 18.492L188.256 18.9ZM196.363 13.08L193.423 21H191.923L188.983 13.08H190.351L192.199 18.348L192.679 19.92L193.159 18.36L195.007 13.08H196.363ZM209.421 13.08V21H208.233V16.416L208.329 14.232H208.317L205.905 21H204.837L202.425 14.232H202.413L202.509 16.416V21H201.321V13.08H203.229L204.825 17.664L205.377 19.548H205.401L205.965 17.664L207.549 13.08H209.421ZM215.003 17.148C215.003 16.748 214.891 16.44 214.667 16.224C214.451 16 214.151 15.888 213.767 15.888C213.407 15.888 213.099 15.972 212.843 16.14C212.587 16.308 212.399 16.58 212.279 16.956L211.199 16.5C211.351 16.012 211.647 15.62 212.087 15.324C212.535 15.028 213.111 14.88 213.815 14.88C214.295 14.88 214.719 14.96 215.087 15.12C215.455 15.272 215.743 15.504 215.951 15.816C216.167 16.128 216.275 16.528 216.275 17.016V19.692C216.275 19.988 216.423 20.136 216.719 20.136C216.863 20.136 217.003 20.116 217.139 20.076L217.067 20.964C216.883 21.052 216.651 21.096 216.371 21.096C216.115 21.096 215.883 21.052 215.675 20.964C215.475 20.868 215.315 20.728 215.195 20.544C215.083 20.352 215.027 20.116 215.027 19.836V19.752L215.291 19.74C215.219 20.052 215.071 20.312 214.847 20.52C214.623 20.72 214.363 20.872 214.067 20.976C213.771 21.072 213.471 21.12 213.167 21.12C212.791 21.12 212.451 21.06 212.147 20.94C211.851 20.82 211.615 20.64 211.439 20.4C211.271 20.152 211.187 19.848 211.187 19.488C211.187 19.04 211.331 18.672 211.619 18.384C211.915 18.096 212.331 17.9 212.867 17.796L215.195 17.34L215.183 18.24L213.491 18.588C213.155 18.652 212.903 18.744 212.735 18.864C212.567 18.984 212.483 19.16 212.483 19.392C212.483 19.616 212.567 19.796 212.735 19.932C212.911 20.06 213.143 20.124 213.431 20.124C213.631 20.124 213.823 20.1 214.007 20.052C214.199 20.004 214.371 19.928 214.523 19.824C214.675 19.712 214.791 19.572 214.871 19.404C214.959 19.228 215.003 19.02 215.003 18.78V17.148ZM220.671 21.12C220.175 21.12 219.723 20.996 219.315 20.748C218.915 20.5 218.599 20.144 218.367 19.68C218.135 19.216 218.019 18.66 218.019 18.012C218.019 17.34 218.143 16.772 218.391 16.308C218.639 15.844 218.971 15.492 219.387 15.252C219.803 15.004 220.259 14.88 220.755 14.88C221.267 14.88 221.699 15.02 222.051 15.3C222.403 15.58 222.639 15.944 222.759 16.392L222.615 16.524V12.3H223.899V21H222.759L222.663 19.368L222.831 19.38C222.775 19.74 222.643 20.052 222.435 20.316C222.227 20.572 221.967 20.772 221.655 20.916C221.351 21.052 221.023 21.12 220.671 21.12ZM220.947 20.088C221.291 20.088 221.587 20 221.835 19.824C222.083 19.648 222.275 19.4 222.411 19.08C222.547 18.76 222.615 18.376 222.615 17.928C222.615 17.512 222.547 17.156 222.411 16.86C222.275 16.556 222.083 16.324 221.835 16.164C221.595 16.004 221.315 15.924 220.995 15.924C220.459 15.924 220.043 16.108 219.747 16.476C219.451 16.844 219.303 17.352 219.303 18C219.303 18.648 219.447 19.16 219.735 19.536C220.023 19.904 220.427 20.088 220.947 20.088ZM228.531 21.12C227.931 21.12 227.403 20.996 226.947 20.748C226.491 20.5 226.135 20.144 225.879 19.68C225.631 19.208 225.507 18.648 225.507 18C225.507 17.352 225.631 16.796 225.879 16.332C226.135 15.86 226.487 15.5 226.935 15.252C227.383 15.004 227.891 14.88 228.459 14.88C229.043 14.88 229.539 15 229.947 15.24C230.355 15.48 230.667 15.808 230.883 16.224C231.099 16.64 231.207 17.112 231.207 17.64C231.207 17.784 231.203 17.92 231.195 18.048C231.187 18.176 231.175 18.288 231.159 18.384H226.335V17.4H230.595L229.959 17.592C229.959 17.048 229.823 16.632 229.551 16.344C229.279 16.048 228.907 15.9 228.435 15.9C228.091 15.9 227.791 15.98 227.535 16.14C227.279 16.3 227.083 16.54 226.947 16.86C226.811 17.172 226.743 17.556 226.743 18.012C226.743 18.46 226.815 18.84 226.959 19.152C227.103 19.464 227.307 19.7 227.571 19.86C227.835 20.02 228.147 20.1 228.507 20.1C228.907 20.1 229.231 20.024 229.479 19.872C229.727 19.72 229.923 19.508 230.067 19.236L231.087 19.716C230.943 20.004 230.747 20.256 230.499 20.472C230.259 20.68 229.971 20.84 229.635 20.952C229.299 21.064 228.931 21.12 228.531 21.12ZM239.946 21.12C239.594 21.12 239.27 21.052 238.974 20.916C238.686 20.78 238.442 20.592 238.242 20.352C238.042 20.104 237.894 19.828 237.798 19.524L237.954 19.32L237.858 21H236.73V12.3H238.014V16.512L237.87 16.308C238.022 15.892 238.282 15.552 238.65 15.288C239.018 15.016 239.462 14.88 239.982 14.88C240.462 14.88 240.902 15.004 241.302 15.252C241.71 15.5 242.03 15.856 242.262 16.32C242.494 16.784 242.61 17.348 242.61 18.012C242.61 18.66 242.49 19.216 242.25 19.68C242.018 20.144 241.698 20.5 241.29 20.748C240.89 20.996 240.442 21.12 239.946 21.12ZM239.67 20.088C240.19 20.088 240.594 19.904 240.882 19.536C241.178 19.16 241.326 18.648 241.326 18C241.326 17.352 241.182 16.844 240.894 16.476C240.606 16.108 240.202 15.924 239.682 15.924C239.346 15.924 239.054 16.012 238.806 16.188C238.558 16.356 238.362 16.596 238.218 16.908C238.082 17.22 238.014 17.592 238.014 18.024C238.014 18.448 238.082 18.816 238.218 19.128C238.354 19.432 238.546 19.668 238.794 19.836C239.05 20.004 239.342 20.088 239.67 20.088ZM249.299 15L246.671 21.708C246.495 22.172 246.303 22.54 246.095 22.812C245.895 23.084 245.663 23.28 245.399 23.4C245.135 23.52 244.827 23.58 244.475 23.58C244.187 23.58 243.919 23.54 243.671 23.46C243.431 23.388 243.219 23.288 243.035 23.16L243.347 22.164C243.499 22.292 243.659 22.388 243.827 22.452C244.003 22.516 244.191 22.548 244.391 22.548C244.607 22.548 244.799 22.488 244.967 22.368C245.143 22.256 245.299 22.028 245.435 21.684L245.699 21.036L245.063 19.548L243.191 15H244.631L245.963 18.768L246.311 19.896L246.707 18.66L247.967 15H249.299ZM256.596 14.88C257.076 14.88 257.484 14.952 257.82 15.096C258.164 15.232 258.452 15.428 258.684 15.684C258.916 15.94 259.092 16.232 259.212 16.56L258 17.04C257.896 16.672 257.728 16.392 257.496 16.2C257.272 16 256.976 15.9 256.608 15.9C256.248 15.9 255.94 15.984 255.684 16.152C255.428 16.312 255.232 16.548 255.096 16.86C254.968 17.172 254.904 17.556 254.904 18.012C254.904 18.46 254.972 18.84 255.108 19.152C255.244 19.464 255.44 19.7 255.696 19.86C255.952 20.02 256.256 20.1 256.608 20.1C256.88 20.1 257.116 20.056 257.316 19.968C257.516 19.872 257.68 19.74 257.808 19.572C257.944 19.396 258.036 19.184 258.084 18.936L259.248 19.332C259.136 19.692 258.96 20.008 258.72 20.28C258.488 20.544 258.196 20.752 257.844 20.904C257.492 21.048 257.088 21.12 256.632 21.12C256.04 21.12 255.516 20.996 255.06 20.748C254.604 20.5 254.248 20.144 253.992 19.68C253.744 19.208 253.62 18.648 253.62 18C253.62 17.352 253.744 16.796 253.992 16.332C254.248 15.86 254.6 15.5 255.048 15.252C255.504 15.004 256.02 14.88 256.596 14.88ZM264.21 17.148C264.21 16.748 264.098 16.44 263.874 16.224C263.658 16 263.358 15.888 262.974 15.888C262.614 15.888 262.306 15.972 262.05 16.14C261.794 16.308 261.606 16.58 261.486 16.956L260.406 16.5C260.558 16.012 260.854 15.62 261.294 15.324C261.742 15.028 262.318 14.88 263.022 14.88C263.502 14.88 263.926 14.96 264.294 15.12C264.662 15.272 264.95 15.504 265.158 15.816C265.374 16.128 265.482 16.528 265.482 17.016V19.692C265.482 19.988 265.63 20.136 265.926 20.136C266.07 20.136 266.21 20.116 266.346 20.076L266.274 20.964C266.09 21.052 265.858 21.096 265.578 21.096C265.322 21.096 265.09 21.052 264.882 20.964C264.682 20.868 264.522 20.728 264.402 20.544C264.29 20.352 264.234 20.116 264.234 19.836V19.752L264.498 19.74C264.426 20.052 264.278 20.312 264.054 20.52C263.83 20.72 263.57 20.872 263.274 20.976C262.978 21.072 262.678 21.12 262.374 21.12C261.998 21.12 261.658 21.06 261.354 20.94C261.058 20.82 260.822 20.64 260.646 20.4C260.478 20.152 260.394 19.848 260.394 19.488C260.394 19.04 260.538 18.672 260.826 18.384C261.122 18.096 261.538 17.9 262.074 17.796L264.402 17.34L264.39 18.24L262.698 18.588C262.362 18.652 262.11 18.744 261.942 18.864C261.774 18.984 261.69 19.16 261.69 19.392C261.69 19.616 261.774 19.796 261.942 19.932C262.118 20.06 262.35 20.124 262.638 20.124C262.838 20.124 263.03 20.1 263.214 20.052C263.406 20.004 263.578 19.928 263.73 19.824C263.882 19.712 263.998 19.572 264.078 19.404C264.166 19.228 264.21 19.02 264.21 18.78V17.148ZM267.586 21V15H268.726L268.81 16.56L268.642 16.392C268.754 16.048 268.914 15.764 269.122 15.54C269.338 15.308 269.59 15.14 269.878 15.036C270.174 14.932 270.486 14.88 270.814 14.88C271.238 14.88 271.618 14.964 271.954 15.132C272.298 15.292 272.57 15.536 272.77 15.864C272.97 16.192 273.07 16.608 273.07 17.112V21H271.786V17.508C271.786 16.916 271.662 16.508 271.414 16.284C271.174 16.052 270.87 15.936 270.502 15.936C270.238 15.936 269.982 16 269.734 16.128C269.486 16.248 269.278 16.444 269.11 16.716C268.95 16.988 268.87 17.352 268.87 17.808V21H267.586ZM277.32 21.12C276.824 21.12 276.372 20.996 275.964 20.748C275.564 20.5 275.248 20.144 275.016 19.68C274.784 19.216 274.668 18.66 274.668 18.012C274.668 17.34 274.792 16.772 275.04 16.308C275.288 15.844 275.62 15.492 276.036 15.252C276.452 15.004 276.908 14.88 277.404 14.88C277.916 14.88 278.348 15.02 278.7 15.3C279.052 15.58 279.288 15.944 279.408 16.392L279.264 16.524V12.3H280.548V21H279.408L279.312 19.368L279.48 19.38C279.424 19.74 279.292 20.052 279.084 20.316C278.876 20.572 278.616 20.772 278.304 20.916C278 21.052 277.672 21.12 277.32 21.12ZM277.596 20.088C277.94 20.088 278.236 20 278.484 19.824C278.732 19.648 278.924 19.4 279.06 19.08C279.196 18.76 279.264 18.376 279.264 17.928C279.264 17.512 279.196 17.156 279.06 16.86C278.924 16.556 278.732 16.324 278.484 16.164C278.244 16.004 277.964 15.924 277.644 15.924C277.108 15.924 276.692 16.108 276.396 16.476C276.1 16.844 275.952 17.352 275.952 18C275.952 18.648 276.096 19.16 276.384 19.536C276.672 19.904 277.076 20.088 277.596 20.088ZM283.187 13.992C282.907 13.992 282.691 13.924 282.539 13.788C282.395 13.644 282.323 13.444 282.323 13.188C282.323 12.932 282.395 12.736 282.539 12.6C282.691 12.464 282.907 12.396 283.187 12.396C283.459 12.396 283.667 12.464 283.811 12.6C283.963 12.736 284.039 12.932 284.039 13.188C284.039 13.444 283.963 13.644 283.811 13.788C283.667 13.924 283.459 13.992 283.187 13.992ZM283.823 15V21H282.539V15H283.823ZM288.136 21.12C287.64 21.12 287.188 20.996 286.78 20.748C286.38 20.5 286.064 20.144 285.832 19.68C285.6 19.216 285.484 18.66 285.484 18.012C285.484 17.34 285.608 16.772 285.856 16.308C286.104 15.844 286.436 15.492 286.852 15.252C287.268 15.004 287.724 14.88 288.22 14.88C288.732 14.88 289.164 15.02 289.516 15.3C289.868 15.58 290.104 15.944 290.224 16.392L290.08 16.524V12.3H291.364V21H290.224L290.128 19.368L290.296 19.38C290.24 19.74 290.108 20.052 289.9 20.316C289.692 20.572 289.432 20.772 289.12 20.916C288.816 21.052 288.488 21.12 288.136 21.12ZM288.412 20.088C288.756 20.088 289.052 20 289.3 19.824C289.548 19.648 289.74 19.4 289.876 19.08C290.012 18.76 290.08 18.376 290.08 17.928C290.08 17.512 290.012 17.156 289.876 16.86C289.74 16.556 289.548 16.324 289.3 16.164C289.06 16.004 288.78 15.924 288.46 15.924C287.924 15.924 287.508 16.108 287.212 16.476C286.916 16.844 286.768 17.352 286.768 18C286.768 18.648 286.912 19.16 287.2 19.536C287.488 19.904 287.892 20.088 288.412 20.088ZM296.823 17.148C296.823 16.748 296.711 16.44 296.487 16.224C296.271 16 295.971 15.888 295.587 15.888C295.227 15.888 294.919 15.972 294.663 16.14C294.407 16.308 294.219 16.58 294.099 16.956L293.019 16.5C293.171 16.012 293.467 15.62 293.907 15.324C294.355 15.028 294.931 14.88 295.635 14.88C296.115 14.88 296.539 14.96 296.907 15.12C297.275 15.272 297.563 15.504 297.771 15.816C297.987 16.128 298.095 16.528 298.095 17.016V19.692C298.095 19.988 298.243 20.136 298.539 20.136C298.683 20.136 298.823 20.116 298.959 20.076L298.887 20.964C298.703 21.052 298.471 21.096 298.191 21.096C297.935 21.096 297.703 21.052 297.495 20.964C297.295 20.868 297.135 20.728 297.015 20.544C296.903 20.352 296.847 20.116 296.847 19.836V19.752L297.111 19.74C297.039 20.052 296.891 20.312 296.667 20.52C296.443 20.72 296.183 20.872 295.887 20.976C295.591 21.072 295.291 21.12 294.987 21.12C294.611 21.12 294.271 21.06 293.967 20.94C293.671 20.82 293.435 20.64 293.259 20.4C293.091 20.152 293.007 19.848 293.007 19.488C293.007 19.04 293.151 18.672 293.439 18.384C293.735 18.096 294.151 17.9 294.687 17.796L297.015 17.34L297.003 18.24L295.311 18.588C294.975 18.652 294.723 18.744 294.555 18.864C294.387 18.984 294.303 19.16 294.303 19.392C294.303 19.616 294.387 19.796 294.555 19.932C294.731 20.06 294.963 20.124 295.251 20.124C295.451 20.124 295.643 20.1 295.827 20.052C296.019 20.004 296.191 19.928 296.343 19.824C296.495 19.712 296.611 19.572 296.691 19.404C296.779 19.228 296.823 19.02 296.823 18.78V17.148ZM301.717 13.236V19.2C301.717 19.496 301.793 19.712 301.945 19.848C302.105 19.984 302.317 20.052 302.581 20.052C302.797 20.052 302.985 20.02 303.145 19.956C303.305 19.884 303.453 19.788 303.589 19.668L303.877 20.604C303.693 20.764 303.465 20.892 303.193 20.988C302.929 21.076 302.633 21.12 302.305 21.12C301.961 21.12 301.645 21.064 301.357 20.952C301.069 20.84 300.845 20.66 300.685 20.412C300.525 20.156 300.441 19.824 300.433 19.416V13.596L301.717 13.236ZM303.781 15V16.008H299.281V15H303.781ZM307.691 21.12C307.091 21.12 306.563 20.996 306.107 20.748C305.651 20.5 305.295 20.144 305.039 19.68C304.791 19.208 304.667 18.648 304.667 18C304.667 17.352 304.791 16.796 305.039 16.332C305.295 15.86 305.647 15.5 306.095 15.252C306.543 15.004 307.051 14.88 307.619 14.88C308.203 14.88 308.699 15 309.107 15.24C309.515 15.48 309.827 15.808 310.043 16.224C310.259 16.64 310.367 17.112 310.367 17.64C310.367 17.784 310.363 17.92 310.355 18.048C310.347 18.176 310.335 18.288 310.319 18.384H305.495V17.4H309.755L309.119 17.592C309.119 17.048 308.983 16.632 308.711 16.344C308.439 16.048 308.067 15.9 307.595 15.9C307.251 15.9 306.951 15.98 306.695 16.14C306.439 16.3 306.243 16.54 306.107 16.86C305.971 17.172 305.903 17.556 305.903 18.012C305.903 18.46 305.975 18.84 306.119 19.152C306.263 19.464 306.467 19.7 306.731 19.86C306.995 20.02 307.307 20.1 307.667 20.1C308.067 20.1 308.391 20.024 308.639 19.872C308.887 19.72 309.083 19.508 309.227 19.236L310.247 19.716C310.103 20.004 309.907 20.256 309.659 20.472C309.419 20.68 309.131 20.84 308.795 20.952C308.459 21.064 308.091 21.12 307.691 21.12ZM317.991 21.12C317.455 21.12 316.991 21.032 316.599 20.856C316.215 20.672 315.915 20.42 315.699 20.1C315.491 19.78 315.387 19.404 315.387 18.972C315.387 18.724 315.419 18.488 315.483 18.264C315.555 18.032 315.667 17.812 315.819 17.604C315.979 17.388 316.195 17.192 316.467 17.016C316.739 16.832 317.079 16.672 317.487 16.536L317.955 16.332C318.275 16.148 318.531 15.98 318.723 15.828C318.923 15.676 319.067 15.516 319.155 15.348C319.251 15.18 319.299 14.984 319.299 14.76C319.299 14.496 319.219 14.292 319.059 14.148C318.899 14.004 318.687 13.932 318.423 13.932C318.111 13.932 317.875 14.02 317.715 14.196C317.563 14.364 317.487 14.568 317.487 14.808C317.487 14.952 317.507 15.092 317.547 15.228C317.595 15.364 317.683 15.532 317.811 15.732C317.947 15.932 318.143 16.196 318.399 16.524C318.655 16.844 319.003 17.268 319.443 17.796C319.875 18.316 320.235 18.74 320.523 19.068C320.819 19.388 321.071 19.632 321.279 19.8C321.487 19.96 321.679 20.068 321.855 20.124C322.039 20.172 322.243 20.192 322.467 20.184L322.251 21.12C321.995 21.12 321.755 21.092 321.531 21.036C321.315 20.988 321.079 20.876 320.823 20.7C320.575 20.524 320.279 20.26 319.935 19.908C319.599 19.556 319.183 19.088 318.687 18.504C318.223 17.96 317.835 17.504 317.523 17.136C317.219 16.76 316.979 16.444 316.803 16.188C316.635 15.924 316.515 15.688 316.443 15.48C316.371 15.264 316.335 15.036 316.335 14.796C316.335 14.5 316.411 14.212 316.563 13.932C316.715 13.644 316.943 13.412 317.247 13.236C317.559 13.052 317.963 12.96 318.459 12.96C318.859 12.96 319.199 13.032 319.479 13.176C319.759 13.32 319.975 13.52 320.127 13.776C320.279 14.024 320.355 14.312 320.355 14.64C320.355 14.944 320.299 15.228 320.187 15.492C320.075 15.756 319.875 16.008 319.587 16.248C319.307 16.488 318.907 16.724 318.387 16.956L317.991 17.124C317.623 17.308 317.335 17.484 317.127 17.652C316.919 17.82 316.771 18 316.683 18.192C316.595 18.376 316.551 18.6 316.551 18.864C316.551 19.136 316.619 19.372 316.755 19.572C316.899 19.764 317.091 19.912 317.331 20.016C317.571 20.12 317.839 20.172 318.135 20.172C318.559 20.172 318.919 20.1 319.215 19.956C319.511 19.804 319.787 19.596 320.043 19.332L320.211 19.152C320.403 18.848 320.551 18.504 320.655 18.12C320.767 17.736 320.803 17.3 320.763 16.812L321.759 16.872C321.775 17.384 321.707 17.88 321.555 18.36C321.411 18.84 321.187 19.272 320.883 19.656L320.643 19.92C320.355 20.288 319.991 20.58 319.551 20.796C319.111 21.012 318.591 21.12 317.991 21.12ZM330.819 12.96C331.587 12.96 332.251 13.124 332.811 13.452C333.371 13.78 333.803 14.248 334.107 14.856C334.411 15.464 334.563 16.192 334.563 17.04C334.563 17.888 334.411 18.616 334.107 19.224C333.803 19.832 333.371 20.3 332.811 20.628C332.251 20.956 331.587 21.12 330.819 21.12C330.059 21.12 329.399 20.956 328.839 20.628C328.279 20.3 327.847 19.832 327.543 19.224C327.239 18.616 327.087 17.888 327.087 17.04C327.087 16.192 327.239 15.464 327.543 14.856C327.847 14.248 328.279 13.78 328.839 13.452C329.399 13.124 330.059 12.96 330.819 12.96ZM330.819 14.076C330.323 14.076 329.895 14.192 329.535 14.424C329.183 14.656 328.911 14.992 328.719 15.432C328.527 15.872 328.431 16.408 328.431 17.04C328.431 17.664 328.527 18.2 328.719 18.648C328.911 19.088 329.183 19.424 329.535 19.656C329.895 19.888 330.323 20.004 330.819 20.004C331.323 20.004 331.751 19.888 332.103 19.656C332.463 19.424 332.739 19.088 332.931 18.648C333.123 18.2 333.219 17.664 333.219 17.04C333.219 16.408 333.123 15.872 332.931 15.432C332.739 14.992 332.463 14.656 332.103 14.424C331.751 14.192 331.323 14.076 330.819 14.076ZM338.045 13.236V19.2C338.045 19.496 338.121 19.712 338.273 19.848C338.433 19.984 338.645 20.052 338.909 20.052C339.125 20.052 339.313 20.02 339.473 19.956C339.633 19.884 339.781 19.788 339.917 19.668L340.205 20.604C340.021 20.764 339.793 20.892 339.521 20.988C339.257 21.076 338.961 21.12 338.633 21.12C338.289 21.12 337.973 21.064 337.685 20.952C337.397 20.84 337.173 20.66 337.013 20.412C336.853 20.156 336.769 19.824 336.761 19.416V13.596L338.045 13.236ZM340.109 15V16.008H335.609V15H340.109ZM341.426 21V12.3H342.71V15.96C342.91 15.584 343.178 15.312 343.514 15.144C343.858 14.968 344.238 14.88 344.654 14.88C345.078 14.88 345.458 14.964 345.794 15.132C346.138 15.292 346.41 15.536 346.61 15.864C346.81 16.192 346.91 16.608 346.91 17.112V21H345.626V17.52C345.626 16.928 345.502 16.516 345.254 16.284C345.014 16.052 344.71 15.936 344.342 15.936C344.086 15.936 343.83 16 343.574 16.128C343.326 16.248 343.118 16.448 342.95 16.728C342.79 17 342.71 17.368 342.71 17.832V21H341.426ZM351.495 21.12C350.895 21.12 350.367 20.996 349.911 20.748C349.455 20.5 349.099 20.144 348.843 19.68C348.595 19.208 348.471 18.648 348.471 18C348.471 17.352 348.595 16.796 348.843 16.332C349.099 15.86 349.451 15.5 349.899 15.252C350.347 15.004 350.855 14.88 351.423 14.88C352.007 14.88 352.503 15 352.911 15.24C353.319 15.48 353.631 15.808 353.847 16.224C354.063 16.64 354.171 17.112 354.171 17.64C354.171 17.784 354.167 17.92 354.159 18.048C354.151 18.176 354.139 18.288 354.123 18.384H349.299V17.4H353.559L352.923 17.592C352.923 17.048 352.787 16.632 352.515 16.344C352.243 16.048 351.871 15.9 351.399 15.9C351.055 15.9 350.755 15.98 350.499 16.14C350.243 16.3 350.047 16.54 349.911 16.86C349.775 17.172 349.707 17.556 349.707 18.012C349.707 18.46 349.779 18.84 349.923 19.152C350.067 19.464 350.271 19.7 350.535 19.86C350.799 20.02 351.111 20.1 351.471 20.1C351.871 20.1 352.195 20.024 352.443 19.872C352.691 19.72 352.887 19.508 353.031 19.236L354.051 19.716C353.907 20.004 353.711 20.256 353.463 20.472C353.223 20.68 352.935 20.84 352.599 20.952C352.263 21.064 351.895 21.12 351.495 21.12ZM355.793 21V15H356.885L357.005 16.08C357.165 15.688 357.401 15.392 357.713 15.192C358.033 14.984 358.425 14.88 358.889 14.88C359.009 14.88 359.129 14.892 359.249 14.916C359.369 14.932 359.469 14.96 359.549 15L359.369 16.128C359.281 16.096 359.181 16.072 359.069 16.056C358.965 16.032 358.821 16.02 358.637 16.02C358.389 16.02 358.145 16.088 357.905 16.224C357.665 16.352 357.465 16.548 357.305 16.812C357.153 17.076 357.077 17.412 357.077 17.82V21H355.793ZM366.71 21.12C366.214 21.12 365.762 20.996 365.354 20.748C364.954 20.5 364.638 20.144 364.406 19.68C364.174 19.216 364.058 18.66 364.058 18.012C364.058 17.34 364.182 16.772 364.43 16.308C364.678 15.844 365.01 15.492 365.426 15.252C365.842 15.004 366.298 14.88 366.794 14.88C367.306 14.88 367.738 15.02 368.09 15.3C368.442 15.58 368.678 15.944 368.798 16.392L368.654 16.524V12.3H369.938V21H368.798L368.702 19.368L368.87 19.38C368.814 19.74 368.682 20.052 368.474 20.316C368.266 20.572 368.006 20.772 367.694 20.916C367.39 21.052 367.062 21.12 366.71 21.12ZM366.986 20.088C367.33 20.088 367.626 20 367.874 19.824C368.122 19.648 368.314 19.4 368.45 19.08C368.586 18.76 368.654 18.376 368.654 17.928C368.654 17.512 368.586 17.156 368.45 16.86C368.314 16.556 368.122 16.324 367.874 16.164C367.634 16.004 367.354 15.924 367.034 15.924C366.498 15.924 366.082 16.108 365.786 16.476C365.49 16.844 365.342 17.352 365.342 18C365.342 18.648 365.486 19.16 365.774 19.536C366.062 19.904 366.466 20.088 366.986 20.088ZM374.534 14.88C375.118 14.88 375.634 15.004 376.082 15.252C376.53 15.5 376.878 15.86 377.126 16.332C377.382 16.796 377.51 17.352 377.51 18C377.51 18.648 377.382 19.208 377.126 19.68C376.878 20.144 376.53 20.5 376.082 20.748C375.634 20.996 375.118 21.12 374.534 21.12C373.95 21.12 373.434 20.996 372.986 20.748C372.538 20.5 372.186 20.144 371.93 19.68C371.674 19.208 371.546 18.648 371.546 18C371.546 17.352 371.674 16.796 371.93 16.332C372.186 15.86 372.538 15.5 372.986 15.252C373.434 15.004 373.95 14.88 374.534 14.88ZM374.534 15.888C374.174 15.888 373.866 15.972 373.61 16.14C373.362 16.3 373.17 16.536 373.034 16.848C372.898 17.16 372.83 17.544 372.83 18C372.83 18.448 372.898 18.832 373.034 19.152C373.17 19.464 373.362 19.704 373.61 19.872C373.866 20.032 374.174 20.112 374.534 20.112C374.894 20.112 375.198 20.032 375.446 19.872C375.694 19.704 375.886 19.464 376.022 19.152C376.158 18.832 376.226 18.448 376.226 18C376.226 17.544 376.158 17.16 376.022 16.848C375.886 16.536 375.694 16.3 375.446 16.14C375.198 15.972 374.894 15.888 374.534 15.888ZM381.717 14.88C382.197 14.88 382.605 14.952 382.941 15.096C383.285 15.232 383.573 15.428 383.805 15.684C384.037 15.94 384.213 16.232 384.333 16.56L383.121 17.04C383.017 16.672 382.849 16.392 382.617 16.2C382.393 16 382.097 15.9 381.729 15.9C381.369 15.9 381.061 15.984 380.805 16.152C380.549 16.312 380.353 16.548 380.217 16.86C380.089 17.172 380.025 17.556 380.025 18.012C380.025 18.46 380.093 18.84 380.229 19.152C380.365 19.464 380.561 19.7 380.817 19.86C381.073 20.02 381.377 20.1 381.729 20.1C382.001 20.1 382.237 20.056 382.437 19.968C382.637 19.872 382.801 19.74 382.929 19.572C383.065 19.396 383.157 19.184 383.205 18.936L384.369 19.332C384.257 19.692 384.081 20.008 383.841 20.28C383.609 20.544 383.317 20.752 382.965 20.904C382.613 21.048 382.209 21.12 381.753 21.12C381.161 21.12 380.637 20.996 380.181 20.748C379.725 20.5 379.369 20.144 379.113 19.68C378.865 19.208 378.741 18.648 378.741 18C378.741 17.352 378.865 16.796 379.113 16.332C379.369 15.86 379.721 15.5 380.169 15.252C380.625 15.004 381.141 14.88 381.717 14.88ZM387.999 21.12C387.607 21.12 387.243 21.048 386.907 20.904C386.579 20.76 386.315 20.528 386.115 20.208C385.915 19.888 385.815 19.472 385.815 18.96V15H387.099V18.636C387.099 19.18 387.215 19.556 387.447 19.764C387.679 19.964 388.003 20.064 388.419 20.064C388.619 20.064 388.811 20.032 388.995 19.968C389.187 19.896 389.359 19.788 389.511 19.644C389.663 19.492 389.779 19.3 389.859 19.068C389.947 18.836 389.991 18.564 389.991 18.252V15H391.275V21H390.147L390.087 20.028C389.879 20.404 389.599 20.68 389.247 20.856C388.895 21.032 388.479 21.12 387.999 21.12ZM393.281 21V15H394.421L394.481 16.008C394.689 15.624 394.965 15.34 395.309 15.156C395.661 14.972 396.033 14.88 396.425 14.88C396.857 14.88 397.253 14.98 397.613 15.18C397.981 15.372 398.257 15.664 398.441 16.056C398.569 15.792 398.745 15.572 398.969 15.396C399.193 15.22 399.441 15.092 399.713 15.012C399.985 14.924 400.253 14.88 400.517 14.88C400.901 14.88 401.261 14.96 401.597 15.12C401.933 15.28 402.205 15.524 402.413 15.852C402.621 16.18 402.725 16.6 402.725 17.112V21H401.441V17.316C401.441 16.828 401.325 16.476 401.093 16.26C400.861 16.044 400.565 15.936 400.205 15.936C399.925 15.936 399.665 16.004 399.425 16.14C399.193 16.276 399.005 16.48 398.861 16.752C398.717 17.016 398.645 17.344 398.645 17.736V21H397.361V17.316C397.361 16.828 397.245 16.476 397.013 16.26C396.781 16.044 396.485 15.936 396.125 15.936C395.885 15.936 395.645 16 395.405 16.128C395.165 16.256 394.965 16.456 394.805 16.728C394.645 17 394.565 17.36 394.565 17.808V21H393.281ZM407.312 21.12C406.712 21.12 406.184 20.996 405.728 20.748C405.272 20.5 404.916 20.144 404.66 19.68C404.412 19.208 404.288 18.648 404.288 18C404.288 17.352 404.412 16.796 404.66 16.332C404.916 15.86 405.268 15.5 405.716 15.252C406.164 15.004 406.672 14.88 407.24 14.88C407.824 14.88 408.32 15 408.728 15.24C409.136 15.48 409.448 15.808 409.664 16.224C409.88 16.64 409.988 17.112 409.988 17.64C409.988 17.784 409.984 17.92 409.976 18.048C409.968 18.176 409.956 18.288 409.94 18.384H405.116V17.4H409.376L408.74 17.592C408.74 17.048 408.604 16.632 408.332 16.344C408.06 16.048 407.688 15.9 407.216 15.9C406.872 15.9 406.572 15.98 406.316 16.14C406.06 16.3 405.864 16.54 405.728 16.86C405.592 17.172 405.524 17.556 405.524 18.012C405.524 18.46 405.596 18.84 405.74 19.152C405.884 19.464 406.088 19.7 406.352 19.86C406.616 20.02 406.928 20.1 407.288 20.1C407.688 20.1 408.012 20.024 408.26 19.872C408.508 19.72 408.704 19.508 408.848 19.236L409.868 19.716C409.724 20.004 409.528 20.256 409.28 20.472C409.04 20.68 408.752 20.84 408.416 20.952C408.08 21.064 407.712 21.12 407.312 21.12ZM411.609 21V15H412.749L412.833 16.56L412.665 16.392C412.777 16.048 412.937 15.764 413.145 15.54C413.361 15.308 413.613 15.14 413.901 15.036C414.197 14.932 414.509 14.88 414.837 14.88C415.261 14.88 415.641 14.964 415.977 15.132C416.321 15.292 416.593 15.536 416.793 15.864C416.993 16.192 417.093 16.608 417.093 17.112V21H415.809V17.508C415.809 16.916 415.685 16.508 415.437 16.284C415.197 16.052 414.893 15.936 414.525 15.936C414.261 15.936 414.005 16 413.757 16.128C413.509 16.248 413.301 16.444 413.133 16.716C412.973 16.988 412.893 17.352 412.893 17.808V21H411.609ZM420.721 13.236V19.2C420.721 19.496 420.797 19.712 420.949 19.848C421.109 19.984 421.321 20.052 421.585 20.052C421.801 20.052 421.989 20.02 422.149 19.956C422.309 19.884 422.457 19.788 422.593 19.668L422.881 20.604C422.697 20.764 422.469 20.892 422.197 20.988C421.933 21.076 421.637 21.12 421.309 21.12C420.965 21.12 420.649 21.064 420.361 20.952C420.073 20.84 419.849 20.66 419.689 20.412C419.529 20.156 419.445 19.824 419.437 19.416V13.596L420.721 13.236ZM422.785 15V16.008H418.285V15H422.785Z" fill="#032339"/>
<path d="M75.744 34.08C77.008 34.08 77.98 34.416 78.66 35.088C79.348 35.752 79.692 36.716 79.692 37.98C79.692 39.284 79.348 40.28 78.66 40.968C77.98 41.656 77.008 42 75.744 42H73.248V34.08H75.744ZM75.792 41.448C76.848 41.448 77.656 41.148 78.216 40.548C78.784 39.948 79.068 39.092 79.068 37.98C79.068 36.908 78.784 36.084 78.216 35.508C77.656 34.924 76.848 34.632 75.792 34.632H73.848V41.448H75.792ZM81.4703 42V36H81.9743L82.0463 37.26C82.1983 36.836 82.4423 36.5 82.7783 36.252C83.1143 36.004 83.5183 35.88 83.9903 35.88C84.1503 35.88 84.2943 35.896 84.4223 35.928C84.5503 35.96 84.6543 36.012 84.7343 36.084L84.6023 36.612C84.5143 36.556 84.4183 36.512 84.3143 36.48C84.2103 36.448 84.0543 36.432 83.8463 36.432C83.5423 36.432 83.2543 36.528 82.9823 36.72C82.7103 36.904 82.4903 37.164 82.3223 37.5C82.1543 37.828 82.0703 38.208 82.0703 38.64V42H81.4703ZM88.1723 35.88C88.7323 35.88 89.2243 36.004 89.6483 36.252C90.0803 36.5 90.4163 36.86 90.6562 37.332C90.9043 37.796 91.0283 38.352 91.0283 39C91.0283 39.648 90.9043 40.208 90.6562 40.68C90.4163 41.144 90.0803 41.5 89.6483 41.748C89.2243 41.996 88.7323 42.12 88.1723 42.12C87.6123 42.12 87.1163 41.996 86.6843 41.748C86.2603 41.5 85.9243 41.144 85.6763 40.68C85.4363 40.208 85.3163 39.648 85.3163 39C85.3163 38.352 85.4363 37.796 85.6763 37.332C85.9243 36.86 86.2603 36.5 86.6843 36.252C87.1163 36.004 87.6123 35.88 88.1723 35.88ZM88.1723 36.396C87.7163 36.396 87.3203 36.5 86.9843 36.708C86.6483 36.916 86.3843 37.216 86.1923 37.608C86.0083 37.992 85.9163 38.456 85.9163 39C85.9163 39.536 86.0083 40 86.1923 40.392C86.3843 40.784 86.6483 41.084 86.9843 41.292C87.3203 41.5 87.7163 41.604 88.1723 41.604C88.6283 41.604 89.0243 41.5 89.3603 41.292C89.6963 41.084 89.9563 40.784 90.1403 40.392C90.3323 40 90.4283 39.536 90.4283 39C90.4283 38.456 90.3323 37.992 90.1403 37.608C89.9563 37.216 89.6963 36.916 89.3603 36.708C89.0243 36.5 88.6283 36.396 88.1723 36.396ZM92.7438 44.52V36H93.2838L93.3318 37.668L93.2478 37.572C93.3518 37.228 93.5118 36.928 93.7278 36.672C93.9518 36.416 94.2238 36.22 94.5438 36.084C94.8638 35.948 95.2118 35.88 95.5878 35.88C96.0998 35.88 96.5598 36.004 96.9678 36.252C97.3758 36.5 97.6998 36.856 97.9398 37.32C98.1798 37.784 98.2998 38.344 98.2998 39C98.2998 39.648 98.1798 40.208 97.9398 40.68C97.6998 41.144 97.3718 41.5 96.9558 41.748C96.5478 41.996 96.0838 42.12 95.5638 42.12C95.0118 42.12 94.5318 41.976 94.1238 41.688C93.7158 41.392 93.4318 40.996 93.2718 40.5L93.3438 40.392V44.52H92.7438ZM95.4918 41.592C96.1718 41.592 96.7078 41.36 97.0998 40.896C97.4998 40.432 97.6998 39.8 97.6998 39C97.6998 38.2 97.5038 37.568 97.1118 37.104C96.7198 36.64 96.1878 36.408 95.5158 36.408C95.0918 36.408 94.7158 36.516 94.3878 36.732C94.0678 36.94 93.8118 37.24 93.6198 37.632C93.4358 38.016 93.3438 38.472 93.3438 39C93.3438 39.52 93.4358 39.976 93.6198 40.368C93.8038 40.76 94.0558 41.064 94.3758 41.28C94.7038 41.488 95.0758 41.592 95.4918 41.592ZM108.218 36L105.314 43.104C105.17 43.472 105.014 43.764 104.846 43.98C104.678 44.196 104.49 44.348 104.282 44.436C104.074 44.532 103.834 44.58 103.562 44.58C103.322 44.58 103.102 44.544 102.902 44.472C102.702 44.4 102.538 44.3 102.41 44.172L102.602 43.656C102.722 43.8 102.866 43.9 103.034 43.956C103.202 44.02 103.374 44.052 103.55 44.052C103.806 44.052 104.034 43.976 104.234 43.824C104.434 43.68 104.622 43.392 104.798 42.96L105.194 42L104.558 40.512L102.662 36H103.346L105.182 40.548L105.482 41.352L105.806 40.488L107.57 36H108.218ZM111.856 35.88C112.416 35.88 112.908 36.004 113.332 36.252C113.764 36.5 114.1 36.86 114.34 37.332C114.588 37.796 114.712 38.352 114.712 39C114.712 39.648 114.588 40.208 114.34 40.68C114.1 41.144 113.764 41.5 113.332 41.748C112.908 41.996 112.416 42.12 111.856 42.12C111.296 42.12 110.8 41.996 110.368 41.748C109.944 41.5 109.608 41.144 109.36 40.68C109.12 40.208 109 39.648 109 39C109 38.352 109.12 37.796 109.36 37.332C109.608 36.86 109.944 36.5 110.368 36.252C110.8 36.004 111.296 35.88 111.856 35.88ZM111.856 36.396C111.4 36.396 111.004 36.5 110.668 36.708C110.332 36.916 110.068 37.216 109.876 37.608C109.692 37.992 109.6 38.456 109.6 39C109.6 39.536 109.692 40 109.876 40.392C110.068 40.784 110.332 41.084 110.668 41.292C111.004 41.5 111.4 41.604 111.856 41.604C112.312 41.604 112.708 41.5 113.044 41.292C113.38 41.084 113.64 40.784 113.824 40.392C114.016 40 114.112 39.536 114.112 39C114.112 38.456 114.016 37.992 113.824 37.608C113.64 37.216 113.38 36.916 113.044 36.708C112.708 36.5 112.312 36.396 111.856 36.396ZM118.539 42.12C118.123 42.12 117.751 42.044 117.423 41.892C117.095 41.74 116.835 41.504 116.643 41.184C116.459 40.856 116.367 40.448 116.367 39.96V36H116.967V39.816C116.967 40.44 117.115 40.892 117.411 41.172C117.715 41.452 118.139 41.592 118.683 41.592C119.003 41.592 119.291 41.536 119.547 41.424C119.811 41.312 120.035 41.156 120.219 40.956C120.403 40.756 120.543 40.528 120.639 40.272C120.743 40.016 120.795 39.74 120.795 39.444V36H121.395V42H120.855L120.831 40.764C120.655 41.188 120.367 41.52 119.967 41.76C119.567 42 119.091 42.12 118.539 42.12ZM123.529 42V36H124.033L124.105 37.26C124.257 36.836 124.501 36.5 124.837 36.252C125.173 36.004 125.577 35.88 126.049 35.88C126.209 35.88 126.353 35.896 126.481 35.928C126.609 35.96 126.713 36.012 126.793 36.084L126.661 36.612C126.573 36.556 126.477 36.512 126.373 36.48C126.269 36.448 126.113 36.432 125.905 36.432C125.601 36.432 125.313 36.528 125.041 36.72C124.769 36.904 124.549 37.164 124.381 37.5C124.213 37.828 124.129 38.208 124.129 38.64V42H123.529ZM133.506 33.18C133.722 33.18 133.914 33.208 134.082 33.264C134.25 33.32 134.382 33.4 134.478 33.504L134.31 33.984C134.206 33.888 134.094 33.82 133.974 33.78C133.854 33.74 133.714 33.72 133.554 33.72C133.162 33.72 132.858 33.832 132.642 34.056C132.426 34.28 132.318 34.612 132.318 35.052V36V36.216V42H131.718V34.992C131.718 34.72 131.754 34.472 131.826 34.248C131.906 34.024 132.022 33.836 132.174 33.684C132.326 33.524 132.514 33.4 132.738 33.312C132.962 33.224 133.218 33.18 133.506 33.18ZM134.43 36V36.516H130.518V36H134.43ZM135.918 34.836C135.766 34.836 135.642 34.792 135.546 34.704C135.458 34.608 135.414 34.484 135.414 34.332C135.414 34.18 135.458 34.06 135.546 33.972C135.642 33.876 135.766 33.828 135.918 33.828C136.07 33.828 136.19 33.876 136.278 33.972C136.374 34.06 136.422 34.18 136.422 34.332C136.422 34.484 136.374 34.608 136.278 34.704C136.19 34.792 136.07 34.836 135.918 34.836ZM136.218 36V42H135.618V36H136.218ZM138.905 33.24V40.584C138.905 40.952 138.969 41.212 139.097 41.364C139.225 41.516 139.425 41.592 139.697 41.592C139.865 41.592 139.997 41.58 140.093 41.556C140.197 41.532 140.317 41.492 140.453 41.436L140.369 41.964C140.265 42.012 140.145 42.048 140.009 42.072C139.881 42.104 139.737 42.12 139.577 42.12C139.153 42.12 138.833 42 138.617 41.76C138.409 41.512 138.305 41.128 138.305 40.608V33.24H138.905ZM144.047 42.12C143.495 42.12 143.003 41.996 142.571 41.748C142.139 41.5 141.799 41.144 141.551 40.68C141.311 40.208 141.191 39.648 141.191 39C141.191 38.352 141.311 37.796 141.551 37.332C141.799 36.86 142.131 36.5 142.547 36.252C142.963 36.004 143.439 35.88 143.975 35.88C144.519 35.88 144.983 36 145.367 36.24C145.751 36.48 146.047 36.816 146.255 37.248C146.463 37.672 146.567 38.164 146.567 38.724C146.567 38.796 146.563 38.868 146.555 38.94C146.555 39.004 146.551 39.064 146.543 39.12H141.563V38.58H146.279L145.979 38.664C145.971 37.976 145.787 37.428 145.427 37.02C145.075 36.612 144.587 36.408 143.963 36.408C143.531 36.408 143.151 36.512 142.823 36.72C142.495 36.92 142.239 37.216 142.055 37.608C141.871 37.992 141.779 38.456 141.779 39C141.779 39.536 141.871 40 142.055 40.392C142.247 40.784 142.511 41.084 142.847 41.292C143.191 41.492 143.587 41.592 144.035 41.592C144.499 41.592 144.895 41.492 145.223 41.292C145.559 41.092 145.819 40.816 146.003 40.464L146.483 40.74C146.339 41.028 146.147 41.276 145.907 41.484C145.667 41.684 145.391 41.84 145.079 41.952C144.767 42.064 144.423 42.12 144.047 42.12ZM152.041 42V33.24H152.641V37.224C152.817 36.8 153.101 36.472 153.493 36.24C153.885 36 154.337 35.88 154.849 35.88C155.297 35.88 155.693 35.964 156.037 36.132C156.381 36.292 156.649 36.54 156.841 36.876C157.041 37.204 157.141 37.612 157.141 38.1V42H156.541V38.292C156.541 37.644 156.377 37.168 156.049 36.864C155.729 36.552 155.309 36.396 154.789 36.396C154.413 36.396 154.061 36.484 153.733 36.66C153.413 36.836 153.149 37.088 152.941 37.416C152.741 37.744 152.641 38.144 152.641 38.616V42H152.041ZM161.661 42.12C161.109 42.12 160.617 41.996 160.185 41.748C159.753 41.5 159.413 41.144 159.165 40.68C158.925 40.208 158.805 39.648 158.805 39C158.805 38.352 158.925 37.796 159.165 37.332C159.413 36.86 159.745 36.5 160.161 36.252C160.577 36.004 161.053 35.88 161.589 35.88C162.133 35.88 162.597 36 162.981 36.24C163.365 36.48 163.661 36.816 163.869 37.248C164.077 37.672 164.181 38.164 164.181 38.724C164.181 38.796 164.177 38.868 164.169 38.94C164.169 39.004 164.165 39.064 164.157 39.12H159.177V38.58H163.893L163.593 38.664C163.585 37.976 163.401 37.428 163.041 37.02C162.689 36.612 162.201 36.408 161.577 36.408C161.145 36.408 160.765 36.512 160.437 36.72C160.109 36.92 159.853 37.216 159.669 37.608C159.485 37.992 159.393 38.456 159.393 39C159.393 39.536 159.485 40 159.669 40.392C159.861 40.784 160.125 41.084 160.461 41.292C160.805 41.492 161.201 41.592 161.649 41.592C162.113 41.592 162.509 41.492 162.837 41.292C163.173 41.092 163.433 40.816 163.617 40.464L164.097 40.74C163.953 41.028 163.761 41.276 163.521 41.484C163.281 41.684 163.005 41.84 162.693 41.952C162.381 42.064 162.037 42.12 161.661 42.12ZM165.892 42V36H166.396L166.468 37.26C166.62 36.836 166.864 36.5 167.2 36.252C167.536 36.004 167.94 35.88 168.412 35.88C168.572 35.88 168.716 35.896 168.844 35.928C168.972 35.96 169.076 36.012 169.156 36.084L169.024 36.612C168.936 36.556 168.84 36.512 168.736 36.48C168.632 36.448 168.476 36.432 168.268 36.432C167.964 36.432 167.676 36.528 167.404 36.72C167.132 36.904 166.912 37.164 166.744 37.5C166.576 37.828 166.492 38.208 166.492 38.64V42H165.892ZM172.594 42.12C172.042 42.12 171.55 41.996 171.118 41.748C170.686 41.5 170.346 41.144 170.098 40.68C169.858 40.208 169.738 39.648 169.738 39C169.738 38.352 169.858 37.796 170.098 37.332C170.346 36.86 170.678 36.5 171.094 36.252C171.51 36.004 171.986 35.88 172.522 35.88C173.066 35.88 173.53 36 173.914 36.24C174.298 36.48 174.594 36.816 174.802 37.248C175.01 37.672 175.114 38.164 175.114 38.724C175.114 38.796 175.11 38.868 175.102 38.94C175.102 39.004 175.098 39.064 175.09 39.12H170.11V38.58H174.826L174.526 38.664C174.518 37.976 174.334 37.428 173.974 37.02C173.622 36.612 173.134 36.408 172.51 36.408C172.078 36.408 171.698 36.512 171.37 36.72C171.042 36.92 170.786 37.216 170.602 37.608C170.418 37.992 170.326 38.456 170.326 39C170.326 39.536 170.418 40 170.602 40.392C170.794 40.784 171.058 41.084 171.394 41.292C171.738 41.492 172.134 41.592 172.582 41.592C173.046 41.592 173.442 41.492 173.77 41.292C174.106 41.092 174.366 40.816 174.55 40.464L175.03 40.74C174.886 41.028 174.694 41.276 174.454 41.484C174.214 41.684 173.938 41.84 173.626 41.952C173.314 42.064 172.97 42.12 172.594 42.12ZM183.036 35.88C183.596 35.88 184.088 36.004 184.512 36.252C184.944 36.5 185.28 36.86 185.52 37.332C185.768 37.796 185.892 38.352 185.892 39C185.892 39.648 185.768 40.208 185.52 40.68C185.28 41.144 184.944 41.5 184.512 41.748C184.088 41.996 183.596 42.12 183.036 42.12C182.476 42.12 181.98 41.996 181.548 41.748C181.124 41.5 180.788 41.144 180.54 40.68C180.3 40.208 180.18 39.648 180.18 39C180.18 38.352 180.3 37.796 180.54 37.332C180.788 36.86 181.124 36.5 181.548 36.252C181.98 36.004 182.476 35.88 183.036 35.88ZM183.036 36.396C182.58 36.396 182.184 36.5 181.848 36.708C181.512 36.916 181.248 37.216 181.056 37.608C180.872 37.992 180.78 38.456 180.78 39C180.78 39.536 180.872 40 181.056 40.392C181.248 40.784 181.512 41.084 181.848 41.292C182.184 41.5 182.58 41.604 183.036 41.604C183.492 41.604 183.888 41.5 184.224 41.292C184.56 41.084 184.82 40.784 185.004 40.392C185.196 40 185.292 39.536 185.292 39C185.292 38.456 185.196 37.992 185.004 37.608C184.82 37.216 184.56 36.916 184.224 36.708C183.888 36.5 183.492 36.396 183.036 36.396ZM187.607 42V36H188.111L188.183 37.26C188.335 36.836 188.579 36.5 188.915 36.252C189.251 36.004 189.655 35.88 190.127 35.88C190.287 35.88 190.431 35.896 190.559 35.928C190.687 35.96 190.791 36.012 190.871 36.084L190.739 36.612C190.651 36.556 190.555 36.512 190.451 36.48C190.347 36.448 190.191 36.432 189.983 36.432C189.679 36.432 189.391 36.528 189.119 36.72C188.847 36.904 188.627 37.164 188.459 37.5C188.291 37.828 188.207 38.208 188.207 38.64V42H187.607ZM198.431 42.12C198.063 42.12 197.719 42.052 197.399 41.916C197.087 41.78 196.819 41.584 196.595 41.328C196.379 41.072 196.219 40.772 196.115 40.428L196.199 40.332L196.151 42H195.611V33.24H196.211V37.608L196.139 37.5C196.299 37.004 196.583 36.612 196.991 36.324C197.407 36.028 197.887 35.88 198.431 35.88C198.959 35.88 199.427 36.004 199.835 36.252C200.243 36.5 200.567 36.856 200.807 37.32C201.047 37.784 201.167 38.344 201.167 39C201.167 39.648 201.047 40.208 200.807 40.68C200.567 41.144 200.239 41.5 199.823 41.748C199.415 41.996 198.951 42.12 198.431 42.12ZM198.359 41.592C199.039 41.592 199.575 41.36 199.967 40.896C200.367 40.432 200.567 39.8 200.567 39C200.567 38.2 200.371 37.568 199.979 37.104C199.587 36.64 199.051 36.408 198.371 36.408C197.955 36.408 197.583 36.516 197.255 36.732C196.927 36.94 196.671 37.24 196.487 37.632C196.303 38.024 196.211 38.484 196.211 39.012C196.211 39.54 196.303 40 196.487 40.392C196.671 40.776 196.923 41.072 197.243 41.28C197.571 41.488 197.943 41.592 198.359 41.592ZM202.9 42V36H203.404L203.476 37.26C203.628 36.836 203.872 36.5 204.208 36.252C204.544 36.004 204.948 35.88 205.42 35.88C205.58 35.88 205.724 35.896 205.852 35.928C205.98 35.96 206.084 36.012 206.164 36.084L206.032 36.612C205.944 36.556 205.848 36.512 205.744 36.48C205.64 36.448 205.484 36.432 205.276 36.432C204.972 36.432 204.684 36.528 204.412 36.72C204.14 36.904 203.92 37.164 203.752 37.5C203.584 37.828 203.5 38.208 203.5 38.64V42H202.9ZM209.602 35.88C210.162 35.88 210.654 36.004 211.078 36.252C211.51 36.5 211.846 36.86 212.086 37.332C212.334 37.796 212.458 38.352 212.458 39C212.458 39.648 212.334 40.208 212.086 40.68C211.846 41.144 211.51 41.5 211.078 41.748C210.654 41.996 210.162 42.12 209.602 42.12C209.042 42.12 208.546 41.996 208.114 41.748C207.69 41.5 207.354 41.144 207.106 40.68C206.866 40.208 206.746 39.648 206.746 39C206.746 38.352 206.866 37.796 207.106 37.332C207.354 36.86 207.69 36.5 208.114 36.252C208.546 36.004 209.042 35.88 209.602 35.88ZM209.602 36.396C209.146 36.396 208.75 36.5 208.414 36.708C208.078 36.916 207.814 37.216 207.622 37.608C207.438 37.992 207.346 38.456 207.346 39C207.346 39.536 207.438 40 207.622 40.392C207.814 40.784 208.078 41.084 208.414 41.292C208.75 41.5 209.146 41.604 209.602 41.604C210.058 41.604 210.454 41.5 210.79 41.292C211.126 41.084 211.386 40.784 211.57 40.392C211.762 40 211.858 39.536 211.858 39C211.858 38.456 211.762 37.992 211.57 37.608C211.386 37.216 211.126 36.916 210.79 36.708C210.454 36.5 210.058 36.396 209.602 36.396ZM221.665 36H222.325L220.285 42H219.685L217.789 36.78L215.929 42H215.329L213.289 36H213.949L215.641 41.28L217.501 36H218.113L219.985 41.28L221.665 36ZM225.623 42.12C225.015 42.12 224.475 41.996 224.003 41.748C223.539 41.5 223.211 41.144 223.019 40.68L223.535 40.332C223.679 40.732 223.935 41.044 224.303 41.268C224.679 41.484 225.135 41.592 225.671 41.592C226.199 41.592 226.611 41.488 226.907 41.28C227.211 41.072 227.363 40.796 227.363 40.452C227.363 40.22 227.287 40.02 227.135 39.852C226.991 39.676 226.715 39.544 226.307 39.456L224.903 39.156C224.327 39.036 223.915 38.844 223.667 38.58C223.427 38.308 223.307 37.98 223.307 37.596C223.307 37.276 223.403 36.988 223.595 36.732C223.787 36.476 224.051 36.272 224.387 36.12C224.731 35.96 225.131 35.88 225.587 35.88C226.187 35.88 226.683 36 227.075 36.24C227.467 36.472 227.743 36.824 227.903 37.296L227.399 37.62C227.279 37.196 227.055 36.888 226.727 36.696C226.407 36.504 226.027 36.408 225.587 36.408C225.251 36.408 224.955 36.46 224.699 36.564C224.451 36.66 224.255 36.796 224.111 36.972C223.975 37.14 223.907 37.336 223.907 37.56C223.907 37.792 223.987 38.004 224.147 38.196C224.307 38.38 224.591 38.516 224.999 38.604L226.439 38.916C227.007 39.036 227.403 39.22 227.627 39.468C227.851 39.708 227.963 40.008 227.963 40.368C227.963 40.728 227.867 41.04 227.675 41.304C227.483 41.568 227.211 41.772 226.859 41.916C226.507 42.052 226.095 42.12 225.623 42.12ZM232.09 42.12C231.538 42.12 231.046 41.996 230.614 41.748C230.182 41.5 229.842 41.144 229.594 40.68C229.354 40.208 229.234 39.648 229.234 39C229.234 38.352 229.354 37.796 229.594 37.332C229.842 36.86 230.174 36.5 230.59 36.252C231.006 36.004 231.482 35.88 232.018 35.88C232.562 35.88 233.026 36 233.41 36.24C233.794 36.48 234.09 36.816 234.298 37.248C234.506 37.672 234.61 38.164 234.61 38.724C234.61 38.796 234.606 38.868 234.598 38.94C234.598 39.004 234.594 39.064 234.586 39.12H229.606V38.58H234.322L234.022 38.664C234.014 37.976 233.83 37.428 233.47 37.02C233.118 36.612 232.63 36.408 232.006 36.408C231.574 36.408 231.194 36.512 230.866 36.72C230.538 36.92 230.282 37.216 230.098 37.608C229.914 37.992 229.822 38.456 229.822 39C229.822 39.536 229.914 40 230.098 40.392C230.29 40.784 230.554 41.084 230.89 41.292C231.234 41.492 231.63 41.592 232.078 41.592C232.542 41.592 232.938 41.492 233.266 41.292C233.602 41.092 233.862 40.816 234.046 40.464L234.526 40.74C234.382 41.028 234.19 41.276 233.95 41.484C233.71 41.684 233.434 41.84 233.122 41.952C232.81 42.064 232.466 42.12 232.09 42.12Z" fill="#032339"/>
<circle cx="28" cy="28" r="28" fill="white"/>
<path d="M35.5188 22.794C35.2622 21.269 34.5071 19.8772 33.3523 18.8211C32.0691 17.6465 30.401 17 28.6638 17C27.3214 17 26.0136 17.3849 24.8933 18.1104C23.9605 18.7125 23.1857 19.5268 22.6379 20.4843C22.401 20.4399 22.1542 20.4152 21.9075 20.4152C19.81 20.4152 18.1024 22.1228 18.1024 24.2202C18.1024 24.4917 18.132 24.7532 18.1814 25.0099C16.8242 25.9969 16 27.5861 16 29.2788C16 30.6459 16.5083 31.9735 17.4362 33.0247C18.3886 34.1006 19.6471 34.7372 20.9895 34.8112C21.0043 34.8112 21.0142 34.8112 21.029 34.8112H25.2733C25.6434 34.8112 25.9395 34.5151 25.9395 34.145C25.9395 33.7748 25.6434 33.4787 25.2733 33.4787H21.0487C19.0302 33.3553 17.3325 31.4355 17.3325 29.2739C17.3325 27.8772 18.0827 26.5743 19.2918 25.8686C19.5731 25.7057 19.6915 25.3652 19.583 25.0592C19.4843 24.7927 19.4349 24.5114 19.4349 24.2104C19.4349 22.8482 20.5453 21.7378 21.9075 21.7378C22.1986 21.7378 22.4849 21.7872 22.7514 21.8859C23.0771 22.0043 23.4374 21.8563 23.5854 21.5453C24.5083 19.5861 26.5022 18.3226 28.6687 18.3226C31.5805 18.3226 33.984 20.504 34.2603 23.3961C34.2899 23.6971 34.517 23.9389 34.8131 23.9883C37.0093 24.3634 38.6675 26.3917 38.6675 28.7064C38.6675 31.1592 36.7378 33.2912 34.359 33.4738H30.7218C30.3516 33.4738 30.0555 33.7699 30.0555 34.14C30.0555 34.5102 30.3516 34.8063 30.7218 34.8063H34.3837C34.3985 34.8063 34.4133 34.8063 34.4331 34.8063C35.9383 34.6977 37.3449 34.0068 38.3911 32.8519C39.4325 31.707 40 30.2363 40 28.7064C39.9951 25.9377 38.1049 23.475 35.5188 22.794Z" fill="#032339"/>
<path d="M31.9998 29.9104C32.2614 29.6489 32.2614 29.2294 31.9998 28.9678L28.4711 25.4391C28.3478 25.3157 28.175 25.2417 28.0023 25.2417C27.8296 25.2417 27.6568 25.3108 27.5335 25.4391L24.0048 28.9678C23.7432 29.2294 23.7432 29.6489 24.0048 29.9104C24.1331 30.0387 24.3058 30.1078 24.4736 30.1078C24.6414 30.1078 24.8141 30.0437 24.9425 29.9104L27.336 27.5168V38.5175C27.336 38.8876 27.6322 39.1837 28.0023 39.1837C28.3724 39.1837 28.6686 38.8876 28.6686 38.5175V27.5168L31.0621 29.9104C31.3188 30.172 31.7383 30.172 31.9998 29.9104Z" fill="#032339"/>
</svg>
