<svg width="25" height="26" viewBox="0 0 25 26" fill="none" xmlns="http://www.w3.org/2000/svg">
<g clip-path="url(#clip0_974_4636)">
<path d="M15.4459 10.0547C15.2427 9.85156 14.9125 9.85156 14.7094 10.0547C14.5063 10.2578 14.5063 10.5891 14.7094 10.7912C15.299 11.3808 15.625 12.1651 15.625 13.0005C15.625 14.7234 14.2229 16.1255 12.5 16.1255C11.6646 16.1255 10.8803 15.8005 10.2907 15.2099C10.0875 15.0068 9.75731 15.0068 9.55418 15.2099C9.35106 15.412 9.35106 15.7433 9.55418 15.9464C10.3396 16.7339 11.3865 17.1672 12.5 17.1672C14.7979 17.1672 16.6667 15.2985 16.6667 13.0006C16.6667 11.887 16.2334 10.8401 15.4459 10.0547Z" fill="white"/>
<path d="M13.226 8.90391C12.9896 8.86226 12.7479 8.83203 12.5 8.83203C10.2021 8.83203 8.33337 10.7008 8.33337 12.9987C8.33337 13.2466 8.3636 13.4883 8.40627 13.7247C8.45105 13.9768 8.67087 14.1549 8.91775 14.1549C8.94797 14.1549 8.97815 14.1528 9.0094 14.1466C9.29167 14.0966 9.48127 13.8257 9.43127 13.5434C9.399 13.3663 9.37502 13.1862 9.37502 12.9987C9.37502 11.2758 10.7771 9.87368 12.5 9.87368C12.6875 9.87368 12.8677 9.89765 13.0448 9.9289C13.3219 9.98515 13.5979 9.78931 13.6479 9.50703C13.6979 9.22476 13.5084 8.95391 13.226 8.90391Z" fill="white"/>
<path d="M24.876 12.6641C24.7583 12.5245 21.9406 9.23597 18.0542 7.22245C17.8021 7.09017 17.4844 7.19017 17.3521 7.44642C17.2198 7.70165 17.3198 8.0162 17.576 8.14852C20.5698 9.69852 22.9614 12.1173 23.7791 13.0006C22.5375 14.3454 17.651 19.2506 12.5 19.2506C10.7521 19.2506 8.99065 18.8287 7.26253 17.9954C7.00628 17.8694 6.69275 17.9787 6.56775 18.2381C6.44173 18.4965 6.5511 18.8079 6.81048 18.9329C8.68025 19.836 10.5948 20.2922 12.5001 20.2922C18.9178 20.2922 24.6365 13.6214 24.8771 13.337C25.0416 13.1432 25.0406 12.8589 24.876 12.6641Z" fill="white"/>
<path d="M15.9178 6.30703C14.7324 5.90806 13.5824 5.70703 12.5 5.70703C6.08232 5.70703 0.36358 12.3779 0.122956 12.6622C-0.0291436 12.8414 -0.0416436 13.1018 0.0938054 13.2966C0.16568 13.3997 1.88755 15.8445 4.87192 17.8268C4.96045 17.8862 5.05942 17.9143 5.15942 17.9143C5.32715 17.9143 5.49277 17.8331 5.59277 17.68C5.75214 17.4414 5.68652 17.1175 5.44692 16.9591C3.25527 15.5018 1.75528 13.7425 1.1938 13.0268C2.39278 11.7247 7.31152 6.74873 12.5 6.74873C13.4698 6.74873 14.5084 6.93208 15.5854 7.2935C15.8583 7.3914 16.1542 7.24038 16.2448 6.9664C16.3365 6.6935 16.1907 6.39873 15.9178 6.30703Z" fill="white"/>
<path d="M21.7219 3.77734C21.5188 3.57422 21.1885 3.57422 20.9854 3.77734L3.27715 21.4857C3.07402 21.6888 3.07402 22.019 3.27715 22.2221C3.37924 22.3232 3.51255 22.3742 3.64589 22.3742C3.77924 22.3742 3.91254 22.3232 4.01362 22.2221L21.7219 4.51382C21.925 4.31069 21.925 3.98047 21.7219 3.77734Z" fill="white"/>
</g>
<defs>
<clipPath id="clip0_974_4636">
<rect width="25" height="25" fill="white" transform="translate(0 0.5)"/>
</clipPath>
</defs>
</svg>
